<?xml version="1.0" encoding="utf-8"?>
<!-- Generator: Adobe Illustrator 25.2.3, SVG Export Plug-In . SVG Version: 6.00 Build 0)  -->
<svg version="1.1" id="layer" xmlns="http://www.w3.org/2000/svg" xmlns:xlink="http://www.w3.org/1999/xlink" x="0px" y="0px"
	 viewBox="0 0 100 100" style="enable-background:new 0 0 100 100;" xml:space="preserve">
<style type="text/css">
	.st0{fill:#19100A;}
</style>
<g>
	<path class="st0" d="M11.7,62.2v12.9c0,1.1-4.2,3.7-9,3.7H1V6.6l11.1,4.8h7.5L25,5.6l11,8.6c-0.7,0.8-2.2,1.7-4.3,2.2V68
		c-0.1,1-5.2,3.7-9.1,3.7h-1.8v-9.5C20.8,62.2,11.7,62.2,11.7,62.2z M11.7,14.5v44.7h9V14.5H11.7z M95.7,41.3
		c-0.7,1.1-1.8,1.4-4.5,1.7c-3.5,11.8-8.7,22.3-16.6,31.1C81.7,79.7,90,83.7,99,86.8L98.8,88c-5.3,0.8-9.4,4.5-11.6,10.4
		c-8.2-4.6-14.8-10-20.1-17c-9.2,7.4-21.1,13.3-36.6,17l-0.7-1.5c14-5.4,24.7-13,32.8-22.5c-4.9-8.6-8.2-19.5-10.2-33.5h-0.2
		c-2.8,22.3-10.6,41.9-34.7,56.8l-1.4-1.6C42,71.8,41.9,42.2,42,10.4h-9.4l-1-3.1h36.6l4.9-5.6l11.4,8.7c-1,1-1.8,1.3-3.9,1.6
		l-3,25.9h1l6.5-6.4L95.7,41.3z M53.8,10.4c-0.1,9.4-0.3,18.7-1.3,27.5h12.8l3.5-27.5C68.8,10.4,53.8,10.4,53.8,10.4z M54.3,40.9
		C57,52,61.7,60.7,67.8,67.5c5.3-7.8,9-16.9,11.3-26.6H54.3z"/>
</g>
</svg>
