<?xml version="1.0" encoding="utf-8"?>
<!-- Generator: Adobe Illustrator 25.2.3, SVG Export Plug-In . SVG Version: 6.00 Build 0)  -->
<svg version="1.1" id="layer" xmlns="http://www.w3.org/2000/svg" xmlns:xlink="http://www.w3.org/1999/xlink" x="0px" y="0px"
	 viewBox="0 0 100 100" style="enable-background:new 0 0 100 100;" xml:space="preserve">
<style type="text/css">
	.st0{fill:#19100A;}
</style>
<g>
	<path class="st0" d="M86.9,47.2c0,0,7.3,5.6,11.9,9.5c-0.3,1.2-1.5,1.7-3,1.7H69.1v26c0,8.3-2.2,14.2-17,15.3
		C51.9,95.8,51,92.8,49,91c-2.1-1.9-4.9-3.3-11.4-4.2v-1.4c0,0,13.9,0.8,16.7,0.8c2,0,2.7-0.8,2.7-2.2V58.4H31.6v13.4
		C31.3,72.5,25.8,75,22,75h-1.9v-9.5h-8V77c0,1.2-4.3,3.9-9.1,3.9H1.2v-71l11.3,4.9H19l5.5-6l9,7.1C49.9,12.4,70.5,5.6,81,0.3
		l12.4,12.3c-1.3,1-3.8,1-7-0.3c-4.9,1-10.8,1.8-17.3,2.5v40.6h11.2L86.9,47.2z M20.1,62.3V17.8h-8v44.5H20.1z M57,55.5V16.1
		c-7.2,0.6-14.5,1.1-21.5,1.2l0.3,0.2c-0.7,0.8-2.1,1.8-4.2,2.2v35.7L57,55.5L57,55.5z M36.7,23.7c25.8,13.9,13.6,34.9,3.8,24.8
		c0.4-8.2-2.2-17.5-5-24.5L36.7,23.7z M72.6,50.8c2.2-7.1,5-19,6.8-29l16.2,5.4c-0.5,1.4-1.8,2.2-4.2,2.1
		c-5,8.3-11.2,16.6-17.4,22.3L72.6,50.8z"/>
</g>
</svg>
