<?xml version="1.0" encoding="utf-8"?>
<!-- Generator: Adobe Illustrator 25.2.3, SVG Export Plug-In . SVG Version: 6.00 Build 0)  -->
<svg version="1.1" id="layer" xmlns="http://www.w3.org/2000/svg" xmlns:xlink="http://www.w3.org/1999/xlink" x="0px" y="0px"
	 viewBox="0 0 272 134" style="enable-background:new 0 0 272 134;" xml:space="preserve">
<style type="text/css">
	.st0{fill:#19100A;}
</style>
<g>
	<g>
		<path class="st0" d="M28.7,84.2c1.5-7.3,10.4-37.5,15.1-53.7l-2.2-0.7c-23.7,53.8-23.7,53.8-26.7,59c-1.4,2.8-2.1,2.8-4.1,2.8H4.6
			v2.8c2.9,0.3,5.2,0.8,7.1,2.2c3.4,2.1,3.9,15.3,1.4,30c1,5.5,4.2,7.4,7.4,7.4c6.7,0,11.3-4.6,11.6-11.8
			c0.4-12.5-5.2-17.5-5.5-25.1C26.6,93.7,27.5,88.8,28.7,84.2z M110.5,22.2H86.2c9.4-2.4,12-19.2-16.1-20L69,3
			c4.1,3.9,8,10.9,8.8,17.4c1.4,1,2.7,1.5,4.1,1.8H39l1.1,3.9h56.7c-1.4,7.1-4.1,16-7.4,22.7H58.1l-15.5-6.4V134H45
			c6.3,0,12.2-3.4,12.2-5V52.7h53.7v62.4c0,1.7-0.4,2.5-2.4,2.5S97.9,117,97.9,117v2c4.8,1,6.9,2.4,8.4,4.6c1.3,2.1,1.8,5.7,2,10.2
			c15.1-1.4,16.9-7,16.9-17.1v-62c2.8-0.4,4.5-1.5,5.3-2.5l-14.5-11l-6.6,7.6H93.9c6.3-4.3,12-9.5,15.7-13.7c2.8,0.4,4.6-0.6,5.3-2
			l-17.4-7h32.1c2,0,3.4-0.7,3.8-2.2c-5.5-5.3-14.8-13-14.8-13L110.5,22.2z M11.6,4.3l-1.1,0.8c4.8,5.2,10.4,13.2,12.2,20.6
			C37.5,35.6,50.1,7.3,11.6,4.3z M58.9,27.1l-1.5,0.8c3.2,4.5,7.3,11.9,8.3,17.9C77.5,54.5,89.8,32.5,58.9,27.1z M2.1,36.3L1,37.1
			C6,42,11.7,49.7,13.4,57C28.1,66.1,39.6,38.4,2.1,36.3z M102.1,108.9V88.4c2.1-0.3,4.1-1.3,4.9-2.4l-10.4-9.2l-5.5,5.7h-1.7V70
			h16.2c1.8,0,3.1-0.7,3.4-2.2c-3.8-3.8-10.4-9-10.4-9L93,66h-3.5v-7.3c3.2-0.6,4.3-1.8,4.6-3.6l-16.8-1.5V66H59.6l1,4.1h16.8v12.5
			h-0.3l-12-4.9v38.1h1.7c4.6,0,9.7-2.5,9.7-3.5v-4.5h14.1v5.9h2.1C98.4,113.6,102,109.9,102.1,108.9z M90.5,103.6H76.4v-17h14.1
			V103.6z M229,26.2c4.1,4.2,8.1,11.3,8.4,17.6c12.3,9.5,25.2-14.4-7.1-18.5L229,26.2z M173.5,21.6h35.1c1.8,0,3.2-0.7,3.6-2.2
			c-4.8-4.6-12.9-11.2-12.9-11.2l-7,9.5H176c1.3-2.1,2.5-4.3,3.8-6.7c3.2,0,4.9-1.1,5.6-2.9l-21.6-6.3c-5,18.9-14.6,37.5-23.8,49
			l1.5,1.3C153.4,45.1,164.4,35,173.5,21.6z M234.4,74.4c-5.2-4.6-13.6-10.9-13.6-10.9l-7.1,9.2h-33l1.1,3.9h48.8
			C232.6,76.6,234,75.9,234.4,74.4z M226,89.4h-40l-16.8-6.6V134h2.2c6.6,0,13.6-3.5,13.6-5v-5.6h42.4v9.5h2.7
			c5.2,0,13.3-2.9,13.4-3.9V95.7c2.7-0.6,4.3-1.7,5.2-2.7l-15.4-11.6L226,89.4z M227.4,119.3H185V93.4h42.4V119.3z M272.2,19.4
			c-5.3-4.9-14.3-11.8-14.3-11.8l-7.8,9.9h-20.9c1.4-2,2.7-3.9,3.9-6c3.2,0.3,5-0.8,5.6-2.5l-20.9-7.4c-2.9,13.6-9,27.4-15.1,36.1
			l-4.8-1.1c-5.7,14.4-30,34.9-52.8,45.1l0.8,1.8c26-6.9,53.5-22.3,66.1-36.9c9.1,15,27.4,26,48,32.2c0.7-5.7,4.5-12.3,10.8-14.3
			v-2.2c-19.3-1.8-44.1-7-56.5-17.2c4.2-0.4,5.7-1.3,6.3-2.9l-14.4-3.5c7.3-4.2,14-9.7,19.9-16.9h42.3
			C270.4,21.6,271.8,20.9,272.2,19.4z M173.1,24l-1.4,0.7c3.1,4.8,5.5,12.3,5,18.8C187.2,54.2,202.8,33.1,173.1,24z"/>
	</g>
</g>
</svg>
