<?xml version="1.0" encoding="utf-8"?>
<!-- Generator: Adobe Illustrator 25.2.3, SVG Export Plug-In . SVG Version: 6.00 Build 0)  -->
<svg version="1.1" id="layer" xmlns="http://www.w3.org/2000/svg" xmlns:xlink="http://www.w3.org/1999/xlink" x="0px" y="0px"
	 viewBox="0 0 800 100" style="enable-background:new 0 0 800 100;" xml:space="preserve">
<style type="text/css">
	.st0{fill:#19100A;}
</style>
<path class="st0" d="M0,15h17.3L15.6,0.4l15.6,1.1c-0.1,1.4-0.8,2.4-3.1,3L29.4,15H34l6.3-8.7c0,0,7,6,11.1,10.1
	C51.1,17.5,50,18,48.5,18H29.8l1.6,12.6c-1.7,2.3-6.4,3.3-11.9,3.3L17.6,18H0.8L0,15z M84.6,33.9c0,0,7.6,5.9,12.1,10.1
	c-0.2,1.2-1.4,1.7-2.9,1.7H45.1C42,50.5,38.2,55.1,34,59.6l4,1.6h29l5.7-6.4L84.8,64c-0.6,0.8-2,1.8-4.2,2.2v30.2
	c-0.1,0.7-6.4,3-10.4,3h-2.1v-7.8H36.6v4.7c0,0.8-3.8,3.6-10,3.6h-2.3V68.4C17.6,73.8,10,78.4,1.1,82l-0.8-1.2
	c13.4-9,23.9-22,31.2-35.1H3.1l-1-3.1H33c3-5.8,5.3-11.6,7-17l16.1,6.7c-0.5,1.2-1.6,1.9-4.2,1.7c-1.4,2.9-3.1,5.7-4.8,8.6h30.7
	L84.6,33.9z M36.6,64.3v24.3h31.5V64.3H36.6z M88.9,6.3c0,0,7,6,11.1,10.1c-0.3,1.2-1.4,1.7-3,1.7H77.4L75.3,31
	c-2.3,1.7-7.2,2.4-12.3,1.4L65.2,18H53.8L53,15h12.7L68,0.4l15.4,3.3C83,4.8,82.2,6,79.4,6l-1.5,9h4.8L88.9,6.3z"/>
<path class="st0" d="M100.2,25.7c27,3.5,17.2,23.4,7,15.9c-0.7-5.5-4.3-11.4-7.8-15.3L100.2,25.7z M131.5,17.1
	c-3.9,13.6-10.7,38.7-12.1,44.7c-0.7,3.7-1.4,7.5-1.4,10.3c0.1,5.7,4.5,9.5,4.1,19.2c-0.2,5.3-3.6,8.8-8.7,8.8
	c-2.4,0-4.9-1.5-5.6-5.4c2-11.1,1.5-21.2-1-22.9c-1.5-1.1-3.3-1.5-5.5-1.7v-2h4.8c1.5,0,1.9-0.1,3.1-2.2c2-4.1,2-4.1,20.6-49.1
	L131.5,17.1z M106.8,1.7c28.7,2.2,20.1,23.3,9,16.5c-1.6-5.6-6-12-9.9-15.9L106.8,1.7z M200,50.1c-0.8,0.7-1.9,1-4.1,1.1
	c-3.3,2.2-8.7,5.6-12.6,7.8l5.6,5.1c-0.7,1.1-1.8,1.4-4.3,1.7c-3.7,6.5-8.5,12-14.3,16.6c8.6,3,18.7,4.3,29.5,5.1v1.2
	c-5,1.5-8.2,5.5-9.3,11.4c-11.9-2.4-21.7-5.8-29.5-11.4c-10.1,5.6-22.5,9.4-37.2,11.3l-0.5-1.4c12.6-3.5,23.2-8.6,31.6-15.3
	c-4.9-5-8.6-11.4-11.3-19.7h-6.9l-0.8-3.1H171l7.1-6.5l3.8,3.4c0.5-2.4,1.3-5.7,1.8-8.6h-44.6c1.2,19.7-20.5,14.5-12,3.8
	c4.1-1.9,7.8-6.1,9-12.6l1.3,0.1c0.6,2,1.1,3.9,1.3,5.6H183l6.3-6.3L200,50.1z M192.5,12.5c0,0,5.4,5.2,8.3,8.6
	c-0.2,1.2-1.3,1.7-2.8,1.7h-11.6v14.8c-0.1,0.7-5.9,3.1-9.9,3.1h-2.1v-4.5h-36.7l-1-3h37.6V22.8h-41.8l-0.8-3.1h42.6v-10H138l-1-3
	h36.6L179,1l10.9,8.4c-0.5,0.6-1.6,1.4-3.4,1.7v8.7h1.7L192.5,12.5z M145.6,63.6c3.6,6.4,8.7,11.1,14.9,14.6
	c4.3-4.3,7.7-9.2,10.3-14.6H145.6z"/>
<path class="st0" d="M222,16.9h-21.3l-0.8-3h21.6l-2-13l15.6,0.7c-0.1,1.4-0.8,2.5-3,3.1l1.6,9.2h0.6l5.9-8.2c0,0,6.7,5.6,10.6,9.4
	c-0.3,1.2-1.3,1.7-2.8,1.7h-14l1.4,8.3c-1.7,2.4-6,3.5-11.7,3.5c9.9,5.5,3.9,16-4.5,11.9c-2.2-5-7.2-10.8-10.8-14.4l1-0.6
	c6.5,0.1,11.1,1.4,14.2,3.1L222,16.9z M203.1,41.5c26.7,1.2,18.2,20.9,7.7,14.4c-1.2-4.9-5.2-10.4-8.6-13.7L203.1,41.5z M235.5,37
	c-3.9,9.3-11.6,27.2-13,31.2c-1,2.9-1.8,6.3-1.8,8.6c0.2,4.7,4.5,7.5,4,15.3c-0.2,4.7-3.7,7.7-9.1,7.7c-2.4,0-4.8-1.6-5.6-4.9
	c1.6-9.3,1.2-17-1.2-18.4c-1.5-0.8-3.1-1.3-5.3-1.5v-2h5.1c1.7,0,2.1,0,3.5-1.9c2.7-3.5,2.7-3.5,21.9-34.5L235.5,37z M272.9,26.2
	c-2.2,1.7-6.9,2.4-11.8,1.5c-0.4,0.7-1.4,1.2-3.7,0.8c-0.7,1.3-1.7,2.5-2.5,3.8h16.3l7-6.3l10.7,9.5c-0.7,1.1-1.9,1.4-4.6,1.6
	c-3.9,5.4-8.8,10.4-14.5,14.7c8.7,2.9,18.6,4.6,27.9,5.5v1.3c-4.6,1.2-7.4,5-8.6,10.5c-3.3-0.8-6.5-1.8-9.5-2.9l7.4,5.5
	c-0.5,0.7-1.7,1.5-3.4,1.8v22.8c-0.1,0.7-6.1,2.9-10,2.9h-2.1v-6.1h-21v3.3c0,0.8-3.8,3.6-9.9,3.6h-2.2V67.8
	c-4,1.3-8.2,2.3-12.4,3.3l-0.7-1.5c10.9-4.2,21.3-10.1,29.9-17.1c-3.3-3-6.1-6.4-8.5-10.3c-4.9,5-10.5,9.5-16.5,12.7l-1-1
	c7.2-7.4,14.1-20.5,17.1-31.4l14.6,4.5l1.4-10.2h-8.7l-0.8-3h10L264.6,1l15.5,2.9c-0.3,1.3-1.3,2.4-4.1,2.5l-1.2,7.5h8.9l6-8.3
	c0,0,6.7,5.7,10.6,9.5c-0.3,1.2-1.4,1.7-2.9,1.7h-23.1L272.9,26.2z M275,64.7c-4.9-1.9-9.4-4.2-13.6-7.1c-5.4,3.3-11.6,6.3-18.1,8.5
	l8.7,3.2h18.6L275,64.7z M252.6,35.3c-1.3,1.6-2.5,3.2-4,4.8c3.2,3.1,7.1,5.7,11.7,8c4.1-4,7.7-8.3,10.5-12.7L252.6,35.3L252.6,35.3
	z M271.5,90.2V72.3h-21v17.9C250.5,90.2,271.5,90.2,271.5,90.2z"/>
<path class="st0" d="M493.2,83.4c5.4,1.6,7.2,2.3,7.2,5c0,5.6-4.7,9.2-25.7,9.2h-37.5c-15.8,0-23-3.9-23-17.1V37.6
	c-4.2,3.4-8.8,6.5-13.4,8.9l-1-1C411.6,35,423.1,15.9,428.4,0l17.4,4.2c-0.4,1.3-1.3,1.7-4.1,1.6c-1.4,2.4-3,4.9-4.7,7.3h18l6.6-6.7
	l11.6,10c-0.7,1-2,1.3-4.2,1.5c-4.6,4.2-11.3,9.8-17.8,13.4h23l5.8-6.5l12.4,9.4c-0.7,0.8-2.2,1.9-4.6,2.3v27.6
	c-0.1,0.8-6.3,3.3-10.5,3.3h-2v-7h-48.8v20.5c0,3.9,3,5.1,10.2,5.1h36.9c6.5,0,9.4-0.4,11.7-2.9c1.9-2.3,4.8-8.9,6.7-14.6h1.2V83.4z
	 M434.8,16.2c-3.4,4.6-7.3,9.1-11.6,13.3l4.7,1.8h20.4c2.7-4.2,5.3-10.5,7-15.1C455.3,16.2,434.8,16.2,434.8,16.2z M426.5,57.3h18
	v-23h-18V57.3z M456.5,34.3v23h18.8v-23H456.5z"/>
<path class="st0" d="M546.2,23.7c-0.7,1-2.3,1.8-4.5,2.2v63.2c-0.1,0.8-5.7,3.5-9.9,3.5H530v-8.4h-16V92c0,1.4-4.5,4-9.5,4h-1.9
	V15.9l11.9,5h0.6c0.7-5.8,1.7-14.1,2.2-20L534.4,5c-0.4,1.8-1.9,2.5-4.3,2.5c-2.8,3.7-6.9,9.2-10.3,13.4h9.2l5.6-6.4L546.2,23.7z
	 M514,24v26.3h16.1V24H514z M530.1,81.2V53.3H514v27.9H530.1z M597.9,23.7c-0.8,1-2.2,1.7-4.7,2c-0.7,42.7-2.2,62.1-8.1,68.4
	c-3.8,4-8.5,5.7-15.5,5.7c0-4-0.5-7-2.3-8.7c-1.9-2-6-3.7-11.2-4.7l0.1-1.5c5.1,0.4,12.4,1,15.2,1c1.9,0,2.9-0.4,3.9-1.4
	c3.9-3.6,5-24.7,5.7-60.8h-19.7c-5.1,9-11.1,16.5-17.9,22.3l-1.4-0.8c5.8-10.8,11.6-28.1,14.3-44.3L573,5.8
	c-0.4,1.4-1.7,2.1-4.1,2.1c-1.8,4.6-3.7,8.8-5.9,12.8h16.9l6.7-6.9L597.9,23.7z M551.1,42.2c31,9.1,19.4,32,8.2,22.6
	c-0.5-7.5-4.8-16.1-9-21.9L551.1,42.2z"/>
<path class="st0" d="M601,26.1c27.1,3.6,17.5,23.3,7.2,15.9c-0.8-5.5-4.7-11.6-8.1-15.3L601,26.1z M700.3,12.6c-0.8,1-1.9,1.3-4,1.4
	c-3.5,3-9.5,7.8-13.4,10.6l-1.1-0.5c0.5-3.2,1.6-8.5,2.2-12.5h-44.4c2.2,16.3-8.8,18-11.9,13.4c-2.6,11.6-7.2,32.4-8.2,37.6
	c-0.6,3.3-1.1,6.9-1.1,9.5c0.3,5.7,4.6,9.6,4.2,19.1c-0.2,5.4-3.8,8.9-8.8,8.9c-2.3,0-4.9-1.5-5.6-5.5c1.9-11,1.6-21.2-0.8-22.9
	c-1.4-1-3.1-1.4-5.3-1.6v-2h4.6c1.5,0,2-0.1,3-2.2c2-3.7,2-3.7,16.4-41.6l1.4,0.2c-1-1.7-0.7-4.2,1.5-7.2c3.8-2.3,6.4-7.1,6.8-15.3
	h1.5c0.8,2.3,1.4,4.6,1.8,6.6h44.3l6.1-6.3L700.3,12.6z M608.1,1.8c27.9,5.5,16.7,25.2,6.5,17c-0.7-5.8-4.2-12.1-7.4-16.3L608.1,1.8
	z M666.6,58.2c7.1,11.7,20,20.6,32,25l-0.2,1.2c-4.7,1-8.3,5-9.9,11.1c-10.6-7.5-18.2-19.1-23.1-34v35.3c0,1.1-5.3,3.3-9.9,3.3h-2.2
	v-27c-7.4,9.3-17.4,17.1-29,23.1l-1.1-1.4c11-9.4,19.4-23.3,24.4-36.6h-20.4l-0.8-3h26.9V41l15.7,1.4c-0.2,1.5-1,2.4-3.6,2.9v10H679
	l6.6-8.9c0,0,7.4,6,11.9,10.2c-0.3,1.2-1.4,1.7-2.9,1.7h-28V58.2z M660.6,15.6c-0.2,1.2-1.1,2.2-3.3,2.5c-1.2,11.4-2.9,22.2-26.9,29
	l-1.1-1.5c16.3-8.5,16.3-19,16.5-31.4L660.6,15.6z M680.2,16c-0.2,1.4-1.2,2.2-3.1,2.5v12.7c0,1.2,0.3,1.5,2,1.5h4.5h4
	c0.6,0,1.7-0.1,2.2-0.2c0.5,0,1.6-0.2,2.2-0.4h1.1l0.5,0.1c2.7,1.2,3.5,2,3.5,3.9c0,4-3.8,5.5-14.9,5.5h-6.4c-8.1,0-9.1-2.1-9.1-8.4
	V14.8L680.2,16z"/>
<path class="st0" d="M787.5,46.6c0,0,7.8,6.1,12.5,10.4c-0.2,1.2-1.5,1.7-3,1.7h-23.9v36.7c0,1.4-5.5,4.5-10.1,4.5h-2.4V58.6h-21.9
	c-2.2,18.4-11,32.9-33.3,41.3l-0.8-1.1C719,88.5,725,75.2,726.4,58.5h-25l-0.8-3h26.1c0.1-2.1,0.2-4.2,0.2-6.5V29.8H705l-1-3.1h22.9
	V1.2l16.2,1.6c-0.2,1.5-1.1,2.5-3.8,3v21h21.4V1.1l16.4,1.7c-0.2,1.5-1.1,2.5-3.9,3v21h5.7l6.6-8.6c0,0,7.3,5.9,11.9,10
	c-0.3,1.2-1.5,1.7-3,1.7h-21.2v25.9h7.3L787.5,46.6z M760.7,55.7V29.8h-21.4v19.4c0,2.2-0.1,4.3-0.3,6.5
	C739,55.7,760.7,55.7,760.7,55.7z"/>
<g>
	<path class="st0" d="M309.9,70.6c5.3,13.3,0.7,22.5-5.2,25.2c-3.9,1.9-8.7,0.6-10-3.6c-1.1-3.9,1.5-6.9,5-8.4
		c4.3-1.9,8.9-6.8,8.7-13.1L309.9,70.6z M323.5,50.1v11h51.1l6.1-5.9l10.9,9.1c-0.7,0.8-2,1.5-4.2,1.8c-1.3,17.7-3.9,27-9.2,30.6
		c-3.3,2.3-7.3,3.4-12.9,3.4c0-3.4-0.3-6.3-1.9-8c-1.5-1.8-4.7-3.1-8.6-3.9l0.1-1.4c3.5,0.3,9.8,0.6,11.9,0.6c1.7,0,2.5-0.1,3.4-0.8
		c2.3-1.8,4.1-9.5,5.3-22.5h-51.9v0.8c0,1.4-5.3,4.2-10.6,4.2h-1.9V9.2l13.3,5.3h11c0.8-4,1.8-10.3,2.3-14.5l18.2,2.9
		c-0.4,1.9-1.9,2.8-4.2,2.9c-2.6,2.5-6.9,6.1-10.2,8.8H361l5.7-6.4l12.1,9.1c-0.6,0.8-2.1,1.9-4.2,2.3v17.6
		c-0.1,0.8-6.3,3.2-10.5,3.2h-2v-4.5h-38.6V47h51l7-8.7c0,0,7.7,5.9,12.6,10.1c-0.3,1.2-1.4,1.7-3,1.7
		C391.1,50.1,323.5,50.1,323.5,50.1z M320.4,70.2c20.6,13.6,6.5,30.5-1.4,20.2c1.6-6.7,1.4-14.1,0.1-19.8L320.4,70.2z M323.5,17.5
		v15.4H362V17.5H323.5z M334.3,69c25.3,7.3,14.6,26.2,5.2,17.9c-0.1-5.9-3.2-12.8-6.3-17.3L334.3,69z M349.6,66.7
		c25.7,0.1,19.1,19.6,8.9,14c-1.2-4.7-5.6-10.2-9.8-13.1L349.6,66.7z"/>
</g>
</svg>
