<?xml version="1.0" encoding="utf-8"?>
<!-- Generator: Adobe Illustrator 25.2.3, SVG Export Plug-In . SVG Version: 6.00 Build 0)  -->
<svg version="1.1" id="layer" xmlns="http://www.w3.org/2000/svg" xmlns:xlink="http://www.w3.org/1999/xlink" x="0px" y="0px"
	 viewBox="0 0 300 100" style="enable-background:new 0 0 300 100;" xml:space="preserve">
<style type="text/css">
	.st0{fill:#19100A;}
</style>
<path class="st0" d="M76.1,72.4c0,1-4.6,3.2-8.6,3.2h-2.1V20.7c-0.5,0.4-1.3,0.6-2.1,0.6H54v9.6c0,0.4-1.6,1.4-3.5,2.1
	c1.8,1.5,5.7,4.5,8.4,6.9c-0.3,1.2-1.3,1.7-2.8,1.7H51c1,0.7,6.6,5,10.3,8.2c-0.3,1.1-1.5,1.6-2.9,1.6H47.7L57.9,59
	c-0.5,0.6-1.9,1.5-3.7,1.9v18.5c-0.1,0.7-5.4,2.8-8.9,2.8h-1.9v-2.3H16.2v1c0,0.7-3.3,3-8.6,3H5.8v-32l11.8,4.6h24.7l4.8-5H0.8
	l-0.8-3h23.8v-6.8h-20L3,38.6h20.8v-6.9H6.1l-1-3h18.7v-7.3h-23l-0.8-3h23.8v-7.2H6.6l-1-3.1h18.2V0.3l13.9,1.3
	c-0.2,1.4-1,2.3-3.1,2.8v3.8h8l4.8-5l10,7.5c-0.5,0.6-1.7,1.3-3.4,1.6v6.2h0.8l4-5.7c0,0,3.9,3.6,6.6,6.5V9.6L79.9,11
	c-0.3,1.4-1.1,2.3-3.7,2.8v58.6H76.1z M0.2,86.5c10.6-0.2,35.5-1.3,61.6-2.8l0.1,1.5c-11.6,3.4-28.1,7.2-52.8,12.3
	c-0.7,1.4-1.9,2.2-3.1,2.4L0.2,86.5z M16.2,59.5v7h8.4v-7H16.2z M16.2,76.8h8.4v-7.3h-8.4V76.8z M34.6,18.4h8.8v-7.2h-8.8V18.4z
	 M43.4,21.4h-8.8v7.3h8.8V21.4z M48,33.8c-1,0.2-1.9,0.3-2.8,0.3h-1.8v-2.4h-8.8v6.9h9.6L48,33.8z M50.8,41.7H34.6v6.8h10.6
	L50.8,41.7z M34.6,59.5v7h8.7v-7H34.6z M43.3,76.8v-7.3h-8.7v7.3H43.3z M99.3,3.3c-0.2,1.6-1.3,2.5-3.9,3v79.2
	c0,8.3-1.7,12.9-15.3,14.1c-0.3-3.7-1-6.4-2.7-8.2c-1.8-1.9-4.4-3.2-9.8-4V86c0,0,11.7,0.7,14.1,0.7c1.8,0,2.3-0.6,2.3-2v-83
	L99.3,3.3z"/>
<path class="st0" d="M137.6,84.2c-0.1,0.8-5.3,2.9-8.9,2.9h-1.8v-6.2h-8.7V90c0,0.8-3.3,3.3-8.7,3.3h-1.8V58.5
	c-2.2,3.3-4.7,6.5-7.3,9.5l-1.5-1.1c7.3-14.9,11.1-34.9,13-54.1H100l-0.8-3.1h28.1l6.2-7.8c0,0,6.8,5.3,11.2,9.1
	c-0.3,1.2-1.4,1.7-3,1.7h-17.5c-1.3,9.8-3.6,18.8-6.8,27.3l2.2,0.8h6.3l5.2-5.6l10.7,8.3c-0.7,0.7-2.1,1.6-4.1,1.9L137.6,84.2
	L137.6,84.2z M126.8,77.8V43.9h-8.7v33.9H126.8z M196.9,45.3c-0.8,1.1-1.9,1.4-4.4,1.7c-3,10.9-7.3,20.8-14.1,29.3
	c6.4,5.2,13.9,9,22.2,12l-0.2,1.2c-5.2,0.8-9.2,4.5-11.3,10.3c-7.3-4.5-13.2-9.5-17.8-16c-7.9,6.9-17.9,12.4-31.3,16.1l-0.8-1.4
	c12.1-5.4,21.2-12.7,27.9-21.7c-4.1-8.3-7-18.5-8.7-31.8H155v1.5c0,17.2-1.4,38.4-21.1,52.3l-1.2-0.8C143.1,83.2,144,64.5,144,46.7
	V14l12.7,4.7h7.3V1l15,1.3c-0.2,1.6-1.2,2.7-3.9,3.1v13.3h8.4l5.8-6.1l10.5,10.1c-0.8,0.8-1.9,1.1-4,1.3c-3.2,3.4-8.6,8.3-12.7,11.2
	l-1.1-0.6c0.9-3.4,1.7-8.6,2.2-12.7h-9.1V42h5l6.3-6.2L196.9,45.3z M155,42h9.1V21.7H155V42z M160.3,45.1
	c2.3,10.2,6.3,18.2,11.6,24.5c4.2-7.3,7.1-15.6,8.9-24.5H160.3z"/>
<path class="st0" d="M298.3,86.5c2.2,6.4,2.3,11,0.2,12.4c-4.9,3.1-10-0.6-13.2-5.5c-10.2-13.4-10.4-49.9-9.9-81.5h-52.8v24.5
	c0,19.6-1.2,45.8-21.8,63.1l-1.3-0.8c10.2-18.4,10.9-41.5,10.9-62.1V3.9l14,5h49.7l6.4-7.2L292.6,12c-0.6,0.8-2.1,1.6-4.8,2.1
	c-1.6,20.6-1.1,57.2,5.1,65.4c0.9,1.1,1.5,1,2-0.5c1.3-3.7,2.4-7.9,3.3-12l1.1,0.1L298.3,86.5z M261.2,69.3
	c27.3,13,15.6,34.1,5.7,24.4c0-3.2-0.5-6.6-1.4-10c-9.2,2.8-21.8,6.1-38.8,10c-0.6,1.4-1.9,2.1-3.1,2.3l-6.2-13.6
	c5.4-0.1,14.8-0.3,25.8-0.8V64.5h-6.9v3.7c0,0.9-4.2,2.9-8.2,2.9h-1.4V34.8l10.1,4.1h6.4V25.1h-18.1l-0.8-3H259l5.2-7.9
	c0,0,6.1,5.5,9.5,9.1c-0.3,1.2-1.4,1.7-2.8,1.7h-16.8v13.8h6.1l4.5-4.7l9.5,7.1c-0.4,0.6-1.7,1.3-3.3,1.6v22.9c0,0.6-5,2.5-8.1,2.5
	h-1.7v-3.9h-6.9V81l10.4-0.5c-1.3-3.9-3-7.6-4.7-10.8L261.2,69.3z M243.4,61.4V42h-6.9v19.4H243.4z M254.3,42v19.4h6.9V42H254.3z"/>
</svg>
