<?xml version="1.0" encoding="utf-8"?>
<!-- Generator: Adobe Illustrator 25.2.3, SVG Export Plug-In . SVG Version: 6.00 Build 0)  -->
<svg version="1.1" id="layer" xmlns="http://www.w3.org/2000/svg" xmlns:xlink="http://www.w3.org/1999/xlink" x="0px" y="0px"
	 viewBox="0 0 200 100" style="enable-background:new 0 0 200 100;" xml:space="preserve">
<style type="text/css">
	.st0{fill:#19100A;}
</style>
<path class="st0" d="M43.2,76.3C35.5,81.5,24.7,87.9,9.1,95c-0.4,1.4-1.5,2.4-2.8,2.9L0.5,84c1.3-0.2,2.6-0.4,4.2-0.6V49.1l11.7,1.1
	c-0.2,1.1-0.6,1.8-2.4,2.1v29.5l4.1-0.8V36.2h-2.4V38c0,0.8-3.3,3.1-8.6,3.1H5.3V2.6l11.8,5.6h11.3l4.9-5.4l10.6,7.9
	c-0.5,0.8-2,1.7-4,2.1V37c-0.1,0.6-5.3,2.5-8.7,2.5h-1.7v-3.4h-1.2v20h1.2l5.1-7.7c0,0,5.7,5.4,8.8,9.1c-0.3,1.2-1.4,1.7-2.6,1.7
	H28.3v19.4c4.9-1.1,9.9-2.3,14.7-3.5L43.2,76.3z M15.7,32.9h13.8V11.2H15.7V32.9z M77.6,54.5c5.3,12,14.9,21.7,24.2,27.2l-0.3,1.1
	C97,83.6,93.8,87.2,92,93c-6.9-8-12-19.5-15.4-33.4v36.9c0,1.1-5.4,3.4-9.6,3.4h-2.3V71.5c-6.6,8.9-15.4,16.4-26.4,22.3l-1.1-1.3
	c11-9.8,18.8-24,22.8-38H42.1l-0.8-3h23.4V40.4l15.2,1.4c-0.2,1.3-0.8,2.2-3.2,2.5v7.2H85l5.7-8.2c0,0,6.7,5.6,10.6,9.4
	c-0.3,1.2-1.4,1.7-2.9,1.7L77.6,54.5L77.6,54.5z M98.6,12.4c-1.3,1.1-3.8,1.2-7.1-0.2c-12,2.2-30.9,3.8-47.2,3.8L44,14.7
	C58.5,11.4,76.9,5,86.2,0.2L98.6,12.4z M46,20.2c23.1,9.2,11.9,26.3,3.3,18c0.2-6-2.1-12.8-4.5-17.6L46,20.2z M61.8,17.4
	c25,8.2,13.6,26.3,4.2,17.7c-0.1-5.7-2.9-12.6-5.3-17.2L61.8,17.4z M78.9,38.8c2.5-7,5.7-17.6,6.8-22.9l14.8,6.5
	c-0.3,1-1.7,2-3.9,1.6C93,27.8,86.2,34.7,79.9,39.2L78.9,38.8z"/>
<path class="st0" d="M132.9,48.8c0,0,5.3,5.2,8.3,8.8c-0.2,1.2-1.3,1.7-2.6,1.7h-10.9v20.3c4-0.8,8.3-1.7,12.4-2.6l0.3,1.3
	c-7.5,4.2-19.2,10.3-35.3,17.6c-0.4,1.4-1.6,2.3-2.8,2.8l-4.6-13.4c1.4-0.2,3.3-0.5,5.5-0.8v-38l11.2,1.2c-0.1,1-0.7,1.7-2.4,2v33.1
	l5.1-1V36.5h-3.2v2.8c0,0.8-3.3,3.1-8.6,3.1h-1.8V3.5l11.7,4.6h10.7l5.1-5.4l10.6,7.9c-0.6,0.8-2.1,1.7-4.1,2.1V38
	c-0.1,0.6-5.3,2.6-8.7,2.6h-1.2v15.5h0.5L132.9,48.8z M127,33.5V11.1h-13v22.5L127,33.5L127,33.5z M199.5,16.9
	c-0.5,0.8-1.5,1.3-3.8,0.7c-3.4,2.1-9.7,5.1-14.6,7.4c5.3,6.6,12.2,10.2,19,12.6l-0.1,1.1c-4.2,1.3-7.4,5.5-8.6,11.1
	c-9.6-7.9-15-17.5-17.9-35.7v27.4c0,7.5-1.6,11.4-13.7,12.5c-0.2-3.1-0.6-5.4-1.9-7.1c-1.4-1.4-3.3-2.5-7.6-3.3v-1.5
	c0,0,8.5,0.6,10.3,0.6c1.6,0,2-0.4,2-1.7V21c-0.5,0.1-1.2,0.2-2,0.3c-2.9,11-10.3,20.9-23.4,26.7l-0.8-1.5
	c8.3-6.5,12-16.1,13.5-26.1H140l-1-3.1h10l5.4-5.4l8.1,6.6v-18L176.8,2c-0.2,1.5-0.8,2.2-3.4,2.6v3.8c1.4,5.8,3.4,10.5,5.9,14.3
	c2.9-4.7,6.1-10.8,8.1-14.5L199.5,16.9z M184.2,50.7l10.8,8.4c-0.6,1-1.7,1.6-4,2v35.7c0,0.5-3.8,2.6-10,2.6h-2v-6.8h-23.9v4.2
	c0,0.8-3.6,3-9.5,3h-2V52.3l12.7,4.9h22.4L184.2,50.7z M155.1,60.2v12.9H179V60.2H155.1z M179,89.7V76.1h-23.9v13.6H179z"/>
</svg>
