<?xml version="1.0" encoding="utf-8"?>
<!-- Generator: Adobe Illustrator 25.2.3, SVG Export Plug-In . SVG Version: 6.00 Build 0)  -->
<svg version="1.1" id="layer" xmlns="http://www.w3.org/2000/svg" xmlns:xlink="http://www.w3.org/1999/xlink" x="0px" y="0px"
	 viewBox="0 0 200 100" style="enable-background:new 0 0 200 100;" xml:space="preserve">
<style type="text/css">
	.st0{fill:#19100A;}
</style>
<path class="st0" d="M86.1,8.3c0,0,6.9,5.6,11.3,9.4c-0.3,1.1-1.4,1.6-2.9,1.6H29.1v21.5c0,18.5-2.1,42.3-27,57.1l-1-0.9
	c11.5-12.9,15.1-28.3,16.1-43.8c-2.3,4.1-5.3,9.1-8.7,14.6c0,1.3-0.6,2.8-1.8,3.7L0,58.6c2.9-1.6,10.1-5.9,17.5-10.8
	c0.1-2.3,0.1-4.6,0.1-6.8V10.7L31,16.5h25.2l-0.7-0.4c-1.1-5-4.7-10.4-7.9-13.5L48.2,2C68.3,2,69,13.1,63.4,16.5h16.4L86.1,8.3z
	 M3.1,20.2c21.6,11.3,11.5,28.6,3.5,20.4C7.1,34,4.8,26.1,1.9,20.7L3.1,20.2z M82.4,37.4l11.1,8.2c-0.6,0.8-1.9,1.7-4,2.1v36.4
	c0,7.7-1.4,12.1-13.1,13c-0.2-3.5-0.5-6.2-1.5-7.9c-1-1.6-2.5-2.8-6.1-3.5v-1.5c0,0,6.3,0.5,7.9,0.5c1.4,0,1.7-0.6,1.7-1.8v-9.5
	H66.1v18.4c0,0.6-3.3,2.6-8.6,2.6h-1.8v-21H43.4v20.1c0,1.2-4.6,3.6-9.2,3.6h-1.7V38.3L44.1,43h15.4c-2.4-3-7.6-7.3-14.2-10.4
	l0.4-1.3c10.7-1.2,16.9,0.7,19.8,3.5c2.5-2,5.2-4.2,7.4-6.1h-40L32,25.8h42.8l6.3-6l10.4,10c-0.9,0.8-1.9,1-4.3,1.1
	c-5,2.2-12.8,4.8-19.6,6.6c0.7,2.1,0.2,4.3-1.1,5.6h11L82.4,37.4z M43.4,45.9v10.8h12.3V45.9H43.4z M55.7,70.4V59.5H43.4v10.9H55.7z
	 M66.1,45.9v10.8h12.3V45.9H66.1z M78.4,70.4V59.5H66.1v10.9H78.4z"/>
<path class="st0" d="M188.7,8.3c0,0,6.9,5.6,11.3,9.4c-0.3,1.1-1.4,1.6-2.9,1.6h-48.5l13.9,6.1c-0.4,0.9-1.4,1.2-3.5,1
	c-0.8,1.5-1.7,3-2.7,4.6h17l6.6-6l10.4,9.2c-0.8,1-1.8,1.3-4.3,1.5c-3.7,5.8-8.3,11.1-14,15.7c8.5,3.4,18.2,5.5,27.6,6.7l-0.1,1.2
	c-4.5,1.1-7.5,4.8-8.7,10.4c-10.2-3-19.1-7.1-26.4-12.8c-9.4,6-20.8,10.6-34,13.4l-0.7-1.3c11.1-4.3,21-10.1,29-17.3
	c-3.5-3.6-6.4-7.8-8.8-12.7c-4.8,5.3-10.6,10.3-16.6,13.8l-0.9-1.1c7.5-8.7,13.6-22.6,16-32.5h-16.6v21.5c0,18.6-2.1,42.4-27,57.1
	l-1-0.9c11.5-12.8,15.1-28.3,16.1-43.8c-2.3,4.2-5.3,9.1-8.7,14.6c0,1.3-0.6,2.8-1.8,3.7l-6.7-12.9c2.9-1.6,10.1-6,17.5-10.9
	c0.1-2.3,0.1-4.6,0.1-6.8V10.7l13.4,5.8h25.2l-0.7-0.4c-1.1-5-4.7-10.4-7.9-13.5L151,2c20,0,20.7,11.1,15.2,14.5h16.4L188.7,8.3z
	 M105.7,20.2c21.7,11.4,11.5,28.6,3.5,20.4c0.5-6.5-1.8-14.5-4.7-19.9L105.7,20.2z M141.8,81.1c47.8-4.8,45,19.1,33,16.3
	c-5.5-4.3-18.3-11-33.2-14.9L141.8,81.1z M154.2,34c-0.9,1.1-1.8,2.2-2.8,3.4c3.1,4,7.2,7.2,12,10c4-4.2,7.1-8.6,9.6-13.3h-18.8V34z
	 M153.4,64.5c29.1-2,23.9,17.7,14.4,13.7c-2-3.3-7.4-8.6-15-12.4L153.4,64.5z"/>
</svg>
