<?xml version="1.0" encoding="utf-8"?>
<!-- Generator: Adobe Illustrator 25.2.3, SVG Export Plug-In . SVG Version: 6.00 Build 0)  -->
<svg version="1.1" id="layer" xmlns="http://www.w3.org/2000/svg" xmlns:xlink="http://www.w3.org/1999/xlink" x="0px" y="0px"
	 viewBox="0 0 100 100" style="enable-background:new 0 0 100 100;" xml:space="preserve">
<style type="text/css">
	.st0{fill:#19100A;}
</style>
<g>
	<path class="st0" d="M91.5,86.9c0,0,5.3,5.4,8.2,9c-0.2,1.2-1.3,1.7-2.6,1.7H1.2l-0.8-3.1h10.4V68.4L1.9,63c0.8-1,2-2,3.2-2.6V4.9
		l11.6,5.7h15.5l5.7-7.1c0,0,6.4,4.9,10.3,8.5c-0.3,1.2-1.4,1.7-2.9,1.7H31v13.1h2.9l4.3-4.3l8.9,6.7c-0.4,0.4-1.4,1-2.7,1.3v16.4
		c0,0.8-5,2.8-8.2,2.8h-1.7v-3.3h-3.7v14.8h2.4l5.4-7.3c0,0,6.3,5.1,10.1,8.6c-0.3,1.2-1.4,1.7-2.8,1.7H16l-2.2,3.5L24,71.6h50.2
		l5.5-5.6l11,8c-0.5,0.6-1.6,1.4-3.3,1.7v18L91.5,86.9z M21.8,26.8V13.7h-6.6v13.1H21.8z M15.2,29.9v13.5h19.4V29.9H15.2z
		 M21.8,46.3h-6.6v14.8h6.6V46.3z M22.7,94.6h9.8v-20h-9.8V94.6z M43.8,74.5v20h10v-20H43.8z M45.1,27.3c4.1-5.9,7.4-16.1,8.9-24.9
		l15,4.1c-0.3,1.3-1.6,2.2-3.9,2.2c-0.8,1.7-1.8,3.4-3,5h19.4l5.9-7.1c0,0,6.4,4.7,10.5,8.5c-0.3,1.2-1.5,1.7-2.9,1.7H59.9
		c-3.7,4.6-8.4,8.7-13.6,11.4L45.1,27.3z M84.5,68v-4H57.7v2.4c0,0.6-2.9,2.7-7.4,2.7h-1.6V27.9L59.1,32h6.7V16.9L79.1,18
		c-0.2,1.3-0.8,2.1-3,2.4v2.9h6.3l4.5-5.4c0,0,5.1,3.8,8.3,6.8c-0.2,1.2-1.3,1.7-2.6,1.7H76.1V32h7.5l4.3-4.5l9,6.8
		c-0.4,0.6-1.6,1.3-3.1,1.6v29.4C93.7,66,89,68.1,86,68.1L84.5,68z M84.5,61V50.2c-1,1-2.5,1.3-4,0c-0.2-1.9-1.6-4.2-3.2-5.5
		l1.2-0.8c3.2,0.5,5.1,1.6,6,2.8V35.1H57.7v9.2l0.8-0.5c10.4,2,5.4,9.5,1.2,6.1c0-1.8-0.8-3.8-2-5v16h26.8V61z M83.4,39.3
		c-0.6,1.1-1.5,1.6-3.9,1.1c-1.3,2-3.1,4.1-5.2,6.3c9.1,6.5,7.1,12.5,2.8,10.3c-1.3-2.1-3.5-4.7-6.1-7c-3.5,2.9-7.3,5.6-11.6,7.7
		l-1.2-1.6c3.5-2.3,7-5.4,10-8.8c-3.1-2.4-6.4-4.8-9.1-6.5l1.1-1.1c4.2,1.3,7.7,2.9,10.6,4.5c2.2-2.9,4-5.6,5.3-8.3L83.4,39.3z
		 M65.2,35.5c11.2,0.8,7.1,9,2.5,6c-0.5-1.9-2-4-3.7-5.1L65.2,35.5z M65.1,74.5v20h10v-20H65.1z M67.5,53.1
		c11.4,1.2,7.2,9.5,2.6,6.5c-0.4-2.1-2-4.5-3.8-5.6L67.5,53.1z"/>
</g>
</svg>
