<?xml version="1.0" encoding="utf-8"?>
<!-- Generator: Adobe Illustrator 25.2.3, SVG Export Plug-In . SVG Version: 6.00 Build 0)  -->
<svg version="1.1" id="layer" xmlns="http://www.w3.org/2000/svg" xmlns:xlink="http://www.w3.org/1999/xlink" x="0px" y="0px"
	 viewBox="0 0 400 100" style="enable-background:new 0 0 400 100;" xml:space="preserve">
<style type="text/css">
	.st0{fill:#19100A;}
</style>
<path class="st0" d="M0,94c10.4-4.8,21.9-14.1,29.4-25.3l14.2,9c-0.7,1.2-2,1.6-4.5,1.2C29,88.8,13,93.9,0.4,95.3L0,94z M87.1,54.9
	c0,0,8,5.9,12.6,10.1c-0.2,1.2-1.4,1.7-2.9,1.7H57.2V97c0,1-5.7,3.2-10.9,3.2H44V66.7H1.7l-1-3.1H44V54l17.2,1.6
	C61,57,60.1,58,57.3,58.5v5.1h22.9L87.1,54.9z M1,46.5c0,0,2.1-0.5,3.1-1.1C8,42.1,12.7,35.7,16.7,29c-2.6,1.3-5.6,2.8-8.6,4.1
	c-0.5,0.7-1.3,1.3-1.9,1.6L1.5,24.2c0,0,1.8-0.5,2.5-1.1C8.1,19,13.3,7,14.8,0.7l13.5,5.9c-0.4,1-1.7,1.7-3.6,1.5
	C20.9,13.2,14.8,19.5,9.2,24c3.1-0.2,6.8-0.4,10.6-0.6c1.8-3.3,3.2-6.5,4.1-8.9L34.6,21V9.2l10.2,4.2c0.3-3.6,0.5-9,0.6-12.7l14,1.8
	c-0.3,1.7-1.6,2.7-3.8,2.9c-1.9,2.2-4.8,5.5-7.1,8.1h6.1l4.9-5.1l10,7.6c-0.5,0.6-1.8,1.4-3.5,1.8v33.1c-0.1,0.7-5.2,2.9-8.7,2.9
	h-1.7v-4.1H44.4v2.6c0,1-4.2,3.2-8.4,3.2h-1.5V23.1c-0.6,0.2-1.5,0.3-2.4,0.1C27,30.1,18,39.5,9.5,46.2c4.2-0.3,9.6-0.8,15.4-1.3
	c-0.5-3.6-1.4-7-2.4-9.8l1.3-0.3c17.9,11.4,8,26.1,1.3,18.3c0.2-1.7,0.2-3.5,0.1-5.3c-4.5,2-10.7,4.8-17.2,7.3
	c-0.7,1.1-1.5,1.7-2.2,2.1L1,46.5z M44.4,16.5v13.3h11.1V16.5H44.4z M55.5,46.5V32.8H44.4v13.7H55.5z M62,74.8
	c40.1-5.5,41,24,26.2,19.4c-5.9-6.1-15.8-14-26.5-18.2L62,74.8z M100.6,21.9c-0.5,1-1.8,1.7-3.9,1.4c-5,6.9-13.8,16.1-21.8,22.7
	c4.1-0.2,9.3-0.6,14.8-1.2c-0.5-3.5-1.4-7-2.2-9.6l1.3-0.4c18.3,11.8,8.1,26.2,1.4,18.4c0.1-1.8,0.1-3.8-0.1-5.7
	c-4.3,2-10.4,4.9-16.7,7.5c-0.7,1.2-1.6,1.9-2.4,2.3l-5-10.7c0,0,2.1-0.5,3-1.2c3.9-3.4,8.5-9.8,12.4-16.3c-2.6,1.3-5.6,2.8-8.5,4
	c-0.6,1-1.4,1.5-2.1,1.8l-4.7-10.8c0,0,1.7-0.4,2.5-1C72.6,19,77.9,7,79.4,0.7l13.7,5.9c-0.4,1-1.6,1.8-3.7,1.7
	c-3.8,5-10,11.3-15.6,15.8c3-0.2,6.7-0.4,10.6-0.6c1.7-3.3,3.1-6.5,4-8.9L100.6,21.9z"/>
<path class="st0" d="M192.1,31.1c0,0,8.1,6.3,12.7,10.5c-0.2,1.2-1.5,1.7-3,1.7h-93.4l-0.8-3h54.8c2.8-6.5,5.6-15.4,7.3-21.9H133
	c25.9,8.5,13.8,28.4,3.5,19.1c-0.2-6.6-3-13.8-5.8-19l0.2-0.1h-17.6l-0.8-3.1h42.9c-0.8-0.2-1.9-0.6-3-1.4c-0.7-4.8-3.9-10-6.6-13
	l0.8-0.5C168.1,1,166,13.5,158.9,15.3h22.5l6.9-8.8c0,0,7.7,6,12.3,10.2c-0.2,1.2-1.4,1.7-2.9,1.7h-25.4l14.2,4.5
	c-0.4,1.3-1.7,2.1-4,1.8c-4.2,4.7-11.2,10.8-17.6,15.7H185L192.1,31.1z M179,47.5l12.5,9.6c-0.7,0.8-2.2,1.8-4.3,2.3v35.8
	c-0.1,1-6.3,4.1-11,4.1H174v-7.5h-36.1v4c0,1.3-5.4,4-10.7,4h-1.8v-51l13.3,5.4h34.2L179,47.5z M137.9,57.2v14.1H174V57.2H137.9z
	 M174,88.9V74.3h-36.1v14.6H174z"/>
<path class="st0" d="M234.6,74.9c7.7,7.4,19.6,9.3,42.3,9.3c11.3,0,20.2-0.2,31.5-0.8v1.2c-5.6,1.3-8.8,6.8-9.4,12.7h-26.8
	c-22.4,0-30.7-5.1-39.1-18.2c-1.5-2.3-2.6-2-4,0.1c-2,3.5-7.1,11.1-10.5,17.5c0.3,1.1-0.3,1.9-1.2,2.4l-9.5-14.9
	c8-3.5,19.8-10.8,22.5-10.8h0.8C250.1,62.5,269.3,46,279.5,30H215l-1-3h65.9l7.7-7L299,30.7c-0.7,1.1-1.9,1.5-4.6,1.6
	c-13,17.7-34.9,33.2-60.5,42.2L234.6,74.9z M242.2,0.8c32.9,5.7,22.3,30.5,9.9,21.5c-1.2-7.4-6-15.5-10.8-20.9L242.2,0.8z"/>
<path class="st0" d="M385.8,1c0,0,8.8,6.7,14.2,11.3c-0.3,1.2-1.6,1.7-3.2,1.7h-42.9v19.3c49.2,8.9,43.6,38.7,28.3,31.5
	c-6-10.1-18-21.4-28.3-29v60.4c0,1-4.2,3.8-10.8,3.8h-2.4V14h-40l-0.8-3.1h78.2L385.8,1z"/>
</svg>
