<?xml version="1.0" encoding="utf-8"?>
<!-- Generator: Adobe Illustrator 25.2.3, SVG Export Plug-In . SVG Version: 6.00 Build 0)  -->
<svg version="1.1" id="圖層_1" xmlns="http://www.w3.org/2000/svg" xmlns:xlink="http://www.w3.org/1999/xlink" x="0px" y="0px"
	 viewBox="0 0 176 176" style="enable-background:new 0 0 176 176;" xml:space="preserve">
<style type="text/css">
	.st0{fill:#FFEEEE;}
</style>
<g>
	<path class="st0" d="M88.5,13.6c41.3,0,74.9,33.6,74.9,74.9s-33.6,74.9-74.9,74.9s-74.9-33.6-74.9-74.9S47.2,13.6,88.5,13.6
		 M88.5,4.1C41.9,4.1,4.1,41.9,4.1,88.5s37.8,84.4,84.4,84.4s84.4-37.8,84.4-84.4S135.1,4.1,88.5,4.1L88.5,4.1z"/>
	<g>
		<path class="st0" d="M74.2,123.3c-1.4,0-2.9-0.7-3.8-1.9c-1.6-2.1-1.2-5.1,0.9-6.7L106,88.5L71.3,62.3c-2.1-1.6-2.5-4.6-0.9-6.7
			c1.6-2.1,4.6-2.5,6.7-0.9l39.8,30c1.2,0.9,1.9,2.3,1.9,3.8s-0.7,2.9-1.9,3.8l-39.8,30C76.2,123,75.2,123.3,74.2,123.3z"/>
	</g>
</g>
</svg>
