<?xml version="1.0" encoding="utf-8"?>
<!-- Generator: Adobe Illustrator 25.2.3, SVG Export Plug-In . SVG Version: 6.00 Build 0)  -->
<svg version="1.1" id="圖層_1" xmlns="http://www.w3.org/2000/svg" xmlns:xlink="http://www.w3.org/1999/xlink" x="0px" y="0px"
	 viewBox="0 0 176 176" style="enable-background:new 0 0 176 176;" xml:space="preserve">
<style type="text/css">
	.st0{fill:#FFEEEE;}
</style>
<g>
	<defs>
		<path id="SVGID_1_" d="M5.7,174.5l-1.8-1.7c16.4-19.1,25.5-45.3,27.5-78.7c-4.8,8.1-10.3,16.6-16.4,25.3c-0.3,3.1-1.4,5.2-3.5,6.3
			l-11.1-24c5.4-2.5,15.9-8.1,31.6-16.8C32,81.9,32,77.3,32,71.1v-57l24.2,10.5h32.3V1.3l30.1,2.2c-0.4,2.9-2.7,4.8-6.8,5.5v15.5
			h32.3l11.3-14.8c2.5,2,4.9,3.9,7.4,5.9c5.4,4.4,9.7,8.1,12.9,11.1c-0.5,2-2.1,3-5,3H52.9v41.4c0,22.3-2.4,40.4-7.2,54.3
			C38.5,146.2,25.1,162.6,5.7,174.5z M11.8,70.9c0.5-5.7,0-11.9-1.5-18.8C9,45.9,7.2,40.2,4.7,34.9l2-0.7C15.7,39,22.1,44.6,26,51
			c3.2,5.3,4.3,10.4,3.3,15.3c-1,4.4-3.3,7.3-6.8,8.5C18.8,76,15.2,74.7,11.8,70.9z M59.8,174.7V72.2l21.4,8.7h30.1
			c-2.6-3.4-6.2-7-10.7-10.7c-5.2-4.2-10.8-7.7-16.8-10.5l0.7-2.6c14.4-1.2,25.4,0.2,33,4.3c5.2-3.6,10.5-7.5,15.9-11.8H62.3
			l-1.7-5.3h76.6l11.3-10.7l18.6,17.9c-1.5,1.2-4,1.9-7.6,2c-10.6,4.2-23,7.9-37.1,11.3c2.7,2.6,4.2,5.5,4.4,8.7
			c0.1,2.9-0.7,5.5-2.6,7.6H143l9.4-10.7l20.9,15.7c-1.6,1.8-4,3-7.2,3.5v60.2c0,8.1-1.3,13.9-3.9,17.2c-3.4,4.1-10.2,6.6-20.1,7.6
			c-0.3-7.5-1-12.6-2.2-15.3c-1.9-3.7-5.1-6-9.8-6.8v-2.6c3.9,0.3,7.8,0.5,11.6,0.7c2.1,0,3.1-1,3.1-3.1v-11.4H121V168
			c0,0.7-1.4,1.7-4.3,2.8c-3.3,1.2-7.1,1.9-11.4,1.9H102v-36.9H79.9v32.1c0,1.2-1.8,2.6-5.3,4.3c-3.8,1.7-7.7,2.6-11.6,2.6
			L59.8,174.7L59.8,174.7z M79.9,105.3H102v-19H79.9V105.3z M79.9,130.6H102v-19.9H79.9V130.6z M121.1,105.3h23.8v-19H121
			C121,86.3,121,105.3,121.1,105.3z M121.1,130.6h23.8v-19.9H121C121,110.6,121,130.6,121.1,130.6z"/>
	</defs>
	<clipPath id="SVGID_2_">
		<use xlink:href="#SVGID_1_"  style="overflow:visible;"/>
	</clipPath>
	<g style="clip-path:url(#SVGID_2_);">
		
			<image style="overflow:visible;" width="360" height="360" xlink:href="BGnoise.png"  transform="matrix(0.4889 0 0 0.4889 -1.000404e-02 -8.999997e-02)">
		</image>
	</g>
</g>
<g>
	<path class="st0" d="M5.7,174.5l-1.8-1.7c16.4-19.1,25.5-45.3,27.5-78.7c-4.8,8.1-10.3,16.6-16.4,25.3c-0.3,3.1-1.4,5.2-3.5,6.3
		l-11.1-24c5.4-2.5,15.9-8.1,31.6-16.8C32,81.9,32,77.3,32,71.1v-57l24.2,10.5h32.3V1.3l30.1,2.2c-0.4,2.9-2.7,4.8-6.8,5.5v15.5
		h32.3l11.3-14.8c2.5,2,4.9,3.9,7.4,5.9c5.4,4.4,9.7,8.1,12.9,11.1c-0.5,2-2.1,3-5,3H52.9v41.4c0,22.3-2.4,40.4-7.2,54.3
		C38.5,146.2,25.1,162.6,5.7,174.5z M11.8,70.9c0.5-5.7,0-11.9-1.5-18.8C9,45.9,7.2,40.2,4.7,34.9l2-0.7C15.7,39,22.1,44.6,26,51
		c3.2,5.3,4.3,10.4,3.3,15.3c-1,4.4-3.3,7.3-6.8,8.5C18.8,76,15.2,74.7,11.8,70.9z M59.8,174.7V72.2l21.4,8.7h30.1
		c-2.6-3.4-6.2-7-10.7-10.7c-5.2-4.2-10.8-7.7-16.8-10.5l0.7-2.6c14.4-1.2,25.4,0.2,33,4.3c5.2-3.6,10.5-7.5,15.9-11.8H62.3
		l-1.7-5.3h76.6l11.3-10.7l18.6,17.9c-1.5,1.2-4,1.9-7.6,2c-10.6,4.2-23,7.9-37.1,11.3c2.7,2.6,4.2,5.5,4.4,8.7
		c0.1,2.9-0.7,5.5-2.6,7.6H143l9.4-10.7l20.9,15.7c-1.6,1.8-4,3-7.2,3.5v60.2c0,8.1-1.3,13.9-3.9,17.2c-3.4,4.1-10.2,6.6-20.1,7.6
		c-0.3-7.5-1-12.6-2.2-15.3c-1.9-3.7-5.1-6-9.8-6.8v-2.6c3.9,0.3,7.8,0.5,11.6,0.7c2.1,0,3.1-1,3.1-3.1v-11.4H121V168
		c0,0.7-1.4,1.7-4.3,2.8c-3.3,1.2-7.1,1.9-11.4,1.9H102v-36.9H79.9v32.1c0,1.2-1.8,2.6-5.3,4.3c-3.8,1.7-7.7,2.6-11.6,2.6
		L59.8,174.7L59.8,174.7z M79.9,105.3H102v-19H79.9V105.3z M79.9,130.6H102v-19.9H79.9V130.6z M121.1,105.3h23.8v-19H121
		C121,86.3,121,105.3,121.1,105.3z M121.1,130.6h23.8v-19.9H121C121,110.6,121,130.6,121.1,130.6z"/>
</g>
</svg>
