<?xml version="1.0" encoding="utf-8"?>
<!-- Generator: Adobe Illustrator 25.2.3, SVG Export Plug-In . SVG Version: 6.00 Build 0)  -->
<svg version="1.1" id="圖層_1" xmlns="http://www.w3.org/2000/svg" xmlns:xlink="http://www.w3.org/1999/xlink" x="0px" y="0px"
	 viewBox="0 0 254 262" style="enable-background:new 0 0 254 262;" xml:space="preserve">
<style type="text/css">
	.st0{fill:#FFEEEE;}
</style>
<g>
	<path class="st0" d="M123.6,0c0,0,1.8,1.2,2.8,2c0,0.3-0.3,0.4-0.6,0.4l-4.2,0.4c-0.6,1-1.4,2.1-2.2,2.8l2.8-0.2l1.1-1.4l2.6,1.6
		c-0.1,0.2-0.4,0.4-0.7,0.5l0.9,10.1c0,0.2-1.2,0.8-2.1,0.9l-0.4,0l-0.1-0.9l-4.6,0.4l0,0.4c0,0,0,0.1-0.1,0.2l3,1.5
		c-0.1,0.2-0.3,0.3-0.7,0.2c-1.5,1.3-4.5,2.8-7.1,3.5l-0.2-0.3c1.8-1.2,3.8-3.2,4.8-4.8c-0.4,0.3-1.1,0.6-1.8,0.7l-0.4,0l-0.7-7.7
		c-0.1,0-0.3,0.1-0.5,0.1c-0.6,1.1-1.8,2.9-2.7,3.9l-0.2-0.1c0.1-1.1,0.3-2.8,0.3-4.1l-1.5,0.1l0.8,9c0.2,1.7-0.1,3-2.9,3.5
		c-0.1-0.8-0.3-1.4-0.6-1.8c-0.3-0.4-0.8-0.6-1.9-0.7l0-0.3c0,0,2-0.1,2.4-0.1c0.3,0,0.4-0.2,0.4-0.4l-0.8-9l-3,0.3l-0.3-0.6
		l7.1-0.6l1.2-1.5l2,1.6l-0.4-4.9l2.8,0.9l0.8-0.1c0-0.7,0-1.8,0-2.6l-4.1,0.4l0.1,0.1c-0.1,0.2-0.4,0.3-0.9,0.4
		c-0.8,0.8-2.1,1.8-3.3,2.6c2,1.4,0.9,3.8-1,2.9c-0.5-1.4-2.1-2.9-3.4-3.7l0.2-0.2c1.5,0,2.6,0.2,3.4,0.6c0.4-0.8,0.9-1.7,1.2-2.4
		l-5.6,0.5L105,3.4l5.8-0.5l1.3-1.5l1.7,1.4l8.5-0.7L123.6,0z M117.8,6.4l0.2,2.7l4.6-0.4L122.4,6L117.8,6.4z M118.3,12.5l4.6-0.4
		l-0.2-2.8l-4.6,0.4L118.3,12.5z M123.3,15.6l-0.2-2.8l-4.6,0.4l0.2,2.8L123.3,15.6z M121.5,17.1c7.4-0.1,6.7,5.1,3.9,4.1
		c-0.9-1.4-2.7-3-4.1-3.9L121.5,17.1z"/>
	<path class="st0" d="M131.3,15.1c0.6,2.5,0.2,4.4-0.6,5.2c-0.6,0.6-1.9,0.4-2.2-0.4c-0.3-0.8,0.2-1.5,0.9-1.8
		c0.7-0.5,1.6-1.7,1.6-2.9L131.3,15.1z M129.3,11.9c0,0,0.6-0.1,0.9-0.2c1.3-0.7,2.9-2.1,4.3-3.6c-0.9,0.2-2,0.5-3.1,0.8
		c-0.2,0.3-0.4,0.4-0.7,0.5l-0.9-3c0,0,0.5-0.1,0.8-0.2c1.4-1,3.6-4.1,4.3-5.9l3,2.1c-0.1,0.2-0.4,0.3-0.8,0.2
		c-1.3,1.3-3.4,3-5.3,4.1c1.1,0.1,2.4,0.2,3.8,0.4c0.7-0.8,1.3-1.7,1.7-2.4l2.7,2.3c-0.1,0.2-0.5,0.3-0.9,0.2
		c-1.6,1.6-4.7,3.7-7.4,5c1.4,0.1,3.2,0.2,5.1,0.2c-0.2-0.9-0.5-1.7-0.7-2.3l0.3-0.1c5.1,2.8,2.4,6.3,0.7,4.4c0-0.5,0-0.9-0.1-1.4
		c-1.5,0.4-3.6,1-6.1,1.6c-0.2,0.2-0.5,0.4-0.7,0.4L129.3,11.9z M133.7,15c3.8,3.5,0.7,6.7-0.7,4.4c0.5-1.4,0.5-3.1,0.4-4.3
		L133.7,15z M136.4,14.8c4.8,2.4,2.1,6.1,0.5,4.1c0.2-1.3-0.2-2.9-0.7-4L136.4,14.8z M151.6,7.2c-0.2,0.2-0.6,0.3-1.1,0.3
		c-1.3,9.2-2.4,13.3-3.9,14.5c-0.9,0.8-2,1-3.4,0.8c0.1-0.8,0-1.5-0.2-1.8c-0.3-0.5-1.1-0.9-2-1.2l0-0.3c1,0.2,2.4,0.4,3,0.5
		c0.4,0,0.7,0,0.9-0.2c1.1-0.7,2-5.1,3.2-13l-4.8-0.5c-1.2,2.1-2.7,3.8-4.3,5l-0.3-0.2c1.5-2.5,3-6.5,3.9-10.2l3.6,1.3
		c-0.1,0.3-0.4,0.5-0.9,0.4c-0.5,1-1,2.1-1.6,3l4.2,0.5l1.6-1.3L151.6,7.2z M142.2,9.5c5.9,3.4,2.9,8,0.8,5.6c0.1-1.8-0.4-4-1.1-5.6
		L142.2,9.5z"/>
	<path class="st0" d="M160.7,16.7c-0.2,0.1-0.4,0-0.7,0c-1.1,1.4-2.7,2.7-4.6,3.6c0,0,0.1,0.1,0.1,0.2c1.3,1.9,3.9,3,8.7,4.6
		c2.6,0.8,4.7,1.5,7.3,2.2l-0.1,0.3c-1.1-0.1-2,0.6-2.4,1.6l-6.4-2c-4.9-1.6-6.5-3-7.6-5.8c-0.2-0.5-0.5-0.5-0.8-0.2
		c-0.6,0.5-1.4,1.5-2.2,2.4c0,0.2-0.1,0.3-0.3,0.4l-1-3c1.3-0.2,3.3-0.9,3.9-0.9c1.2-1.1,2.3-2.7,3-4.1l-1.4-0.5l-1,0.5l-1.5-2.1
		c0.3-0.1,0.6-0.1,1-0.1c1.1-0.8,2.5-2,3.4-2.8l-3.2-1l0-0.7l3.5,1.1l1.4-0.7l1.5,2.6c-0.3,0.2-0.7,0.1-1.3,0
		c-0.9,0.8-2.3,1.9-3.4,2.7l1,0.3l1.6-0.8l1.5,2.2l2.2-6.7l2.2,1.8l1.7,0.5l0.6-1.8L162,8.5l0-0.7l5.5,1.8l0.9-2.7l3.1,1.3
		c-0.2,0.3-0.4,0.5-1,0.4l-0.6,1.8l1.8,0.6l1.9-1.3c0,0,1.2,1.6,1.9,2.7c-0.1,0.2-0.4,0.3-0.7,0.2l-5-1.6l-0.6,1.8l1.5,0.5l1.6-0.9
		l1.8,2.6c-0.2,0.1-0.6,0.2-1,0.2l-1.8,5.6c0,0.1-0.4,0.2-0.9,0.2c0.3,0.4,1.2,1.7,1.8,2.7c-0.1,0.2-0.4,0.3-0.7,0.2l-5.3-1.7
		l-0.7,2.1c-0.1,0.2-1.3,0.4-2.2,0.1l-0.4-0.1l0.9-2.9l-5.3-1.7l0-0.7l5.5,1.8l0.7-2.2l-1.8-0.6l-0.2,0.5c-0.1,0.2-1.3,0.4-2.3,0.1
		l-0.4-0.1L160.7,16.7z M157.5,3.7c5.8,2.5,2.3,6.4,0.5,4.1c0.2-1.3-0.2-2.9-0.8-4L157.5,3.7z M164.9,17.9l0.8-2.4l-1.8-0.6
		l-0.8,2.4L164.9,17.9z M164.8,12.1l-0.7,2.2l1.8,0.6l0.7-2.2L164.8,12.1z M170.1,20.9c-0.4,0-0.8,0-1.1-0.1l-0.4-0.1l0.3-0.8
		l-1.7-0.6l-0.7,2.2l1.9,0.6L170.1,20.9z M169.8,16.8l-1.7-0.6l-0.8,2.4l1.7,0.6L169.8,16.8z M169,13.4l-0.7,2.2l1.7,0.6l0.7-2.2
		L169,13.4z"/>
	<path class="st0" d="M175.8,25.7c-0.4,2.5-1.4,4-2.4,4.5c-0.7,0.3-1.8-0.3-1.8-1.2c0-0.8,0.7-1.2,1.4-1.3c0.8-0.2,2-1.1,2.5-2.1
		L175.8,25.7z M175.5,22.1c0,0,0.6,0.2,0.8,0.1c1.3-0.2,3.3-0.9,5-1.8c-0.8-0.1-1.8-0.2-2.8-0.4c-0.3,0.1-0.5,0.2-0.7,0.2l0.3-3
		c0,0,0.5,0.1,0.7,0.1c1.6-0.4,4.5-2.6,5.7-3.9l1.9,2.9c-0.2,0.1-0.5,0.1-0.8-0.1c-1.6,0.8-4.1,1.6-6.1,2c0.8,0.5,1.8,1,2.9,1.6
		c0.9-0.5,1.6-1,2.2-1.4l1.5,3c-0.2,0.1-0.5,0.1-0.9-0.2c-1.9,0.8-5.3,1.7-8,2c1.1,0.5,2.5,1.2,3.9,1.9c0.2-0.8,0.3-1.6,0.3-2.2
		l0.3,0c3.1,4.2-0.5,6.3-1.2,4c0.2-0.3,0.3-0.7,0.4-1.1c-1.4-0.1-3.3-0.4-5.3-0.7c-0.3,0.1-0.6,0.2-0.8,0.1L175.5,22.1z M177.7,26.3
		c2,4.5-1.9,6.1-2.3,3.7c0.9-1.1,1.6-2.6,2-3.8L177.7,26.3z M179.8,27.1c3.2,4-0.5,6.1-1.2,3.9c0.6-1.1,0.9-2.7,0.9-3.9L179.8,27.1z
		 M192,30.4l1.2,2.7c-0.2,0.1-0.5,0.1-1-0.1l-3.6,6.4c-0.1,0.1-1,0.1-2.2-0.5l-0.4-0.2l0.9-1.6l-4.2-2.4L182,36
		c-0.1,0.2-1,0.2-2.1-0.5l-0.4-0.2l4.9-8.7l1.9,2.3l3.9,2.2L192,30.4z M187.2,36.6l2.8-4.9l-4.2-2.4l-2.8,4.9L187.2,36.6z
		 M192.8,23.9l-2,3.6l1.3,0.7l2-0.9c0,0,0.7,1.8,1.1,2.9c-0.2,0.2-0.4,0.2-0.7,0l-9.9-5.5l0.2-0.7l3.7,2.1l2-3.6l-3.9-2.2l0.2-0.7
		l4.1,2.3l2.2-3.9l2.9,2c-0.2,0.3-0.5,0.4-1.1,0.1l-1.7,3.1l1.6,0.9l2.1-0.9c0,0,0.8,1.8,1.2,3c-0.2,0.2-0.4,0.2-0.7,0L192.8,23.9z"
		/>
	<path class="st0" d="M201.8,37.7c0.7-0.8,1.9-1,2.7-0.3c0.8,0.7,0.9,1.9,0.2,2.7c-0.6,0.8-1.8,0.9-2.6,0.2
		C201.2,39.6,201.2,38.4,201.8,37.7z"/>
	<path class="st0" d="M216.5,63.3l-0.6,0.5l-4.9-5.6l0.6-0.5l1.7,1.5l2.4-4l-3.6-4.1l-4.2,1.9l1.3,1.9l-0.6,0.5l-3.5-4l0.6-0.5
		l1.5,1.3l15.5-6.6l1.3,1.5l-8.5,14.8L216.5,63.3z M216.2,54.5l4.3-7.1l-7.5,3.4L216.2,54.5z"/>
	<path class="st0" d="M227.5,61.7c1.6,0.2,2.8,1.1,3.6,2.3c1.5,2.3,0.8,5.5-2.6,7.7s-6.8,1.6-8.5-0.9c-0.7-1-1-2.2-0.5-3.7l-1.3,0.9
		c-1.2,0.8-2.5,1.7-3.9,2.6l0.9,1.8l-0.6,0.4l-3.7-5.7l0.6-0.4l1.1,1.3c1.4-0.9,2.8-1.8,4-2.6l6.2-4.1c1.2-0.8,1.9-1.3,2.8-2
		l-0.9-1.7l0.5-0.3l3.6,2.9l0,0.4L227.5,61.7z M220.1,66.7c-0.1,1,0.1,1.7,0.6,2.4c1,1.6,2.9,2,6-0.1c3-2,3.6-3.8,2.5-5.4
		c-0.4-0.6-1-1.1-2.2-1.5L220.1,66.7z"/>
	<path class="st0" d="M235.7,75.6c1.6,0.5,2.7,1.5,3.3,2.7c1.2,2.5,0,5.5-3.6,7.3c-3.7,1.8-7,0.7-8.3-2c-0.5-1.1-0.7-2.3,0-3.7
		l-1.4,0.7c-1.2,0.6-2.7,1.3-4.2,2.1l0.7,1.9l-0.6,0.3l-3-6.1l0.6-0.3l0.9,1.5c1.5-0.7,3-1.4,4.3-2l6.7-3.2c1.3-0.7,2.1-1,3.1-1.6
		l-0.6-1.8l0.5-0.3l3.2,3.3l-0.1,0.4L235.7,75.6z M227.7,79.6c-0.3,0.9-0.1,1.7,0.2,2.4c0.8,1.7,2.6,2.3,6,0.7
		c3.3-1.6,4.1-3.3,3.2-5c-0.3-0.7-0.8-1.3-2-1.8L227.7,79.6z"/>
	<path class="st0" d="M236.1,87.7c3.9-1.3,7.1,0.7,8.1,3.8c1.1,3.2-0.3,6.6-4.2,7.9c-3.9,1.3-7.1-0.5-8.2-3.8
		C230.7,92.3,232.2,89,236.1,87.7z M239,96.4c3.6-1.2,5-2.8,4.4-4.6c-0.6-1.8-2.7-2.2-6.3-1c-3.6,1.2-5.1,2.8-4.5,4.6
		C233.3,97.2,235.4,97.6,239,96.4z"/>
	<path class="st0" d="M236.5,108.9l-0.7,0.2l-1.4-6.2l0.7-0.2l0.6,1.6c1.3-0.3,3.2-0.7,4.4-1l1.6-0.4c1.4-0.3,2.3-0.5,3.4-0.8
		l-0.2-1.9l0.6-0.1l2.3,4.3l-0.1,0.4l-3.5,0.8l-3.4,0.8c-1.2,0.3-3.1,0.7-4.4,1L236.5,108.9z M251.2,100.4c1-0.2,1.9,0.4,2.1,1.4
		c0.2,1-0.3,1.9-1.3,2.2c-1,0.2-1.8-0.4-2.1-1.4C249.8,101.6,250.3,100.7,251.2,100.4z"/>
	<path class="st0" d="M238.6,124.2l-0.7,0.1l-0.8-6.3l0.7-0.1l0.4,1.6c1.3-0.1,3.2-0.3,4.5-0.5l2.9-0.4c2-0.2,2.6-0.9,2.5-2.1
		c-0.1-0.8-0.7-1.8-1.8-2.8l-4.1,0.5c-1.3,0.2-3.2,0.4-4.5,0.6l0,1.5l-0.7,0.1l-0.8-6.3l0.7-0.1l0.4,1.6c1.3-0.1,3.2-0.3,4.5-0.5
		l1.6-0.2c1.5-0.2,2.3-0.3,3.4-0.5l0-1.8l0.6-0.1l1.9,4.2l-0.2,0.3l-2.1,0.4c1.8,1.2,2.7,2.6,2.8,4.1c0.3,2.1-0.9,3.7-4,4l-2.8,0.3
		c-1.3,0.2-3.2,0.4-4.5,0.6L238.6,124.2z"/>
	<path class="st0" d="M239.2,133.3c-1-0.7-1.7-1.7-1.7-3.3c0-2.1,1-3.3,3.3-3.3c0.7,0,1.4,0,2.3,0l6-0.1l0-2l0.8,0l0.3,2.1l3.6,0.9
		l0,2l-3.6,0l0,3l-1,0l0-3.1l-8.5,0.1c-1.3,0-1.8,0.6-1.8,1.5c0,0.6,0.2,1,0.7,1.6L239.2,133.3z"/>
	<path class="st0" d="M236.4,155.2l-0.7-0.1l0.8-6.2l0.7,0.1l0,1.6c1.3,0.2,3.1,0.4,4.4,0.6l2.8,0.3c2.1,0.3,2.9-0.3,3-1.4
		c0.1-1-0.2-2-1.1-3.2c-0.4,0-0.8,0-1.3-0.1l-2.8-0.3c-1.3-0.2-3.2-0.4-4.5-0.5l-0.4,1.5l-0.7-0.1l0.8-6.2l0.7,0.1l0,1.7
		c1.3,0.2,3.1,0.4,4.4,0.6l2.8,0.3c2.1,0.3,2.9-0.2,3-1.4c0.1-0.9-0.3-2-1.2-3.1l-4-0.5c-1.3-0.2-3.2-0.4-4.5-0.5l-0.4,1.5l-0.7-0.1
		l0.8-6.3l0.7,0.1l0,1.7c1.3,0.2,3.2,0.4,4.4,0.6l1.6,0.2c1.5,0.2,2.3,0.3,3.4,0.3l0.4-1.8l0.6,0.1l0.9,4.6l-0.2,0.3l-2.1-0.1
		c1.4,1.5,2,3,1.8,4.5c-0.2,1.6-1.1,2.6-2.8,2.9c1.6,1.7,2,3.1,1.8,4.6c-0.3,2.4-1.8,3.3-4.9,3l-2.7-0.3c-1.3-0.2-3.2-0.4-4.5-0.5
		L236.4,155.2z"/>
	<path class="st0" d="M240.2,160.8c-3.4-0.9-5.4,0.4-6,2.5c-0.5,1.6-0.1,2.7,0.7,3.8l-0.4,0.4c-1.6-1.4-2.1-3.4-1.5-5.6
		c1-3.5,4-5.3,8-4.2c4,1.1,5.4,4.7,4.5,7.8c-0.9,3-3.5,4.3-6.2,3.5c-0.6-0.2-1-0.3-1.3-0.5L240.2,160.8z M239.9,164.9
		c-0.3,1,0.1,1.4,1.3,1.7c1.8,0.5,3.2-0.1,3.6-1.5c0.4-1.4-0.6-3-3.8-4.1L239.9,164.9z"/>
	<path class="st0" d="M226.7,181.5l-0.7-0.3l2.5-5.8l0.7,0.3l-0.4,1.6c1.2,0.6,2.9,1.3,4.1,1.8l2.7,1.2c1.8,0.8,2.7,0.5,3.2-0.6
		c0.3-0.8,0.3-1.9-0.2-3.4l-3.8-1.6c-1.2-0.5-2.9-1.2-4.2-1.7l-0.8,1.3l-0.7-0.3l2.5-5.8l0.7,0.3l-0.5,1.6c1.2,0.5,2.9,1.3,4.1,1.8
		l1.5,0.7c1.4,0.6,2.1,0.9,3.2,1.3l0.9-1.6l0.5,0.2l-0.5,4.6l-0.3,0.2l-2-0.7c1,2,1,3.6,0.4,4.9c-0.9,2-2.7,2.7-5.5,1.5l-2.6-1.1
		c-1.2-0.5-2.9-1.2-4.2-1.7L226.7,181.5z"/>
	<path class="st0" d="M222.6,189.6c-0.6-1.1-0.6-2.3,0.2-3.7c1-1.8,2.5-2.4,4.6-1.2c0.6,0.4,1.2,0.7,2,1.1l5.2,3l1-1.7l0.7,0.4
		l-0.8,2l2.7,2.6l-1,1.7l-3.1-1.8l-1.5,2.6l-0.8-0.5l1.5-2.7l-7.4-4.2c-1.1-0.6-1.9-0.4-2.3,0.4c-0.3,0.5-0.3,1-0.2,1.8L222.6,189.6
		z"/>
	<path class="st0" d="M217.8,202.9l-4-2.9l7.5-10.5l0.6,0.5l-1.1,1.9c1.8,1.4,3.7,2.7,5.3,3.8l1.3,0.9c1.9,1.3,3.8,2.7,5.7,4
		l1.4-1.7l0.7,0.5l-4.5,6.4l-0.7-0.5l1.1-2c-1.8-1.4-3.7-2.7-5.5-4l-1.3-0.9c-1.7-1.2-3.6-2.6-5.6-3.9l-3,4.3l2.7,3.1L217.8,202.9z"
		/>
	<path class="st0" d="M203.4,218l-3.4-3.6l9.2-9.1l0.5,0.6l-1.4,1.7c1.6,1.7,3.2,3.3,4.5,4.7l1.1,1.1c1.6,1.6,3.2,3.3,4.9,4.9
		l1.7-1.4l0.6,0.6l-5.6,5.5l-0.6-0.6l1.5-1.8c-1.5-1.7-3.2-3.3-4.7-4.9l-1.1-1.1c-1.5-1.5-3.1-3.2-4.8-4.8l-3.7,3.7l2.1,3.6
		L203.4,218z"/>
	<path class="st0" d="M194.3,219.8l-0.4-0.6l4.9-4l0.4,0.6l-1.2,1.2c0.8,1,2,2.5,2.8,3.5l1,1.3c0.9,1.1,1.5,1.8,2.2,2.7l1.6-1
		l0.4,0.5l-2.8,3.9l-0.4,0l-2.2-2.8l-2.2-2.7c-0.8-1-2-2.5-2.9-3.5L194.3,219.8z M208.3,229.3c0.6,0.8,0.4,1.9-0.3,2.5
		c-0.8,0.6-1.8,0.6-2.5-0.2c-0.6-0.8-0.4-1.8,0.4-2.5C206.6,228.5,207.7,228.6,208.3,229.3z"/>
	<path class="st0" d="M181.5,228.4l-0.4-0.6l5.3-3.4l0.4,0.6l-1.2,1c0.7,1.1,1.7,2.7,2.4,3.8l1.6,2.5c1.1,1.7,1.9,1.9,3,1.3
		c0.7-0.5,1.3-1.4,1.7-2.9l-2.2-3.5c-0.7-1.1-1.8-2.7-2.5-3.8l-1.4,0.7l-0.4-0.6l5.3-3.4l0.4,0.6l-1.3,1.1c0.7,1.1,1.7,2.7,2.4,3.8
		l0.9,1.4c0.8,1.3,1.3,1.9,1.9,2.8l1.6-0.8l0.3,0.5l-2.9,3.6l-0.4,0l-1.3-1.7c-0.3,2.2-1.2,3.5-2.4,4.3c-1.8,1.2-3.7,0.8-5.4-1.8
		l-1.5-2.4c-0.7-1.1-1.8-2.7-2.5-3.8L181.5,228.4z"/>
	<path class="st0" d="M167.9,234.9l-0.3-0.6l4-1.9l6,4.5l0.7-1.7c-0.6-1.2-1.4-2.9-2-4l-1.6,0.5l-0.3-0.6l5.8-2.8l0.3,0.6l-1.5,0.9
		c0.5,1.2,1.3,2.9,1.9,4.1l5,10.5l1.7-0.7l0.3,0.6l-3.8,2.9l-0.4,0l-1.5-3.3l-3.6-7.7l-2.3,6.4l2.1-0.7l0.3,0.7l-5.4,2.5l-0.3-0.7
		l2-1.2l1.4-3.7l-7.1-5.2L167.9,234.9z"/>
	<path class="st0" d="M163.2,244.5c0.3,1-0.2,2.1-1.3,2.4c-1,0.3-2.1-0.3-2.4-1.3c-0.3-0.9,0.3-2,1.3-2.3
		C161.8,242.9,162.9,243.5,163.2,244.5z"/>
	<path class="st0" d="M134.5,244.1c-7.4,0.2-6.8-4.9-4-4.1c0.9,1.4,2.8,3,4.2,3.9L134.5,244.1z M132.7,261.3c0,0-1.8-1.1-2.9-1.9
		c0-0.3,0.3-0.4,0.6-0.4l4.2-0.5c0.6-1,1.4-2.1,2.1-2.9l-2.8,0.3l-1,1.4l-2.6-1.6c0.1-0.2,0.4-0.4,0.7-0.5l-1.1-10.1
		c0-0.2,1.2-0.8,2.1-0.9l0.4,0l0.1,0.9l4.6-0.5l0-0.4c0,0,0-0.1,0.1-0.2l-3.1-1.5c0.1-0.2,0.3-0.3,0.7-0.2c1.4-1.3,4.5-2.9,7-3.6
		l0.2,0.3c-1.8,1.2-3.8,3.3-4.7,4.9c0.4-0.3,1.1-0.6,1.8-0.7l0.4,0l0.8,7.6c0.1,0,0.3-0.1,0.5-0.1c0.6-1.2,1.7-2.9,2.6-4l0.2,0.1
		c-0.1,1.1-0.2,2.8-0.2,4.1l1.5-0.2l-1-9c-0.2-1.7,0.1-3,2.8-3.5c0.1,0.8,0.3,1.4,0.6,1.8c0.3,0.4,0.8,0.6,1.9,0.7l0,0.3
		c0,0-2,0.1-2.4,0.1c-0.3,0-0.4,0.2-0.4,0.4l1,9l3-0.3l0.3,0.6l-7,0.8l-1.2,1.5l-2.1-1.6l0.5,4.9l-2.8-0.8l-0.8,0.1
		c0,0.7,0.1,1.8,0.1,2.6l4.1-0.4l-0.1-0.1c0.1-0.2,0.4-0.3,0.9-0.4c0.8-0.8,2.1-1.8,3.3-2.6c-2-1.4-1-3.7,0.9-2.9
		c0.6,1.4,2.1,2.8,3.5,3.6l-0.2,0.2c-1.5,0-2.6-0.2-3.4-0.5c-0.4,0.8-0.8,1.7-1.1,2.4l5.6-0.6l0.3,0.6l-5.8,0.6l-1.2,1.5l-1.7-1.3
		l-8.4,0.9L132.7,261.3z M132.7,245.7l0.3,2.8l4.6-0.5l-0.3-2.8L132.7,245.7z M137.7,248.6l-4.6,0.5l0.3,2.8l4.6-0.5L137.7,248.6z
		 M138.4,254.8l-0.3-2.7l-4.6,0.5l0.3,2.7L138.4,254.8z"/>
	<path class="st0" d="M104.6,254.6c0.2-0.2,0.6-0.3,1.1-0.3c1.1-9.2,2.1-13.3,3.6-14.6c0.9-0.8,1.9-1,3.3-0.9
		c-0.1,0.8,0,1.5,0.3,1.8c0.4,0.5,1.1,0.9,2.1,1.2l0,0.3c-1-0.2-2.4-0.4-3-0.5c-0.4,0-0.6,0-0.9,0.2c-1,0.8-1.9,5.2-3,13.1l4.8,0.4
		c1.2-2.1,2.7-3.8,4.2-5.1l0.3,0.2c-1.4,2.5-2.9,6.6-3.7,10.2l-3.6-1.2c0.1-0.3,0.4-0.5,0.9-0.4c0.5-1,0.9-2.1,1.5-3l-4.2-0.4
		l-1.5,1.3L104.6,254.6z M113.9,252.1c-6-3.3-3.1-8-0.9-5.6c-0.1,1.8,0.5,4,1.2,5.6L113.9,252.1z M126.7,249.5c0,0-0.6,0.1-0.9,0.2
		c-1.2,0.7-2.9,2.1-4.3,3.7c0.9-0.3,2-0.5,3.1-0.8c0.2-0.3,0.4-0.4,0.7-0.5l0.9,3c0,0-0.5,0.1-0.8,0.2c-1.4,1-3.5,4.2-4.2,6l-3-2
		c0.1-0.2,0.4-0.3,0.8-0.2c1.2-1.3,3.3-3.1,5.2-4.2c-1.1-0.1-2.4-0.2-3.8-0.3c-0.7,0.9-1.3,1.7-1.7,2.4l-2.8-2.3
		c0.1-0.2,0.5-0.3,0.9-0.2c1.6-1.6,4.6-3.8,7.3-5.1c-1.4-0.1-3.2-0.1-5.1-0.1c0.2,0.8,0.5,1.7,0.8,2.3l-0.3,0.1
		c-5.1-2.7-2.5-6.3-0.8-4.4c0,0.5,0,0.9,0.1,1.4c1.5-0.4,3.6-1.1,6-1.7c0.2-0.2,0.5-0.4,0.7-0.4L126.7,249.5z M119.7,246.7
		c-4.9-2.3-2.2-6-0.5-4.1c-0.1,1.3,0.3,2.9,0.8,4L119.7,246.7z M122.3,246.5c-3.9-3.4-0.8-6.7,0.6-4.4c-0.4,1.4-0.5,3.1-0.3,4.4
		L122.3,246.5z M124.7,246.3c-0.7-2.5-0.3-4.3,0.5-5.2c0.6-0.6,1.8-0.5,2.2,0.4c0.3,0.8-0.2,1.5-0.8,1.9c-0.6,0.5-1.5,1.8-1.5,3
		L124.7,246.3z"/>
	<path class="st0" d="M95.3,245.3c0.2-0.1,0.4-0.1,0.7,0c1-1.4,2.7-2.8,4.5-3.7c0,0-0.1-0.1-0.1-0.2c-1.3-1.9-3.9-3-8.8-4.4
		c-2.6-0.8-4.7-1.4-7.3-2l0.1-0.3c1.1,0.1,2-0.7,2.4-1.6l6.4,1.9c4.9,1.5,6.6,2.9,7.7,5.7c0.2,0.5,0.5,0.5,0.8,0.2
		c0.5-0.5,1.4-1.5,2.2-2.5c0-0.2,0.1-0.3,0.3-0.4l1,3c-1.3,0.2-3.3,1-3.9,0.9c-1.1,1.1-2.2,2.7-2.9,4.2l1.4,0.4l1-0.5l1.5,2
		c-0.3,0.1-0.6,0.1-1,0.1c-1.1,0.8-2.4,2-3.4,2.9l3.2,1l0,0.7l-3.5-1l-1.4,0.8l-1.6-2.6c0.3-0.2,0.7-0.1,1.3,0
		c0.9-0.8,2.3-2,3.3-2.8l-1-0.3l-1.6,0.9l-1.5-2.2l-2,6.8l-2.2-1.7l-1.7-0.5l-0.6,1.9l5.4,1.6l0,0.7l-5.6-1.7l-0.8,2.7l-3.1-1.3
		c0.2-0.3,0.4-0.5,1-0.4l0.5-1.8l-1.8-0.5l-1.9,1.3c0,0-1.2-1.6-1.9-2.7c0.1-0.2,0.4-0.3,0.7-0.2l5,1.5l0.6-1.9l-1.5-0.5l-1.5,0.9
		l-1.9-2.6c0.2-0.1,0.6-0.2,1-0.2l1.7-5.6c0-0.1,0.4-0.2,0.9-0.2c-0.3-0.4-1.3-1.7-1.9-2.6c0.1-0.2,0.4-0.3,0.7-0.2l5.3,1.6l0.6-2.2
		c0.1-0.2,1.3-0.5,2.2-0.2l0.4,0.1l-0.9,2.9l5.3,1.6l0,0.7l-5.5-1.6l-0.7,2.2l1.8,0.5l0.2-0.5c0.1-0.2,1.3-0.4,2.3-0.1l0.4,0.1
		L95.3,245.3z M87.1,248.7l0.7-2.2l-1.7-0.5l-0.7,2.2L87.1,248.7z M85.9,241.2c0.4,0,0.8,0,1.1,0.1l0.4,0.1l-0.3,0.8l1.7,0.5
		l0.7-2.2l-2-0.6L85.9,241.2z M86.2,245.3l1.7,0.5l0.7-2.4l-1.7-0.5L86.2,245.3z M91.4,250l0.7-2.2l-1.8-0.5l-0.7,2.2L91.4,250z
		 M91.1,244.2l-0.7,2.4l1.8,0.5l0.7-2.4L91.1,244.2z M98.8,258.2c-5.8-2.4-2.4-6.3-0.6-4c-0.2,1.3,0.3,2.9,0.8,4L98.8,258.2z"/>
	<path class="st0" d="M63.1,238.7L65,235l-1.3-0.7l-2,0.9c0,0-0.8-1.7-1.2-2.9c0.2-0.2,0.4-0.2,0.7,0l10,5.3l-0.1,0.7l-3.7-2
		l-1.9,3.6l4,2.1l-0.1,0.7l-4.1-2.2l-2.1,4l-2.9-1.9c0.2-0.3,0.5-0.4,1.1-0.2l1.7-3.1l-1.6-0.8l-2,0.9c0,0-0.8-1.8-1.2-2.9
		c0.2-0.2,0.4-0.2,0.7,0L63.1,238.7z M63.7,232.2l-1.2-2.7c0.2-0.1,0.5-0.1,1,0L67,223c0.1-0.1,1-0.1,2.2,0.5l0.4,0.2l-0.9,1.6
		l4.3,2.3l0.6-1.2c0.1-0.2,1-0.2,2.1,0.4l0.4,0.2l-4.7,8.8l-2-2.2l-4-2.1L63.7,232.2z M68.4,225.9l-2.7,5l4.3,2.3l2.7-5L68.4,225.9z
		 M80.4,240.2c0,0-0.6-0.1-0.9-0.1c-1.3,0.2-3.2,1-5,1.9c0.8,0.1,1.8,0.2,2.8,0.3c0.3-0.1,0.5-0.2,0.7-0.2l-0.3,3
		c0,0-0.5-0.1-0.7-0.1c-1.6,0.5-4.4,2.7-5.7,4l-2-2.8c0.2-0.1,0.5-0.2,0.8,0.1c1.6-0.8,4.1-1.7,6.1-2.1c-0.8-0.4-1.9-1-3-1.6
		c-0.8,0.5-1.6,1-2.2,1.5l-1.6-3c0.2-0.1,0.5-0.1,0.9,0.2c1.9-0.9,5.3-1.8,8-2.1c-1.1-0.5-2.5-1.1-4-1.8c-0.2,0.8-0.3,1.6-0.3,2.2
		l-0.3,0c-3.2-4.1,0.4-6.3,1.1-4c-0.2,0.3-0.3,0.7-0.4,1.1c1.4,0.1,3.3,0.3,5.3,0.6c0.3-0.1,0.6-0.2,0.8-0.1L80.4,240.2z M76,235.2
		c-3.3-3.9,0.3-6.2,1.1-3.9c-0.6,1.1-0.9,2.8-0.8,3.9L76,235.2z M78.2,236c-2-4.4,1.8-6.2,2.2-3.7c-0.9,1.1-1.6,2.7-1.9,3.8
		L78.2,236z M80,236.6c0.3-2.5,1.3-4,2.3-4.5c0.7-0.3,1.8,0.2,1.8,1.2c0,0.8-0.6,1.2-1.4,1.3c-0.7,0.2-2,1.1-2.4,2.2L80,236.6z"/>
	<path class="st0" d="M53.8,225.1c-0.7,0.8-1.9,1-2.7,0.3c-0.8-0.7-0.9-1.9-0.3-2.7c0.6-0.8,1.8-0.9,2.6-0.3
		C54.3,223.1,54.4,224.3,53.8,225.1z"/>
	<path class="st0" d="M38.6,199.8l0.6-0.5l5,5.5l-0.6,0.5l-1.7-1.5l-2.3,4.1l3.7,4.1l4.2-2l-1.3-1.9l0.6-0.5l3.6,4l-0.6,0.5
		l-1.5-1.3l-15.4,6.9l-1.3-1.5l8.2-14.9L38.6,199.8z M39.1,208.6l-4.1,7.2l7.5-3.5L39.1,208.6z"/>
	<path class="st0" d="M27.7,201.5c-1.6-0.2-2.9-1-3.7-2.2c-1.6-2.3-0.9-5.4,2.5-7.7c3.4-2.3,6.8-1.8,8.5,0.7c0.7,1,1,2.2,0.6,3.7
		l1.3-0.9c1.1-0.8,2.5-1.7,3.8-2.7l-0.9-1.8l0.6-0.4l3.9,5.6l-0.6,0.4l-1.2-1.3c-1.4,0.9-2.8,1.8-3.9,2.6l-6.1,4.2
		c-1.2,0.8-1.9,1.4-2.8,2l0.9,1.6l-0.5,0.3l-3.6-2.8l0-0.4L27.7,201.5z M35,196.4c0.1-1-0.1-1.7-0.6-2.4c-1.1-1.6-2.9-1.9-6,0.2
		c-3,2.1-3.5,3.9-2.4,5.4c0.4,0.6,1,1.1,2.3,1.4L35,196.4z"/>
	<path class="st0" d="M19.2,187.9c-1.6-0.4-2.7-1.4-3.4-2.7c-1.3-2.5-0.1-5.5,3.5-7.4c3.6-1.8,7-0.8,8.4,1.9
		c0.5,1.1,0.7,2.3,0.1,3.7l1.4-0.7c1.2-0.6,2.7-1.4,4.2-2.2l-0.7-1.9l0.6-0.3l3.1,6l-0.6,0.3l-1-1.5c-1.5,0.7-3,1.5-4.2,2.1
		l-6.6,3.4c-1.3,0.7-2.1,1.1-3,1.6l0.7,1.7l-0.5,0.3l-3.2-3.3l0.1-0.4L19.2,187.9z M27.1,183.7c0.2-0.9,0.1-1.7-0.3-2.4
		c-0.9-1.7-2.6-2.3-6-0.6c-3.2,1.7-4,3.4-3.1,5.1c0.3,0.7,0.8,1.2,2.1,1.7L27.1,183.7z"/>
	<path class="st0" d="M18.5,175.8c-3.9,1.4-7.1-0.5-8.2-3.7c-1.1-3.1,0.1-6.6,4-8c3.9-1.4,7.1,0.3,8.3,3.7
		C23.8,171.1,22.4,174.4,18.5,175.8z M15.5,167.1c-3.6,1.3-5,2.9-4.3,4.7c0.6,1.8,2.7,2.2,6.3,0.9c3.6-1.3,5-2.9,4.4-4.7
		C21.2,166.2,19.1,165.8,15.5,167.1z"/>
	<path class="st0" d="M3.2,163.3c-1,0.3-1.9-0.4-2.1-1.3s0.2-1.9,1.2-2.2c1-0.2,1.9,0.4,2.1,1.4S4.1,163.1,3.2,163.3z M17.7,154.6
		l0.7-0.2l1.5,6.1l-0.7,0.2l-0.6-1.6c-1.3,0.3-3.1,0.7-4.4,1l-1.6,0.4c-1.4,0.4-2.3,0.6-3.4,0.9l0.3,1.9L9,163.5l-2.4-4.2l0.1-0.4
		l3.5-0.8l3.3-0.8c1.2-0.3,3.1-0.8,4.4-1.1L17.7,154.6z"/>
	<path class="st0" d="M15.3,139.3l0.7-0.1l0.9,6.2l-0.7,0.1l-0.4-1.6c-1.3,0.1-3.2,0.4-4.4,0.6L8.4,145c-2,0.3-2.6,0.9-2.4,2.2
		c0.1,0.8,0.7,1.8,1.9,2.8l4.1-0.6c1.3-0.2,3.2-0.5,4.5-0.7l0-1.5l0.7-0.1l0.9,6.2l-0.7,0.1l-0.4-1.6c-1.3,0.2-3.2,0.4-4.4,0.6
		l-1.6,0.2c-1.5,0.2-2.3,0.3-3.4,0.6l0.1,1.8L6.9,155l-2-4.2l0.2-0.3l2-0.5c-1.9-1.2-2.7-2.5-2.9-4c-0.3-2.1,0.9-3.7,3.9-4.1
		l2.8-0.4c1.3-0.2,3.2-0.5,4.5-0.7L15.3,139.3z"/>
	<path class="st0" d="M14.5,130.3c1.1,0.6,1.7,1.7,1.7,3.3c0.1,2.1-0.9,3.3-3.3,3.4c-0.7,0-1.4,0-2.3,0.1l-6,0.2l0.1,2l-0.8,0
		l-0.3-2.1l-3.6-0.9l-0.1-2l3.6-0.1l-0.1-3l1,0l0.1,3.1l8.5-0.3c1.3,0,1.8-0.6,1.8-1.6c0-0.6-0.3-1-0.7-1.6L14.5,130.3z"/>
	<path class="st0" d="M16.9,108.2l0.7,0.1l-0.6,6.2l-0.7-0.1l0-1.6c-1.3-0.2-3.2-0.4-4.5-0.5L9,112c-2.1-0.2-2.9,0.3-3,1.5
		c-0.1,1,0.3,2,1.2,3.1c0.4,0,0.8,0,1.3,0l2.8,0.3c1.3,0.1,3.2,0.3,4.5,0.4l0.3-1.5l0.7,0.1l-0.6,6.2l-0.7-0.1l0-1.7
		c-1.3-0.2-3.2-0.4-4.5-0.5l-2.8-0.3c-2.1-0.2-2.9,0.3-3,1.5c-0.1,0.9,0.4,2,1.2,3l4,0.4c1.3,0.1,3.2,0.3,4.5,0.4l0.3-1.5l0.7,0.1
		l-0.6,6.3l-0.7-0.1l0-1.7c-1.3-0.2-3.2-0.4-4.5-0.5l-1.6-0.2c-1.5-0.2-2.3-0.2-3.4-0.3L4.7,129l-0.6-0.1l-0.9-4.5l0.2-0.3l2.1,0.1
		c-1.4-1.5-2-2.9-1.9-4.5c0.2-1.6,1-2.6,2.7-2.9c-1.6-1.6-2.1-3.1-1.9-4.6c0.2-2.4,1.8-3.4,4.8-3.1l2.7,0.3c1.3,0.1,3.2,0.3,4.5,0.4
		L16.9,108.2z"/>
	<path class="st0" d="M13,102.7c3.4,0.8,5.4-0.5,5.9-2.6c0.4-1.6,0-2.7-0.8-3.8l0.4-0.4c1.6,1.4,2.2,3.3,1.6,5.5
		c-0.9,3.5-3.9,5.4-7.9,4.3c-4-1.1-5.5-4.6-4.7-7.7c0.8-3,3.4-4.3,6.2-3.6c0.6,0.2,1,0.3,1.3,0.5L13,102.7z M13.2,98.7
		c0.3-1-0.2-1.4-1.3-1.7c-1.8-0.5-3.2,0.2-3.6,1.5c-0.4,1.4,0.7,3,3.9,4L13.2,98.7z"/>
	<path class="st0" d="M26.2,81.8l0.7,0.3l-2.4,5.8l-0.7-0.3l0.4-1.6c-1.2-0.5-2.9-1.3-4.1-1.8l-2.7-1.1c-1.9-0.8-2.7-0.5-3.2,0.7
		c-0.3,0.8-0.3,1.9,0.2,3.4l3.8,1.6c1.2,0.5,3,1.2,4.2,1.7l0.7-1.3l0.7,0.3l-2.4,5.8L20.8,95l0.4-1.6c-1.2-0.5-3-1.3-4.1-1.7
		L15.5,91c-1.4-0.6-2.2-0.9-3.2-1.2l-0.9,1.6l-0.5-0.2l0.4-4.6l0.3-0.2l2,0.6c-1-2-1.1-3.5-0.5-4.9c0.8-2,2.6-2.7,5.5-1.6l2.6,1.1
		c1.2,0.5,3,1.2,4.2,1.7L26.2,81.8z"/>
	<path class="st0" d="M30.1,73.6c0.6,1.1,0.6,2.3-0.1,3.7c-1,1.9-2.5,2.4-4.5,1.3c-0.6-0.3-1.2-0.7-2-1.1l-5.3-2.9l-0.9,1.7L16.5,76
		l0.8-2l-2.7-2.6l0.9-1.7l3.2,1.8l1.4-2.7l0.9,0.5L19.5,72l7.5,4c1.1,0.6,1.9,0.4,2.3-0.5c0.3-0.5,0.3-1,0.2-1.8L30.1,73.6z"/>
	<path class="st0" d="M34.6,60.2l4.1,2.8l-7.3,10.7l-0.7-0.5l1-1.9c-1.9-1.3-3.7-2.6-5.4-3.7l-1.3-0.9c-1.9-1.3-3.8-2.6-5.8-3.9
		L18,64.6l-0.7-0.5l4.4-6.5l0.7,0.5l-1.1,2c1.8,1.3,3.7,2.6,5.5,3.8l1.3,0.9c1.8,1.2,3.7,2.5,5.7,3.8l2.9-4.3l-2.8-3.1L34.6,60.2z"
		/>
	<path class="st0" d="M48.7,44.8l3.5,3.5l-9,9.2L42.6,57l1.4-1.7c-1.6-1.6-3.2-3.2-4.6-4.6l-1.1-1.1c-1.6-1.6-3.3-3.2-5-4.8
		l-1.7,1.4l-0.6-0.6l5.5-5.6l0.6,0.6l-1.4,1.8c1.6,1.6,3.2,3.3,4.8,4.8l1.1,1.1c1.5,1.5,3.2,3.1,4.9,4.7l3.7-3.7l-2.2-3.5L48.7,44.8
		z"/>
	<path class="st0" d="M43.5,33.6c-0.7-0.8-0.5-1.9,0.3-2.5c0.8-0.6,1.8-0.6,2.5,0.2c0.6,0.8,0.5,1.8-0.3,2.5
		C45.3,34.4,44.2,34.4,43.5,33.6z M57.8,42.8l0.5,0.5l-4.9,4.1l-0.5-0.5l1.2-1.2c-0.8-1-2-2.5-2.8-3.5l-1-1.3
		c-0.9-1.1-1.5-1.8-2.3-2.6l-1.5,1.1l-0.4-0.5l2.7-4l0.4,0l2.3,2.8l2.2,2.6c0.8,1,2.1,2.4,2.9,3.4L57.8,42.8z"/>
	<path class="st0" d="M70.4,34l0.4,0.6l-5.2,3.5l-0.4-0.6l1.2-1.1c-0.7-1.1-1.7-2.7-2.5-3.8l-1.6-2.4c-1.1-1.7-2-1.9-3-1.2
		c-0.7,0.5-1.3,1.4-1.7,2.9l2.3,3.4c0.7,1,1.8,2.6,2.6,3.7l1.3-0.7l0.4,0.6l-5.2,3.5l-0.4-0.6l1.3-1.1c-0.7-1.1-1.8-2.7-2.5-3.7
		l-0.9-1.4c-0.8-1.2-1.3-1.9-2-2.8l-1.6,0.9l-0.3-0.5l2.9-3.6l0.4,0l1.3,1.6c0.3-2.2,1.1-3.5,2.3-4.4c1.8-1.2,3.7-0.8,5.4,1.7
		l1.6,2.3c0.7,1.1,1.8,2.6,2.6,3.7L70.4,34z"/>
	<path class="st0" d="M83.8,27.3l0.3,0.6l-3.9,1.9l-6.1-4.4l-0.6,1.7c0.6,1.2,1.4,2.9,2.1,4l1.5-0.6l0.3,0.6l-5.8,2.9l-0.3-0.6
		l1.5-1c-0.6-1.2-1.4-2.9-2-4l-5.2-10.4l-1.7,0.7l-0.3-0.6l3.7-2.9l0.4,0l1.5,3.3l3.8,7.6l2.2-6.4l-2.1,0.7l-0.3-0.7l5.3-2.6
		l0.3,0.7l-1.9,1.3l-1.3,3.7l7.2,5L83.8,27.3z"/>
	<path class="st0" d="M88.4,17.6c-0.3-1,0.2-2.1,1.2-2.4c1-0.3,2.1,0.3,2.4,1.3c0.3,0.9-0.2,2-1.2,2.4
		C89.8,19.1,88.7,18.5,88.4,17.6z"/>
</g>
</svg>
