<?xml version="1.0" encoding="utf-8"?>
<!-- Generator: Adobe Illustrator 25.2.3, SVG Export Plug-In . SVG Version: 6.00 Build 0)  -->
<svg version="1.1" id="圖層_1" xmlns="http://www.w3.org/2000/svg" xmlns:xlink="http://www.w3.org/1999/xlink" x="0px" y="0px"
	 viewBox="0 0 254 262" style="enable-background:new 0 0 254 262;" xml:space="preserve">
<style type="text/css">
	.st0{fill:#FFEEEE;}
</style>
<g>
	<path class="st0" d="M124.3,15.9c-0.1,0.2-0.3,0.3-0.8,0.3c-0.8,0.5-2.1,1.1-3.3,1.5c1.8,0.7,3.8,1.1,5.9,1.2l0,0.3
		c-0.9,0.3-1.5,1.2-1.7,2.4c-3.6-0.9-6.4-2.6-8.1-6c-0.7,0.7-1.5,1.3-2.4,1.9l0.2,2.2c1.1-0.3,2.3-0.7,3.5-1.1l0.1,0.2
		c-0.9,0.8-2.7,2.1-4.8,3.5c-0.2,0.3-0.4,0.5-0.6,0.7l-1.5-2.4c0.8-0.5,0.9-0.7,0.8-1.1l-0.1-0.9c-1.5,0.7-3.1,1.2-4.9,1.6l-0.1-0.3
		c2.7-1.1,5.1-2.7,6.5-4.4l-6.8,0.7l-0.2-0.6l9.5-0.9c-0.4-0.6-1.1-1.1-1.7-1.4l0.2-0.2c0.3-0.1,0.6-0.2,0.9-0.2
		c0-0.4-0.1-0.6-0.2-0.8c-0.2-0.1-0.3-0.3-0.9-0.3l0-0.3c0,0,0.6,0,1,0c0.3,0,0.3-0.2,0.3-0.4l-0.1-1.3l-2,0.2l0.3,3.5
		c0,0.2-0.9,0.7-1.7,0.8l-0.4,0l-0.4-4.1l-1.7,0.2l0.3,3c0,0.2-0.8,0.7-1.7,0.7l-0.3,0l-0.5-5l2.2,0.6l1.5-0.1l-0.1-1.5l-5,0.5
		L105.2,8l5.1-0.5l-0.2-1.7L108,6c-0.4,0.7-0.9,1.3-1.5,1.7l-0.3-0.2c0.3-1.1,0.6-2.7,0.6-4.2l2.8,0.5c-0.1,0.3-0.3,0.5-0.7,0.5
		c-0.1,0.3-0.3,0.6-0.4,0.9l1.8-0.2L109.9,3l2.9,0c0,0.3-0.1,0.5-0.6,0.6l0.1,1.4l1.1-0.1l1-1.4c0,0,1.3,0.8,2.1,1.4
		c0,0.2-0.2,0.4-0.5,0.4l-3.6,0.3l0.2,1.7l1.7-0.2l1-1.5c0,0,1.3,0.9,2.2,1.5c0,0.2-0.2,0.4-0.5,0.4l-4.3,0.4l0.1,1.5l1.8-0.2
		l0.8-1.2l2.4,1.4c-0.1,0.2-0.4,0.4-0.8,0.5l0.1,1.1c0.1,0.9,0,1.5-1.2,1.8c1.5,0,1.7,1.1,1.3,1.8l4.7-0.5l0.9-1.3
		c-0.3,0.1-0.8,0.3-1.3,0.4c-0.1-0.6-0.2-1.1-0.5-1.3c-0.3-0.2-0.7-0.4-1.5-0.5l0-0.3c0,0,1.7-0.1,2-0.1c0.3,0,0.4-0.1,0.3-0.4
		l-0.8-8.5l3,0c0,0.3-0.2,0.5-0.7,0.6l0.7,7.7c0.1,1,0,1.6-0.7,2.1c0.5,0.3,1.6,0.9,2.3,1.5c0,0.2-0.2,0.4-0.6,0.4l-8.3,0.8l0,0
		c0.7,0.9,1.6,1.5,2.6,2.1c0.9-0.8,1.8-1.9,2.2-2.6L124.3,15.9z M120.2,9.9c0,0.2-0.9,0.6-1.7,0.7l-0.4,0L117.4,3l2.8,0
		c0,0.3-0.1,0.5-0.6,0.6L120.2,9.9z"/>
	<path class="st0" d="M133.6,8.7c-0.1,0.2-0.3,0.3-0.7,0.4l-1,12.1c-0.1,0.2-1.1,0.6-2.1,0.5l-0.5,0l1-11c-0.9,0.9-1.9,1.7-2.9,2.3
		l-0.2-0.2c2.1-2.5,4.4-6.6,5.9-10.7l3.3,1.4c-0.1,0.3-0.4,0.4-0.9,0.3c-0.9,1.6-1.8,3.1-2.9,4.5L133.6,8.7z M141.7,7.9l-0.3,3.9
		l1.7,0.1l1.4-1.6c0,0,1.4,1.3,2.2,2.2c-0.1,0.2-0.3,0.3-0.6,0.3l-4.8-0.4l-0.3,4l1.8,0.2l1.6-1.7c0,0,1.5,1.4,2.4,2.3
		c-0.1,0.2-0.3,0.3-0.6,0.3l-5.2-0.4l-0.4,4.9c0,0.1-0.8,0.6-2.1,0.5l-0.5,0l1.3-14.7l-0.5,0c-1.6,2-3.3,3.5-5.2,4.6l-0.2-0.2
		c1.8-2.2,3.9-5.9,5.2-9.6l3.3,1.5c-0.1,0.3-0.4,0.4-0.9,0.3c-0.6,1-1.2,1.9-1.8,2.8l5,0.4l1.6-1.7c0,0,1.5,1.4,2.3,2.3
		c-0.1,0.2-0.3,0.3-0.6,0.3L141.7,7.9z"/>
	<path class="st0" d="M170.5,11.2c-0.2,0.1-0.5,0.2-1,0.2l-4.4,15.9c-0.1,0.2-1.3,0.4-2.1,0.2l-0.4-0.1l0.3-1.1l-12.6-3.5l-0.1,0.5
		c-0.1,0.3-1.1,0.6-2.1,0.3l-0.4-0.1l5.2-18.9l2.1,1.7l12.3,3.4l1.5-0.9L170.5,11.2z M163.1,25.7l4.3-15.3l-12.6-3.5l-4.3,15.3
		L163.1,25.7z M163.6,17.1c-0.1,0.1-0.8,0.2-1.4,0.1c2.9,1.3,1.8,2.6,0.8,2.4c0.3,0.4,0.8,1.1,1.1,1.7c-0.1,0.2-0.4,0.3-0.6,0.2
		l-2.8-0.8l-0.4,1.4c-0.4,1.3-0.8,1.9-3,1.5c0.1-0.5,0.2-0.9,0-1.3c-0.2-0.3-0.4-0.6-1.2-0.9l0.1-0.3c0,0,1.4,0.5,1.7,0.6
		c0.3,0.1,0.3,0,0.4-0.2l0.4-1.3l-3.9-1.1c2.6,1.5,0.4,3.4-0.8,1.9c0.2-0.7-0.1-1.7-0.4-2.3l-1.8-0.5l0-0.6l7,1.9l0.4-1.3l2.6,1
		c-0.1,0.3-0.4,0.4-0.8,0.3l-0.2,0.6l0.7,0.2l1.1-0.8c-0.2-0.1-0.3-0.3-0.5-0.5c-0.1-0.2-0.1-0.4-0.3-0.7c-1.8-0.2-4.4-0.6-7.9-1.2
		c-0.2,0.2-0.4,0.3-0.6,0.3l-0.5-2.1c1,0.3,2.8,0.8,4.8,1.3l0.3-1l-1.7-0.5l0,0.1c0,0.1-1,0.3-1.8,0.1l-0.3-0.1l1.5-5.4l1.8,1.4
		l1.6,0.4l0.3-1l-4.6-1.3l0-0.6l4.8,1.3l0.4-1.5l2.5,1c-0.1,0.2-0.3,0.4-0.7,0.3l-0.2,0.8l2.2,0.6l1.3-0.9c0,0,0.9,1.1,1.4,1.9
		c-0.1,0.2-0.3,0.3-0.6,0.2l-4.4-1.2l-0.3,1l1.6,0.4l1.1-0.6l1.4,1.9c-0.1,0.1-0.4,0.2-0.7,0.1L163.6,17.1z M158.1,15.2l0.3-1.1
		l-1.7-0.5l-0.3,1.1L158.1,15.2z M157.2,12l-0.3,1l1.7,0.5l0.3-1L157.2,12z M159.6,17.3l1.8,0.5c-0.2-0.3-0.5-0.5-0.9-0.8l0.2-0.3
		c0.3,0.1,0.6,0.2,0.9,0.3l0.1-0.2l-1.8-0.5L159.6,17.3z M162.1,15.1l-1.8-0.5l-0.3,1.1l1.8,0.5L162.1,15.1z M160.8,13l-0.3,1
		l1.8,0.5l0.3-1L160.8,13z"/>
	<path class="st0" d="M188.9,25.8c-0.2,0.1-0.5,0-0.8-0.3c-0.8,0.2-2.1,0.4-3.4,0.5c-0.4,2.8,0.1,5.7,1.5,7.5l-0.1,0.2
		c-0.8-0.2-1.7,0.1-2.4,1c-0.8-2.4-0.5-5.2,0.6-8.7c-0.3,0-0.7,0-1,0.1c-0.1,3.7-2,7.1-3.9,7.9c-0.8,0.4-1.8,0.1-3.2-0.6
		c0.3-0.6,0.4-1.2,0.3-1.6c-0.1-0.4-0.6-0.9-1.3-1.5l0.1-0.2c0.8,0.5,2.1,1.2,2.6,1.5c0.3,0.1,0.5,0.2,0.7,0.1
		c0.6-0.3,1.4-1.4,2.1-2.7c-2.1,0.5-4.7,0.6-7.2,0.3l0-0.3c2.9-0.3,6-1.5,8.4-3c0-0.2,0.1-0.4,0.2-0.6c-1.8,0.5-3.9,0.7-6,0.4
		c-0.9,1.8-2.1,2.5-4.2,1.5c0.3-0.6,0.6-1.4,0.6-1.8c0-0.3-0.3-0.5-0.6-0.9l-2.4,4.8c-0.1,0.1-0.9,0.3-2-0.2L167,29l8.5-17.4l1.9,2
		l1.1,0.6l1.7-0.6l1.1,3c-0.2,0.1-0.5,0.1-1-0.2c-1.2,0.8-3.4,2.3-4.9,3c1.3,2.1,1.3,4.2,0.7,5.8c2.2-0.5,4.3-1.5,5.9-2.8
		c-1.6,0.2-3.2,0.1-4.9-0.1l-0.1-0.3c2.3-0.2,4.5-1.1,6.3-2.1l-3.9-1.9l0.1-0.6l5.9,2.9c0.8-0.8,1.9-2.1,2.9-3.3l2.3,2.4
		c-0.2,0.2-0.5,0.2-0.9,0c-1.2,0.5-2.4,0.9-3.6,1.2l1.9,0.9l1.7-0.9c0,0,0.7,1.6,1,2.6c-0.2,0.2-0.4,0.2-0.7,0.1l-4.1-2
		c-1,0.5-2.2,0.9-3.4,1c0.3,1,0.5,2,0.5,3c1.7-0.8,3.6-1.9,4.5-2.6L188.9,25.8z M172.9,24.8c0.2,0.1,0.3,0.1,0.5,0.1
		c0.3,0,0.6-0.3,0.9-0.9c0.7-1.3,1-3,0.7-4.7c1-1.1,2.5-3.1,3.5-4.5l-1.5-0.8l-5,10.3L172.9,24.8z M182.7,14.5
		c4.6,3.3,1.1,6.1-0.1,3.8c0.3-1.1,0.2-2.7-0.1-3.8L182.7,14.5z"/>
	<path class="st0" d="M195.2,33.7c0.6-0.8,1.7-1,2.5-0.4c0.8,0.6,0.9,1.7,0.4,2.5c-0.5,0.7-1.6,0.9-2.4,0.4
		C194.8,35.6,194.6,34.5,195.2,33.7z"/>
	<path class="st0" d="M209.4,55.1c-1.5-0.4-2.9-1.1-4.2-2.4c-3.4-3.3-3.8-7.8-0.2-11.6c3.7-3.8,8.4-3.3,11.7-0.2
		c1.2,1.2,1.9,2.4,2.4,4l-2.6,2.6l-0.9-0.8l1.8-3.3c-0.3-0.6-0.6-1.1-1.1-1.6c-2.3-2.2-5.7-2.1-9.1,1.5c-3.5,3.6-3.4,6.9-1.2,9.1
		c0.5,0.5,1.1,0.9,1.8,1.2l3.2-1.9l0.9,0.9L209.4,55.1z"/>
	<path class="st0" d="M219,54.6c2-0.8,3.8-0.4,4.6,0.6c0.6,0.7,0.8,1.5,0.2,2.3c-0.8,0.6-1.5,0.7-2.2-0.1c-0.4-0.5-0.4-1.1-0.3-1.9
		l0-0.3c-1.1-0.2-2.2-0.1-3.6,0.5l-1.5,1.2c-0.9,0.7-2.2,1.8-3.1,2.6l1,1.7l-0.5,0.4l-4.1-4.9l0.5-0.4l1.1,1.1
		c0.9-0.8,2.3-1.9,3.2-2.6l1.2-1c1.1-0.9,1.6-1.4,2.4-2.1l-0.9-1.4l0.4-0.3l3.6,2.3l0,0.4L219,54.6z"/>
	<path class="st0" d="M222.3,63.5c-2.6,1.9-2.9,4-1.7,5.7c0.9,1.3,1.9,1.7,3.1,1.7l0,0.5c-1.9,0.3-3.6-0.5-4.8-2.2
		c-1.9-2.8-1.4-6,1.7-8.1c3.2-2.1,6.5-1.1,8.2,1.4c1.6,2.4,1,5-1.2,6.5c-0.5,0.3-0.8,0.5-1.2,0.6L222.3,63.5z M225,66.1
		c0.5,0.8,1.1,0.7,2,0.1c1.4-1,1.8-2.3,1.1-3.4c-0.8-1.1-2.5-1.3-5.1,0.3L225,66.1z"/>
	<path class="st0" d="M228.8,83.5c-1.2,0-1.9-0.4-2.4-1.4c-0.6-1.1-0.3-2.1,0.6-2.9c-1.6-0.4-2.6-0.9-3.3-2.2
		c-0.8-1.6-0.5-3.2,1.1-4.1c1.6-0.8,2.9-0.5,5.4,1.9c0.5,0.5,1.1,1.1,1.7,1.7l1-0.5c2-1.1,2.3-1.9,1.5-3.3c-0.2-0.3-0.4-0.6-0.6-0.9
		l-1.5,0.5c-1.1,0.5-1.7,0.2-2.1-0.4c-0.3-0.6-0.2-1.2,0.3-1.6c1.8-0.7,3.7,0.3,5.1,2.9c1.3,2.4,0.8,4-1.8,5.4l-4.8,2.6
		c-0.8,0.5-1,0.9-0.8,1.3c0.1,0.3,0.4,0.4,1.1,0.5L228.8,83.5z M231.1,76.8c-0.5-0.5-0.9-0.9-1.2-1.2c-1.4-1.2-2.5-1.3-3.7-0.6
		c-1.1,0.6-1.3,1.5-0.8,2.4c0.3,0.6,0.9,0.9,2,1.4L231.1,76.8z"/>
	<path class="st0" d="M231.9,90.9c-1.1-0.2-2-0.9-2.6-2.2c-0.8-1.8-0.3-3.2,1.7-4c0.6-0.3,1.2-0.5,2-0.8l5.1-2.2l-0.7-1.7l0.6-0.3
		l1,1.7l3.4-0.5l0.7,1.7l-3.1,1.3l1.1,2.6l-0.8,0.3l-1.1-2.6l-7.2,3.1c-1.1,0.5-1.3,1.1-1,1.9c0.2,0.5,0.6,0.8,1.2,1.1L231.9,90.9z"
		/>
	<path class="st0" d="M233.5,97.2l-0.6,0.2l-1.9-5.5l0.6-0.2l0.7,1.4c1.1-0.4,2.8-0.9,3.9-1.3l1.4-0.5c1.3-0.4,2-0.7,3-1.1l-0.4-1.7
		l0.5-0.2l2.6,3.7l-0.1,0.3l-3.1,1l-3,1c-1.1,0.4-2.8,1-3.9,1.4L233.5,97.2z M246.1,88c0.9-0.3,1.8,0.2,2.1,1.1
		c0.3,0.9-0.1,1.8-1,2.1c-0.9,0.3-1.7-0.2-2-1.1C244.9,89.2,245.3,88.3,246.1,88z"/>
	<path class="st0" d="M238.9,97.2c3.7-0.9,6.4,1.1,7.2,4.1c0.7,3-0.7,6.1-4.4,7c-3.7,0.9-6.5-1-7.2-4.1
		C233.6,101,235.2,98.1,238.9,97.2z M240.9,105.4c3.4-0.8,4.8-2.2,4.4-3.9c-0.4-1.7-2.3-2.2-5.7-1.4c-3.4,0.8-4.8,2.2-4.4,3.9
		C235.6,105.7,237.5,106.2,240.9,105.4z"/>
	<path class="st0" d="M238.6,123.7l-0.7,0.1l-0.7-5.8l0.7-0.1l0.4,1.4c1.2-0.1,2.9-0.3,4.1-0.4l2.7-0.3c1.8-0.2,2.4-0.8,2.3-2
		c-0.1-0.8-0.6-1.7-1.7-2.6l-3.8,0.5c-1.2,0.1-2.9,0.4-4.1,0.6v1.4l-0.7,0.1l-0.7-5.8l0.7-0.1l0.4,1.5c1.2-0.1,3-0.3,4.1-0.5
		l1.5-0.2c1.4-0.2,2.1-0.3,3.1-0.5l0-1.7l0.5-0.1l1.8,3.9l-0.2,0.3l-1.9,0.4c1.7,1.1,2.4,2.4,2.6,3.7c0.2,2-0.9,3.4-3.7,3.7
		l-2.6,0.3c-1.2,0.1-2.9,0.4-4.1,0.5L238.6,123.7z"/>
	<path class="st0" d="M246.6,144.1c-2.2-0.7-3.6-1.5-5.3-2.8c-0.9,0.8-1.9,1.6-3.1,2.6l-0.2,1.3l-0.7-0.1c-0.1-0.9-0.2-1.4-0.2-2
		c0.1-1.2,0.4-2.1,1.3-2.9c0.4-0.3,0.7-0.6,1.1-0.9c-1.1-1.1-2-2.6-1.9-4.7c0.2-3.1,2.2-4.8,4.5-4.6c1.9,0.1,3.4,1.3,4.4,3.9
		l0.3-0.3c1.4-1,2.5-1.3,3.7-1.2c2.2,0.1,3.5,1.9,3.3,4.3c-0.1,2.5-1.5,3.7-3.2,3.6c-1.7-0.1-2.7-1.3-3.7-3.7
		c-0.5,0.4-1.2,0.9-2.1,1.7c-1.2,0.9-2.1,1.7-3,2.5c1.5,1,3,1.6,4.9,2l0.4-1.9l0.7,0l-0.3,4.9l-0.7,0L246.6,144.1z M240,138.9
		c1-0.9,2.1-1.6,3-2.3c1.4-1,2.2-1.7,3.1-2.3c-0.9-1.2-2-1.7-3.2-1.8c-2-0.1-3.6,1.2-3.7,3.3C239.1,137.1,239.4,138,240,138.9z
		 M251.1,134.6c-0.8,0-1.5,0.1-2.6,0.8c-0.4,0.3-0.7,0.5-1.1,0.8c1,1.2,2,2.1,3.4,2.1s2.2-0.6,2.2-1.7
		C253.1,135.6,252.3,134.7,251.1,134.6z"/>
	<path class="st0" d="M241.2,157.9c-1.6-0.4-3.4-0.8-5.2-1.2l-0.7,2.2l-0.7-0.2l1.8-7.1l0.7,0.2l-0.3,2c2,0.5,4.1,1.1,6.2,1.6l1,0.2
		c2.1,0.5,4.1,1,6.2,1.5l0.7-1.9l0.7,0.2l-1.5,6.1c-1.1,4.3-3.2,5.8-6,5.1c-2.6-0.6-4.2-2.9-3-7.6L241.2,157.9z M249.5,160.1
		c-2.1-0.6-4.2-1.1-6.3-1.6l-1.2-0.3l-0.2,1c-0.6,2.6,0.7,4.1,2.9,4.6c2.4,0.6,4-0.2,4.6-2.6L249.5,160.1z"/>
	<path class="st0" d="M239.4,171.8c1.7,1.3,2.2,3.1,1.8,4.2c-0.3,0.8-0.9,1.4-1.9,1.3c-0.9-0.4-1.4-1-1-1.9c0.2-0.7,0.8-0.9,1.5-1.2
		l0.3-0.1c-0.4-1.1-1-1.9-2.3-2.9l-1.8-0.6c-1.1-0.4-2.7-1-3.8-1.4l-0.9,1.7l-0.6-0.2l2.2-6l0.6,0.2l-0.4,1.5
		c1.1,0.4,2.8,1.1,3.9,1.5l1.4,0.5c1.3,0.5,2,0.7,3,1l0.7-1.5l0.5,0.2l-0.2,4.3l-0.3,0.2L239.4,171.8z"/>
	<path class="st0" d="M234.6,176.5c3.4,1.6,4.2,5,2.9,7.8c-1.3,2.8-4.4,4.2-7.9,2.6c-3.4-1.7-4.4-4.9-3-7.8
		C228.1,176.1,231.2,174.8,234.6,176.5z M230.9,184.1c3.1,1.5,5.1,1.4,5.9-0.2c0.8-1.6-0.4-3.2-3.5-4.7c-3.2-1.5-5.1-1.4-5.9,0.2
		C226.7,180.9,227.8,182.6,230.9,184.1z"/>
	<path class="st0" d="M217.7,196.4l-0.6-0.4l2.1-3.6l1.3,0.6c-0.4-1.2-0.2-2.4,0.5-3.6c1.5-2.3,4.5-2.9,7.6-0.9
		c3.2,2.1,4,5.2,2.4,7.6c-0.6,1-1.6,1.6-2.9,1.8l4.6,3l1.1-1.5l0.5,0.3l-1.5,4.1l-0.3,0.1l-2.8-1.9l-11-7L217.7,196.4z M227.6,197.5
		c0.9-0.3,1.4-0.7,1.8-1.3c0.9-1.4,0.7-3.2-2.3-5.1c-2.8-1.8-4.6-1.4-5.6,0.1c-0.4,0.6-0.6,1.3-0.4,2.2L227.6,197.5z"/>
	<path class="st0" d="M209.1,206.9l-0.5-0.4l2.4-3.3l1.7,1.2c-0.4-1.6-0.2-3.3,0.8-4.5c1.3-1.6,3-1.8,5.4,0.2l4.7,4l1.2-1l0.5,0.4
		l-2.2,3.6l-0.3,0l-2.5-2.3l-3.2-2.6c-1.4-1.2-2.3-1.1-3.1-0.2c-0.6,0.7-0.8,1.7-0.7,2.8l5.8,4.8l1.2-1l0.4,0.4l-2.1,3.5l-0.3,0
		l-2.6-2.2l-5.5-4.5L209.1,206.9z"/>
	<path class="st0" d="M210.2,219.9c0.3-0.1,0.5-0.3,0.7-0.5c1.4-1.4,1.2-3.7-1-6c-2.1-2.2-4.5-2.4-6.1-0.8c-0.9,0.9-1.2,2-1.1,3.3
		l-0.5,0.1c-0.6-1.9-0.2-3.6,1.4-5.2c2.3-2.2,5.6-2.3,8.2,0.4c2.7,2.8,2.2,6.3-0.1,8.5c-1.6,1.6-3.8,1.8-5.3,0.7
		c-0.3-0.6-0.3-1.1,0.2-1.6c0.6-0.6,1.3-0.7,2.2,0.1L210.2,219.9z"/>
	<path class="st0" d="M194.5,220.6c-0.1-1.1,0.3-2.2,1.4-3.1c1.5-1.2,3-1.2,4.3,0.5c0.4,0.5,0.8,1,1.3,1.7l3.5,4.3l1.4-1.1l0.4,0.5
		l-1.4,1.4l1.4,3.2l-1.4,1.1l-2.1-2.6l-2.2,1.8l-0.6-0.7l2.2-1.8l-4.9-6.1c-0.7-0.9-1.5-1-2.1-0.4c-0.4,0.3-0.6,0.8-0.8,1.4
		L194.5,220.6z"/>
	<path class="st0" d="M188.9,223.9l-0.4-0.5l4.8-3.4l0.4,0.5l-1.2,1c0.7,1,1.7,2.4,2.4,3.4l0.9,1.2c0.8,1.1,1.3,1.8,1.9,2.6l1.5-0.9
		l0.3,0.5l-2.8,3.5l-0.4,0l-1.9-2.7l-1.8-2.6c-0.7-1-1.7-2.4-2.4-3.4L188.9,223.9z M201.3,233.5c0.6,0.8,0.3,1.7-0.5,2.3
		s-1.7,0.4-2.3-0.3c-0.5-0.7-0.3-1.7,0.5-2.2C199.8,232.7,200.8,232.7,201.3,233.5z"/>
	<path class="st0" d="M190.4,229.1c1.9,3.3,0.7,6.5-1.9,8c-2.7,1.5-6,1-8-2.3c-1.9-3.3-0.9-6.5,1.9-8.1
		C185.3,225.1,188.5,225.8,190.4,229.1z M183.1,233.3c1.8,3,3.5,4,5,3.1c1.5-0.9,1.5-2.9-0.3-5.9c-1.8-3-3.5-4-5-3.2
		C181.4,228.3,181.4,230.3,183.1,233.3z"/>
	<path class="st0" d="M164.9,236.2l-0.3-0.6l5.3-2.3l0.3,0.6l-1.3,0.8c0.4,1.1,1.1,2.7,1.6,3.8l1.1,2.5c0.7,1.7,1.5,2.1,2.5,1.6
		c0.7-0.3,1.4-1.1,2-2.4l-1.5-3.5c-0.5-1.1-1.2-2.7-1.7-3.8l-1.3,0.4l-0.3-0.6l5.3-2.3l0.3,0.6l-1.3,0.8c0.5,1.1,1.1,2.7,1.6,3.8
		l0.6,1.4c0.5,1.3,0.9,2,1.3,2.9l1.6-0.5l0.2,0.5l-3.2,2.8l-0.3-0.1l-0.9-1.7c-0.6,1.9-1.6,3-2.9,3.6c-1.8,0.8-3.5,0.1-4.6-2.5
		l-1-2.4c-0.5-1.1-1.2-2.7-1.7-3.8L164.9,236.2z"/>
	<path class="st0" d="M159.8,245.1c0.3,0.9-0.3,1.9-1.2,2.2c-0.9,0.3-1.9-0.3-2.1-1.3c-0.2-0.9,0.3-1.9,1.2-2.1
		C158.6,243.7,159.5,244.3,159.8,245.1z"/>
	<path class="st0" d="M133.4,244.3c-6.8,0.1-6.2-4.6-3.7-3.8c0.8,1.3,2.5,2.8,3.8,3.6L133.4,244.3z M131.5,260c0,0-1.6-1.1-2.6-1.8
		c0-0.2,0.2-0.4,0.5-0.4l3.9-0.4c0.6-0.9,1.3-1.9,2-2.6l-2.6,0.2l-1,1.3l-2.4-1.5c0.1-0.2,0.3-0.3,0.7-0.4l-0.9-9.3
		c0-0.2,1.1-0.7,1.9-0.8l0.4,0l0.1,0.8l4.3-0.4l0-0.3c0,0,0-0.1,0.1-0.2l-2.8-1.4c0.1-0.2,0.3-0.2,0.7-0.2c1.3-1.2,4.1-2.6,6.5-3.3
		l0.2,0.3c-1.7,1.1-3.5,3-4.4,4.5c0.3-0.3,1-0.6,1.7-0.6l0.4,0l0.7,7c0.1,0,0.2-0.1,0.4-0.1c0.6-1.1,1.6-2.6,2.4-3.6l0.2,0.1
		c-0.1,1-0.2,2.6-0.3,3.8l1.4-0.1l-0.8-8.3c-0.2-1.6,0.1-2.8,2.6-3.2c0.1,0.7,0.3,1.3,0.5,1.6c0.3,0.3,0.8,0.5,1.7,0.6l0,0.3
		c0,0-1.8,0.1-2.2,0.1c-0.3,0-0.4,0.2-0.4,0.4l0.8,8.3l2.8-0.3l0.2,0.6l-6.5,0.6l-1.1,1.4l-1.9-1.5l0.4,4.5l-2.6-0.8l-0.8,0.1
		c0,0.7,0,1.6,0.1,2.4l3.8-0.4l-0.1-0.1c0.1-0.2,0.4-0.2,0.8-0.3c0.7-0.8,1.9-1.7,3.1-2.4c-1.8-1.3-0.9-3.5,0.9-2.7
		c0.5,1.3,1.9,2.7,3.1,3.4l-0.2,0.2c-1.4,0-2.4-0.2-3.2-0.5c-0.4,0.7-0.8,1.5-1.1,2.2l5.1-0.5l0.2,0.6l-5.4,0.5l-1.2,1.4l-1.6-1.2
		l-7.8,0.7L131.5,260z M131.7,245.7l0.2,2.6l4.3-0.4l-0.2-2.6L131.7,245.7z M136.3,248.5l-4.3,0.4l0.2,2.6l4.3-0.4L136.3,248.5z
		 M136.8,254.1l-0.2-2.5l-4.3,0.4l0.2,2.5L136.8,254.1z"/>
	<path class="st0" d="M105.8,253.9c0.2-0.2,0.5-0.3,1-0.3c1-8.5,1.9-12.3,3.3-13.5c0.9-0.7,1.8-0.9,3.1-0.8c-0.1,0.8,0,1.3,0.3,1.7
		c0.3,0.4,1,0.8,1.9,1.1l0,0.3c-0.9-0.1-2.2-0.4-2.7-0.4c-0.4,0-0.6,0-0.9,0.2c-1,0.7-1.8,4.8-2.7,12.1l4.4,0.4
		c1.1-1.9,2.4-3.5,3.9-4.7l0.3,0.2c-1.3,2.4-2.7,6-3.4,9.4l-3.3-1.1c0.1-0.2,0.4-0.4,0.8-0.4c0.4-1,0.9-1.9,1.4-2.8l-3.9-0.3
		l-1.4,1.2L105.8,253.9z M114.4,251.6c-5.5-3.1-2.8-7.3-0.9-5.2c-0.1,1.7,0.5,3.7,1.1,5.1L114.4,251.6z M126.2,249.1
		c0,0-0.6,0.1-0.8,0.2c-1.1,0.6-2.6,2-3.9,3.4c0.8-0.2,1.8-0.5,2.9-0.8c0.2-0.3,0.4-0.4,0.6-0.5l0.9,2.7c0,0-0.5,0.1-0.7,0.2
		c-1.3,0.9-3.2,3.9-3.9,5.6l-2.8-1.8c0.1-0.2,0.3-0.3,0.8-0.2c1.1-1.2,3.1-2.8,4.8-3.9c-1-0.1-2.2-0.2-3.5-0.3
		c-0.6,0.8-1.2,1.6-1.5,2.2l-2.6-2.1c0.1-0.2,0.4-0.3,0.8-0.2c1.5-1.5,4.3-3.5,6.7-4.7c-1.3,0-3-0.1-4.7-0.1
		c0.2,0.8,0.5,1.5,0.7,2.1l-0.2,0.1c-4.7-2.4-2.3-5.8-0.7-4.1c0,0.4,0,0.9,0.1,1.3c1.4-0.4,3.3-1,5.6-1.5c0.2-0.2,0.4-0.4,0.6-0.4
		L126.2,249.1z M119.7,246.5c-4.5-2.1-2.1-5.6-0.5-3.8c-0.1,1.2,0.3,2.7,0.7,3.7L119.7,246.5z M122.1,246.4
		c-3.6-3.1-0.7-6.1,0.6-4.1c-0.4,1.3-0.4,2.9-0.3,4L122.1,246.4z M124.3,246.2c-0.6-2.3-0.3-4,0.4-4.8c0.5-0.5,1.7-0.4,2,0.4
		c0.3,0.7-0.1,1.4-0.8,1.7c-0.6,0.4-1.4,1.6-1.4,2.7L124.3,246.2z"/>
	<path class="st0" d="M97.3,245.5c0.2-0.1,0.3-0.1,0.7,0c0.9-1.3,2.4-2.6,4.1-3.5c0,0-0.1-0.1-0.1-0.1c-1.2-1.7-3.7-2.7-8.2-3.9
		c-2.4-0.7-4.4-1.2-6.8-1.8l0.1-0.2c1,0.1,1.8-0.6,2.2-1.5l5.9,1.7c4.5,1.3,6.1,2.5,7.2,5.1c0.2,0.5,0.4,0.5,0.7,0.2
		c0.5-0.5,1.3-1.4,2-2.3c0-0.2,0.1-0.3,0.3-0.4l1,2.8c-1.2,0.2-3,1-3.6,0.9c-1,1.1-2,2.6-2.6,3.9l1.3,0.4l0.9-0.5l1.5,1.9
		c-0.2,0.1-0.6,0.1-0.9,0.2c-1,0.7-2.2,1.9-3.1,2.7l3,0.8l0,0.6l-3.2-0.9l-1.3,0.7l-1.5-2.4c0.2-0.2,0.7-0.1,1.2,0
		c0.8-0.7,2.1-1.8,3-2.6l-0.9-0.3l-1.4,0.8l-1.4-2l-1.8,6.3l-2.1-1.6l-1.6-0.4l-0.5,1.7l5,1.4l0,0.6l-5.1-1.4l-0.7,2.5l-2.9-1.1
		c0.1-0.3,0.3-0.5,0.9-0.4l0.5-1.7l-1.6-0.5l-1.7,1.2c0,0-1.1-1.4-1.8-2.5c0.1-0.2,0.4-0.2,0.7-0.2l4.7,1.3l0.5-1.7l-1.4-0.4
		l-1.4,0.9l-1.8-2.3c0.2-0.1,0.5-0.2,1-0.2l1.5-5.2c0-0.1,0.4-0.2,0.8-0.2c-0.3-0.3-1.2-1.5-1.8-2.4c0.1-0.2,0.4-0.3,0.6-0.2
		l4.9,1.4l0.6-2c0.1-0.2,1.2-0.4,2-0.2l0.4,0.1l-0.8,2.7l4.9,1.4l0,0.6l-5.1-1.4l-0.6,2l1.7,0.5l0.1-0.5c0.1-0.2,1.2-0.4,2.1-0.2
		l0.3,0.1L97.3,245.5z M89.8,248.7l0.6-2.1l-1.6-0.5l-0.6,2.1L89.8,248.7z M88.5,241.9c0.4,0,0.7,0,1,0.1l0.4,0.1l-0.2,0.8l1.6,0.5
		l0.6-2l-1.8-0.5L88.5,241.9z M88.9,245.6l1.6,0.5l0.6-2.2l-1.6-0.5L88.9,245.6z M93.7,249.8l0.6-2.1l-1.7-0.5l-0.6,2.1L93.7,249.8z
		 M93.4,244.5l-0.6,2.2l1.7,0.5l0.6-2.2L93.4,244.5z M100.7,257.3c-5.4-2.1-2.3-5.8-0.6-3.7c-0.1,1.2,0.3,2.7,0.8,3.6L100.7,257.3z"
		/>
	<path class="st0" d="M67.5,240.1l1.7-3.4l-1.3-0.6l-1.8,0.9c0,0-0.8-1.6-1.2-2.6c0.2-0.2,0.4-0.2,0.7-0.1l9.3,4.6l-0.1,0.6
		l-3.5-1.7l-1.7,3.4l3.7,1.8l-0.1,0.6l-3.9-1.9l-1.8,3.7l-2.7-1.7c0.2-0.2,0.4-0.4,1-0.2l1.4-2.9l-1.5-0.7l-1.9,0.9
		c0,0-0.8-1.6-1.2-2.7c0.1-0.2,0.4-0.2,0.7,0L67.5,240.1z M67.9,234.1l-1.2-2.4c0.2-0.1,0.4-0.1,0.9,0l3-6.1c0.1-0.1,0.9-0.2,2,0.4
		l0.4,0.2l-0.7,1.5l4,2l0.6-1.1c0.1-0.2,0.9-0.2,1.9,0.3l0.4,0.2l-4.1,8.3l-1.9-2l-3.7-1.8L67.9,234.1z M72,228.2l-2.3,4.7l4,2
		l2.3-4.7L72,228.2z M83.6,241c0,0-0.5-0.1-0.8-0.1c-1.2,0.2-3,1-4.6,1.9c0.8,0.1,1.6,0.1,2.6,0.2c0.2-0.1,0.5-0.2,0.7-0.2l-0.2,2.7
		c0,0-0.4-0.1-0.7-0.1c-1.4,0.5-4,2.6-5.1,3.9l-1.9-2.6c0.2-0.1,0.5-0.2,0.8,0c1.4-0.8,3.7-1.7,5.6-2.1c-0.8-0.4-1.7-0.9-2.8-1.4
		c-0.8,0.5-1.5,1-1.9,1.4l-1.5-2.7c0.2-0.1,0.5-0.1,0.8,0.2c1.7-0.8,4.8-1.8,7.3-2.2c-1-0.4-2.4-1-3.7-1.5c-0.1,0.7-0.2,1.5-0.2,2.1
		l-0.3,0c-3.1-3.7,0.2-5.8,0.9-3.7c-0.2,0.3-0.3,0.7-0.4,1.1c1.3,0.1,3,0.2,4.9,0.4c0.3-0.1,0.5-0.2,0.7-0.1L83.6,241z M79.3,236.6
		c-3.1-3.5,0.1-5.7,0.9-3.6c-0.5,1.1-0.7,2.6-0.6,3.6L79.3,236.6z M81.3,237.2c-2-4,1.5-5.7,1.9-3.5c-0.8,1-1.4,2.5-1.7,3.6
		L81.3,237.2z M83,237.7c0.2-2.3,1.1-3.8,2-4.2c0.7-0.3,1.7,0.2,1.7,1c0,0.7-0.6,1.2-1.3,1.3c-0.7,0.2-1.8,1.1-2.2,2.1L83,237.7z"/>
	<path class="st0" d="M58.6,228c-0.6,0.8-1.7,1-2.5,0.4c-0.8-0.6-0.9-1.7-0.4-2.5c0.5-0.7,1.6-0.9,2.4-0.4
		C59,226.2,59.1,227.3,58.6,228z"/>
	<path class="st0" d="M44.5,206.7c1.5,0.4,2.9,1.1,4.2,2.4c3.4,3.3,3.8,7.9,0.1,11.6c-3.7,3.8-8.4,3.3-11.7,0.1
		c-1.2-1.2-1.9-2.4-2.4-4l2.6-2.6l0.9,0.8l-1.9,3.3c0.3,0.6,0.6,1.1,1.1,1.6c2.3,2.2,5.7,2.1,9.1-1.5c3.5-3.6,3.5-6.9,1.2-9.1
		c-0.5-0.5-1.1-0.9-1.8-1.2l-3.2,1.9l-0.9-0.9L44.5,206.7z"/>
	<path class="st0" d="M34.9,207.1c-2,0.8-3.8,0.4-4.6-0.6c-0.6-0.7-0.8-1.5-0.2-2.3c0.8-0.6,1.5-0.7,2.2,0.1
		c0.4,0.5,0.4,1.1,0.3,1.9l0,0.3c1.1,0.2,2.2,0.1,3.6-0.5l1.5-1.2c0.9-0.7,2.2-1.8,3.1-2.6l-1-1.7l0.5-0.4l4.1,4.9l-0.5,0.4
		l-1.1-1.1c-0.9,0.8-2.3,1.9-3.2,2.6l-1.2,1c-1.1,0.9-1.6,1.4-2.4,2.1l0.9,1.4l-0.4,0.3l-3.6-2.3l0-0.4L34.9,207.1z"/>
	<path class="st0" d="M31.5,198.2c2.6-1.9,2.9-4,1.8-5.7c-0.9-1.3-1.9-1.7-3.1-1.7l0-0.5c1.9-0.3,3.6,0.5,4.8,2.2
		c1.9,2.8,1.4,6-1.8,8.1c-3.2,2.1-6.5,1-8.2-1.4c-1.6-2.4-1-5,1.2-6.5c0.5-0.3,0.8-0.5,1.2-0.6L31.5,198.2z M28.9,195.6
		c-0.5-0.8-1.1-0.7-2-0.1c-1.4,1-1.8,2.3-1.1,3.4c0.7,1.1,2.5,1.3,5.1-0.3L28.9,195.6z"/>
	<path class="st0" d="M25,178.1c1.2,0,1.9,0.5,2.4,1.4c0.6,1.1,0.3,2.1-0.6,2.9c1.6,0.5,2.6,0.9,3.3,2.3c0.8,1.6,0.5,3.2-1.1,4
		c-1.6,0.8-2.9,0.5-5.4-2c-0.5-0.5-1.1-1.1-1.6-1.7l-1,0.5c-2,1.1-2.3,1.9-1.5,3.3c0.2,0.3,0.4,0.6,0.6,0.9l1.5-0.5
		c1.1-0.5,1.8-0.2,2.1,0.4c0.3,0.6,0.2,1.2-0.3,1.6c-1.8,0.7-3.7-0.3-5.1-2.9c-1.3-2.5-0.8-4,1.8-5.4l4.8-2.6c0.8-0.4,1-0.9,0.8-1.3
		c-0.1-0.3-0.4-0.4-1.1-0.5L25,178.1z M22.7,184.8c0.5,0.5,0.9,0.9,1.2,1.2c1.4,1.2,2.5,1.3,3.7,0.7c1.1-0.6,1.3-1.5,0.8-2.4
		c-0.3-0.6-0.9-0.9-2-1.4L22.7,184.8z"/>
	<path class="st0" d="M22,170.8c1.1,0.2,2,0.9,2.6,2.2c0.8,1.8,0.3,3.2-1.7,4c-0.6,0.3-1.2,0.5-2,0.8l-5.1,2.2l0.7,1.7l-0.6,0.3
		l-1-1.7l-3.4,0.5l-0.7-1.7l3.1-1.2l-1.1-2.6l0.8-0.3l1.1,2.6l7.2-3c1.1-0.5,1.3-1.1,1-1.9c-0.2-0.5-0.6-0.8-1.2-1.1L22,170.8z"/>
	<path class="st0" d="M7.8,173.7c-0.9,0.3-1.8-0.2-2-1.1c-0.3-0.9,0.1-1.8,1-2.1c0.9-0.3,1.7,0.2,2,1.1C9,172.5,8.6,173.4,7.8,173.7
		z M20.4,164.5l0.6-0.2l1.9,5.5l-0.6,0.2l-0.7-1.4c-1.1,0.4-2.8,0.9-3.9,1.3l-1.4,0.5c-1.3,0.4-2,0.7-3,1.1l0.4,1.7l-0.5,0.2
		l-2.5-3.7l0.1-0.3l3.1-1l3-1c1.1-0.4,2.8-1,3.9-1.4L20.4,164.5z"/>
	<path class="st0" d="M15,164.5c-3.7,0.9-6.4-1.1-7.2-4.1c-0.7-3,0.7-6.1,4.4-7s6.5,1,7.2,4.1C20.3,160.7,18.7,163.6,15,164.5z
		 M13,156.3c-3.4,0.8-4.8,2.2-4.4,3.9c0.4,1.7,2.3,2.2,5.7,1.4c3.4-0.8,4.9-2.2,4.4-3.9C18.4,156,16.4,155.4,13,156.3z"/>
	<path class="st0" d="M15.4,137.9l0.7-0.1l0.7,5.8l-0.7,0.1l-0.4-1.5c-1.2,0.1-2.9,0.3-4.1,0.4L8.9,143c-1.8,0.2-2.4,0.8-2.3,2
		c0.1,0.8,0.6,1.7,1.7,2.6l3.8-0.5c1.2-0.1,2.9-0.4,4.1-0.5l0-1.4l0.7-0.1l0.7,5.8l-0.7,0.1l-0.4-1.5c-1.2,0.1-3,0.3-4.1,0.5
		l-1.5,0.2c-1.4,0.2-2.1,0.3-3.1,0.5l0,1.7l-0.5,0.1l-1.8-3.9l0.2-0.3l1.9-0.4c-1.7-1.1-2.4-2.4-2.6-3.7c-0.2-2,0.9-3.4,3.7-3.7
		l2.6-0.3c1.2-0.1,2.9-0.4,4.1-0.5L15.4,137.9z"/>
	<path class="st0" d="M7.5,117.5c2.2,0.7,3.6,1.5,5.3,2.9c0.9-0.8,1.9-1.6,3.1-2.6l0.2-1.3l0.7,0.1c0.1,0.9,0.2,1.4,0.2,2
		c-0.1,1.2-0.4,2.1-1.3,2.9c-0.4,0.3-0.7,0.6-1.1,0.9c1.1,1.1,2,2.6,1.8,4.7c-0.2,3.1-2.2,4.7-4.5,4.6c-1.9-0.1-3.4-1.3-4.4-3.9
		L7.1,128c-1.4,1-2.5,1.3-3.7,1.2c-2.2-0.1-3.5-1.9-3.3-4.3c0.2-2.5,1.5-3.7,3.3-3.6c1.7,0.1,2.7,1.3,3.7,3.8
		c0.5-0.4,1.2-0.9,2.1-1.7c1.2-0.9,2.1-1.7,3-2.5c-1.4-1-3-1.6-4.9-2L7,120.7l-0.7,0l0.3-4.9l0.7,0L7.5,117.5z M2.9,127
		c0.8,0,1.5-0.1,2.6-0.8c0.4-0.3,0.7-0.5,1.1-0.8c-1-1.3-2-2.1-3.4-2.1s-2.2,0.6-2.3,1.7C0.9,126,1.7,126.9,2.9,127z M14,122.8
		c-1.1,0.8-2.1,1.6-3,2.3c-1.4,1-2.2,1.6-3.1,2.3c0.9,1.2,2,1.7,3.2,1.8c2,0.1,3.6-1.2,3.8-3.3C14.9,124.6,14.6,123.6,14,122.8z"/>
	<path class="st0" d="M12.9,103.7c1.6,0.4,3.4,0.8,5.2,1.2l0.8-2.2l0.7,0.2l-1.8,7.1l-0.7-0.2l0.3-2c-2-0.5-4.1-1.1-6.2-1.6l-1-0.3
		c-2.1-0.5-4.1-1-6.2-1.5l-0.7,1.9l-0.7-0.2l1.5-6.1c1.1-4.3,3.3-5.7,6.1-5c2.6,0.6,4.2,2.9,3,7.6L12.9,103.7z M4.5,101.6
		c2.1,0.6,4.2,1.1,6.3,1.6l1.2,0.3l0.3-1c0.6-2.6-0.6-4.1-2.9-4.7c-2.4-0.6-4,0.2-4.6,2.6L4.5,101.6z"/>
	<path class="st0" d="M14.7,89.9c-1.7-1.3-2.2-3.1-1.8-4.3c0.3-0.8,0.9-1.4,1.9-1.3c0.9,0.4,1.4,1,1,1.9c-0.2,0.7-0.8,0.9-1.5,1.2
		L14,87.6c0.4,1.1,1,1.9,2.3,2.9l1.8,0.6c1.1,0.4,2.7,1,3.8,1.4l0.9-1.7l0.6,0.2l-2.2,6l-0.6-0.2l0.4-1.5c-1.1-0.4-2.8-1.1-3.9-1.5
		l-1.4-0.5c-1.3-0.5-2-0.7-3-1l-0.7,1.5l-0.5-0.2l0.2-4.3l0.3-0.2L14.7,89.9z"/>
	<path class="st0" d="M19.5,85.2c-3.4-1.7-4.2-5-2.9-7.8c1.3-2.8,4.4-4.2,7.9-2.5s4.4,4.9,2.9,7.8C26,85.6,22.9,86.8,19.5,85.2z
		 M23.2,77.6c-3.1-1.5-5.1-1.4-5.9,0.2c-0.8,1.6,0.4,3.2,3.5,4.7c3.2,1.5,5.1,1.4,5.9-0.2C27.4,80.8,26.3,79.1,23.2,77.6z"/>
	<path class="st0" d="M36.4,65.4l0.6,0.4l-2.1,3.6l-1.3-0.6c0.4,1.2,0.2,2.4-0.5,3.6c-1.5,2.3-4.5,2.9-7.6,0.9
		c-3.2-2.1-4-5.2-2.4-7.6c0.6-1,1.6-1.6,2.9-1.8l-4.6-3l-1.1,1.5L19.8,62l1.5-4.1l0.3-0.1l2.8,1.9l11,7L36.4,65.4z M26.6,64.2
		c-0.9,0.3-1.4,0.7-1.8,1.3c-0.9,1.4-0.7,3.2,2.3,5.1c2.8,1.8,4.6,1.4,5.6-0.1c0.4-0.6,0.6-1.3,0.4-2.2L26.6,64.2z"/>
	<path class="st0" d="M45.1,54.9l0.5,0.4l-2.4,3.3l-1.7-1.2c0.3,1.6,0.2,3.3-0.8,4.5c-1.3,1.6-3,1.8-5.4-0.2l-4.7-4l-1.2,1l-0.5-0.4
		l2.3-3.6l0.3,0l2.5,2.3l3.2,2.6c1.4,1.2,2.3,1.1,3.1,0.2c0.6-0.7,0.8-1.7,0.7-2.8L35.1,52l-1.2,1l-0.4-0.4l2.2-3.5l0.3,0l2.6,2.2
		l5.5,4.6L45.1,54.9z"/>
	<path class="st0" d="M44,41.8c-0.3,0.1-0.5,0.3-0.7,0.5c-1.5,1.4-1.2,3.7,1,6c2.1,2.2,4.5,2.4,6.1,0.8c0.9-0.9,1.3-2,1.1-3.3
		l0.5-0.1c0.6,1.9,0.2,3.6-1.4,5.2c-2.3,2.2-5.6,2.3-8.2-0.4c-2.7-2.8-2.2-6.3,0.1-8.5c1.6-1.6,3.8-1.7,5.3-0.7
		c0.3,0.6,0.3,1.1-0.2,1.6c-0.6,0.6-1.3,0.7-2.2-0.1L44,41.8z"/>
	<path class="st0" d="M59.7,41.2c0.1,1.1-0.3,2.2-1.4,3.1c-1.5,1.2-3,1.2-4.3-0.5c-0.4-0.5-0.8-1-1.3-1.7l-3.5-4.3l-1.4,1.1
		l-0.4-0.5l1.4-1.4l-1.4-3.2l1.4-1.1l2.1,2.6l2.2-1.8l0.6,0.7L51.3,36l4.9,6.1c0.7,0.9,1.5,1,2.1,0.4c0.4-0.3,0.6-0.8,0.8-1.4
		L59.7,41.2z"/>
	<path class="st0" d="M52.9,28.3c-0.5-0.8-0.3-1.7,0.5-2.3c0.7-0.5,1.7-0.4,2.3,0.3c0.5,0.7,0.3,1.7-0.5,2.2
		C54.4,29.1,53.4,29,52.9,28.3z M65.3,37.8l0.4,0.5l-4.8,3.4l-0.4-0.5l1.2-1c-0.7-1-1.7-2.5-2.3-3.4l-0.9-1.2
		c-0.8-1.1-1.3-1.8-1.9-2.6l-1.5,0.8l-0.3-0.5l2.8-3.5l0.4,0l1.9,2.7l1.8,2.6c0.7,1,1.7,2.4,2.4,3.4L65.3,37.8z"/>
	<path class="st0" d="M63.8,32.7c-1.9-3.3-0.7-6.5,2-8c2.7-1.5,6-1,7.9,2.3c1.9,3.3,0.9,6.5-1.9,8.1C68.9,36.7,65.7,36,63.8,32.7z
		 M71.1,28.5c-1.8-3-3.5-4-5-3.1c-1.5,0.9-1.5,2.9,0.2,5.9c1.8,3,3.5,4,5,3.2C72.8,33.5,72.9,31.5,71.1,28.5z"/>
	<path class="st0" d="M89.4,25.6l0.3,0.6l-5.3,2.3L84,27.9l1.3-0.8c-0.4-1.1-1.1-2.7-1.6-3.8l-1.1-2.5c-0.7-1.7-1.5-2.1-2.5-1.6
		c-0.7,0.3-1.4,1.1-2,2.4l1.5,3.5c0.5,1.1,1.2,2.7,1.7,3.8l1.3-0.4l0.3,0.6l-5.3,2.3l-0.3-0.6l1.3-0.8c-0.5-1.1-1.1-2.7-1.6-3.8
		l-0.6-1.4c-0.5-1.3-0.9-2-1.3-2.9l-1.6,0.5l-0.2-0.5l3.2-2.8l0.3,0.1l0.9,1.7c0.6-1.9,1.6-3,2.9-3.5c1.8-0.8,3.5-0.1,4.6,2.5l1,2.4
		c0.5,1.1,1.2,2.7,1.7,3.8L89.4,25.6z"/>
	<path class="st0" d="M94.5,16.7c-0.3-0.9,0.3-1.9,1.2-2.2c0.9-0.3,1.9,0.3,2.1,1.3c0.2,0.9-0.3,1.9-1.2,2.1
		C95.7,18.2,94.7,17.6,94.5,16.7z"/>
</g>
</svg>
