<?xml version="1.0" encoding="UTF-8"?><svg id="_層_1" xmlns="http://www.w3.org/2000/svg" viewBox="0 0 250.32 250.91"><defs><style>.cls-1{fill:#fee;}</style></defs><path class="cls-1" d="M107.4,7.79l3.63,.98,2.7-.27-.2-2.04-8.4,.83-.25-.62,8.58-.85-.17-1.69c-2.44,.33-4.98,.61-7.32,.77l-.06-.34c4.93-1.09,11.21-3.07,14.39-4.56l3,2.52c-.25,.26-.8,.31-1.61,.07-1.44,.35-3.17,.68-5.03,1l.19,1.9,4.03-.4,1.49-2.2s2.03,1.16,3.32,2.01c-.04,.26-.31,.4-.63,.43l-8.15,.8,.2,2.04,2.82-.28,1.31-1.75,3.25,1.99c-.12,.2-.37,.43-.85,.57l.56,5.68c-.01,.12-.51,.44-1.15,.71,.64,.38,1.94,1.13,2.83,1.73-.04,.26-.28,.4-.63,.43l-7.16,.71,.26,2.65,4.01-.4,1.64-2.59s2.29,1.39,3.65,2.34c-.04,.26-.31,.4-.65,.43l-20.81,2.05-.25-.62,9.02-.89-.26-2.66-7,.69-.25-.62,7.19-.71-.24-2.43-2.88,.28,.05,.5c.03,.3-1.39,1.18-2.74,1.31l-.48,.05-.82-8.26-.13-1.33Zm6.4,1.36l-2.88,.28,.23,2.36,2.88-.28-.23-2.36Zm.3,3l-2.88,.28,.24,2.45,2.88-.28-.24-2.45Zm6.37-1.28l-.23-2.36-3.04,.3,.23,2.36,3.04-.3Zm.31,3.09l-.24-2.45-3.04,.3,.24,2.45,3.04-.3Zm.44,3.05l1.11-1.66c-.29,.1-.56,.15-.81,.17l-.57,.06-.1-.98-3.04,.3,.24,2.43,3.18-.31Z"/><path class="cls-1" d="M143.71,4.92c-.1,.24-.34,.33-.66,.29l-3.06-.39,2.87,1.29c-.13,.26-.4,.41-.9,.3-.82,.78-2.06,1.78-3.27,2.6l1.46,.18,1.58-1.72s1.16,1.26,1.95,2.22l.8-6.34,2.72,1.22c1.41-.7,2.83-1.64,3.66-2.34l2.98,3.04c-.31,.22-.79,.22-1.54-.1-1.24,.24-3.04,.38-4.87,.38l-.59,4.7,1.94,.25,1.93-2.1s1.67,1.79,2.62,2.95c-.08,.25-.37,.32-.69,.28l-1.51-.19-1.45,11.5c-.04,.16-1.08,.7-2.75,.49l-.59-.07,1.56-12.32-1.14-.14-.08,.59c-.51,4.02-1.45,8.74-7.19,11.05l-.17-.28c2.95-3.01,3.69-7.2,4.2-11.24l.1-.82c-.1,.06-.24,.06-.4,.04l-4.33-.55-.34,2.67,.71,.09,1.51-1.64s1.28,1.41,2.02,2.36c-.1,.24-.34,.33-.66,.29l-3.65-.46-.12,.94h.07c5.61,2.55,2.58,6.71,.64,4.49,.12-1.33-.25-2.93-.75-4.13l-.91,7.19c-.02,.16-1.02,.59-2.64,.38l-.57-.07,.75-5.93c-1.08,1.37-2.54,2.88-4.28,3.82l-.2-.26c1.27-1.79,2.27-4.6,2.72-6.45l1.98,1.2,.2-1.57-3.6-.46-.1-.66,3.79,.48,.34-2.67-4.08-.52-.1-.66,3.44,.44c-.26-.13-.52-.32-.75-.63,.23-1.27,.05-2.75-.19-3.85l-1.41-.18-.1-.66,4.36,.55c-.17-.09-.32-.23-.46-.38,.14-1.14-.18-2.41-.61-3.25l.17-.09c4.44,.96,4,3.4,2.54,3.94l1.53,.19,1.53-1.64s1.33,1.42,2.09,2.37Zm-4.33-.18l-4.84-.61c3.46,1.94,2.63,4.3,1.26,4.52l2.19,.28c.53-1.25,1.04-2.93,1.39-4.18Z"/><path class="cls-1" d="M162.09,4.95l2.59,2.4,2.11,.78,1.75-.88,1.84,2.86c-.18,.1-.49,.19-.93,.12l-1.9,5.13c-.09,.19-1.65,.27-2.6-.08l-.5-.18,.38-1.04-2.44-.9-4.33,11.72c-.14,.39-1.54,.71-2.87,.21l-.5-.18,6.91-18.71,.47-1.27Zm.93,15.2l.21-.58,.94-2.55-1.86-.69,.05-.67,7.51,2.77,1.86-1.18s1.01,1.65,1.56,2.74c-.15,.21-.41,.24-.71,.13l-1.94-.72-1,2.7,1.31-.89s.88,1.6,1.35,2.66c-.15,.21-.41,.24-.71,.13l-2.33-.86-1.69,4.57c-.06,.1-1,.24-2.29-.23l-.47-.17,1.89-5.11-1.45-.53c-.92,1.84-2.57,3.64-6.41,3.74l-.1-.26c2.15-.92,3.25-2.63,4.03-4.4l-2.35-.87,.05-.67,2.55,.94Zm-.39-7.57l2.44,.9,.76-2.05-2.44-.9-.76,2.05Zm1.72-4.66l-.74,2.01,2.44,.9,.74-2.01-2.44-.9Zm2.35,10.04l-.94,2.55-.24,.57,1.4,.52,1.16-3.13-1.38-.51Zm5.26-9.21l2.51,2.23,2.22,.82,1.9-1.04,1.96,3.18c-.21,.12-.57,.21-1.03,.13l-5.27,14.28c-.74,2.01-1.55,2.93-4.72,2.08,.32-1.01,.49-1.78,.4-2.28-.11-.56-.32-1-1.15-1.53l.1-.26s1.54,.67,1.93,.81c.32,.12,.44,0,.54-.27l3.39-9.17-2.52-.93c-.1,.26-1.57,.4-2.76-.04l-.41-.15,2.49-6.73,.42-1.14Zm.48,7.46l2.52,.93,.76-2.05-2.52-.93-.76,2.05Zm1.72-4.66l-.74,2.01,2.52,.93,.74-2.01-2.52-.93Z"/><path class="cls-1" d="M186.19,20.85c1.63-1.82,3.18-3.58,3.94-4.62l2.93,2.58c-.19,.21-.44,.34-1.07,.04-.82,.87-1.99,2.16-3.32,3.51l1.08,.62c.47-.68,.92-1.35,1.34-2.04l3.02,2.78c-.28,.26-.62,.31-1.09,.03l-.58,.75,.83,.46-.16,.25-1.03-.24c-1.92,2.42-4.01,4.6-6.51,6.1,1.94,4.63-2,5.1-2.88,2.87,.07-.48,.09-.98,.1-1.53-1.97,.69-4.16,.98-6.68,.7l-.08-.3c2.45-.34,4.62-1.26,6.55-2.52-.25-1.59-.71-3.19-1.26-4.49,.84-.74,1.93-1.84,3.08-3.06l-.25-.08c-.28,.17-.63,.16-.89,.05l1.22-2.99c.41,.3,1.01,.69,1.71,1.12Zm1.17,2.86c-1.36,1.36-2.75,2.73-3.96,3.81,.39,.5,.7,.98,.99,1.42,1.69-1.4,3.19-3.05,4.49-4.78l-1.52-.45Zm5.14,8.98l3.04,1.99,2.17-.58,1.16,3.26c-.25,.08-.51,.11-1.02-.12l-3.99,6.08c-.08,.12-1.19,.01-2.58-.89l-.5-.33,1.05-1.6-3.33-2.18-.81,1.23c-.1,.15-1.17,.06-2.49-.81l-.46-.3,5.65-8.61,2.11,2.87Zm-.32,7.27l3.08-4.69-3.33-2.18-3.08,4.69,3.33,2.18Zm5.84-6.21c.27-.54,.48-1.11,.66-1.71-1.89-.47-4.45-1.19-7.42-2.2-.3,.08-.58,.09-.81,.02l1.1-3.68s.61,.21,.95,.18c1.58-.23,5.23-2.56,6.77-4.19l3.12,3.67c-.2,.14-.51,.19-.91-.04-2.25,.95-5.61,1.63-8.18,1.7,1.45,.98,3.46,2.27,5.61,3.65,.25-1.21,.29-2.45,.19-3.56h.23c5.87,6.12-.03,10.01-1.31,6.17Z"/><path class="cls-1" d="M205.12,40.62c1.04-1.11,2.8-1.16,3.9-.12,1.11,1.04,1.16,2.8,.12,3.9-1.04,1.11-2.8,1.16-3.9,.12-1.11-1.04-1.16-2.8-.12-3.9Z"/><path class="cls-1" d="M220.74,44.06l5.12,6.53c2.48,3.17,2.6,5.88,.44,7.57-1.48,1.16-3.66,1.26-6.33-1.26,1.55,2.61,1.05,4.06-.5,5.77l-2.53,2.89,1.15,1.7-.62,.48c-.76-.6-1.25-1.04-1.96-1.94-1.31-1.66-1.54-2.97-.22-4.3l2.09-2.48c1.29-1.42,1.67-2.42,.58-3.81l-.68-.87c-1.9,1.49-3.76,2.95-5.57,4.45l1.14,1.79-.62,.48-5.02-6.41,.62-.48,1.44,1.5c1.86-1.4,3.72-2.86,5.6-4.33l.8-.62c1.88-1.48,3.75-2.94,5.58-4.44l-1.13-1.74,.62-.48Zm-2.79,9.75l.82,1.05c1.59,2.03,3.56,1.74,5.2,.45,1.79-1.4,2.02-3.13,.58-4.96l-.79-1.01c-1.87,1.38-3.73,2.84-5.82,4.47Z"/><path class="cls-1" d="M224.04,66.6c3.73-2.09,7.3-.52,8.95,2.43,1.74,3.11,.62,5.87-1.93,7.3-.5,.28-.87,.43-1.3,.54l-3.81-6.83c-3.06,1.84-3.55,4.01-2.47,5.96,.8,1.43,1.89,1.97,3.21,2.11l-.05,.53c-2.22,.13-4.06-.9-5.22-2.98-1.9-3.39-1.12-6.96,2.63-9.06Zm4.13,5.75c.52,.92,1.13,.95,2.38,.25,1.79-1,2.26-2.23,1.65-3.32-.62-1.1-2.37-1.31-5.54,.36l1.51,2.71Z"/><path class="cls-1" d="M226.65,82.92l3.75-1.26,.48,1.25-3.3,2.57c.01,.73,.17,1.41,.48,2.23,.81,2.13,2.27,2.9,3.94,2.26,1.44-.55,1.96-1.44,2.07-3.45l.06-1.2c.21-3.38,1.06-5.45,3.64-6.44,2.9-1.11,5.46,.62,6.8,4.12,.65,1.7,.78,3.39,.45,4.83l-3.59,1.18-.48-1.25,3.17-2.47c.03-.5-.07-.96-.28-1.49-.72-1.87-2.14-2.75-3.75-2.13-1.48,.57-1.96,1.69-2.07,3.48l-.09,1.31c-.21,3.77-1.04,5.45-3.47,6.38-2.86,1.09-5.65-.35-7.19-4.38-.67-1.76-.97-3.89-.63-5.5Z"/><path class="cls-1" d="M234.35,98.13c.89-.22,1.55-.36,2.46-.58l5.71-1.41-.45-1.81,.71-.18,.69,1.94,3.9,.27,.57,2.3-3.62,.87,.68,2.75-.92,.23-.68-2.75-8.44,2.08c-1.21,.3-1.58,.98-1.36,1.88,.14,.56,.46,.88,1.09,1.36l-.27,.45c-1.37-.37-2.29-1.33-2.72-3.05-.56-2.28,.17-3.74,2.62-4.34Z"/><path class="cls-1" d="M235.98,115.51c-1.42-1.01-2.23-1.8-2.44-3.62-.23-1.96,.79-3.48,2.71-3.7,2.08-.25,3.38,.78,4.85,4.38l.86,2.15,1.39-.16c2.38-.28,3.02-.91,2.81-2.65-.04-.32-.1-.61-.21-.95l-1.64,.03c-1.58,.12-2.27-.59-2.37-1.46-.1-.82,.25-1.44,1-1.74,2.15-.05,3.75,1.78,4.17,5.32,.38,3.24-.85,4.76-4.16,5.15l-6.14,.73c-.87,.1-1.14,.37-1.09,.8,.04,.34,.25,.57,.99,.93l-.25,.45c-1.33-.45-1.96-1.25-2.13-2.74-.17-1.48,.48-2.42,1.65-2.9Zm5.36-.73c-.22-.51-.42-.97-.57-1.28-.82-1.41-1.97-2.18-3.64-1.98-1.37,.16-1.95,.93-1.83,1.95,.06,.48,.33,1.03,1.33,1.86l4.71-.56Z"/><path class="cls-1" d="M240.44,129.19l-4.55-.03-.24,2.13h-.71l.12-7.51h.71l.14,1.56c1.33,.04,3.31,.1,4.6,.12l1.91,.03c1.52,.03,2.25,.01,3.36-.04l.21-1.68h.55l1.37,5.05-.21,.29-3.27,.13c2.29,.75,3.46,2.33,3.43,3.69-.02,1.1-.47,1.99-1.85,2.2-1.06-.06-1.85-.58-1.83-1.73,.01-.87,.55-1.42,1.41-2l.21-.16c-.74-.98-1.75-1.57-3.44-2.04l-1.91-.03Z"/><path class="cls-1" d="M237.53,139.51c.91,.12,1.57,.23,2.5,.36l5.84,.78,.25-1.85,.73,.1-.07,2.06,3.54,1.68-.31,2.35-3.69-.51-.37,2.8-.93-.12,.37-2.8-8.62-1.15c-1.23-.16-1.83,.34-1.95,1.25-.08,.57,.1,.99,.52,1.67l-.41,.32c-1.14-.85-1.65-2.08-1.42-3.83,.31-2.33,1.52-3.42,4.03-3.08Z"/><path class="cls-1" d="M240.87,153.07c1.47,.37,2.37,1.88,2,3.35-.37,1.47-1.88,2.37-3.35,2-1.47-.37-2.37-1.88-2-3.35,.37-1.47,1.88-2.37,3.35-2Z"/><path class="cls-1" d="M240.92,169.43l-2.66,2.66-1.11,2.47,1.87,.84,3.47-7.69,.66,.1-3.54,7.86,1.55,.7c.93-2.28,1.96-4.62,2.98-6.73l.32,.12c-1.51,4.82-2.92,11.24-3.21,14.74l-3.68,1.34c-.1-.35,.13-.85,.74-1.43,.42-1.43,.99-3.09,1.64-4.86l-1.74-.78-1.66,3.69,1.17,2.39s-2.02,1.18-3.39,1.88c-.2-.17-.19-.47-.06-.76l3.36-7.46-1.87-.84-1.16,2.58,.86,2-3.34,1.82c-.11-.2-.19-.54-.07-1.02l-5.2-2.34c-.09-.07-.13-.66-.04-1.36-.64,.37-1.94,1.12-2.91,1.59-.2-.17-.2-.44-.06-.76l2.96-6.56-2.43-1.1-1.65,3.67,1.43,2.71s-2.35,1.29-3.85,2c-.2-.17-.19-.47-.05-.78l8.59-19.06,.66,.1-3.72,8.26,2.43,1.1,2.89-6.42,.66,.1-2.97,6.58,2.22,1,1.19-2.64-.46-.21c-.27-.12-.33-1.79,.23-3.02l.2-.44,7.57,3.41,1.22,.55Zm-14.87,7.37l.88,1.79c.06-.3,.15-.56,.26-.79l.24-.52,.9,.41,1.26-2.79-2.22-1-1.31,2.91Zm2.87,1.14l2.24,1.01,1.26-2.79-2.24-1.01-1.26,2.79Zm4.9-4.88l1.19-2.64-2.24-1.01-1.19,2.64,2.24,1.01Zm-2.07,6.16l2.16,.97,1.26-2.79-2.16-.97-1.26,2.79Zm4.81-4.92l1.19-2.64-2.16-.97-1.19,2.64,2.16,.97Z"/><path class="cls-1" d="M225.27,202.34c-.16-.21-.11-.46,.08-.72l1.87-2.45-2.56,1.84c-.16-.24-.16-.55,.19-.93-.26-1.1-.51-2.67-.61-4.13l-.89,1.17,.7,2.24s-1.67,.38-2.89,.58l5.09,3.87-2.42,1.74c-.1,1.57,0,3.27,.2,4.34l-4.12,1.05c-.03-.37,.2-.8,.86-1.28,.41-1.19,1.19-2.82,2.11-4.41l-3.77-2.87-1.18,1.56,.85,2.72s-2.39,.56-3.87,.79c-.17-.19-.1-.48,.1-.74l.92-1.21-9.23-7.01c-.11-.12-.06-1.29,.96-2.62l.36-.48,9.89,7.51,.7-.92-.48-.36c-3.22-2.45-6.84-5.63-5.97-11.76h.33c1.13,4.05,4.39,6.79,7.63,9.25l.66,.5c0-.12,.07-.24,.16-.37l2.64-3.48-2.14-1.63-.43,.57,.67,2.12s-1.87,.4-3.06,.56c-.16-.21-.11-.46,.08-.72l2.23-2.93-.75-.57-.02,.07c-5.03,3.57-7.11-1.13-4.22-1.71,1.09,.77,2.66,1.25,3.95,1.41l-5.77-4.38c-.13-.1,0-1.18,.99-2.48l.35-.46,4.76,3.62c-.65-1.62-1.22-3.64-1.16-5.62l.32-.04c.91,1.99,2.85,4.27,4.22,5.58l-2.03,1.11,1.26,.96,2.2-2.89,.62,.24-2.31,3.04,2.14,1.63,2.49-3.28,.62,.24-2.1,2.76c.24-.16,.54-.29,.92-.34,.98,.83,2.36,1.42,3.42,1.76l.86-1.13,.62,.24-2.66,3.5c.17-.1,.35-.16,.56-.21,.92,.7,2.18,1.05,3.12,1.1v.2c-3.06,3.37-4.95,1.76-4.68,.23l-.93,1.23,.65,2.14s-1.89,.44-3.1,.62Zm2.32-3.67l2.95-3.88c-3.42,2.03-5.04,.13-4.54-1.17l-1.34,1.76c.82,1.09,2.01,2.37,2.93,3.29Z"/><path class="cls-1" d="M207.86,224.89l-3.18,1.07-1.82,1.52-.05,2.17-3.73,.12c0-.24,.1-.59,.4-.96l-9.76-11.69c-1.37-1.64-1.77-2.8,.54-5.13,.71,.78,1.3,1.31,1.78,1.48,.54,.18,1.03,.22,1.9-.24l.18,.21s-1.35,1-1.67,1.27c-.26,.22-.21,.39-.04,.6l6.26,7.5,2.07-1.72c-.18-.21,.43-1.56,1.41-2.37l.33-.28,4.6,5.51,.78,.94Zm-5.44-13.44l.4,.48,1.74,2.08,1.52-1.27,.55,.38-6.14,5.13,.1,2.2s-1.93,.05-3.15,0c-.11-.24,0-.47,.24-.68l1.59-1.33-1.84-2.21,.12,1.58s-1.83-.03-2.97-.15c-.11-.24,0-.47,.24-.68l1.91-1.59-3.12-3.74c-.06-.1,.28-.99,1.34-1.87l.39-.32,3.49,4.18,1.18-.99c-1.14-1.72-1.87-4.04-.05-7.42l.27,.04c-.27,2.33,.66,4.12,1.81,5.68l1.92-1.61,.55,.38-2.08,1.74Zm-1.27,10.14l-2.07,1.72,1.4,1.68,2.07-1.72-1.4-1.68Zm1.34-5.86l-1.74-2.08-.38-.49-1.15,.96,2.14,2.56,1.13-.94Zm13.57,2.48l-3.38,1.05-1.73,1.44-.11,1.95-3.39,.17c0-.21,.08-.52,.36-.87l-3.51-4.2c-.11-.17,.58-1.56,1.36-2.21l.41-.34,.71,.85,1.99-1.67-8-9.59c-.26-.32,.15-1.68,1.25-2.6l.41-.34,12.78,15.31,.87,1.04Zm-11.73,7.19l-1.37-1.64-2.07,1.72,1.37,1.64,2.07-1.72Zm4.85-10.52l-2,1.67,1.4,1.68,2-1.67-1.4-1.68Zm3.18,3.81l-1.37-1.64-2,1.67,1.37,1.64,2-1.67Z"/><path class="cls-1" d="M176.88,230.77l-3.24,1.64-.57,2.17-3.41-.62c.05-.26,.16-.5,.61-.83l-3.29-6.48c-.06-.12,.58-1.04,2.06-1.79l.53-.27,.86,1.7,3.55-1.8-.67-1.31c-.08-.16,.53-1.04,1.94-1.76l.49-.25,4.66,9.19-3.54,.4Zm-6.15-3.89l2.54,5,3.55-1.8-2.54-5-3.55,1.8Zm2.49,8.15c.33,.5,.73,.97,1.16,1.42,1.35-1.41,3.24-3.27,5.59-5.34,.08-.3,.21-.55,.39-.71l2.65,2.78s-.48,.42-.63,.73c-.59,1.49-.38,5.81,.27,7.96l-4.74,.88c-.02-.25,.09-.54,.49-.76,.29-2.42,1.38-5.67,2.6-7.95-1.57,.77-3.69,1.87-5.96,3.05,.93,.82,1.98,1.47,2.99,1.94l-.1,.21c-8.25,2.04-8.68-5.01-4.71-4.21Zm17.08-3.84c.76,2.32,1.53,4.54,2.05,5.72l-3.7,1.26c-.08-.27-.08-.56,.5-.95-.35-1.14-.88-2.8-1.4-4.63l-1.08,.62c.35,.75,.72,1.47,1.1,2.17l-3.91,1.24c-.08-.37,.04-.69,.52-.96l-.37-.87-.81,.49-.13-.27,.71-.78c-1.15-2.87-2-5.77-2.06-8.68-4.98-.62-3.43-4.27-1.06-3.92,.38,.3,.81,.57,1.28,.85,.38-2.05,1.22-4.1,2.71-6.15l.3,.08c-.92,2.3-1.21,4.64-1.07,6.94,1.5,.58,3.12,.97,4.52,1.14,.22,1.1,.64,2.59,1.12,4.2l.19-.18c-.01-.33,.17-.63,.4-.79l1.99,2.55c-.46,.21-1.1,.53-1.83,.93Zm-3.07-.4c-.5-1.86-1-3.75-1.34-5.33-.63,.09-1.2,.12-1.73,.15,.37,2.16,1.06,4.28,1.92,6.27l1.15-1.1Z"/><path class="cls-1" d="M163.71,237.75c.44,1.45-.39,3-1.85,3.44-1.45,.44-3-.39-3.44-1.85-.44-1.45,.39-3,1.85-3.44,1.45-.44,3,.39,3.44,1.85Z"/><path class="cls-1" d="M152.91,249.58l-8.22,1.17c-3.98,.57-6.39-.69-6.78-3.4-.26-1.87,.74-3.8,4.26-4.86-3.04,.04-4.04-1.12-4.75-3.32l-1.24-3.63-2.05,.15-.11-.77c.9-.36,1.52-.56,2.66-.73,2.09-.3,3.34,.15,3.83,1.96l1.11,3.05c.58,1.82,1.26,2.65,3.01,2.41l1.09-.16c-.34-2.39-.67-4.74-1.07-7.05l-2.12,.09-.11-.77,8.06-1.14,.11,.77-2.02,.5c.28,2.31,.62,4.65,.95,7.02l.14,1c.34,2.37,.67,4.71,1.05,7.05l2.08-.11,.11,.77Zm-7.05-7.29l-1.32,.19c-2.55,.36-3.29,2.21-2.99,4.28,.32,2.25,1.7,3.31,4,2.99l1.28-.18c-.26-2.31-.59-4.65-.96-7.27Z"/><path class="cls-1" d="M131.74,241.16c-.07,4.28-3.21,6.57-6.59,6.52-3.56-.06-5.39-2.41-5.34-5.33,0-.58,.06-.96,.18-1.4l7.82,.12c-.06-3.57-1.69-5.09-3.92-5.12-1.63-.03-2.66,.65-3.43,1.72l-.43-.31c1-1.98,2.81-3.06,5.2-3.02,3.89,.06,6.58,2.52,6.52,6.82Zm-7.05,.69c-1.06-.02-1.39,.51-1.41,1.93-.03,2.05,.8,3.07,2.04,3.09,1.26,.02,2.32-1.39,2.47-4.97l-3.1-.05Z"/><path class="cls-1" d="M116.29,235.27l-.77,3.88-1.32-.21-.58-4.14c-.64-.36-1.31-.55-2.17-.69-2.25-.35-3.64,.52-3.92,2.29-.24,1.52,.27,2.42,1.96,3.52l1.02,.65c2.83,1.86,4.2,3.64,3.77,6.37-.48,3.07-3.26,4.42-6.96,3.84-1.79-.28-3.33-1.01-4.41-2.02l.77-3.7,1.32,.21,.56,3.98c.42,.28,.87,.42,1.43,.5,1.98,.31,3.45-.48,3.72-2.19,.25-1.57-.48-2.54-1.98-3.52l-1.1-.73c-3.17-2.06-4.2-3.62-3.8-6.19,.48-3.02,3.12-4.72,7.39-4.05,1.86,.29,3.86,1.09,5.08,2.2Z"/><path class="cls-1" d="M99.24,234.36c-.25,.88-.46,1.52-.72,2.43l-1.62,5.66,1.79,.51-.2,.71-2.02-.37-2.18,3.25-2.28-.65,1.05-3.58-2.72-.78,.26-.91,2.72,.78,2.4-8.36c.34-1.19-.06-1.86-.95-2.12-.55-.16-.99-.05-1.73,.27l-.25-.46c1.01-1,2.3-1.33,4-.84,2.25,.65,3.16,2.01,2.46,4.44Z"/><path class="cls-1" d="M83.37,227.11c1.59-.72,2.67-1.04,4.36-.31,1.82,.78,2.62,2.42,1.86,4.2-.82,1.92-2.36,2.54-6.22,2.02l-2.29-.33-.55,1.29c-.94,2.2-.71,3.07,.89,3.76,.3,.13,.58,.22,.92,.3l.79-1.44c.69-1.43,1.64-1.67,2.45-1.33,.76,.33,1.13,.93,1.01,1.73-1.03,1.89-3.42,2.37-6.69,.96-3-1.29-3.7-3.11-2.39-6.18l2.43-5.69c.34-.8,.25-1.17-.15-1.34-.32-.14-.62-.07-1.3,.4l-.26-.44c1.05-.93,2.06-1.07,3.43-.48,1.38,.59,1.86,1.62,1.7,2.88Zm-2.04,5.01c.55,.06,1.05,.12,1.39,.14,1.63,0,2.87-.62,3.53-2.17,.54-1.27,.17-2.15-.78-2.56-.44-.19-1.05-.23-2.27,.23l-1.86,4.36Z"/><path class="cls-1" d="M69.31,224.16l2.3-3.93-1.73-1.28,.37-.61,6.43,3.86-.37,.61-1.4-.65c-.71,1.13-1.74,2.82-2.4,3.92l-.98,1.64c-.78,1.3-1.14,1.95-1.65,2.93l1.35,1.02-.28,.47-5.05-1.33-.15-.33,1.52-2.9c-1.79,1.61-3.75,1.83-4.91,1.13-.95-.57-1.49-1.4-.98-2.71,.58-.88,1.43-1.31,2.42-.72,.75,.45,.95,1.19,1.03,2.22l.03,.26c1.22-.15,2.23-.73,3.48-1.96l.98-1.64Z"/><path class="cls-1" d="M61.83,216.47c-.56,.73-.99,1.24-1.56,1.99l-3.6,4.66,1.47,1.14-.45,.58-1.75-1.09-3.22,2.22-1.88-1.45,2.29-2.94-2.24-1.73,.58-.75,2.24,1.73,5.31-6.88c.76-.98,.63-1.75-.1-2.32-.46-.35-.9-.41-1.71-.39l-.07-.52c1.31-.56,2.62-.39,4.02,.7,1.86,1.43,2.19,3.03,.65,5.03Z"/><path class="cls-1" d="M48.44,212.59c-1.06,1.09-2.81,1.12-3.9,.06-1.09-1.06-1.12-2.81-.06-3.9,1.06-1.09,2.81-1.12,3.9-.06,1.09,1.06,1.12,2.81,.06,3.9Z"/><path class="cls-1" d="M34.23,204.48l-.98-3.63-1.59-2.2-1.66,1.2,4.95,6.84-.41,.53-5.06-6.99-1.38,1c1.52,1.94,3.03,3.99,4.35,5.94l-.27,.22c-3.43-3.71-8.3-8.13-11.19-10.13l.67-3.86c.35,.09,.67,.54,.87,1.36,1.03,1.07,2.19,2.39,3.4,3.84l1.55-1.12-2.37-3.28-2.66-.18s-.02-2.34,.06-3.88c.25-.09,.5,.06,.69,.32l4.8,6.63,1.66-1.2-1.66-2.29-2.17-.25,.08-3.81c.23,0,.56,.11,.92,.44l4.62-3.34c.11-.05,.64,.22,1.2,.64,0-.74,0-2.24,.07-3.32,.25-.09,.49,.04,.69,.32l4.22,5.83,2.16-1.57-2.36-3.26-3.06-.11s.05-2.68,.18-4.34c.25-.09,.5,.06,.7,.34l12.26,16.94-.41,.53-5.31-7.34-2.16,1.56,4.13,5.7-.41,.53-4.24-5.85-1.97,1.43,1.7,2.35,.41-.3c.24-.17,1.72,.6,2.51,1.7l.28,.39-6.73,4.87-1.08,.78Zm-3.92-12.83l-1.92,1.39,1.79,2.48,1.92-1.39-1.79-2.48Zm2.52-1.82l-1.99,1.44,1.79,2.48,1.99-1.44-1.79-2.48Zm-.64,8.45l1.7,2.35,1.92-1.39-1.7-2.35-1.92,1.39Zm3.06-10.36l-1.99-.12c.23,.2,.41,.41,.56,.62l.34,.47-.8,.58,1.79,2.48,1.98-1.43-1.88-2.59Zm-.62,8.6l1.7,2.35,1.99-1.44-1.7-2.35-1.99,1.44Z"/><path class="cls-1" d="M13.47,174.5c.26-.04,.46,.13,.58,.43l1.2,2.84-.32-3.13c.29-.02,.56,.14,.71,.62,1.08,.32,2.57,.89,3.89,1.53l-.57-1.36-2.29-.51s.51-1.64,.94-2.79l-5.89,2.49-.3-2.97c-1.31-.87-2.83-1.63-3.86-1.99l1.14-4.1c.34,.16,.59,.57,.68,1.38,.83,.95,1.85,2.44,2.77,4.02l4.37-1.84-.76-1.8-2.78-.62s.71-2.35,1.24-3.74c.25-.06,.46,.15,.59,.45l.59,1.4,10.68-4.51c.16-.04,1.15,.59,1.8,2.14l.23,.55-11.45,4.83,.45,1.06,.55-.23c3.73-1.57,8.29-3.12,13.17,.68l-.15,.29c-4.09-1.05-8.09,.42-11.84,2l-.76,.32c.1,.06,.17,.18,.24,.33l1.7,4.03,2.48-1.05-.28-.66-2.17-.48s.58-1.82,1.03-2.93c.26-.04,.46,.13,.58,.43l1.43,3.39,.87-.37-.05-.05c-.59-6.14,4.53-5.6,3.58-2.81-1.21,.56-2.41,1.69-3.2,2.72l6.68-2.82c.15-.06,1.02,.59,1.66,2.1l.22,.53-5.51,2.33c1.73,.25,3.77,.76,5.45,1.79l-.12,.3c-2.18-.2-5.12,.34-6.94,.88l.05-2.32-1.46,.62,1.41,3.35-.52,.42-1.48-3.52-2.48,1.05,1.6,3.79-.52,.42-1.35-3.2c.02,.29-.02,.61-.17,.97-1.21,.44-2.41,1.34-3.24,2.09l.55,1.31-.52,.42-1.71-4.05c0,.2-.04,.39-.1,.59-1.06,.45-2,1.37-2.51,2.16l-.17-.1c-1.4-4.33,.94-5.17,2.13-4.17l-.6-1.42-2.18-.5s.56-1.86,1.01-3Zm2.02,3.84l1.9,4.49c-.05-3.97,2.4-4.43,3.28-3.35l-.86-2.04c-1.35,.17-3.06,.57-4.31,.9Z"/><path class="cls-1" d="M2.63,148.13l.67-3.29-.4-2.33-1.85-1.13,1.76-3.29c.21,.13,.46,.39,.63,.82l15-2.6c2.11-.36,3.31-.13,4.17,3.04-1.03,.23-1.79,.47-2.17,.8-.43,.38-.71,.78-.75,1.76l-.27,.05s-.2-1.67-.27-2.08c-.06-.34-.23-.38-.5-.33l-9.63,1.67,.46,2.65c.27-.05,1.13,1.16,1.35,2.4l.07,.43-7.07,1.22-1.2,.21Zm1.67,10.45l.78-3.45-.38-2.22-1.63-1.07,1.55-3.02c.18,.11,.41,.33,.57,.74l5.39-.93c.21-.01,1.06,1.29,1.24,2.28l.09,.52-1.09,.19,.44,2.56,12.3-2.13c.41-.07,1.38,.97,1.63,2.38l.09,.52-19.65,3.4-1.34,.23Zm-.35-13.76l2.11-.36-.46-2.65-2.11,.37,.46,2.65Zm1.78,10.31l2.11-.37-.44-2.56-2.11,.37,.44,2.56Zm3.11-11.16l-.46-2.65-2.15,.37,.46,2.65,2.15-.37Zm1.78,10.31l-.44-2.56-2.15,.37,.44,2.56,2.15-.37Zm6.36-4.13l-.61,.11-2.67,.46,.34,1.95-.6,.29-1.36-7.89-1.95-1.02s.92-1.7,1.58-2.72c.26,.03,.41,.23,.47,.55l.35,2.04,2.83-.49-1.43-.69s.94-1.56,1.62-2.5c.26,.02,.41,.23,.47,.55l.42,2.45,4.8-.83c.12,0,.71,.74,.95,2.1l.09,.5-5.37,.93,.26,1.52c2.06-.12,4.43,.4,6.45,3.67l-.17,.22c-1.88-1.4-3.9-1.5-5.82-1.28l.43,2.47-.6,.29-.46-2.67Zm-3.74-2.08l2.67-.46,.62-.08-.25-1.47-3.29,.57,.25,1.45Z"/><path class="cls-1" d="M5.98,129.77c-2.39-.5-4.69-.94-5.98-1.08l.76-3.83c.27,.06,.52,.21,.57,.91,1.16,.27,2.87,.64,4.71,1.1v-1.24c-.83-.07-1.63-.11-2.44-.13l.88-4.01c.36,.11,.58,.38,.57,.93l.94,.12-.02-.94,.3,.02,.31,1.01c3.06,.44,6,1.15,8.55,2.55,3.02-4.01,5.41-.84,3.93,1.04-.45,.18-.9,.41-1.37,.69,1.59,1.35,2.94,3.1,3.97,5.42l-.22,.22c-1.53-1.95-3.41-3.36-5.48-4.39-1.25,1.02-2.4,2.22-3.24,3.35-1.06-.36-2.56-.74-4.2-1.12l.06,.26c.29,.15,.46,.46,.49,.74l-3.2,.45c.05-.5,.09-1.22,.11-2.04Zm5.2-16.72c-.6,.04-1.21,.14-1.81,.29,.55,1.87,1.21,4.44,1.83,7.51,.22,.22,.37,.46,.42,.69l-3.73,.91s-.13-.63-.32-.92c-.99-1.25-4.85-3.23-7.03-3.74l1.6-4.54c.22,.1,.42,.34,.42,.81,1.95,1.46,4.23,4.02,5.59,6.22,.12-1.74,.22-4.13,.33-6.68-1.17,.4-2.26,.98-3.17,1.63l-.13-.19c2.35-8.17,8.67-5.02,6-1.98Zm-3.31,14.26c1.86,.49,3.75,1,5.29,1.5,.24-.59,.5-1.1,.73-1.57-2.06-.75-4.24-1.22-6.39-1.47l.38,1.54Zm5.17-8.96l.19-3.63-1.6-1.58,2.24-2.64c.2,.17,.35,.39,.41,.94l7.26,.39c.14,0,.61,1.02,.53,2.68l-.03,.6-1.91-.1-.21,3.97,1.47,.08c.18,0,.64,.98,.55,2.56l-.03,.55-10.29-.55,1.42-3.26Zm6.44-3.39l-5.6-.3-.21,3.97,5.6,.3,.21-3.97Z"/><path class="cls-1" d="M13.53,103.46c-1.48-.34-2.41-1.83-2.06-3.31,.34-1.48,1.83-2.41,3.31-2.06,1.48,.34,2.41,1.83,2.06,3.31-.34,1.48-1.83,2.41-3.31,2.06Z"/><path class="cls-1" d="M8.66,88.22l3.08-7.71c1.5-3.74,3.79-5.2,6.33-4.18,1.75,.7,2.92,2.53,2.09,6.11,1.48-2.65,2.99-2.94,5.24-2.46l3.77,.74,.89-1.85,.73,.29c-.14,.96-.27,1.6-.7,2.67-.79,1.96-1.8,2.82-3.61,2.34l-3.19-.56c-1.87-.4-2.93-.23-3.59,1.41l-.41,1.02c2.24,.9,4.44,1.78,6.64,2.58l.98-1.89,.73,.29-3.02,7.56-.73-.29,.58-2c-2.14-.91-4.34-1.79-6.56-2.67l-.94-.38c-2.22-.89-4.42-1.77-6.63-2.61l-.94,1.85-.73-.29Zm9.83-2.48l.5-1.24c.96-2.39-.28-3.95-2.22-4.73-2.11-.85-3.72-.18-4.58,1.98l-.48,1.2c2.13,.93,4.33,1.81,6.78,2.79Z"/><path class="cls-1" d="M26.52,74.06c-3.68-2.19-4.1-6.06-2.37-8.96,1.83-3.06,4.78-3.47,7.29-1.98,.49,.29,.81,.53,1.12,.86l-4.01,6.72c3.12,1.73,5.25,1.07,6.4-.85,.84-1.4,.76-2.63,.22-3.83l.48-.22c1.22,1.85,1.25,3.96,.03,6.02-1.99,3.34-5.47,4.45-9.16,2.25Zm2.91-6.46c.54-.91,.25-1.46-.97-2.19-1.76-1.05-3.06-.84-3.7,.23-.65,1.09,.05,2.71,3.08,4.62l1.59-2.67Z"/><path class="cls-1" d="M39.35,63.62l-2.97-2.61,.84-1.04,3.88,1.57c.63-.38,1.14-.86,1.69-1.54,1.43-1.77,1.37-3.42-.02-4.54-1.2-.97-2.23-.97-4.03-.06l-1.07,.55c-3.03,1.51-5.25,1.81-7.4,.08-2.41-1.95-2.2-5.03,.16-7.95,1.14-1.41,2.55-2.38,3.96-2.81l2.82,2.52-.84,1.04-3.72-1.5c-.45,.23-.79,.54-1.15,.99-1.26,1.56-1.31,3.23,.03,4.31,1.23,1,2.45,.85,4.04,.05l1.18-.58c3.37-1.71,5.24-1.83,7.26-.19,2.38,1.92,2.53,5.06-.19,8.43-1.19,1.47-2.88,2.79-4.44,3.3Z"/><path class="cls-1" d="M48.65,49.33c-.64-.66-1.09-1.16-1.74-1.84l-4.09-4.23-1.34,1.3-.51-.53,1.33-1.57-1.73-3.51,1.7-1.65,2.57,2.7,2.03-1.97,.66,.68-2.03,1.97,6.04,6.25c.86,.89,1.64,.87,2.31,.23,.41-.4,.54-.84,.63-1.63h.52c.37,1.38,0,2.66-1.27,3.89-1.69,1.63-3.32,1.73-5.08-.09Z"/><path class="cls-1" d="M62.86,39.18c-.16,1.73-.43,2.83-1.9,3.93-1.58,1.19-3.4,1.06-4.56-.48-1.26-1.67-1.03-3.31,1.35-6.39l1.42-1.82-.84-1.12c-1.44-1.91-2.31-2.15-3.7-1.1-.26,.19-.48,.39-.72,.65l.85,1.4c.9,1.31,.63,2.26-.06,2.78-.66,.5-1.37,.51-2,.01-1.12-1.83-.35-4.14,2.5-6.28,2.61-1.96,4.54-1.66,6.54,1.01l3.72,4.94c.53,.7,.89,.8,1.24,.54,.28-.21,.37-.51,.3-1.32h.51c.28,1.36-.1,2.31-1.29,3.21-1.19,.9-2.33,.8-3.34,.04Zm-3.32-4.26c-.33,.45-.63,.85-.82,1.13-.81,1.41-.89,2.8,.12,4.14,.83,1.1,1.78,1.22,2.61,.6,.39-.29,.72-.8,.94-2.08l-2.85-3.78Z"/><path class="cls-1" d="M72.44,28.44l2.26,3.95,1.97-.86,.35,.62-6.55,3.66-.35-.62,1.27-.89c-.63-1.18-1.58-2.91-2.2-4.04l-.93-1.67c-.74-1.33-1.12-1.96-1.72-2.89l-1.56,.66-.27-.48,3.67-3.71,.36,.04,1.75,2.76c-.5-2.36,.28-4.16,1.47-4.82,.96-.54,1.96-.59,2.83,.5,.48,.95,.43,1.9-.58,2.46-.76,.43-1.5,.23-2.44-.22l-.24-.1c-.47,1.13-.48,2.3-.03,4l.93,1.67Z"/><path class="cls-1" d="M82.82,25.78c-.35-.85-.59-1.48-.95-2.35l-2.25-5.44-1.72,.71-.28-.68,1.81-.97-.32-3.9,2.19-.91,1.4,3.45,2.61-1.08,.36,.87-2.61,1.08,3.32,8.03c.47,1.15,1.21,1.42,2.06,1.06,.53-.22,.8-.58,1.19-1.29l.48,.2c-.16,1.41-.97,2.47-2.61,3.14-2.17,.9-3.72,.39-4.69-1.94Z"/><path class="cls-1" d="M92.86,16.1c-.42-1.46,.44-3,1.9-3.41,1.46-.42,3,.44,3.41,1.9,.42,1.46-.44,3-1.9,3.41-1.46,.42-3-.44-3.41-1.9Z"/></svg>