<?xml version="1.0" encoding="utf-8"?>
<!-- Generator: Adobe Illustrator 25.2.3, SVG Export Plug-In . SVG Version: 6.00 Build 0)  -->
<svg version="1.1" id="圖層_1" xmlns="http://www.w3.org/2000/svg" xmlns:xlink="http://www.w3.org/1999/xlink" x="0px" y="0px"
	 viewBox="0 0 254 262" style="enable-background:new 0 0 254 262;" xml:space="preserve">
<style type="text/css">
	.st0{opacity:0.8;}
	.st1{fill:#876B8B;}
</style>
<g class="st0">
	<path class="st1" d="M113.2,5.2l2.3,1.4c-0.1,0.2-0.4,0.4-0.7,0.5l0.7,7.2c0,0.1-1,0.7-1.7,0.7l-0.4,0l-0.1-1.2l-3.3,0.3l0.5,5
		c0.9-0.5,1.9-1,3-1.6c-0.4-0.8-0.9-1.6-1.4-2.2l0.2-0.1c6,2.4,4.4,7.3,2.2,5.6c-0.1-0.9-0.4-1.8-0.8-2.7c-0.9,1-2.2,2.3-3.7,3.7
		c-0.1,0.4-0.4,0.6-0.6,0.8l-1.6-2.3c0.5-0.4,0.6-0.6,0.5-1.1L107,6l2.5,0.7l2.9-0.3L113.2,5.2z M112.9,9.9L112.6,7l-3.3,0.3
		l0.3,2.9L112.9,9.9z M113.2,13.4l-0.3-3l-3.3,0.3l0.3,3L113.2,13.4z M123.8,5.8c-0.1,0.2-0.4,0.3-0.7,0.5l1,9.7
		c0.2,1.5-0.1,2.4-2.4,2.9c-0.1-0.7-0.3-1.3-0.5-1.6c-0.3-0.3-0.6-0.5-1.4-0.6l0-0.3c0,0,1.5-0.1,1.8-0.1c0.3,0,0.4-0.2,0.3-0.4
		l-1-9.7l-2.7,0.3l1.6,15.2c0,0.3-0.7,0.9-1.7,1l-0.4,0l-1.8-17.5l2.3,0.7l2.5-0.3l0.8-1.2L123.8,5.8z"/>
	<path class="st1" d="M134.2,4.4c-0.1,0.3-0.2,0.5-0.7,0.5l-1.1,16.5c0,0.3-1,0.7-1.8,0.7l-0.4,0l0.5-8.2l-0.9-0.1
		c-0.3,3.2-0.9,6-3.7,7.8l-0.2-0.3c1.5-2.1,1.7-4.8,1.9-7.7l-1.2-0.1l-0.1-0.6l4.4,0.3l0.2-2.6l-1.4-0.1l-0.6,0.7l-2-1.1
		c0.1-0.1,0.3-0.3,0.5-0.4l0.3-5.2l2.7,0.5c-0.1,0.2-0.2,0.4-0.8,0.4l-0.3,4.6l1.5,0.1l0.4-6.2L134.2,4.4z M143.3,12.8
		c0,0,1.1,1.2,1.6,2c-0.1,0.2-0.3,0.3-0.5,0.3l-2.6-0.2l-0.3,5.1c-0.1,1.5-0.5,2.4-3.2,2.4c0-0.7-0.1-1.2-0.4-1.5
		c-0.3-0.4-0.8-0.6-1.9-0.9l0-0.3c0,0,2.4,0.3,2.8,0.3c0.3,0,0.5-0.1,0.5-0.3l0.3-5l-6.4-0.4l-0.1-0.6l6.5,0.4l0.2-2.7l2.8,0.5
		c-0.1,0.3-0.3,0.4-0.7,0.5l-0.1,2l0.3,0L143.3,12.8z M133.6,9.1c1.4-1.1,3-3.1,3.8-4.8l2.9,0.9c-0.1,0.2-0.3,0.3-0.8,0.2
		c-0.3,0.3-0.6,0.7-1,1l3.5,0.2l1.2-1l2,1.9c-0.2,0.2-0.5,0.2-0.9,0.2c-2.3,2.9-5.6,5-10.8,5.8l-0.1-0.3c2.2-0.8,4.2-1.8,5.8-3.1
		c-0.2,0.1-0.5,0.1-0.9-0.1c-0.2-0.7-0.9-1.6-1.5-2.2c-0.9,0.6-2,1.1-3,1.5L133.6,9.1z M137.6,9.6c-0.6,0.4-1.6,1.1-2.9,1.9
		c-0.1,0.3-0.2,0.4-0.5,0.5l-0.9-2c0.8-0.1,2.5-0.3,4.2-0.6L137.6,9.6z M134.5,15c5,1.4,2.9,5,1.2,3.4c0-1.1-0.7-2.5-1.3-3.3
		L134.5,15z M137.9,6.9c-0.2,0.2-0.5,0.4-0.7,0.6c2.3,0.3,2.8,1.5,2.5,2.2c0.8-0.8,1.6-1.6,2.2-2.5L137.9,6.9z"/>
	<path class="st1" d="M161.4,23.1c0,0,1,1.4,1.6,2.3c-0.1,0.2-0.3,0.2-0.6,0.2l-8-1.9l-0.2,0.9c0,0.2-0.8,0.5-1.8,0.2l-0.4-0.1
		l2.5-10.5c-0.6,0.5-1.3,0.9-2,1.2l-0.1-0.2c0.3-0.3,0.6-0.7,1-1.1c-0.6,0.3-1.3,0.7-2.2,1.1l-1.4,6c-0.4,1.6-0.9,2.4-3.4,2.1
		c0.1-0.8,0.2-1.4,0-1.8c-0.2-0.4-0.6-0.8-1.4-1.1l0.1-0.3c0,0,1.7,0.6,2.2,0.7c0.3,0.1,0.4,0,0.5-0.3l1-4.2
		c-0.4,0.1-0.8,0.3-1.2,0.5c-0.1,0.2-0.3,0.4-0.6,0.5l-0.5-2.7c0.5,0,1.5-0.1,2.7-0.3l0.8-3.5l-2.2-0.5l0-0.6l2.4,0.6l1.1-4.5
		l2.7,0.9c-0.1,0.3-0.3,0.4-0.8,0.4l-0.9,3.6l0.1,0l1.2-1.2c0,0,0.8,1.2,1.2,2c-0.1,0.2-0.3,0.2-0.6,0.2l-2.2-0.5l-0.7,2.8
		c0.7-0.1,1.4-0.2,2.1-0.3l0,0.1c1.6-2,3-4.7,3.8-6.5l2.8,1.6c-0.1,0.2-0.3,0.3-0.8,0.2c-0.5,0.7-1.1,1.5-1.8,2.3l0.1,0l4.9,1.2
		l1.4-1.2c0,0,1,1.3,1.6,2.2c-0.1,0.2-0.3,0.2-0.6,0.2l-3.5-0.8l-0.8,3.3l0.5,0.1l1.4-1.2c0,0,0.9,1.3,1.4,2.1
		c-0.1,0.2-0.3,0.2-0.6,0.2l-2.9-0.7l-0.8,3.3l0.5,0.1l1.4-1.2c0,0,0.9,1.3,1.5,2.1c-0.1,0.2-0.3,0.2-0.6,0.2l-2.9-0.7l-0.8,3.5
		l1.1,0.3L161.4,23.1z M154.5,23.1l2.2,0.5l0.8-3.5l-2.2-0.5L154.5,23.1z M158.5,16.3l-2.2-0.5l-0.8,3.3l2.2,0.5L158.5,16.3z
		 M157.1,11.9l-0.8,3.3l2.2,0.5l0.8-3.3L157.1,11.9z M160,7.8c4.6,2.5,1.3,5.6-0.1,3.4c0.3-1.1,0.2-2.4-0.1-3.4L160,7.8z"/>
	<path class="st1" d="M181.7,26.7c-0.1,0.2-0.3,0.3-0.8,0.2l-2.7,6.3c-0.1,0.1-1.1,0.1-1.9-0.2l-0.4-0.2l0.6-1.5l-10-4.3l-1.1,0.8
		l-1.6-2.1c0.2-0.1,0.5-0.2,0.8-0.3l2.3-5.3l2.6,1.4c-0.1,0.2-0.3,0.3-0.8,0.1l-2.1,4.9l3.9,1.7l3-7.1l-2.9-1.3l-1.1,0.8l-1.5-2.1
		c0.2-0.1,0.5-0.2,0.8-0.3l2.1-5l2.6,1.4c-0.1,0.2-0.3,0.3-0.8,0.1l-1.9,4.5l3.1,1.3l2.9-6.8l2.7,1.4c-0.1,0.3-0.4,0.4-0.9,0.2
		l-2.6,6.1l3.2,1.4l2.2-5.2l2.5,1.4c-0.1,0.2-0.3,0.3-0.8,0.2l-2.4,5.5c-0.1,0.1-1.1,0.1-1.9-0.2l-0.4-0.2l0.4-1l-3.2-1.4l-3,7.1
		l4.1,1.7l2.3-5.5L181.7,26.7z"/>
	<path class="st1" d="M189.3,30.4c0.5-0.8,1.5-1,2.2-0.5c0.8,0.5,1,1.5,0.5,2.2c-0.4,0.7-1.4,1-2.2,0.5
		C189.1,32.1,188.9,31.1,189.3,30.4z"/>
	<path class="st1" d="M203.7,49c-1.4-0.3-2.7-0.8-4-1.9c-3.3-2.7-4-6.9-1-10.6c3.1-3.7,7.5-3.6,10.7-1c1.2,1,1.9,2,2.5,3.4l-2.2,2.6
		l-0.9-0.7l1.5-3.1c-0.3-0.5-0.7-1-1.1-1.4c-2.2-1.8-5.3-1.5-8.2,2c-2.9,3.5-2.7,6.6-0.4,8.4c0.5,0.4,1,0.7,1.7,0.9l2.7-2l0.9,0.7
		L203.7,49z"/>
	<path class="st1" d="M207.9,46.8c2.5-2.4,5.6-2.1,7.6,0c2,2,2.2,5.1-0.3,7.6c-2.5,2.4-5.6,2.2-7.6,0.1
		C205.4,52.3,205.4,49.2,207.9,46.8z M213.2,52.4c2.3-2.2,2.8-4,1.7-5.1c-1.1-1.2-2.9-0.7-5.2,1.5c-2.3,2.2-2.8,4-1.7,5.1
		C209.1,55.1,210.9,54.6,213.2,52.4z"/>
	<path class="st1" d="M223.6,73l-0.5,0.4l-3.1-4.2l0.5-0.4l0.9,1c0.9-0.6,2.2-1.6,3.1-2.2l1.9-1.4c1.5-1.1,1.6-1.8,1-2.6
		c-0.5-0.7-1.3-1.1-2.5-1.3c-0.2,0.2-0.5,0.5-0.8,0.7l-1.9,1.4c-0.9,0.7-2.2,1.6-3,2.3l0.6,1.1l-0.5,0.4l-3.1-4.2l0.5-0.4l1,1
		c0.9-0.6,2.2-1.5,3.1-2.2l1.9-1.4c1.4-1,1.6-1.8,1-2.6c-0.5-0.6-1.3-1-2.5-1.2l-2.8,2c-0.9,0.6-2.2,1.6-3,2.3l0.6,1.1l-0.5,0.4
		l-3.1-4.3l0.5-0.4l1,1c0.9-0.6,2.2-1.6,3.1-2.2l1.1-0.8c1-0.8,1.6-1.2,2.3-1.8l-0.8-1.3l0.4-0.3l3.2,2.3l0,0.3l-1.3,1.1
		c1.7,0.1,2.9,0.7,3.7,1.8c0.8,1.1,0.8,2.2,0,3.4c1.9,0.1,3,0.7,3.8,1.8c1.2,1.6,0.8,3.1-1.3,4.7l-1.9,1.4c-0.9,0.7-2.2,1.6-3,2.3
		L223.6,73z"/>
	<path class="st1" d="M226.4,78.7l-0.5,0.3l-2.6-4.6l0.5-0.3l0.9,1.1c1-0.5,2.4-1.3,3.3-1.8l1.2-0.7c1.1-0.6,1.7-1,2.5-1.5l-0.6-1.4
		l0.5-0.3l2.9,2.9l0,0.3l-2.6,1.5l-2.5,1.4c-0.9,0.5-2.3,1.3-3.3,1.9L226.4,78.7z M236.2,68.3c0.8-0.4,1.6-0.1,2,0.6
		c0.4,0.7,0.3,1.6-0.5,2.1c-0.7,0.4-1.6,0.1-2-0.6S235.5,68.7,236.2,68.3z"/>
	<path class="st1" d="M232,90.5l-0.5,0.3l-2.2-4.8l0.5-0.3l0.7,1.2c1-0.4,2.5-1.1,3.5-1.5l2.3-1c1.5-0.7,1.9-1.4,1.4-2.3
		c-0.3-0.7-1-1.3-2.2-1.8l-3.2,1.5c-1,0.4-2.4,1.1-3.4,1.6l0.4,1.2l-0.5,0.3l-2.2-4.8l0.5-0.3l0.7,1.2c1-0.4,2.5-1.1,3.5-1.5
		l1.3-0.6c1.1-0.5,1.8-0.8,2.6-1.3l-0.5-1.5l0.4-0.2l2.6,2.9l0,0.3l-1.5,0.9c1.8,0.5,2.8,1.4,3.3,2.5c0.8,1.7,0.2,3.2-2.2,4.3
		l-2.2,1c-1,0.5-2.4,1.1-3.4,1.6L232,90.5z"/>
	<path class="st1" d="M243.6,98.6l-0.6-2.2c-0.4,0.6-1,1-1.8,1.3c-2,0.7-3.9-0.3-4.8-2.9c-0.3-0.8-0.3-1.5-0.3-2.1
		c-0.5-0.1-0.9-0.2-1.3,0c-0.7,0.2-0.9,0.7-0.5,1.7l0.9,2.7c0.9,2.6,0.2,4.1-1.5,4.6c-1.9,0.6-4.3-0.7-5.5-4.3c-1-3.1-0.3-4.7,1-5.2
		c0.8-0.3,1.8,0.1,2.7,1.2c0-0.9,0.4-1.6,1.2-1.9c0.8-0.3,1.7-0.1,2.9,0.7c0.2-1.2,1.1-2.1,2.3-2.5c2-0.7,3.8,0.3,4.7,2.9
		c0.4,1.2,0.4,2.3,0.1,3.2l1.6,2.1l-0.1,0.4L243.6,98.6z M232.6,95.6c-0.3-0.8-0.4-1.3-0.4-1.8c-0.6-0.3-1.1-0.3-1.8-0.1
		c-1.4,0.5-1.7,1.7-1.2,3.4c0.8,2.4,2,3.3,3.2,2.9c0.8-0.3,1.4-1,1-2.3L232.6,95.6z M240.6,95.5c1.7-0.6,2.5-1.6,2.1-2.7
		c-0.4-1.1-1.7-1.5-3.4-0.9c-1.7,0.6-2.6,1.5-2.2,2.7C237.6,95.8,238.9,96.1,240.6,95.5z"/>
	<path class="st1" d="M245.7,111.3c-0.7,3-1.7,4.3-3.7,4.6c-2.5,0.4-4.5-1.2-5.1-4.5c-0.3-1.6-0.1-3.3,0.4-4.5l3.2-0.5l0.2,1.1
		l-2.9,1.4c-0.2,0.7-0.2,1.3,0,2.1c0.3,1.9,1.5,3,3.1,2.7c1.3-0.2,1.9-1,2.3-2.8l0.2-0.9c0.6-2.6,1.6-4.2,3.8-4.6
		c2.5-0.4,4.3,1.4,4.8,4.2c0.3,1.5,0.1,2.8-0.4,3.9l-3,0.4l-0.2-1.1l2.8-1.3c0.1-0.5,0.1-0.9,0-1.5c-0.3-1.7-1.3-2.7-2.9-2.4
		c-1.3,0.2-1.9,1.2-2.3,2.7L245.7,111.3z"/>
	<path class="st1" d="M243.5,117.5c3.5-0.3,5.6,2,5.8,4.8c0.2,2.8-1.6,5.4-5.1,5.6c-3.5,0.3-5.7-1.9-5.9-4.8
		C238.1,120.1,240,117.7,243.5,117.5z M244,125.2c3.2-0.2,4.7-1.3,4.6-2.8c-0.1-1.6-1.8-2.4-4.9-2.1c-3.2,0.2-4.7,1.2-4.6,2.9
		C239.2,124.6,240.8,125.4,244,125.2z"/>
	<path class="st1" d="M244.3,129.8c3.5,0.1,5.4,2.6,5.3,5.4c-0.1,2.8-2.1,5.2-5.6,5.1c-3.5-0.1-5.5-2.4-5.4-5.4
		C238.7,131.8,240.8,129.7,244.3,129.8z M244,137.5c3.2,0.1,4.8-0.8,4.8-2.4c0-1.6-1.5-2.5-4.7-2.6c-3.2-0.1-4.8,0.7-4.9,2.4
		C239.3,136.4,240.8,137.4,244,137.5z"/>
	<path class="st1" d="M237.6,153.2l-0.6-0.1l0.7-5.3l0.6,0.1l0,1.4c1.1,0.2,2.6,0.4,3.7,0.6l2.5,0.3c1.7,0.2,2.3-0.2,2.5-1.2
		c0.1-0.7-0.2-1.6-0.9-2.7l-3.5-0.5c-1.1-0.1-2.7-0.4-3.8-0.5l-0.3,1.2l-0.6-0.1l0.7-5.3l0.6,0.1l0,1.4c1.1,0.2,2.7,0.4,3.7,0.6
		l1.4,0.2c1.2,0.2,1.9,0.3,2.9,0.3l0.4-1.5l0.5,0.1l0.7,3.9l-0.2,0.2l-1.8-0.1c1.2,1.4,1.6,2.7,1.4,3.9c-0.3,1.8-1.6,2.8-4.1,2.4
		l-2.3-0.3c-1.1-0.2-2.7-0.4-3.8-0.5L237.6,153.2z"/>
	<path class="st1" d="M242.2,161.4c0.9,0.2,1.4,1.1,1.1,2c-0.2,0.9-1.1,1.3-2,1.1c-0.8-0.2-1.3-1.1-1.1-2
		C240.5,161.6,241.4,161.2,242.2,161.4z"/>
	<path class="st1" d="M238.4,191.3c-0.1-0.2-0.1-0.5,0-0.8l-8.8-4c-1.4-0.6-2.1-1.3-1.3-3.5c0.7,0.3,1.2,0.4,1.6,0.4
		c0.4-0.1,0.8-0.3,1.3-0.9l0.2,0.1c0,0-0.7,1.3-0.8,1.6c-0.1,0.3,0,0.4,0.2,0.5l8.9,4l1.1-2.5l-13.9-6.3c-0.2-0.1-0.4-1.1,0-2
		l0.2-0.3l16,7.3l-1.8,1.6l-1,2.2l0.6,1.3L238.4,191.3z M244.3,182.5l-2.4,1.3c-0.1-0.2-0.1-0.5,0-0.9l-6.6-3
		c-0.1-0.1-0.1-1.2,0.2-1.9l0.2-0.3l1.1,0.5l1.4-3l-4.6-2.1c-0.1,1-0.1,2.2-0.1,3.4c0.9,0.1,1.8,0,2.6-0.1l0,0.2
		c-5.1,3.9-8.5,0.2-5.9-0.9c0.8,0.4,1.7,0.6,2.7,0.7c-0.4-1.3-0.9-3-1.4-5.1c-0.2-0.3-0.4-0.6-0.4-0.9l2.8-0.2
		c0.1,0.6,0.2,0.8,0.7,1l12.2,5.5l-1.8,1.8l-1.2,2.6L244.3,182.5z M237.2,178.4l2.7,1.2l1.4-3l-2.7-1.2L237.2,178.4z M240.4,179.9
		l2.6,1.2l1.4-3l-2.6-1.2L240.4,179.9z"/>
	<path class="st1" d="M222.4,204.6c0,0-1.6,0.3-2.6,0.4c-0.1-0.2-0.1-0.4,0-0.6l1.4-2.1l-4.3-2.9c-1.3-0.8-1.8-1.6-0.5-4
		c0.6,0.3,1.1,0.5,1.5,0.4c0.5-0.1,1-0.4,1.7-1.2l0.2,0.2c0,0-1.5,1.9-1.7,2.3c-0.2,0.3-0.2,0.4,0.1,0.6l4.2,2.8l3.6-5.3l0.5,0.2
		l-3.7,5.4l2.3,1.5l-1.8,2.2c-0.2-0.2-0.2-0.4,0-0.8l-1.6-1.1l-0.2,0.3L222.4,204.6z M234.3,201.1c-0.2-0.2-0.3-0.4-0.1-0.9
		l-13.7-9.3c-0.2-0.1-0.1-1.2,0.3-1.9l0.2-0.3l6.8,4.6l0.5-0.8c-2.6-1.9-4.8-3.8-4.9-7.1l0.4,0c1.1,2.4,3.3,3.9,5.7,5.5l0.7-1
		l0.5,0.2l-2.5,3.6l2.2,1.5l0.8-1.1l-0.3-0.9l1.9-1.1c0,0.2,0.1,0.4,0.1,0.6l4.3,2.9l-1.8,2.1c-0.2-0.2-0.2-0.4,0-0.9l-3.8-2.6
		l-0.8,1.2l5.1,3.5L234.3,201.1z M225,196c-3.7,3.6-5.8,0-3.6-0.7c1,0.5,2.5,0.6,3.6,0.5L225,196z M230.6,198.1
		c0.2,1.8,1.2,4.2,2.2,5.7l-2.3,2c-0.1-0.2-0.1-0.4,0.2-0.8c-0.1-0.4-0.3-0.9-0.3-1.4l-2,2.9l0.3,1.5l-2.6,0.8
		c-0.1-0.2,0-0.5,0.3-0.9c-1.3-3.4-1.4-7.4,0.5-12.2l0.3,0c-0.5,2.3-0.6,4.5-0.2,6.6c0.1-0.2,0.2-0.5,0.6-0.7c0.7,0.2,1.8,0,2.6-0.2
		c-0.1-1.1,0-2.3,0.2-3.3L230.6,198.1z M230.3,203c-0.1-0.3-0.1-0.6-0.1-0.9c-1.5,1.8-2.7,1.7-3.2,1c0.2,1.1,0.6,2.2,1,3.2
		L230.3,203z M228.1,201.4c-0.1-0.8-0.2-2-0.2-3.5c-0.2-0.2-0.2-0.4-0.2-0.6l2.2,0.2c-0.3,0.7-1,2.4-1.6,4L228.1,201.4z"/>
	<path class="st1" d="M204.4,214.9c0,0-1.7,0.2-2.8,0.2c-0.1-0.2,0-0.4,0.1-0.6l5.7-5.9l-0.7-0.6c-0.1-0.1,0-0.9,0.7-1.7l0.3-0.3
		l7.8,7.5c-0.1-0.8-0.1-1.6-0.1-2.3l0.3,0c0.1,0.5,0.3,0.9,0.5,1.4c0-0.7,0.1-1.5,0.2-2.5l-4.5-4.3c-1.2-1.1-1.6-2-0.1-4
		c0.6,0.5,1.1,0.8,1.6,0.9c0.5,0,0.9-0.1,1.7-0.6l0.2,0.2c0,0-1.4,1.2-1.7,1.5c-0.2,0.2-0.2,0.4,0,0.5l3.1,3
		c0.1-0.4,0.1-0.8,0.2-1.3c-0.2-0.2-0.2-0.5-0.1-0.7l2.5,1c-0.2,0.5-0.6,1.3-1.1,2.4l2.6,2.5l1.6-1.7l0.5,0.3l-1.7,1.7l3.3,3.2
		l-2.2,1.9c-0.2-0.2-0.2-0.5,0.1-0.9l-2.7-2.6l-0.1,0.1l0.4,1.7c0,0-1.5,0.1-2.3,0c-0.1-0.2,0-0.4,0.1-0.6l1.5-1.6l-2-2
		c-0.3,0.6-0.6,1.3-0.8,2l-0.1,0c0.9,2.4,2.5,4.9,3.7,6.6l-2.8,1.6c-0.1-0.2-0.1-0.4,0.2-0.8c-0.4-0.8-0.7-1.7-1.1-2.7l-0.1,0
		l-3.5,3.7l0.3,1.9c0,0-1.6,0.2-2.7,0.2c-0.1-0.2,0-0.4,0.2-0.6l2.5-2.6l-2.4-2.4l-0.4,0.4l0.3,1.8c0,0-1.6,0.1-2.6,0.2
		c-0.1-0.2,0-0.4,0.2-0.6l2.1-2.2l-2.5-2.4l-0.4,0.4l0.3,1.8c0,0-1.6,0.1-2.6,0.2c-0.1-0.2,0-0.4,0.2-0.6l2.1-2.2l-2.6-2.5l-0.8,0.8
		L204.4,214.9z M207.9,209l-1.6,1.7l2.6,2.5l1.6-1.7L207.9,209z M211.7,215.9l1.6-1.7l-2.5-2.4l-1.6,1.7L211.7,215.9z M216.2,217
		l-2.4-2.4l-1.6,1.7l2.4,2.4L216.2,217z M218.3,221.5c-4.4,2.7-5.5-1.7-2.9-1.8c0.8,0.8,2,1.4,3,1.6L218.3,221.5z"/>
	<path class="st1" d="M191,230.7c-0.1-0.2-0.1-0.4,0.2-0.8l-4.1-5.5c-0.1-0.1,0.5-1,1.1-1.5l0.3-0.2l1,1.3l8.7-6.5l-0.1-1.3l2.6-0.3
		c0,0.2-0.1,0.6-0.2,0.8l3.4,4.7l-2.5,1.5c-0.1-0.2,0-0.4,0.3-0.8l-3.1-4.2l-3.4,2.5l4.6,6.2l2.6-1.9l-0.1-1.3l2.6-0.3
		c0,0.2-0.1,0.5-0.1,0.8l3.2,4.4l-2.5,1.5c-0.1-0.2-0.1-0.4,0.3-0.8l-2.9-4l-2.7,2l4.4,6l-2.6,1.6c-0.1-0.3-0.1-0.5,0.2-0.9
		l-3.9-5.3l-2.8,2.1l3.4,4.5l-2.4,1.5c-0.1-0.2-0.1-0.4,0.2-0.8l-3.6-4.8c-0.1-0.1,0.5-1,1.2-1.5l0.3-0.2l0.7,0.9l2.8-2.1l-4.6-6.2
		l-3.6,2.6l3.5,4.8L191,230.7z"/>
	<path class="st1" d="M184,235.4c0.4,0.8,0.1,1.8-0.7,2.2c-0.8,0.4-1.8,0.1-2.2-0.7c-0.4-0.7-0.1-1.7,0.7-2.1
		C182.6,234.3,183.6,234.6,184,235.4z"/>
	<path class="st1" d="M160.7,238.4c0.9-1.1,2.1-1.9,3.7-2.5c4-1.5,8,0,9.6,4.5c1.7,4.6-0.6,8.3-4.5,9.7c-1.4,0.5-2.7,0.6-4.2,0.4
		l-1.1-3.2l1-0.4l1.9,2.8c0.6,0,1.2-0.1,1.8-0.3c2.7-1,4-3.8,2.4-8.1c-1.6-4.3-4.3-5.6-7.1-4.6c-0.6,0.2-1.1,0.5-1.7,1l0.3,3.4
		l-1.1,0.4L160.7,238.4z"/>
	<path class="st1" d="M160.4,243.1c0.8,3.4-1.1,5.9-3.8,6.5c-2.7,0.7-5.6-0.7-6.4-4.1c-0.8-3.4,0.9-5.9,3.8-6.6
		C157,238.3,159.6,239.8,160.4,243.1z M152.9,244.9c0.8,3.1,2,4.4,3.6,4.1c1.6-0.4,2.1-2.1,1.3-5.2c-0.8-3.1-2-4.4-3.6-4.1
		C152.7,240.1,152.2,241.8,152.9,244.9z"/>
	<path class="st1" d="M129.9,243.3l-0.1-0.6l5.2-0.5l0.1,0.6l-1.3,0.3c0.1,1.1,0.2,2.7,0.3,3.8l0.2,2.4c0.2,1.8,0.7,2.3,1.7,2.2
		c0.8-0.1,1.6-0.6,2.4-1.5c-0.1-0.3-0.1-0.7-0.2-1.1l-0.2-2.4c-0.1-1.1-0.3-2.7-0.4-3.8l-1.3,0l-0.1-0.6l5.2-0.5l0.1,0.6l-1.4,0.3
		c0.1,1.1,0.2,2.7,0.3,3.8l0.2,2.3c0.2,1.8,0.7,2.3,1.7,2.2c0.8-0.1,1.6-0.6,2.3-1.5l-0.3-3.4c-0.1-1.1-0.3-2.7-0.4-3.8l-1.3,0
		l-0.1-0.6l5.3-0.5l0.1,0.6l-1.4,0.3c0.1,1.1,0.2,2.7,0.3,3.8l0.1,1.4c0.1,1.3,0.2,2,0.4,2.9l1.5,0l0,0.5l-3.6,1.5l-0.3-0.1
		l-0.3-1.7c-1,1.4-2.1,2.2-3.4,2.3c-1.4,0.1-2.4-0.4-2.9-1.7c-1.1,1.6-2.2,2.2-3.5,2.4c-2,0.2-3.1-0.9-3.3-3.5l-0.2-2.3
		c-0.1-1.1-0.3-2.7-0.4-3.8L129.9,243.3z"/>
	<path class="st1" d="M123.6,242.9l0-0.6l5.3,0.1l0,0.6l-1.4,0.2c0,1.1-0.1,2.7-0.1,3.8l0,1.4c0,1.2,0,2,0,2.9l1.6,0.2l0,0.5l-4,1
		l-0.3-0.2l0.1-3l0-2.9c0-1.1,0-2.7,0-3.8L123.6,242.9z M127.6,256.7c0,0.9-0.7,1.4-1.6,1.4s-1.5-0.6-1.5-1.5c0-0.8,0.7-1.4,1.6-1.4
		S127.6,255.8,127.6,256.7z"/>
	<path class="st1" d="M110.5,241.8l0.1-0.6l5.3,0.5l-0.1,0.6l-1.4,0c-0.1,1.1-0.3,2.7-0.4,3.8l-0.3,2.5c-0.2,1.7,0.3,2.3,1.3,2.4
		c0.7,0.1,1.6-0.2,2.7-1l0.4-3.5c0.1-1.1,0.3-2.7,0.3-3.8l-1.2-0.3l0.1-0.6l5.3,0.5l-0.1,0.6l-1.4,0c-0.1,1.1-0.3,2.7-0.4,3.8
		l-0.1,1.4c-0.1,1.3-0.2,2-0.2,2.9l1.5,0.3l0,0.5l-3.8,0.8l-0.3-0.2l0-1.8c-1.4,1.3-2.6,1.7-3.9,1.6c-1.8-0.2-2.8-1.5-2.6-4l0.2-2.4
		c0.1-1.1,0.3-2.7,0.3-3.8L110.5,241.8z"/>
	<path class="st1" d="M97.7,247.7l2.2,0.6c-0.3-0.6-0.4-1.4-0.2-2.2c0.4-2.1,2.2-3.2,4.9-2.7c0.8,0.2,1.5,0.4,2,0.8
		c0.4-0.3,0.6-0.7,0.7-1.1c0.1-0.7-0.2-1.1-1.2-1.3l-2.8-0.6c-2.7-0.6-3.6-1.9-3.2-3.6c0.4-2,2.7-3.3,6.5-2.5
		c3.2,0.7,4.2,2.1,3.9,3.5c-0.2,0.9-0.9,1.5-2.4,1.8c0.8,0.5,1.2,1.1,1,2c-0.2,0.9-0.8,1.5-2.1,2.2c0.9,0.8,1.3,2,1,3.3
		c-0.4,2-2.2,3.1-4.9,2.6c-1.3-0.3-2.2-0.8-2.8-1.5l-2.6,0.4l-0.3-0.3L97.7,247.7z M101.9,246.7c-0.4,1.7,0.1,3,1.3,3.2
		c1.2,0.2,2.1-0.7,2.5-2.5c0.4-1.7,0-3-1.2-3.2C103.2,243.9,102.3,244.9,101.9,246.7z M105.9,239.6c0.9,0.2,1.3,0.3,1.8,0.5
		c0.5-0.4,0.9-0.8,1-1.5c0.3-1.4-0.6-2.4-2.4-2.7c-2.4-0.5-3.9,0.1-4.1,1.3c-0.2,0.9,0.1,1.7,1.5,2L105.9,239.6z"/>
	<path class="st1" d="M85.7,243c-2.3-2.2-2.8-3.6-2.1-5.6c0.9-2.4,3.3-3.3,6.5-2.1c1.5,0.6,2.9,1.6,3.7,2.6l-1.2,3l-1-0.4l0.3-3.2
		c-0.5-0.5-1.1-0.8-1.8-1.1c-1.9-0.7-3.3-0.2-3.9,1.3c-0.5,1.3-0.1,2.1,1.3,3.4l0.7,0.7c1.9,1.8,2.8,3.5,2,5.6c-0.9,2.4-3.4,3-6.1,2
		c-1.4-0.5-2.4-1.4-3.2-2.3l1.2-2.8l1,0.4l-0.3,3.1c0.3,0.4,0.7,0.6,1.3,0.8c1.6,0.6,3,0.2,3.5-1.2c0.5-1.3,0-2.3-1.1-3.3L85.7,243z
		"/>
	<path class="st1" d="M81.5,238c-1.5,3.1-4.6,3.8-7.1,2.6c-2.5-1.2-3.8-4.1-2.3-7.2c1.5-3.1,4.5-4,7.1-2.7
		C81.9,232.1,83,234.9,81.5,238z M74.5,234.6c-1.4,2.9-1.3,4.7,0.1,5.4c1.4,0.7,2.9-0.3,4.4-3.2c1.4-2.9,1.3-4.7-0.1-5.4
		C77.5,230.7,76,231.7,74.5,234.6z"/>
	<path class="st1" d="M70.5,232.5c-1.9,2.9-5,3.3-7.4,1.8c-2.4-1.5-3.4-4.5-1.5-7.4c1.9-3,4.9-3.5,7.4-1.9
		C71.5,226.7,72.3,229.6,70.5,232.5z M63.9,228.4c-1.7,2.7-1.8,4.5-0.4,5.4c1.4,0.9,3,0,4.7-2.7c1.7-2.7,1.8-4.5,0.4-5.4
		C67.3,224.8,65.6,225.7,63.9,228.4z"/>
	<path class="st1" d="M53.7,214.9l0.4-0.5l4.2,3.3l-0.4,0.5l-1.2-0.7c-0.7,0.8-1.7,2.1-2.4,2.9l-1.5,1.9c-1.1,1.3-1,2.1-0.2,2.7
		c0.6,0.4,1.5,0.7,2.8,0.6l2.2-2.7c0.7-0.8,1.7-2.1,2.3-3l-0.9-0.9l0.4-0.5l4.2,3.3l-0.4,0.5l-1.2-0.7c-0.7,0.9-1.7,2.1-2.4,2.9
		l-0.9,1.1c-0.8,1-1.2,1.5-1.7,2.3l1.1,1.1l-0.3,0.4L54,228l-0.1-0.3l1-1.5c-1.8,0.3-3.1,0-4.1-0.8c-1.4-1.1-1.6-2.8,0-4.8l1.5-1.9
		c0.7-0.9,1.7-2.1,2.3-3L53.7,214.9z"/>
	<path class="st1" d="M44.3,214.7c-0.6,0.6-1.7,0.6-2.3,0c-0.6-0.6-0.6-1.7,0.1-2.3c0.6-0.6,1.6-0.6,2.2,0
		C44.9,213.1,44.9,214.1,44.3,214.7z"/>
	<path class="st1" d="M23.2,200.8c0.2,0,0.5,0.1,0.8,0.4l7.7-5.9c1.2-0.9,2.1-1.2,3.7,0.5c-0.6,0.5-1,0.9-1.1,1.2
		c-0.1,0.4-0.1,0.8,0.2,1.5l-0.2,0.2c0,0-0.8-1.2-1-1.5c-0.2-0.2-0.3-0.2-0.5-0.1l-7.7,6l1.7,2.2l12.1-9.3c0.2-0.2,1.1,0.1,1.7,0.9
		l0.2,0.3l-13.9,10.7l-0.6-2.4l-1.5-2l-1.5-0.1L23.2,200.8z M28.3,210v-2.7c0.2,0,0.5,0.1,0.8,0.4l5.7-4.4c0.1-0.1,1.1,0.5,1.5,1.1
		l0.2,0.3l-0.9,0.7l2,2.6l4-3.1c-0.9-0.5-1.9-1.1-3-1.7c-0.5,0.8-0.9,1.6-1.1,2.3l-0.2-0.1c-1-6.3,3.9-7.6,3.6-4.8
		c-0.7,0.5-1.3,1.3-1.9,2c1.3,0.3,3.1,0.6,5.1,1.2c0.4-0.1,0.7,0,1,0.1l-1.1,2.6c-0.6-0.2-0.8-0.2-1.2,0.1l-10.6,8.2l-0.7-2.4
		l-1.8-2.3L28.3,210z M32.4,207.9l-2.3,1.8l2,2.6l2.3-1.8L32.4,207.9z M35.2,205.8l-2.4,1.8l2,2.6l2.4-1.8L35.2,205.8z"/>
	<path class="st1" d="M20.8,190.7c-1.7-0.6-4.2-0.9-6.1-0.7l-0.7-3c0.2,0,0.4,0.1,0.6,0.6c0.4,0.1,0.9,0.2,1.4,0.3l-1.6-3.1
		l-1.5-0.5l0.5-2.7c0.2,0.1,0.4,0.3,0.7,0.7c3.7,0.4,7.2,2.2,10.6,6.1l-0.1,0.3c-1.8-1.5-3.7-2.6-5.7-3.3c0.2,0.2,0.3,0.4,0.3,0.8
		c-0.5,0.6-0.9,1.6-1,2.4c1,0.5,2,1.1,2.8,1.7L20.8,190.7z M16.7,188.2c0.3,0.1,0.6,0.2,0.9,0.3c-0.9-2.1-0.2-3.2,0.6-3.3
		c-1.1-0.3-2.2-0.5-3.3-0.6L16.7,188.2z M16.5,192.6c0.3-0.1,0.5-0.1,0.8,0.4l14.6-7.7c0.2-0.1,1.1,0.5,1.5,1.2l0.2,0.4l-7.2,3.8
		l0.4,0.8c2.9-1.4,5.6-2.4,8.6-1l-0.1,0.3c-2.6-0.2-5,1.1-7.5,2.4l0.6,1.1l-0.4,0.4l-2.1-3.9l-2.3,1.2l0.6,1.2l0.9,0.2l0.1,2.3
		c-0.2,0-0.4-0.1-0.6-0.2L20,198l-1-2.6c0.2-0.1,0.4,0,0.7,0.4l4.1-2.2l-0.7-1.3l-5.5,2.9L16.5,192.6z M18.9,180.4
		c0,0,0.5-1.5,0.9-2.4c0.2,0,0.4,0.1,0.5,0.3l1.2,2.3l4.5-2.4c1.3-0.7,2.3-0.8,3.7,1.4c-0.6,0.4-0.9,0.7-1.1,1.2
		c-0.1,0.5-0.1,1,0.3,2.1l-0.3,0.1c0,0-1-2.2-1.2-2.6c-0.2-0.3-0.3-0.3-0.5-0.2l-4.4,2.4l3,5.6l-0.4,0.4l-3.1-5.8l-2.4,1.3l-1.1-2.6
		c0.3-0.1,0.5,0,0.8,0.3l1.7-0.9l-0.2-0.3L18.9,180.4z M19.2,186.9c0.7,0.3,1.8,0.8,3.2,1.5c0.3-0.1,0.5,0,0.6,0.2l-1.2,1.8
		c-0.5-0.6-1.6-2-2.7-3.3L19.2,186.9z M25.4,186.8c-1.4-5,2.7-5.1,2.3-2.8c-0.9,0.6-1.7,1.9-2.1,2.9L25.4,186.8z"/>
	<path class="st1" d="M6,168.8c-0.3-5.2,4-4,2.9-1.7c-1.1,0.3-2.2,1.1-2.8,1.9L6,168.8z M18.3,159.7c0,0,0.6-1.6,1.1-2.5
		c0.2,0,0.4,0.1,0.5,0.4l2.6,7.8l0.9-0.3c0.1,0,0.8,0.4,1.1,1.4l0.1,0.4l-10.3,3.4c0.7,0.3,1.4,0.6,2.1,1l-0.1,0.2
		c-0.5-0.1-0.9-0.2-1.4-0.2c0.6,0.3,1.3,0.8,2.1,1.3l5.9-1.9c1.5-0.5,2.5-0.5,3.5,1.8c-0.7,0.3-1.2,0.6-1.5,0.9
		c-0.3,0.4-0.4,0.9-0.3,1.8l-0.3,0.1c0,0-0.4-1.8-0.6-2.2c-0.1-0.3-0.2-0.3-0.5-0.3l-4.1,1.3c0.3,0.2,0.7,0.5,1,0.7
		c0.3,0,0.5,0,0.7,0.2l-2,1.8c-0.3-0.4-0.9-1.2-1.6-2.1l-3.4,1.1l0.7,2.2l-0.5,0.3l-0.8-2.3l-4.4,1.4l-0.6-2.8
		c0.3-0.1,0.5,0.1,0.8,0.5l3.6-1.2l0-0.1l-1.7-0.4c0,0,0.6-1.3,1.1-2.1c0.2,0,0.4,0.1,0.5,0.4l0.7,2.1l2.7-0.9
		c-0.4-0.6-0.9-1.1-1.3-1.7l0.1-0.1c-2.6-0.3-5.5-0.1-7.5,0.2l-0.1-3.2c0.2,0,0.4,0.1,0.6,0.6c0.8,0,1.8,0.1,2.9,0.3l0-0.1l-1.6-4.8
		L7,163.7c0,0,0.6-1.5,1-2.5c0.2,0,0.4,0.2,0.5,0.4l1.1,3.4l3.2-1.1l-0.2-0.5l-1.8-0.5c0,0,0.6-1.5,1.1-2.3c0.2,0,0.4,0.1,0.5,0.4
		l0.9,2.8l3.3-1.1l-0.2-0.5l-1.8-0.5c0,0,0.6-1.4,1-2.3c0.2,0,0.4,0.1,0.5,0.4l0.9,2.8l3.4-1.1l-0.4-1.1L18.3,159.7z M11,169.1
		l3.2-1.1l-0.7-2.2l-3.2,1.1L11,169.1z M14,165.7l0.7,2.2l3.3-1.1l-0.7-2.2L14,165.7z M21.9,165.5l-0.7-2.2l-3.4,1.1l0.7,2.2
		L21.9,165.5z"/>
	<path class="st1" d="M10.7,140.4c0.2,0,0.4,0.1,0.6,0.6l6.8-1c0.2,0,0.7,0.9,0.8,1.7l0.1,0.4l-1.6,0.2l1.6,10.7l1.2,0.5l-1,2.4
		c-0.2-0.1-0.5-0.3-0.6-0.5l-5.7,0.8l-0.1-2.9c0.2,0,0.4,0.2,0.5,0.6l5.2-0.8l-0.6-4.2l-7.6,1.1l0.5,3.2l1.2,0.5l-1,2.4
		c-0.2-0.1-0.5-0.3-0.7-0.5l-5.4,0.8l-0.2-2.9c0.2,0,0.4,0.2,0.6,0.6l4.9-0.7l-0.5-3.3l-7.4,1.1l-0.2-3c0.3,0,0.5,0.1,0.7,0.6l6.5-1
		l-0.5-3.5l-5.6,0.8L3,142.5c0.3,0,0.4,0.1,0.6,0.6l6-0.9c0.2,0,0.7,0.9,0.8,1.7l0.1,0.4l-1.1,0.2l0.5,3.5l7.6-1.1l-0.7-4.4
		l-5.9,0.9L10.7,140.4z"/>
	<path class="st1" d="M9.9,132c-0.9,0-1.6-0.7-1.6-1.6c0-0.9,0.8-1.6,1.7-1.6c0.8,0,1.6,0.7,1.5,1.6C11.5,131.3,10.7,132,9.9,132z"
		/>
	<path class="st1" d="M18.1,110c0.5,1.3,0.7,2.8,0.5,4.4c-0.6,4.3-3.7,7.1-8.5,6.4c-4.8-0.7-7-4.4-6.4-8.5c0.2-1.5,0.7-2.7,1.6-3.9
		l3.3,0.5L8.5,110l-3.4,0.4c-0.3,0.5-0.5,1.1-0.6,1.7c-0.4,2.8,1.5,5.3,6,5.9c4.5,0.6,7-1.2,7.4-4.1c0.1-0.7,0.1-1.3-0.1-1.9
		l-3.1-1.3l0.2-1.1L18.1,110z"/>
	<path class="st1" d="M14.1,107.6c-3.4-0.9-4.7-3.7-4-6.4c0.7-2.7,3.2-4.6,6.6-3.7s4.8,3.6,4.1,6.4C20,106.8,17.4,108.5,14.1,107.6z
		 M16,100.1c-3.1-0.8-4.9-0.3-5.2,1.2c-0.4,1.6,0.9,2.8,4,3.6c3.1,0.8,4.9,0.3,5.3-1.2C20.4,102.2,19.1,100.9,16,100.1z"/>
	<path class="st1" d="M28.2,80.5l0.6,0.2l-2,4.8l-0.6-0.2l0.3-1.3c-1-0.4-2.5-1.1-3.5-1.5l-2.2-0.9c-1.7-0.7-2.4-0.4-2.8,0.5
		c-0.3,0.8-0.2,1.7,0.2,2.8c0.3,0.1,0.7,0.2,1,0.3l2.2,0.9c1,0.4,2.5,1,3.5,1.4l0.6-1.1l0.6,0.2l-2,4.9l-0.6-0.2l0.4-1.4
		c-1-0.4-2.5-1.1-3.5-1.5l-2.2-0.9c-1.6-0.7-2.4-0.5-2.8,0.5c-0.3,0.7-0.2,1.7,0.3,2.8l3.2,1.3c1,0.4,2.5,1,3.5,1.4l0.6-1.1l0.6,0.2
		l-2,4.9l-0.6-0.2l0.4-1.4c-1-0.4-2.5-1.1-3.5-1.5l-1.3-0.5c-1.2-0.5-1.8-0.8-2.7-1l-0.7,1.4L13,94.2l0.3-3.9l0.3-0.2l1.7,0.5
		c-0.8-1.5-0.9-2.8-0.4-4.1c0.5-1.3,1.5-1.9,2.9-1.7c-0.9-1.7-1-3-0.5-4.2c0.8-1.8,2.2-2.3,4.6-1.3l2.2,0.9c1,0.4,2.5,1,3.5,1.4
		L28.2,80.5z"/>
	<path class="st1" d="M17.5,72.2c-0.8-0.4-0.9-1.3-0.5-2c0.4-0.7,1.3-1.1,2-0.6c0.7,0.4,0.9,1.3,0.5,2
		C19.1,72.3,18.3,72.6,17.5,72.2z M31.5,75.1l0.5,0.3l-2.6,4.7L29,79.8l0.5-1.3c-1-0.6-2.4-1.3-3.3-1.9L25,75.9
		c-1.1-0.6-1.7-0.9-2.6-1.4l-0.9,1.3L21,75.6l0.9-4l0.3-0.2l2.6,1.5l2.5,1.4c0.9,0.5,2.4,1.3,3.3,1.8L31.5,75.1z"/>
	<path class="st1" d="M38.7,64.2l0.5,0.3l-3,4.4l-0.5-0.3l0.6-1.2c-0.9-0.6-2.2-1.5-3.1-2.2l-2.1-1.4c-1.4-0.9-2.2-0.9-2.7,0
		c-0.4,0.6-0.6,1.5-0.4,2.8l2.9,1.9c0.9,0.6,2.2,1.5,3.2,2.1l0.8-1l0.5,0.3l-3,4.4L32,74.1l0.6-1.3c-0.9-0.6-2.2-1.5-3.1-2.1
		l-1.2-0.8c-1-0.7-1.6-1.1-2.4-1.5l-1,1.2l-0.4-0.3l1.1-3.8l0.3-0.1l1.5,0.9c-0.5-1.8-0.3-3.1,0.4-4.2c1-1.5,2.6-1.8,4.8-0.4l2,1.3
		c0.9,0.6,2.2,1.5,3.2,2.1L38.7,64.2z"/>
	<path class="st1" d="M39.5,50l-1.6,1.6c0.7,0,1.4,0.3,2,0.8c1.6,1.4,1.8,3.5,0,5.6c-0.5,0.6-1.1,1.1-1.6,1.4
		c0.1,0.5,0.3,0.8,0.7,1.1c0.5,0.4,1.1,0.4,1.8-0.4l1.8-2.2c1.8-2.1,3.4-2.3,4.7-1.1c1.6,1.3,1.6,4-0.8,6.9
		c-2.1,2.5-3.8,2.7-4.9,1.8c-0.7-0.6-0.9-1.5-0.4-2.9c-0.8,0.5-1.6,0.5-2.2-0.1c-0.7-0.6-0.9-1.4-1-2.9c-1.2,0.4-2.4,0.2-3.4-0.7
		c-1.6-1.3-1.7-3.4,0-5.5c0.8-1,1.8-1.6,2.6-1.7l0.9-2.5l0.4-0.1L39.5,50z M38.4,54.3c-1.4-1.1-2.7-1.3-3.4-0.4
		c-0.8,0.9-0.4,2.2,1,3.4c1.4,1.1,2.7,1.4,3.4,0.4C40.2,56.7,39.8,55.4,38.4,54.3z M42.8,61c-0.6,0.7-0.9,1-1.3,1.3
		c0.1,0.7,0.3,1.1,0.9,1.6c1.1,0.9,2.4,0.6,3.5-0.8c1.6-1.9,1.7-3.5,0.8-4.2c-0.7-0.6-1.5-0.7-2.4,0.4L42.8,61z"/>
	<path class="st1" d="M49.2,41.7c3-1,4.5-0.8,5.9,0.7c1.7,1.9,1.3,4.5-1.2,6.7c-1.2,1.1-2.7,1.9-4,2.1l-2.1-2.5l0.8-0.7l2.7,1.8
		c0.7-0.2,1.2-0.6,1.8-1.1c1.5-1.3,1.8-2.8,0.7-4c-0.9-1-1.8-1.1-3.6-0.5l-0.9,0.3c-2.5,0.8-4.4,0.8-5.9-0.8
		c-1.7-1.9-1.1-4.4,1.1-6.3c1.1-1,2.3-1.5,3.5-1.7L50,38l-0.8,0.7L46.6,37c-0.5,0.1-0.9,0.4-1.3,0.8c-1.3,1.1-1.6,2.6-0.6,3.7
		c0.9,1,2,1,3.5,0.6L49.2,41.7z"/>
	<path class="st1" d="M55.6,40.3c-2-2.8-1.3-5.8,1-7.5c2.3-1.7,5.4-1.5,7.5,1.4s1.4,5.8-1,7.6C60.7,43.4,57.7,43.1,55.6,40.3z
		 M61.9,35.7c-1.9-2.6-3.6-3.3-4.8-2.4c-1.3,0.9-1.1,2.7,0.8,5.3c1.9,2.6,3.5,3.4,4.8,2.4C64,40.2,63.8,38.4,61.9,35.7z"/>
	<path class="st1" d="M65.7,33.1c-1.7-3-0.6-5.9,1.8-7.4c2.4-1.4,5.5-0.9,7.3,2.1c1.7,3,0.8,5.9-1.8,7.4
		C70.4,36.8,67.4,36.1,65.7,33.1z M72.4,29.3c-1.6-2.8-3.2-3.7-4.5-2.9c-1.4,0.8-1.4,2.6,0.2,5.4c1.6,2.8,3.2,3.7,4.6,2.9
		C74,33.9,74,32.1,72.4,29.3z"/>
	<path class="st1" d="M89.1,26.6l0.2,0.6l-4.9,2.1l-0.2-0.6l1.2-0.7c-0.4-1-1-2.5-1.5-3.5l-1-2.3c-0.7-1.5-1.3-1.9-2.3-1.5
		c-0.7,0.3-1.3,1-1.8,2.2l1.4,3.2c0.4,1,1.1,2.5,1.6,3.5l1.2-0.4l0.2,0.6l-4.9,2.1l-0.2-0.6l1.2-0.7c-0.4-1-1-2.5-1.5-3.5l-0.6-1.3
		c-0.5-1.2-0.8-1.8-1.2-2.6l-1.5,0.5l-0.2-0.4l2.9-2.6l0.3,0.1l0.8,1.6c0.6-1.8,1.4-2.8,2.6-3.3c1.7-0.7,3.2-0.1,4.2,2.3l0.9,2.2
		c0.4,1,1.1,2.5,1.6,3.5L89.1,26.6z"/>
	<path class="st1" d="M93.7,18.3c-0.2-0.9,0.2-1.8,1.1-2c0.9-0.2,1.7,0.3,2,1.1c0.2,0.8-0.2,1.7-1.1,2
		C94.8,19.7,93.9,19.2,93.7,18.3z"/>
</g>
</svg>
