<?xml version="1.0" encoding="utf-8"?>
<!-- Generator: Adobe Illustrator 25.2.3, SVG Export Plug-In . SVG Version: 6.00 Build 0)  -->
<svg version="1.1" id="圖層_2" xmlns="http://www.w3.org/2000/svg" xmlns:xlink="http://www.w3.org/1999/xlink" x="0px" y="0px"
	 viewBox="0 0 462 203" style="enable-background:new 0 0 462 203;" xml:space="preserve">
<style type="text/css">
	.st0{fill:#FFFFFF;}
</style>
<g>
	<path class="st0" d="M352.3,30.7c5.4,0,9.9,4.4,9.9,9.9v130.6c0,5.4-4.4,9.9-9.9,9.9H28.4c-5.4,0-9.9-4.4-9.9-9.9V40.5
		c0-5.4,4.4-9.9,9.9-9.9H352.3 M352.3,27.7H28.4c-7.1,0-12.9,5.8-12.9,12.9v130.6c0,7.1,5.8,12.9,12.9,12.9h323.9
		c7.1,0,12.9-5.8,12.9-12.9V40.5C365.2,33.4,359.4,27.7,352.3,27.7L352.3,27.7z"/>
</g>
<g>
	<path class="st0" d="M50.9,38.1c0.5,0,1,0.5,1,1v10.9c0,0.5-0.5,1-1,1H25c-0.5,0-1-0.5-1-1V39.1c0-0.5,0.5-1,1-1H50.9 M50.9,36.1
		H25c-1.7,0-3,1.3-3,3v10.9c0,1.6,1.3,3,3,3h25.9c1.7,0,3-1.4,3-3V39.1C53.9,37.5,52.6,36.1,50.9,36.1L50.9,36.1z"/>
</g>
<g>
	<path class="st0" d="M45.7,59c1.6,0,2.9,1.3,2.9,2.9v17.5c0,1.6-1.3,2.9-2.9,2.9H26.9c-1.6,0-2.9-1.3-2.9-2.9V61.9
		c0-1.6,1.3-2.9,2.9-2.9H45.7 M45.7,57H26.9c-2.7,0-4.9,2.2-4.9,4.9v17.5c0,2.7,2.2,4.9,4.9,4.9h18.8c2.7,0,4.9-2.2,4.9-4.9V61.9
		C50.7,59.2,48.4,57,45.7,57L45.7,57z"/>
</g>
<g>
	<path class="st0" d="M54.2,89.6c1.6,0,2.9,1.3,2.9,2.9V110c0,1.6-1.3,2.9-2.9,2.9H26.9c-1.6,0-2.9-1.3-2.9-2.9V92.5
		c0-1.6,1.3-2.9,2.9-2.9H54.2 M54.2,87.6H26.9c-2.7,0-4.9,2.2-4.9,4.9V110c0,2.7,2.2,4.9,4.9,4.9h27.3c2.7,0,4.9-2.2,4.9-4.9V92.5
		C59.1,89.8,56.9,87.6,54.2,87.6L54.2,87.6z"/>
</g>
<g>
	<path class="st0" d="M54.2,151.4c1.6,0,2.9,1.3,2.9,2.9v17.5c0,1.6-1.3,2.9-2.9,2.9H26.9c-1.6,0-2.9-1.3-2.9-2.9v-17.5
		c0-1.6,1.3-2.9,2.9-2.9H54.2 M54.2,149.4H26.9c-2.7,0-4.9,2.2-4.9,4.9v17.5c0,2.7,2.2,4.9,4.9,4.9h27.3c2.7,0,4.9-2.2,4.9-4.9
		v-17.5C59.1,151.7,56.9,149.4,54.2,149.4L54.2,149.4z"/>
</g>
<g>
	<path class="st0" d="M77,120.8c1.6,0,2.9,1.3,2.9,2.9v17.5c0,1.6-1.3,2.9-2.9,2.9H26.9c-1.6,0-2.9-1.3-2.9-2.9v-17.5
		c0-1.6,1.3-2.9,2.9-2.9H77 M77,118.8H26.9c-2.7,0-4.9,2.2-4.9,4.9v17.5c0,2.7,2.2,4.9,4.9,4.9H77c2.7,0,4.9-2.2,4.9-4.9v-17.5
		C81.9,121.1,79.7,118.8,77,118.8L77,118.8z"/>
</g>
<g>
	<path class="st0" d="M77.6,59c1.6,0,2.9,1.3,2.9,2.9v17.5c0,1.6-1.3,2.9-2.9,2.9H58.8c-1.6,0-2.9-1.3-2.9-2.9V61.9
		c0-1.6,1.3-2.9,2.9-2.9H77.6 M77.6,57H58.8c-2.7,0-4.9,2.2-4.9,4.9v17.5c0,2.7,2.2,4.9,4.9,4.9h18.8c2.7,0,4.9-2.2,4.9-4.9V61.9
		C82.6,59.2,80.3,57,77.6,57L77.6,57z"/>
</g>
<g>
	<path class="st0" d="M109.5,59c1.6,0,2.9,1.3,2.9,2.9v17.5c0,1.6-1.3,2.9-2.9,2.9H90.7c-1.6,0-2.9-1.3-2.9-2.9V61.9
		c0-1.6,1.3-2.9,2.9-2.9H109.5 M109.5,57H90.7c-2.7,0-4.9,2.2-4.9,4.9v17.5c0,2.7,2.2,4.9,4.9,4.9h18.8c2.7,0,4.9-2.2,4.9-4.9V61.9
		C114.5,59.2,112.3,57,109.5,57L109.5,57z"/>
</g>
<g>
	<path class="st0" d="M141.5,59c1.6,0,2.9,1.3,2.9,2.9v17.5c0,1.6-1.3,2.9-2.9,2.9h-18.8c-1.6,0-2.9-1.3-2.9-2.9V61.9
		c0-1.6,1.3-2.9,2.9-2.9H141.5 M141.5,57h-18.8c-2.7,0-4.9,2.2-4.9,4.9v17.5c0,2.7,2.2,4.9,4.9,4.9h18.8c2.7,0,4.9-2.2,4.9-4.9V61.9
		C146.4,59.2,144.2,57,141.5,57L141.5,57z"/>
</g>
<g>
	<path class="st0" d="M173.4,59c1.6,0,2.9,1.3,2.9,2.9v17.5c0,1.6-1.3,2.9-2.9,2.9h-18.8c-1.6,0-2.9-1.3-2.9-2.9V61.9
		c0-1.6,1.3-2.9,2.9-2.9H173.4 M173.4,57h-18.8c-2.7,0-4.9,2.2-4.9,4.9v17.5c0,2.7,2.2,4.9,4.9,4.9h18.8c2.7,0,4.9-2.2,4.9-4.9V61.9
		C178.3,59.2,176.1,57,173.4,57L173.4,57z"/>
</g>
<g>
	<path class="st0" d="M205.3,59c1.6,0,2.9,1.3,2.9,2.9v17.5c0,1.6-1.3,2.9-2.9,2.9h-18.8c-1.6,0-2.9-1.3-2.9-2.9V61.9
		c0-1.6,1.3-2.9,2.9-2.9H205.3 M205.3,57h-18.8c-2.7,0-4.9,2.2-4.9,4.9v17.5c0,2.7,2.2,4.9,4.9,4.9h18.8c2.7,0,4.9-2.2,4.9-4.9V61.9
		C210.2,59.2,208,57,205.3,57L205.3,57z"/>
</g>
<g>
	<path class="st0" d="M237.2,59c1.6,0,2.9,1.3,2.9,2.9v17.5c0,1.6-1.3,2.9-2.9,2.9h-18.8c-1.6,0-2.9-1.3-2.9-2.9V61.9
		c0-1.6,1.3-2.9,2.9-2.9H237.2 M237.2,57h-18.8c-2.7,0-4.9,2.2-4.9,4.9v17.5c0,2.7,2.2,4.9,4.9,4.9h18.8c2.7,0,4.9-2.2,4.9-4.9V61.9
		C242.1,59.2,239.9,57,237.2,57L237.2,57z"/>
</g>
<g>
	<path class="st0" d="M269.1,59c1.6,0,2.9,1.3,2.9,2.9v17.5c0,1.6-1.3,2.9-2.9,2.9h-18.8c-1.6,0-2.9-1.3-2.9-2.9V61.9
		c0-1.6,1.3-2.9,2.9-2.9H269.1 M269.1,57h-18.8c-2.7,0-4.9,2.2-4.9,4.9v17.5c0,2.7,2.2,4.9,4.9,4.9h18.8c2.7,0,4.9-2.2,4.9-4.9V61.9
		C274,59.2,271.8,57,269.1,57L269.1,57z"/>
</g>
<g>
	<path class="st0" d="M301,59c1.6,0,2.9,1.3,2.9,2.9v17.5c0,1.6-1.3,2.9-2.9,2.9h-18.8c-1.6,0-2.9-1.3-2.9-2.9V61.9
		c0-1.6,1.3-2.9,2.9-2.9H301 M301,57h-18.8c-2.7,0-4.9,2.2-4.9,4.9v17.5c0,2.7,2.2,4.9,4.9,4.9H301c2.7,0,4.9-2.2,4.9-4.9V61.9
		C305.9,59.2,303.7,57,301,57L301,57z"/>
</g>
<g>
	<path class="st0" d="M85.5,89.6c1.6,0,2.9,1.3,2.9,2.9V110c0,1.6-1.3,2.9-2.9,2.9H66.7c-1.6,0-2.9-1.3-2.9-2.9V92.5
		c0-1.6,1.3-2.9,2.9-2.9H85.5 M85.5,87.6H66.7c-2.7,0-4.9,2.2-4.9,4.9V110c0,2.7,2.2,4.9,4.9,4.9h18.8c2.7,0,4.9-2.2,4.9-4.9V92.5
		C90.4,89.8,88.2,87.6,85.5,87.6L85.5,87.6z"/>
</g>
<g>
	<path class="st0" d="M117.4,89.6c1.6,0,2.9,1.3,2.9,2.9V110c0,1.6-1.3,2.9-2.9,2.9H98.6c-1.6,0-2.9-1.3-2.9-2.9V92.5
		c0-1.6,1.3-2.9,2.9-2.9H117.4 M117.4,87.6H98.6c-2.7,0-4.9,2.2-4.9,4.9V110c0,2.7,2.2,4.9,4.9,4.9h18.8c2.7,0,4.9-2.2,4.9-4.9V92.5
		C122.3,89.8,120.1,87.6,117.4,87.6L117.4,87.6z"/>
</g>
<g>
	<path class="st0" d="M149.3,89.6c1.6,0,2.9,1.3,2.9,2.9V110c0,1.6-1.3,2.9-2.9,2.9h-18.8c-1.6,0-2.9-1.3-2.9-2.9V92.5
		c0-1.6,1.3-2.9,2.9-2.9H149.3 M149.3,87.6h-18.8c-2.7,0-4.9,2.2-4.9,4.9V110c0,2.7,2.2,4.9,4.9,4.9h18.8c2.7,0,4.9-2.2,4.9-4.9
		V92.5C154.2,89.8,152,87.6,149.3,87.6L149.3,87.6z"/>
</g>
<g>
	<path class="st0" d="M181.2,89.6c1.6,0,2.9,1.3,2.9,2.9V110c0,1.6-1.3,2.9-2.9,2.9h-18.8c-1.6,0-2.9-1.3-2.9-2.9V92.5
		c0-1.6,1.3-2.9,2.9-2.9H181.2 M181.2,87.6h-18.8c-2.7,0-4.9,2.2-4.9,4.9V110c0,2.7,2.2,4.9,4.9,4.9h18.8c2.7,0,4.9-2.2,4.9-4.9
		V92.5C186.1,89.8,183.9,87.6,181.2,87.6L181.2,87.6z"/>
</g>
<g>
	<path class="st0" d="M213.1,89.6c1.6,0,2.9,1.3,2.9,2.9V110c0,1.6-1.3,2.9-2.9,2.9h-18.8c-1.6,0-2.9-1.3-2.9-2.9V92.5
		c0-1.6,1.3-2.9,2.9-2.9H213.1 M213.1,87.6h-18.8c-2.7,0-4.9,2.2-4.9,4.9V110c0,2.7,2.2,4.9,4.9,4.9h18.8c2.7,0,4.9-2.2,4.9-4.9
		V92.5C218,89.8,215.8,87.6,213.1,87.6L213.1,87.6z"/>
</g>
<g>
	<path class="st0" d="M245,89.6c1.6,0,2.9,1.3,2.9,2.9V110c0,1.6-1.3,2.9-2.9,2.9h-18.8c-1.6,0-2.9-1.3-2.9-2.9V92.5
		c0-1.6,1.3-2.9,2.9-2.9H245 M245,87.6h-18.8c-2.7,0-4.9,2.2-4.9,4.9V110c0,2.7,2.2,4.9,4.9,4.9H245c2.7,0,4.9-2.2,4.9-4.9V92.5
		C249.9,89.8,247.7,87.6,245,87.6L245,87.6z"/>
</g>
<g>
	<path class="st0" d="M107.6,120.2c1.6,0,2.9,1.3,2.9,2.9v17.5c0,1.6-1.3,2.9-2.9,2.9H88.8c-1.6,0-2.9-1.3-2.9-2.9v-17.5
		c0-1.6,1.3-2.9,2.9-2.9H107.6 M107.6,118.2H88.8c-2.7,0-4.9,2.2-4.9,4.9v17.5c0,2.7,2.2,4.9,4.9,4.9h18.8c2.7,0,4.9-2.2,4.9-4.9
		v-17.5C112.5,120.4,110.3,118.2,107.6,118.2L107.6,118.2z"/>
</g>
<g>
	<path class="st0" d="M139.5,120.2c1.6,0,2.9,1.3,2.9,2.9v17.5c0,1.6-1.3,2.9-2.9,2.9h-18.8c-1.6,0-2.9-1.3-2.9-2.9v-17.5
		c0-1.6,1.3-2.9,2.9-2.9H139.5 M139.5,118.2h-18.8c-2.7,0-4.9,2.2-4.9,4.9v17.5c0,2.7,2.2,4.9,4.9,4.9h18.8c2.7,0,4.9-2.2,4.9-4.9
		v-17.5C144.4,120.4,142.2,118.2,139.5,118.2L139.5,118.2z"/>
</g>
<g>
	<path class="st0" d="M86.1,151.4c1.6,0,2.9,1.3,2.9,2.9v17.5c0,1.6-1.3,2.9-2.9,2.9H67.3c-1.6,0-2.9-1.3-2.9-2.9v-17.5
		c0-1.6,1.3-2.9,2.9-2.9H86.1 M86.1,149.4H67.3c-2.7,0-4.9,2.2-4.9,4.9v17.5c0,2.7,2.2,4.9,4.9,4.9h18.8c2.7,0,4.9-2.2,4.9-4.9
		v-17.5C91,151.7,88.8,149.4,86.1,149.4L86.1,149.4z"/>
</g>
<g>
	<path class="st0" d="M118,151.4c1.6,0,2.9,1.3,2.9,2.9v17.5c0,1.6-1.3,2.9-2.9,2.9H99.2c-1.6,0-2.9-1.3-2.9-2.9v-17.5
		c0-1.6,1.3-2.9,2.9-2.9H118 M118,149.4H99.2c-2.7,0-4.9,2.2-4.9,4.9v17.5c0,2.7,2.2,4.9,4.9,4.9H118c2.7,0,4.9-2.2,4.9-4.9v-17.5
		C122.9,151.7,120.7,149.4,118,149.4L118,149.4z"/>
</g>
<g>
	<path class="st0" d="M288,151.4c1.6,0,2.9,1.3,2.9,2.9v17.5c0,1.6-1.3,2.9-2.9,2.9h-18.8c-1.6,0-2.9-1.3-2.9-2.9v-17.5
		c0-1.6,1.3-2.9,2.9-2.9H288 M288,149.4h-18.8c-2.7,0-4.9,2.2-4.9,4.9v17.5c0,2.7,2.2,4.9,4.9,4.9H288c2.7,0,4.9-2.2,4.9-4.9v-17.5
		C292.9,151.7,290.7,149.4,288,149.4L288,149.4z"/>
</g>
<g>
	<path class="st0" d="M319.9,151.4c1.6,0,2.9,1.3,2.9,2.9v17.5c0,1.6-1.3,2.9-2.9,2.9h-18.8c-1.6,0-2.9-1.3-2.9-2.9v-17.5
		c0-1.6,1.3-2.9,2.9-2.9H319.9 M319.9,149.4h-18.8c-2.7,0-4.9,2.2-4.9,4.9v17.5c0,2.7,2.2,4.9,4.9,4.9h18.8c2.7,0,4.9-2.2,4.9-4.9
		v-17.5C324.8,151.7,322.6,149.4,319.9,149.4L319.9,149.4z"/>
</g>
<g>
	<path class="st0" d="M351.8,151.4c1.6,0,2.9,1.3,2.9,2.9v17.5c0,1.6-1.3,2.9-2.9,2.9H333c-1.6,0-2.9-1.3-2.9-2.9v-17.5
		c0-1.6,1.3-2.9,2.9-2.9H351.8 M351.8,149.4H333c-2.7,0-4.9,2.2-4.9,4.9v17.5c0,2.7,2.2,4.9,4.9,4.9h18.8c2.7,0,4.9-2.2,4.9-4.9
		v-17.5C356.7,151.7,354.5,149.4,351.8,149.4L351.8,149.4z"/>
</g>
<g>
	<path class="st0" d="M256,151.4c1.6,0,2.9,1.3,2.9,2.9v17.5c0,1.6-1.3,2.9-2.9,2.9H131.1c-1.6,0-2.9-1.3-2.9-2.9v-17.5
		c0-1.6,1.3-2.9,2.9-2.9H256 M256,149.4H131.1c-2.7,0-4.9,2.2-4.9,4.9v17.5c0,2.7,2.2,4.9,4.9,4.9H256c2.7,0,4.9-2.2,4.9-4.9v-17.5
		C261,151.7,258.8,149.4,256,149.4L256,149.4z"/>
</g>
<g>
	<path class="st0" d="M171.4,120.2c1.6,0,2.9,1.3,2.9,2.9v17.5c0,1.6-1.3,2.9-2.9,2.9h-18.8c-1.6,0-2.9-1.3-2.9-2.9v-17.5
		c0-1.6,1.3-2.9,2.9-2.9H171.4 M171.4,118.2h-18.8c-2.7,0-4.9,2.2-4.9,4.9v17.5c0,2.7,2.2,4.9,4.9,4.9h18.8c2.7,0,4.9-2.2,4.9-4.9
		v-17.5C176.3,120.4,174.1,118.2,171.4,118.2L171.4,118.2z"/>
</g>
<g>
	<path class="st0" d="M203.3,120.2c1.6,0,2.9,1.3,2.9,2.9v17.5c0,1.6-1.3,2.9-2.9,2.9h-18.8c-1.6,0-2.9-1.3-2.9-2.9v-17.5
		c0-1.6,1.3-2.9,2.9-2.9H203.3 M203.3,118.2h-18.8c-2.7,0-4.9,2.2-4.9,4.9v17.5c0,2.7,2.2,4.9,4.9,4.9h18.8c2.7,0,4.9-2.2,4.9-4.9
		v-17.5C208.2,120.4,206,118.2,203.3,118.2L203.3,118.2z"/>
</g>
<g>
	<path class="st0" d="M235.2,120.2c1.6,0,2.9,1.3,2.9,2.9v17.5c0,1.6-1.3,2.9-2.9,2.9h-18.8c-1.6,0-2.9-1.3-2.9-2.9v-17.5
		c0-1.6,1.3-2.9,2.9-2.9H235.2 M235.2,118.2h-18.8c-2.7,0-4.9,2.2-4.9,4.9v17.5c0,2.7,2.2,4.9,4.9,4.9h18.8c2.7,0,4.9-2.2,4.9-4.9
		v-17.5C240.1,120.4,237.9,118.2,235.2,118.2L235.2,118.2z"/>
</g>
<g>
	<path class="st0" d="M267.1,120.2c1.6,0,2.9,1.3,2.9,2.9v17.5c0,1.6-1.3,2.9-2.9,2.9h-18.8c-1.6,0-2.9-1.3-2.9-2.9v-17.5
		c0-1.6,1.3-2.9,2.9-2.9H267.1 M267.1,118.2h-18.8c-2.7,0-4.9,2.2-4.9,4.9v17.5c0,2.7,2.2,4.9,4.9,4.9h18.8c2.7,0,4.9-2.2,4.9-4.9
		v-17.5C272,120.4,269.8,118.2,267.1,118.2L267.1,118.2z"/>
</g>
<g>
	<path class="st0" d="M351.8,120.2c1.6,0,2.9,1.3,2.9,2.9v17.5c0,1.6-1.3,2.9-2.9,2.9h-71.5c-1.6,0-2.9-1.3-2.9-2.9v-17.5
		c0-1.6,1.3-2.9,2.9-2.9H351.8 M351.8,118.2h-71.5c-2.7,0-4.9,2.2-4.9,4.9v17.5c0,2.7,2.2,4.9,4.9,4.9h71.5c2.7,0,4.9-2.2,4.9-4.9
		v-17.5C356.7,120.4,354.5,118.2,351.8,118.2L351.8,118.2z"/>
</g>
<g>
	<path class="st0" d="M276.9,89.6c1.6,0,2.9,1.3,2.9,2.9V110c0,1.6-1.3,2.9-2.9,2.9h-18.8c-1.6,0-2.9-1.3-2.9-2.9V92.5
		c0-1.6,1.3-2.9,2.9-2.9H276.9 M276.9,87.6h-18.8c-2.7,0-4.9,2.2-4.9,4.9V110c0,2.7,2.2,4.9,4.9,4.9h18.8c2.7,0,4.9-2.2,4.9-4.9
		V92.5C281.8,89.8,279.6,87.6,276.9,87.6L276.9,87.6z"/>
</g>
<g>
	<path class="st0" d="M308.8,89.6c1.6,0,2.9,1.3,2.9,2.9V110c0,1.6-1.3,2.9-2.9,2.9H290c-1.6,0-2.9-1.3-2.9-2.9V92.5
		c0-1.6,1.3-2.9,2.9-2.9H308.8 M308.8,87.6H290c-2.7,0-4.9,2.2-4.9,4.9V110c0,2.7,2.2,4.9,4.9,4.9h18.8c2.7,0,4.9-2.2,4.9-4.9V92.5
		C313.7,89.8,311.5,87.6,308.8,87.6L308.8,87.6z"/>
</g>
<g>
	<path class="st0" d="M351.8,59c1.6,0,2.9,1.3,2.9,2.9v17.5c0,1.6-1.3,2.9-2.9,2.9h-37.7c-1.6,0-2.9-1.3-2.9-2.9V61.9
		c0-1.6,1.3-2.9,2.9-2.9H351.8 M351.8,57h-37.7c-2.7,0-4.9,2.2-4.9,4.9v17.5c0,2.7,2.2,4.9,4.9,4.9h37.7c2.7,0,4.9-2.2,4.9-4.9V61.9
		C356.7,59.2,354.5,57,351.8,57L351.8,57z"/>
</g>
<g>
	<path class="st0" d="M351.8,89.6c1.6,0,2.9,1.3,2.9,2.9V110c0,1.6-1.3,2.9-2.9,2.9h-30.5c-1.6,0-2.9-1.3-2.9-2.9V92.5
		c0-1.6,1.3-2.9,2.9-2.9H351.8 M351.8,87.6h-30.5c-2.7,0-4.9,2.2-4.9,4.9V110c0,2.7,2.2,4.9,4.9,4.9h30.5c2.7,0,4.9-2.2,4.9-4.9
		V92.5C356.7,89.8,354.5,87.6,351.8,87.6L351.8,87.6z"/>
</g>
<g>
	<path class="st0" d="M82.2,38.1c0.5,0,1,0.5,1,1v10.9c0,0.5-0.5,1-1,1h-20c-0.5,0-1-0.5-1-1V39.1c0-0.5,0.5-1,1-1H82.2 M82.2,36.1
		h-20c-1.7,0-3,1.3-3,3v10.9c0,1.6,1.3,3,3,3h20c1.7,0,3-1.4,3-3V39.1C85.2,37.5,83.8,36.1,82.2,36.1L82.2,36.1z"/>
</g>
<g>
	<path class="st0" d="M111.6,38.1c0.5,0,1,0.5,1,1v10.9c0,0.5-0.5,1-1,1h-20c-0.5,0-1-0.5-1-1V39.1c0-0.5,0.5-1,1-1H111.6
		 M111.6,36.1h-20c-1.6,0-3,1.3-3,3v10.9c0,1.6,1.4,3,3,3h20c1.7,0,3-1.4,3-3V39.1C114.6,37.5,113.2,36.1,111.6,36.1L111.6,36.1z"/>
</g>
<g>
	<path class="st0" d="M140.9,38.1c0.5,0,1,0.5,1,1v10.9c0,0.5-0.5,1-1,1h-20c-0.5,0-1-0.5-1-1V39.1c0-0.5,0.5-1,1-1H140.9
		 M140.9,36.1h-20c-1.6,0-3,1.3-3,3v10.9c0,1.6,1.4,3,3,3h20c1.6,0,3-1.4,3-3V39.1C143.9,37.5,142.6,36.1,140.9,36.1L140.9,36.1z"/>
</g>
<g>
	<path class="st0" d="M170.3,38.1c0.5,0,1,0.5,1,1v10.9c0,0.5-0.5,1-1,1h-20c-0.5,0-1-0.5-1-1V39.1c0-0.5,0.5-1,1-1H170.3
		 M170.3,36.1h-20c-1.6,0-3,1.3-3,3v10.9c0,1.6,1.4,3,3,3h20c1.6,0,3-1.4,3-3V39.1C173.3,37.5,172,36.1,170.3,36.1L170.3,36.1z"/>
</g>
<g>
	<path class="st0" d="M199.7,38.1c0.5,0,1,0.5,1,1v10.9c0,0.5-0.5,1-1,1h-20c-0.5,0-1-0.5-1-1V39.1c0-0.5,0.5-1,1-1H199.7
		 M199.7,36.1h-20c-1.6,0-3,1.3-3,3v10.9c0,1.6,1.4,3,3,3h20c1.6,0,3-1.4,3-3V39.1C202.7,37.5,201.3,36.1,199.7,36.1L199.7,36.1z"/>
</g>
<g>
	<path class="st0" d="M229.1,38.1c0.5,0,1,0.5,1,1v10.9c0,0.5-0.5,1-1,1h-20c-0.5,0-1-0.5-1-1V39.1c0-0.5,0.5-1,1-1H229.1
		 M229.1,36.1h-20c-1.7,0-3,1.3-3,3v10.9c0,1.6,1.3,3,3,3h20c1.6,0,3-1.4,3-3V39.1C232.1,37.5,230.7,36.1,229.1,36.1L229.1,36.1z"/>
</g>
<g>
	<path class="st0" d="M258.5,38.1c0.5,0,1,0.5,1,1v10.9c0,0.5-0.5,1-1,1h-20c-0.5,0-1-0.5-1-1V39.1c0-0.5,0.5-1,1-1H258.5
		 M258.5,36.1h-20c-1.7,0-3,1.3-3,3v10.9c0,1.6,1.3,3,3,3h20c1.6,0,3-1.4,3-3V39.1C261.5,37.5,260.1,36.1,258.5,36.1L258.5,36.1z"/>
</g>
<g>
	<path class="st0" d="M287.8,38.1c0.5,0,1,0.5,1,1v10.9c0,0.5-0.5,1-1,1h-20c-0.5,0-1-0.5-1-1V39.1c0-0.5,0.5-1,1-1H287.8
		 M287.8,36.1h-20c-1.6,0-3,1.3-3,3v10.9c0,1.6,1.4,3,3,3h20c1.6,0,3-1.4,3-3V39.1C290.8,37.5,289.5,36.1,287.8,36.1L287.8,36.1z"/>
</g>
<g>
	<path class="st0" d="M317.2,38.1c0.5,0,1,0.5,1,1v10.9c0,0.5-0.5,1-1,1h-20c-0.5,0-1-0.5-1-1V39.1c0-0.5,0.5-1,1-1H317.2
		 M317.2,36.1h-20c-1.6,0-3,1.3-3,3v10.9c0,1.6,1.4,3,3,3h20c1.6,0,3-1.4,3-3V39.1C320.2,37.5,318.9,36.1,317.2,36.1L317.2,36.1z"/>
</g>
<g>
	<path class="st0" d="M353.7,38.1c0.5,0,1,0.5,1,1v10.9c0,0.5-0.5,1-1,1h-27.2c-0.5,0-1-0.5-1-1V39.1c0-0.5,0.5-1,1-1H353.7
		 M353.7,36.1h-27.2c-1.6,0-3,1.3-3,3v10.9c0,1.6,1.4,3,3,3h27.2c1.6,0,3-1.4,3-3V39.1C356.7,37.5,355.3,36.1,353.7,36.1L353.7,36.1
		z"/>
</g>
<path class="st0" d="M415.4,53.1L415.4,53.1c-20.8,0-37.8,17-37.8,37.8v34.5c0,20.8,17,37.8,37.8,37.8h0c20.8,0,37.8-17,37.8-37.8
	V90.8C453.2,70.1,436.2,53.1,415.4,53.1z M415.4,74.6c1.8,0,3.2,1.4,3.2,3.2v13.7c0,1.8-1.4,3.2-3.2,3.2s-3.2-1.4-3.2-3.2V77.8
	C412.2,76.1,413.6,74.6,415.4,74.6z M450.2,125.4c0,19.2-15.6,34.8-34.8,34.8c-19.2,0-34.8-15.6-34.8-34.8V90.8
	c0-18.7,14.8-33.9,33.3-34.7v15.7c-2.7,0.7-4.7,3.1-4.7,6v13.7c0,3.4,2.8,6.2,6.2,6.2s6.2-2.8,6.2-6.2V77.8c0-2.9-2-5.3-4.7-6V56.1
	c18.5,0.8,33.3,16.1,33.3,34.7V125.4z"/>
</svg>
