<?xml version="1.0" encoding="utf-8"?>
<!-- Generator: Adobe Illustrator 25.2.3, SVG Export Plug-In . SVG Version: 6.00 Build 0)  -->
<svg version="1.1" id="gray" xmlns="http://www.w3.org/2000/svg" xmlns:xlink="http://www.w3.org/1999/xlink" x="0px" y="0px"
	 viewBox="0 0 177.3 173.6" style="enable-background:new 0 0 177.3 173.6;" xml:space="preserve">
<style type="text/css">
	.st0{fill:#FFEEEE;}
</style>
<g>
	<defs>
		<path id="SVGID_1_" d="M5.2,172.6l-1.8-1.8c9.3-10.9,16.2-23.5,20.5-37.1c3.8-11.6,6.2-25.1,7.2-40.6c-5.2,8.6-10.6,17-16.4,25.1
			c-0.2,3.1-1.4,5.2-3.5,6.3L0,100.4C5.5,98,16,92.4,31.6,83.6c0.1-3.1,0.2-7.7,0.2-14V12.7L56,23.3h32.3V0l30.1,2.2
			c-0.4,2.9-2.6,4.8-6.8,5.5v15.5h32.3l11.3-14.8l7.4,5.9c5.4,4.4,9.7,8.1,12.9,11.1c-0.5,2-2.2,3-5,3H52.7v41.2
			c0,20.1-1.9,36.6-5.7,49.7c21.5-8.1,39.9-19,55-32.7c-5.3-5.7-9.8-12.1-13.3-19C79,77.1,67.7,84.9,55.4,90.7l-1.5-2
			c7.8-7.3,15-16.7,21.8-28.3c5.8-9.7,10.3-20.1,13.5-31l26.4,8.9c-0.6,2-2.6,2.8-5.9,2.4c-2.1,4.1-4.6,8-7.4,11.6h23.1l12.2-10.9
			l19.2,16.8c-1.1,1.5-3.8,2.4-7.9,2.8c-6.3,9.8-14.1,18.6-23.1,26c14.8,5.9,31.9,10,51.5,12.2l-0.2,2c-8.2,2.2-13.5,8.5-15.9,18.8
			c-19.9-5.7-36.1-13.4-48.6-23.3c-18.6,12-40.5,20.4-65.9,25.3l-0.5-1.1C39.2,143.1,25.5,160.3,5.2,172.6z M11.5,69.6
			c0.5-6.3,0-12.7-1.5-18.9c-1.2-5.9-3-11.7-5.6-17.2l2-0.7c9,4.8,15.5,10.4,19.2,16.8C28.9,55,30,60.1,29,65
			c-1,4.4-3.3,7.3-6.8,8.5S15,73.4,11.5,69.6L11.5,69.6z M83.1,173.6l-13.5-22.7c17.5-2,49.4-7,95.8-15l0.6,2.6
			c-15.8,7.5-41.9,17.7-78.3,30.5C87,171,85.3,172.8,83.1,173.6z M122.5,135.7c-3.1,2.6-6.7,2.9-10.9,0.9c-2.6-4-5.8-7.6-9.4-10.7
			c-5-4.6-10.6-8.6-16.6-11.8l0.9-2.4c12.3-0.7,22,0.5,29,3.7c5.8,2.6,9.2,6.1,10.2,10.5C126.7,129.5,125.4,133.4,122.5,135.7
			L122.5,135.7z M109.5,79c6.2-6.5,11.4-13.7,15.7-21.6h-27c-1.5,1.7-3.6,4.1-6.3,7C97,70.2,102.9,75.1,109.5,79z"/>
	</defs>
	<clipPath id="SVGID_2_">
		<use xlink:href="#SVGID_1_"  style="overflow:visible;"/>
	</clipPath>
	<g style="clip-path:url(#SVGID_2_);">
		
			<image style="overflow:visible;" width="360" height="360" xlink:href="BGnoise.png"  transform="matrix(0.4889 0 0 0.4821 0.66 0)">
		</image>
	</g>
</g>
<path class="st0" d="M5.2,172.6l-1.8-1.8c9.3-10.9,16.2-23.5,20.5-37.1c3.8-11.6,6.2-25.1,7.2-40.6c-5.2,8.6-10.6,17-16.4,25.1
	c-0.2,3.1-1.4,5.2-3.5,6.3L0,100.4C5.5,98,16,92.4,31.6,83.6c0.1-3.1,0.2-7.7,0.2-14V12.7L56,23.3h32.3V0l30.1,2.2
	c-0.4,2.9-2.6,4.8-6.8,5.5v15.5h32.3l11.3-14.8l7.4,5.9c5.4,4.4,9.7,8.1,12.9,11.1c-0.5,2-2.2,3-5,3H52.7v41.2
	c0,20.1-1.9,36.6-5.7,49.7c21.5-8.1,39.9-19,55-32.7c-5.3-5.7-9.8-12.1-13.3-19C79,77.1,67.7,84.9,55.4,90.7l-1.5-2
	c7.8-7.3,15-16.7,21.8-28.3c5.8-9.7,10.3-20.1,13.5-31l26.4,8.9c-0.6,2-2.6,2.8-5.9,2.4c-2.1,4.1-4.6,8-7.4,11.6h23.1l12.2-10.9
	l19.2,16.8c-1.1,1.5-3.8,2.4-7.9,2.8c-6.3,9.8-14.1,18.6-23.1,26c14.8,5.9,31.9,10,51.5,12.2l-0.2,2c-8.2,2.2-13.5,8.5-15.9,18.8
	c-19.9-5.7-36.1-13.4-48.6-23.3c-18.6,12-40.5,20.4-65.9,25.3l-0.5-1.1C39.2,143.1,25.5,160.3,5.2,172.6z M11.5,69.6
	c0.5-6.3,0-12.7-1.5-18.9c-1.2-5.9-3-11.7-5.6-17.2l2-0.7c9,4.8,15.5,10.4,19.2,16.8C28.9,55,30,60.1,29,65c-1,4.4-3.3,7.3-6.8,8.5
	S15,73.4,11.5,69.6L11.5,69.6z M83.1,173.6l-13.5-22.7c17.5-2,49.4-7,95.8-15l0.6,2.6c-15.8,7.5-41.9,17.7-78.3,30.5
	C87,171,85.3,172.8,83.1,173.6z M122.5,135.7c-3.1,2.6-6.7,2.9-10.9,0.9c-2.6-4-5.8-7.6-9.4-10.7c-5-4.6-10.6-8.6-16.6-11.8l0.9-2.4
	c12.3-0.7,22,0.5,29,3.7c5.8,2.6,9.2,6.1,10.2,10.5C126.7,129.5,125.4,133.4,122.5,135.7L122.5,135.7z M109.5,79
	c6.2-6.5,11.4-13.7,15.7-21.6h-27c-1.5,1.7-3.6,4.1-6.3,7C97,70.2,102.9,75.1,109.5,79z"/>
</svg>
