<?xml version="1.0" encoding="utf-8"?>
<!-- Generator: Adobe Illustrator 25.2.3, SVG Export Plug-In . SVG Version: 6.00 Build 0)  -->
<svg version="1.1" id="圖層_4" xmlns="http://www.w3.org/2000/svg" xmlns:xlink="http://www.w3.org/1999/xlink" x="0px" y="0px"
	 viewBox="0 0 225 275.6" style="enable-background:new 0 0 225 275.6;" xml:space="preserve">
<style type="text/css">
	.st0{fill:#FFFFFF;stroke:#FFFFFF;stroke-miterlimit:10;}
</style>
<g>
	<g>
		<path class="st0" d="M208.1,182.9c-0.6-6.5-1-20.7,1.1-32.7c2.2-12.6,3.8-32.1,2.2-45.2c-1.4-10.9-4.6-36.4-15.3-54.5
			c-10-16.8-20-24.1-26.1-28.4l-0.7-0.5c-6.6-4.8-39.2-19.1-61.8-18.6C84.6,3.5,62.1,21.9,49.9,37.5C38.7,51.6,25,72.6,17.8,109.3
			c-4.9,25.1-2.5,54.6-0.5,70.2c-1.7,3.8-3.2,8-4.6,12.7c-1.7,5.9-1.4,14.8,1.2,24.2c0.2,5.3,1.7,10.7,4.5,16.1
			c7.6,14.6,19.9,24,28.9,27.8c3.6,1.5,7,2.4,9.7,2.8c9.6,4.7,18.2,6.8,24.4,6.8c0.8,0,1.5,0,2.2-0.1c8.7-0.8,17.5-4.9,23-8.5
			c2.5,2.1,4.7,3.8,6.8,5.2c1,0.8,1.7,1.2,1.8,1.2l0,0c6.1,3.9,10.9,5.2,17.3,5.8c0.5,0.1,1,0.1,1.5,0.1c8.5,0,21.1-6.4,26.3-9.3
			c0.2-0.1,0.8-0.6,1-0.6c4.4-0.7,8.8-2.2,13.1-4.6l0.1-0.1c6.9-3.7,16.4-8.8,28.4-29c10.3-17.3,7.1-35,5.6-43.5
			C208.4,185,208.2,183.8,208.1,182.9z M19.9,109.7c7.1-36,20-56,31.7-70.9c11.9-15.2,33.8-33.1,56-33.7c3-0.1,6.2,0.1,9.5,0.6
			c7.3,1.3,16.3,4.2,24.7,10.7c19.8,15.2,25.2,30.1,29,44.1c0.4,1.6,0.9,3.1,1.3,4.5c3.8,13.4,6.8,24,6.3,47.7
			c-0.6,27.9-2.9,47.7-12.9,60.2c-1.5,1.9-3.2,3.9-5,6.1c-10.5,12.5-24.9,29.7-25.4,51.5c-0.2,7.9,0.9,13.8,2.9,18.3
			c-5-7.6-4.4-17.3-2.9-26.9c2.1-13,7.5-23.5,18.8-36.5c10.6-12.2,13.5-15.5,19.6-33.2c1.7-5.6,2.5-12.7,2.5-12.7s0.2-2.5,0.3-3.9
			l0.1-1.1c1.3-21.6-1.9-51.8-7.2-68.1c-8-24.7-22.8-35.5-23.5-36c-4.2-3-20.1-11.4-47.7,7C73.3,53.9,62,82,57.1,94
			c-0.6,1.4-1.1,2.7-1.5,3.6c-3.8,8.6-8.2,29.7-8.2,44c0,2.7-0.1,5.2-0.2,7.4c-0.9,0.2-1.7,0.4-2.5,0.7c-1.5,0.4-15.1,4.3-25.7,25.6
			C17.2,159.6,15.4,132.7,19.9,109.7z M140.8,253.9c3.4,4.5,7.9,6.8,12.5,8.1c-2.9-0.2-5.8-0.7-8.7-1.6c-13.2-4-18.9-18.6-19.8-30.9
			c-1.1-15.5,6.8-29.1,15.5-41.5c6.1-8.7,12.1-12.2,16.6-14.8c2.9-1.7,5.3-3.1,6.3-5.3c0,0,0,0,0-0.1c2.9-7.8,6.8-9,6.8-9.1
			c0,0,0,0,0.1,0c-4.6,11.9-7.9,15.8-17,26.2c-11.4,13.1-16.9,23.9-19.1,37C132.1,233.6,131.7,245.6,140.8,253.9z M107.4,259.1
			c-1.3-1.1-2.7-2.3-4.3-3.7c-7.7-6.8-12.2-19.2-12-33c0.2-12.4,4.1-32.2,21.9-56.4c16.2-22,32.2-28.9,42.8-30.9
			c11.4-2.1,19.1,1,19.2,1h0.1c-0.1,1.1-0.2,2.1-0.3,3.1c-2.7-0.4-11.5-0.4-28.2,12.3c-19.2,14.6-40.8,48-43.7,78.6
			C101.6,244.3,104.2,253.4,107.4,259.1z M41.5,154.4c3.1-2.7,8.9-3.9,15.3-3.2c6.9,0.8,24.8,5.3,41.5,28.9c0.7,0.9,1.4,2.1,1.7,2.6
			c-2.6,5-4.6,9.7-6.2,14.1c-5.7-11.6-18.6-27.4-29.2-29.4c-3.6-0.7-6.6,0.2-9,2.6c-12.2,12.2,0.4,35.7,0.9,36.6
			c5,10.6,15.7,23.3,30.8,26.9c0.9,0.2,1.7,0.4,2.6,0.4c1.1,6.3,3.3,12,6.3,16.7c-17.2,0.6-33.9-11.5-49.7-36.1
			C25.7,182.1,34.1,161,41.5,154.4z M175.3,134c-2-0.7-9.3-2.8-19.7-0.9c-11,2-27.6,9.2-44.3,31.8c-4,5.5-7.4,10.7-10.1,15.7
			c-0.3-0.5-0.7-1.1-1.1-1.7c-17.2-24.3-35.8-29-43-29.8c-3.1-0.4-6-0.3-8.7,0.1c0.2-2.2,0.2-4.6,0.2-7.2c0-14.2,4.3-35.1,8.1-43.6
			c0.4-0.9,0.9-2.2,1.5-3.7c4.8-11.9,16-39.8,40.5-56.1c27-18,42.4-9.9,46.4-7c0.6,0.4,15.1,11,23.1,35.4
			C173.2,82.6,176.4,112.5,175.3,134z M52.4,179.7c2.6-0.2,13.1,0.5,28.2,21.5c3.8,5.3,6.8,10.3,8.8,14.7c-0.3,2.4-0.4,4.6-0.4,6.6
			c0,3.4,0.2,6.7,0.7,9.9c-0.6-0.1-1.2-0.2-1.9-0.3C73.3,228.6,62.9,216.3,58,206C57.8,205.7,50.1,191.3,52.4,179.7z M89.6,213.8
			c-2-4.1-4.7-8.5-8.1-13.3c-14.9-20.8-25.5-22.2-28.8-22c0.7-2.7,2-5.3,4.1-7.4c2-2,4.5-2.7,7.5-2.2c10.6,2,23.7,18.7,28.8,30
			C91.3,204.5,90.2,209.4,89.6,213.8z M14.7,192.8c0.6-1.9,1.1-3.7,1.8-5.4c-0.5,9.4,0.7,21.4,6.8,34c9.7,20.2,24.5,32.9,33.9,39.4
			c-7.3-3.6-15.2-8.8-23.3-15.6C17,230.9,11.3,204.6,14.7,192.8z M47.7,259.3c-8.9-3.8-21-13-28.4-27.3c-1.8-3.4-3-6.8-3.7-10.1
			c3.4,9.1,8.9,18.2,16.8,25c7.1,6,14.2,10.8,20.8,14.4C51.6,260.7,49.6,260.1,47.7,259.3z M83.4,267.6c-3.3,0.3-7.4-0.1-12.2-1.4
			c-0.4-0.1-3.9-1.8-4.3-2c-0.3-0.1-26.9-13.2-41.7-43.8c-7.5-15.5-7.3-30.3-5.9-39.9c0-0.1,0-0.2,0-0.3
			c5.5-12.3,12.1-19.3,17.2-23.2c-2.1,3.2-4.5,8.3-5.2,15.6c-1.3,12.9,3.2,27.5,13.3,43.3C60.4,240.5,77.3,253,94.8,253
			c0.9,0,1.8,0,2.7-0.1l0,0c1.2,1.6,2.6,3.1,4,4.4c1.1,1,2.2,1.9,3.2,2.8C99.7,263.1,91.3,266.9,83.4,267.6z M132.8,271.4
			c-6.1-0.6-10.7-1.8-16.5-5.6l0,0l0,0c-0.3-0.2-0.6-0.4-0.9-0.6c-3-2.2-12.4-11.1-10.2-34.8c2.8-30.1,24-62.8,42.8-77.1
			c16.8-12.7,24.9-12.2,26.7-11.8c-0.5,4.1-1.2,7.7-2.2,10.5c-0.6,1.8-2.5,4.4-3,4.5c-0.2,0-4.9,1.3-8.3,10.4
			c-0.7,1.6-2.7,2.7-5.4,4.3c-4.6,2.7-10.9,6.4-17.2,15.5c-9,12.7-17.1,26.7-15.9,42.9c1.2,16.6,9.4,29.2,21.3,32.9
			c3.8,1.2,7.6,1.7,11.4,1.7c0.2,0,0.4,0,0.7,0C150,267.3,139.4,272.1,132.8,271.4z M199,229c-8.2,16.8-18.7,21.9-24.3,23.5
			c-5.5,1.6-11,1.1-14.7-1.2c-4.1-2.6-6.8-8-7.5-15.1c-0.8-7.8,1.1-16.5,5.2-24.6c7.4-14.4,19.3-23,30.9-23c2.1,0,4.2,0.3,6.2,0.9
			c2.2,0.6,5.5,3.1,7.7,8C204.7,202.2,207,212.6,199,229z M141.4,252.9c-3.4-4.7-5.4-11.7-5.2-22.3c0.5-21.5,14.7-38.5,25.1-50.9
			c1.8-2.2,3.5-4.2,5-6.1c10.1-12.8,12.5-32.8,13.1-60.9c0.5-23.9-2.5-34.6-6.3-48.1c-0.4-1.5-0.8-3-1.3-4.5
			c-4.7-17.2-11.3-30.7-29.4-44.6c-4.3-3.3-8.7-5.7-13-7.4c17.2,4.3,34.2,12.1,38.5,15.2l0.7,0.5c5.9,4.3,15.7,11.4,25.5,27.8
			c10.5,17.7,13.7,42.9,15,53.7c1.6,12.9,0,32.1-2.2,44.6c-2.1,12.3-1.7,26.7-1.1,33.3c0.1,1,0.3,2.2,0.6,3.8
			c1.4,7.9,4.3,24-4.1,39.8c6.6-15.4,4.2-25.5,2.1-30.3c-2.5-5.6-6.3-8.4-9.1-9.2c-14.5-4-30.4,5.3-39.6,23.3
			c-9.5,18.4-6,36.8,3.1,42.5c2.6,1.6,6,2.5,9.5,2.5c2.3,0,4.6-0.3,6.9-1c2.8-0.8,5.5-2,8-3.7c-3.6,2.9-6.8,4.6-9.7,6.2l-0.1,0.1
			c-4.9,2.6-9.8,4.2-14.9,4.6c-6-0.7-12.2-2.6-16.5-8C142.1,253.9,141.4,252.9,141.4,252.9z"/>
	</g>
</g>
</svg>
