<?xml version="1.0" encoding="utf-8"?>
<!-- Generator: Adobe Illustrator 25.2.3, SVG Export Plug-In . SVG Version: 6.00 Build 0)  -->
<svg version="1.1" id="layer" xmlns="http://www.w3.org/2000/svg" xmlns:xlink="http://www.w3.org/1999/xlink" x="0px" y="0px"
	 viewBox="0 0 500 100" style="enable-background:new 0 0 500 100;" xml:space="preserve">
<style type="text/css">
	.st0{fill:#19100A;}
</style>
<g>
	<path class="st0" d="M39.5,45.1c-0.7,1-1.7,1.4-4,1.7c-1.9,10.5-5,20.8-10.5,29.8c11.2,5.7,26.7,7.1,47.9,7.1
		c5.5,0,17.9,0,24.5-0.1v1.2c-4.8,0.9-7.2,5.3-7.4,10.1H72c-23.8,0-40.2-2.4-51.7-12.1C15.4,88.7,9.1,93.9,0.8,98.1l-0.8-1.4
		C6.6,91.5,11.6,85,15.3,77.9C10,71.5,6,62.8,2.9,51.4l1.2-0.6c3.5,9.5,8,16.3,13.9,21.2c3.4-8.4,5.4-17.5,6.4-26.8h-6.9L14,48.9
		L4,42.5c0.8-0.7,2.2-1.5,3.5-2.1c3.5-7,8.4-18.6,11-25.9H1.3l-0.8-3h17.8l5.2-5.2l10.2,9.4c-0.8,0.8-2.5,1.4-4.5,1.6
		c-2.6,6.6-7.5,17.7-10.8,25h5.4l5.5-5.8L39.5,45.1z M60.3,16.6c-8.2,0.9-16.8,1.5-25.1,1.6l-0.3-1.6C51.6,13.3,71.6,6.6,81.7,1
		l12,11.1c-1.2,0.9-3.4,1.1-6.8-0.1c-4.3,1-9.4,2.1-14.9,3v22.9h4.8l5.7-8.8c0,0,6.4,6,10.1,10.1c-0.2,1.1-1.4,1.7-2.8,1.7H72v30.8
		h7.6l5.9-8.8c0,0,6.8,6,10.6,10.1c-0.2,1.1-1.2,1.7-2.7,1.7H33.2l-0.8-2.9h7.3V27.9l14.8,1.5c-0.3,1.6-1.2,2.5-3.8,2.9v39.3h9.7
		V16.6z"/>
	<path class="st0" d="M187.3,43.6c0,0,7,5.4,11,9.2c-0.3,1.1-1.4,1.7-2.8,1.7h-47.2c3,6.8,7.6,12.5,13.3,17.1
		c5.1-5.6,10.5-12.5,13.5-16.8l12.8,8c-0.5,0.9-1.7,1-3.4,0.5c-4.7,3-12.7,7.1-19.8,10.7c8.5,5.8,19.2,9.6,31.2,11l-0.1,1.1
		c-4.6,1.4-8.3,5.6-9.5,11.6c-22.3-6.6-34.1-19.6-39.9-43.3h-13.7V84c5.6-1.1,12.2-2.5,18.5-4l0.3,1.1c-5.1,3.5-14.5,9.7-26.2,16.1
		c-0.6,0.8-1.4,1.4-2,1.8l-7.3-12.7c4.4-2.4,5.1-3.3,5.1-5.4V54.4H103l-0.8-3h20.5V3.5l13.5,5.1h33.6l6.1-7.6c0,0,7.1,5.2,11.3,8.9
		c-0.3,1.1-1.4,1.7-2.8,1.7h-49.9v11.2h31.7l5.5-6.9c0,0,6.2,4.7,10.1,8.2c-0.2,1.1-1.4,1.7-2.8,1.7h-44.5v11.5h31.9l5.5-6.9
		c0,0,6.1,4.7,10.1,8.2c-0.2,1.1-1.4,1.7-2.8,1.7h-44.7v11h46.8L187.3,43.6z"/>
	<path class="st0" d="M247.8,23.5c-0.7,0.9-2.3,1.8-4.4,2.2v62c-0.1,0.8-5.6,3.4-9.7,3.4H232v-8.2h-15.8v7.7c0,1.4-4.4,4-9.4,4H205
		V15.9l11.6,4.9h0.6c0.7-5.7,1.7-13.8,2.2-19.7l16.8,4.1c-0.4,1.8-1.9,2.5-4.3,2.5c-2.7,3.6-6.8,9-10.1,13.1h9l5.5-6.2L247.8,23.5z
		 M216.2,23.8v25.8H232V23.8H216.2z M232,80V52.7h-15.8V80H232z M298.6,23.5c-0.8,0.9-2.2,1.7-4.6,2c-0.7,41.9-2.2,60.9-7.9,67.1
		c-3.7,4-8.3,5.6-15.2,5.6c0-4-0.5-6.9-2.3-8.5c-1.9-2-5.9-3.6-11-4.6l0.1-1.5c5,0.4,12.2,0.9,14.9,0.9c1.9,0,2.8-0.4,3.8-1.4
		c3.8-3.5,4.9-24.2,5.6-59.7h-19.3c-5,8.8-10.9,16.2-17.6,21.8l-1.4-0.8c5.7-10.6,11.3-27.6,14-43.5l16.4,4.8
		c-0.4,1.4-1.7,2.1-4.1,2.1c-1.8,4.5-3.6,8.6-5.8,12.6h16.5l6.6-6.8L298.6,23.5z M252.6,41.7c30.4,8.9,19,31.4,8,22.2
		c-0.5-7.4-4.7-15.8-8.8-21.5L252.6,41.7z"/>
	<path class="st0" d="M342.1,14.5c-0.6,0.8-2.2,1.8-4.3,2.2v63.2c-0.1,0.8-5.4,3.2-9.3,3.2h-1.8v-7.8h-10.6v9.4c0,0.8-3.4,3.4-9,3.4
		h-1.9V6.4l12.3,5.5h8.2l5.3-6L342.1,14.5z M316.2,14.8v26.8h10.6V14.8H316.2z M326.8,72.3V44.5h-10.6v27.8H326.8z M338.9,19.6
		l-0.8-2.9h22.5v-15L376.1,3c-0.1,1.5-0.9,2.5-3.7,2.9v10.7h8.8l6.1-8.1c0,0,7,5.5,11,9.4c-0.2,1.1-1.4,1.7-2.9,1.7h-23.1v16.3h5.5
		l6.4-8.5c0,0,7.3,5.7,11.5,9.8c-0.3,1.1-1.4,1.7-2.9,1.7h-48.6l-0.8-2.9h17V19.6H338.9z M391.5,44.3c0,0,6.2,5.5,9.8,9.3
		c-0.2,1.1-1.4,1.7-2.8,1.7h-14V84c0,8.3-1.9,13-15.8,14.2c-0.3-3.7-0.8-6.6-2.5-8.3c-1.7-1.9-4.1-3.2-9.5-4.1v-1.5
		c0,0,11.5,0.7,13.7,0.7c1.7,0,2.2-0.5,2.2-1.8V55.3h-33.5l-0.7-2.9h34.2V40.1l15.5,1.5c-0.3,1.6-1.4,2.4-3.6,2.7v8.1h1.7
		L391.5,44.3z M345.3,57.7c28.6,6.9,17.1,27.8,6.3,18.8c-0.4-6.3-3.8-13.4-7.3-18.2L345.3,57.7z"/>
	<path class="st0" d="M421.4,37.6v56.3c0,1.6-4.5,4.6-9.9,4.6h-2v-95l12.3,5.3h14.2l5.1-5.6l10.8,8.2c-0.6,0.7-1.9,1.7-3.7,2v27.1
		c-0.1,0.7-5.7,2.8-9.3,2.8h-1.9v-5.7H421.4z M421.4,11.8v9.9h15.7v-9.9H421.4z M437.1,34.7V24.5h-15.7v10.2H437.1z M500.1,11.6
		c-0.7,0.8-2.1,1.8-4.3,2.1v70.4c0,8.3-1.7,13.1-14.9,14.2c-0.2-4-0.7-6.9-2-8.6c-1.5-1.8-3.4-3.1-8-4v-0.3
		c-1.9,0.9-5.2,2.1-7.7,2.1h-2v-6h-18v4c0,1-4.7,3.4-9.4,3.4h-1.6V45.4l11.3,4.7h16.6l5.2-5.7l10.8,8.2c-0.6,0.7-2,1.6-3.8,1.9v29.7
		v0.1c2.6,0.2,7.8,0.6,9.3,0.6c1.7,0,2.1-0.8,2.1-2.2V37.6h-16.2v2c0,1-5,3.6-9.8,3.6h-1.6V4.1L468,8.8h14.8l5.5-6.4L500.1,11.6z
		 M443.3,52.9V64h18V52.9H443.3z M461.3,78.5V67h-18v11.5H461.3z M467.6,11.8v9.9h16.2v-9.9H467.6z M483.8,34.7V24.5h-16.2v10.2
		H483.8z"/>
</g>
</svg>
