<?xml version="1.0" encoding="utf-8"?>
<!-- Generator: Adobe Illustrator 25.2.3, SVG Export Plug-In . SVG Version: 6.00 Build 0)  -->
<svg version="1.1" id="layer" xmlns="http://www.w3.org/2000/svg" xmlns:xlink="http://www.w3.org/1999/xlink" x="0px" y="0px"
	 viewBox="0 0 400 100" style="enable-background:new 0 0 400 100;" xml:space="preserve">
<style type="text/css">
	.st0{fill:#19100A;}
</style>
<path class="st0" d="M86.1,4.9c0,0,6.7,5.2,10.6,8.8c-0.3,1.1-1.2,1.7-2.8,1.7H62c-4.7,4.8-10.1,8.4-15.7,10.9l-1.1-0.9
	c2.2-2.8,4.4-6.6,6.2-10.6c-0.5,0.4-1.2,0.6-2.1,0.6H21.8C15.9,23.8,8.7,29.9,1.2,34.2L0,33.3c5.7-7.5,11.5-19.8,14.8-32.1l15.8,4.6
	c-0.3,1.4-1.6,2.2-4,2.1c-0.8,1.7-1.8,3.2-2.8,4.7h13.4l5.2-7.2c0,0,5.9,4.9,9.6,8.3c1.8-4,3.2-8.3,4.4-12.6l15.3,5.8
	c-0.5,1.2-1.9,2.1-4.3,1.9c-0.7,1.2-1.7,2.5-2.6,3.6h15.6L86.1,4.9z M85.3,57.3c0,0,6.9,5.4,10.8,9.2c-0.2,1.1-1.4,1.7-2.8,1.7H69.5
	v17.2c0,8.3-1.8,12.9-15.5,14.1c-0.3-3.8-0.8-6.6-2.4-8.3c-1.7-1.8-4-3.1-8.9-4v-1.4c0,0,10.6,0.6,12.7,0.6c1.6,0,2.1-0.4,2.1-1.7
	V68.1H4.2l-0.9-3h54.1V55L73,56.3c-0.2,1.6-1.2,2.4-3.5,2.7v6h9.9L85.3,57.3z M8.6,36.5h33.5v-9.9L57,28c-0.2,1.1-0.7,2-3,2.4v6.1
	h20.8l5.5-7.2c0,0,6.3,5,10.2,8.5c-0.3,1.1-1.4,1.7-2.8,1.7H54v11.1h15.9l5.8-7.6c0,0,6.8,5.3,10.6,8.9c-0.2,1.1-1.4,1.7-2.8,1.7
	H13.8l-0.8-3h29.1V39.5H9.3L8.6,36.5z M21.5,69.7c28.3,2.3,19.1,23.8,8.2,16.3c-0.7-5.5-4.9-12-9-15.7L21.5,69.7z M25.3,17.3
	c21.7,2.3,12.4,17.9,4.1,11.4c-0.3-3.8-2.7-8.3-5-10.9L25.3,17.3z M64.5,17.2c22.8,1.2,13.6,18.2,4.7,11.6c-0.3-4-3-8.5-5.6-10.9
	L64.5,17.2z"/>
<path class="st0" d="M135.3,30.8c-0.5,0.9-1.6,1.7-4.1,1.4c-2.5,3.2-5.5,6.9-8.9,10.5l5.9,2.2c-0.3,0.9-1.2,1.7-3.2,2.1v48.3
	c0,1-4.6,4.1-9.7,4.1h-2.2V51.5c-4.1,3.6-8.4,7.1-12.9,10l-0.9-1c8.6-10.9,17.3-27.4,21.2-37.6L135.3,30.8z M134,10.2
	c-0.6,0.9-1.6,1.6-4.1,1.1c-6.9,6.7-17.8,15.2-29.2,20.5l-0.8-1c7.9-8.2,16.2-20.8,20-29.1L134,10.2z M187.9,47.9
	c0,0,7,5.5,11.1,9.4c-0.3,1.1-1.4,1.7-2.8,1.7h-16.1v26.8c0,8.2-2.1,12.6-16.8,13.7c-0.4-3.4-1-6-3.1-7.8c-2-1.7-4.8-2.9-11-3.8
	v-1.4c0,0,13.9,0.8,16.4,0.8c1.9,0,2.4-0.6,2.4-2V58.9h-36.8l-0.8-2.9H168V43.7l15.7,1.4c-0.2,1.6-1.2,2.4-3.5,2.7V56h1.7
	L187.9,47.9z M155.7,20V1.5l15.5,1.4c-0.2,1.4-0.9,2.3-3.4,2.7V20h12l6.3-8.3c0,0,7.3,5.7,11.8,9.7c-0.3,1.1-1.5,1.7-2.8,1.7h-27.3
	V39h10.1l6-7.9c0,0,7.2,5.4,11.3,9.3c-0.3,1.1-1.4,1.7-2.8,1.7h-56.1l-0.8-3h20.2V23.1h-23.2l-0.8-3H155.7z M139.6,61
	c29.2,6.1,20.1,27.1,9.3,19.4c-1.6-6.4-6.2-13.8-10.2-18.8L139.6,61z"/>
<path class="st0" d="M215.6,62.1c6.3,14.1,2.6,24.2-3.1,27.6c-3.8,2.5-9.2,1.2-10.6-3.1c-1.4-4.3,1.2-7.4,4.7-9.3
	c4-2.3,8.2-8.2,7.8-15.1L215.6,62.1z M227.7,55.1c0,1.2-5.3,4.1-10.5,4.1h-1.8V4.2l13.1,5.2H272l5.7-6.2l11.9,9
	c-0.6,0.8-2.1,1.9-4.3,2.3v39.6c-0.1,0.7-6.1,3.1-10.2,3.1h-2.1v-5.6h-45.3V55.1z M276.2,83.9c3.7,1.2,4.6,2.7,4.6,4.9
	c0,5.3-5,7.1-25.9,7.1h-13.5c-12,0-14.8-1.9-14.8-10.3V60.4l15.5,1.2c-0.2,1.5-1.1,2.3-3.2,2.7v18.8c0,1.6,0.5,2,4.5,2h12.9
	c4.5,0,8.6,0,10.3-0.1c1.8-0.1,2.4-0.4,3.2-1.6c1.2-1.8,2.9-6,5-12.3h1.1L276.2,83.9z M227.7,12.5v16.2h16.8V12.5H227.7z
	 M244.6,48.6V31.6h-16.8v17.1H244.6z M244.3,55.2c29.8,6.3,18.4,28.8,7.3,19.9c-0.3-6.8-4.1-14.4-8.1-19.2L244.3,55.2z M256.3,12.5
	v16.2h16.7V12.5H256.3z M273.1,48.6V31.6h-16.7v17.1H273.1z M276.1,61.4c34,9.3,22.6,35.5,10.2,25.3c-0.6-8.6-5.5-18.2-11.1-24.5
	L276.1,61.4z"/>
<path class="st0" d="M359.3,5.7c-0.4,1.4-1.6,2.1-5.1,2.4c10.2,8.5,27.5,14.5,45.9,16.2l-0.1,1.6c-5.1,2-7.3,7.6-8.1,12.4
	c-17.5-5.5-31-15.5-39.2-29c-8.6,11.4-27.8,25.2-50.4,31l-0.4-1.1c18.1-9,33.8-25,39.8-38.6L359.3,5.7z M318.3,64.8
	c5.1,12.9,1.1,22-3.8,25.2c-3.5,2.2-8.1,1.5-9.6-2.2c-1-3.4,0.8-6.3,4-7.9c4-2.3,8.2-8.2,8-15L318.3,64.8z M319.1,41.3h47l6.4-5.4
	l11,7.6c-0.6,1-1.6,1.2-3.7,1.5c-3.7,6.6-11,13.2-19,17.7l-0.9-1.2c2.6-4.5,5.3-11.4,6.7-17.2h-46.6L319.1,41.3z M374.9,85
	c3.6,1.2,4.6,2.5,4.6,4.7c0,5.2-5.1,6.7-25.6,6.7h-13.2c-11.9,0-14.6-2-14.6-10V62.3l15.5,1.2c-0.2,1.4-1.1,2.3-3.2,2.6v18.1
	c0,1.6,0.5,2,4.4,2h12.5c4.4,0,8.4,0,10.2-0.1c1.7-0.1,2.3-0.4,3-1.5c1.2-1.8,2.8-5.9,5.1-11.8h1L374.9,85z M359.4,22.1
	c0,0,5.9,5,9.5,8.5c-0.3,1.1-1.4,1.7-2.8,1.7h-33.2l-0.8-3h22.2L359.4,22.1z M345.2,58.5c26.8,5.8,17.1,26.2,7,18.3
	c-0.4-6.1-4.2-13.2-7.9-17.7L345.2,58.5z M375.8,63.9c31.4,7.2,21.6,30.9,10.2,22.2c-0.8-7.6-5.8-16.1-11.1-21.4L375.8,63.9z"/>
</svg>
