<?xml version="1.0" encoding="utf-8"?>
<!-- Generator: Adobe Illustrator 25.2.3, SVG Export Plug-In . SVG Version: 6.00 Build 0)  -->
<svg version="1.1" id="layer" xmlns="http://www.w3.org/2000/svg" xmlns:xlink="http://www.w3.org/1999/xlink" x="0px" y="0px"
	 viewBox="0 0 500 100" style="enable-background:new 0 0 500 100;" xml:space="preserve">
<style type="text/css">
	.st0{fill:#19100A;}
</style>
<g>
	<path class="st0" d="M10.2,21.1c4.3,11.3,3.3,20.5,0.5,24.8C8.7,49,4,49.6,1.9,46.7c-1.6-2.6-0.4-5.5,2-7.6
		c2.6-3.2,5.3-11.1,4.7-18H10.2z M36.1,34.3c-1.6,2-4.5,2.4-7-0.2c0.2-4.9-1.6-10.7-3.3-14.8v76.3c0,1-4.5,3.2-8.6,3.2h-2.1V1.3
		l14.5,1.5c-0.2,1.5-1,2.6-3.7,3v13l1-0.3c10,5,11.5,11.4,9.8,14.9l10.8,4.4H85l5-5.4l10.7,8c-0.5,0.7-2,1.6-4,2v15.1
		c-0.1,0.6-5.6,2.5-8.9,2.5h-1.9v-2H46.5c-1,1-5.2,2.8-8.9,2.8h-1.5V34.3z M94.1,67.5c-0.7,0.9-1.8,1.2-4.4,1.5
		c-3.6,4.9-8,9.3-13.2,13c8.1,2.5,16.8,4.1,25.5,4.9v1.2c-4.7,1.2-7.5,4.9-8.7,10.4C83.4,96,74.6,92.5,67,87.8
		c-10.4,5.5-23.1,9.2-37.4,11.1l-0.6-1.5c12.1-3.2,23-8,31.9-14.1c-5.2-4.4-9.6-9.7-12.8-16.1H35.4l-0.9-3h43.1l6.7-5.8L94.1,67.5z
		 M53.6,31.6c0,0.9-5.1,3.4-9.7,3.4h-1.7V2.4l12,4.7h24l5.2-5.6l11.1,8.3c-0.6,0.7-2,1.6-4,2V31c-0.1,0.8-5.6,3.2-9.4,3.2h-2.1V10
		H53.6V31.6z M46.7,40.6v14.2h6.4V40.6H46.7z M50.8,67.2c4.1,4.7,9.8,8.4,16.3,11.3c4-3.5,7.3-7.3,9.9-11.3H50.8z M56.1,27.6h12.6
		l3.2-4.7c0,0,3.7,3.5,5.8,6.1c-0.2,1-1.1,1.6-2.5,1.6H56.9L56.1,27.6z M71.8,12.6c0,0,3.6,3.5,5.8,6.1c-0.3,1-1.2,1.6-2.6,1.6H56.9
		l-0.7-3h12.4L71.8,12.6z M63,40.6v14.2h6.6V40.6H63z M79.4,40.6v14.2h6.6V40.6H79.4z"/>
	<path class="st0" d="M127.4,27.6v19.7c4.9-0.8,10-1.9,15.1-2.9l0.2,1.1c-3.8,2.4-8.9,5.3-15.3,8.7v30.7c0,8.2-1.7,12.8-14.2,13.9
		c-0.3-3.6-0.7-6.4-2-8.3c-1.2-1.8-3.2-3-7.6-3.7v-1.5c0,0,8.5,0.5,10.3,0.5c1.6,0,2.1-0.4,2.1-1.8V60.2c-2.3,1.1-4.6,2.3-7.1,3.5
		c-0.4,1.5-1.6,2.5-2.8,2.8l-4.7-14.7c3-0.4,8.2-1.2,14.6-2.4V27.6h-12.8l-0.8-3H116V1.1l15.3,1.6c-0.2,1.5-1.2,2.5-3.8,2.9v19h1
		l5.4-8.1c0,0,5.9,5.7,9.3,9.5c-0.3,1.1-1.4,1.7-2.8,1.7H127.4z M199.7,25.4c-0.8,1-2.5,2-4.9,2.5v66c-0.1,0.9-5.6,3.5-9.9,3.5h-1.9
		v-8.8h-27.8v5.2c0,1.5-4.7,4.3-9.9,4.3h-1.9V17.4l12.4,5.2h4.6c0.8-5.9,2-15.1,2.6-21.4L180,3.9c-0.4,1.8-1.9,2.6-4.2,2.7
		c-3,4.6-8,11.3-11.5,16h17.7l5.8-6.7L199.7,25.4z M155.3,25.5V53h27.8V25.5H155.3z M183.1,85.6V56h-27.8v29.5H183.1z"/>
	<path class="st0" d="M249.4,24c-0.7,0.9-2.3,1.8-4.4,2.2v62c-0.1,0.8-5.6,3.4-9.7,3.4h-1.8v-8.2h-15.8v7.7c0,1.4-4.4,4-9.4,4h-1.9
		V16.4l11.6,4.9h0.6c0.7-5.7,1.7-13.8,2.2-19.7l16.8,4.1c-0.4,1.8-1.9,2.5-4.3,2.5c-2.7,3.6-6.8,9-10.1,13.1h9l5.5-6.2L249.4,24z
		 M217.8,24.3v25.8h15.8V24.3H217.8z M233.6,80.5V53.1h-15.8v27.4H233.6z M300.2,24c-0.8,0.9-2.2,1.7-4.6,2
		c-0.7,41.9-2.2,60.9-7.9,67.1c-3.7,4-8.3,5.6-15.2,5.6c0-4-0.5-6.9-2.3-8.5c-1.9-2-5.9-3.6-11-4.6l0.1-1.5c5,0.4,12.2,0.9,14.9,0.9
		c1.9,0,2.8-0.4,3.8-1.4c3.8-3.5,4.9-24.2,5.6-59.7h-19.3c-5,8.8-10.9,16.2-17.6,21.8l-1.4-0.8c5.7-10.6,11.3-27.6,14-43.5l16.4,4.8
		c-0.4,1.4-1.7,2.1-4.1,2.1C270,12.9,268.2,17,266,21h16.5l6.6-6.8L300.2,24z M254.2,42.2c30.4,8.9,19,31.4,8,22.2
		c-0.5-7.4-4.7-15.8-8.8-21.5L254.2,42.2z"/>
	<path class="st0" d="M344.5,51.4c-0.6,0.8-2.2,1.8-4.2,2.1V87c0,6.6-1.4,10.1-11.3,11c-0.2-2.7-0.5-4.9-1.6-6.1
		c-1.1-1.4-2.6-2.3-6-2.9v-1.6c0,0,6.3,0.5,8,0.5c1.5,0,1.8-0.6,1.8-1.9V72.8c-1.8,2-3.8,4.3-6,6.9c-0.3,1.2-1.1,2.3-2.2,2.7
		l-3.6-7.5c-1.1,8.5-4.8,17.4-15.7,23.8l-1-1.2c7.3-8.9,7.7-20.5,7.7-31.5V45.5c-0.4,1.2-1,2.3-1.8,2.9c-2,1.7-5.8,1.5-7.1-1.2
		c-1-2.6,0.5-5.1,2.9-6.4c1.8-1.6,3.3-5.6,2.5-8.6l1.7,0.1c0.6,1.4,1,2.7,1.4,4h1.1V4.8l8.8,3.7h10.7l4-5.2l10,7.2
		c-0.8,1-2.1,1.7-4.8,2v22.4l3-3l5.8,5.7V9.4l10.3,4.1h3.2V1.6l9,1c-0.1,1-0.8,1.9-2.5,2.2v8.6h4.5V1.6l9.5,1
		c-0.2,1.2-0.9,2-2.9,2.4v8.4h4.2l4.5-5.2l9.3,7c-0.6,0.8-1.7,1.5-3.8,1.8v25c0,0.2-0.9,0.8-2.5,1.5c2.1,1.6,5.3,4.1,7.7,6.1
		c-0.3,1.1-1.4,1.7-2.8,1.7h-49.6l-0.8-3h38.3l3.3-4.1c-0.4,0.1-0.9,0.1-1.5,0.1h-1.7v-1.9h-26.5v1c0,0.7-2.8,2.5-7.6,2.5h-1.5v-5.8
		c-0.6,0.1-1.2,0.2-2.1,0.2c-1.8,2.1-4.7,5.4-6.4,7.2l-1.5-0.7c0.1-1.9,0.5-5.1,0.7-7.7h-28.7c0.3,2.2,0.3,4.2-0.1,5.8l10.8,4.2h8.9
		l4.2-5.1L344.5,51.4z M318.8,36.2h3.6V17.4l7,3.1h2.3v-9h-12.9V36.2z M319.8,66c0,2,0,4.1-0.2,6.2c2.7-0.8,7-2.3,11.5-3.8v-4.2
		c-1,1-2.7,1.7-4.7,1c-1.5-1.8-4.2-3.8-6.7-5.4V66z M319.8,52v5.3c6.2-0.9,9.8,0.2,11.3,2V52H319.8z M327.9,36.2h3.7V23.6h-3.7V36.2
		z M390,84c0,0,6.3,4.9,10.3,8.4c-0.3,1.1-1.4,1.7-2.9,1.7h-54.7l-0.8-3h19.3c-1-0.3-2.1-0.9-3-1.9c0.1-3.4-0.8-7.4-2-10.4
		c-0.8,0.1-1.8,0.2-2.8,0.2h-1.8V52.6l11.1,4.4H379l4.8-5.4l9.7,7.2c-0.5,0.9-1.6,1.5-3.7,1.9v14.8c0,0.4-2.9,2.1-7.7,2.3l7.7,2.6
		c-0.4,1.1-1.7,2-4,1.8c-2.5,2.6-6.1,6-9.8,9h8.3L390,84z M357.6,16.4v10h4.5v-10H357.6z M362.1,29.4h-4.5v10.1h4.5V29.4z
		 M361.6,76.6c0,0.3-0.5,0.8-1.7,1.2c10.6,4.9,8.6,11.9,4.3,13.2h8.4c1.8-4.7,3.6-10.6,4.6-15.1l2,0.6v-2h-17.6V76.6z M361.6,60
		v11.6h17.6V60H361.6z M368.6,16.4v10h4.5v-10H368.6z M368.6,39.5h4.5V29.4h-4.5V39.5z M379.6,16.4v10h4.5v-10H379.6z M384.1,39.5
		V29.4h-4.5v10.1H384.1z"/>
	<path class="st0" d="M496,85.6c3.1,6.7,3.7,10.4,1.8,11.8c-5.3,4.1-13.3-1.2-17-6.1c-6.6-8.3-11-18.3-14-29.2
		c-4.6,2.7-9.6,4.8-14.8,6.6l-0.9-1.2c5-2.9,9.9-6.9,14.1-11.5c-2.5-11.6-3.6-24.1-4.1-37.5h-41.7v19.2c0,17.7-0.6,43.4-17.2,60.3
		l-1.2-0.8c7.3-18,7.5-40.7,7.5-59.5V10.6l12.7,4.6h39.8c-0.1-4.7-0.2-9.4-0.2-14l15.1,1.6l-0.6-0.8l1-0.5c18.4,3.6,9,15.6,2.5,9.6
		c-0.1-2.5-1.1-5.3-2.4-7.4c-0.4,0.9-1.5,1.8-3.6,2.1c-0.1,3.1-0.1,6.3-0.1,9.6h11.5l5.3-7.5c0,0,6,5.2,9.6,8.8
		c-0.2,1.1-1.2,1.7-2.7,1.7h-23.6c0.1,8.5,0.5,17,1.7,25.1c3.2-5.6,5.9-11.8,7.7-18.7l14.8,5.9c-0.6,1.2-2,2.1-4.4,1.9
		c-4.3,9.5-9.6,16.7-15.9,22.5c2.4,10,6.1,18.6,11.9,25.2c1.4,1.8,2,1.8,3-0.1c1.5-2.7,4.1-8,5.8-12.5l1.1,0.2L496,85.6z
		 M421.2,69.6c3.7,10,2.9,17.8,0,21.2c-2,2.3-6.6,2.6-8.1-0.3c-1.4-2.8,0-5.5,2.6-7.3c2.2-2.4,4.6-8.5,3.8-13.6H421.2z M451.3,20.7
		c0,0,6.4,5,10.5,8.6c-0.3,1.1-1.4,1.7-2.8,1.7h-36.7l-0.8-3h24.1L451.3,20.7z M434.5,60.3c0,0.8-4.7,3.2-9,3.2h-1.6v-30l11.1,4.4
		h10.8l4.9-5.2l10.5,7.7c-0.5,0.7-1.9,1.6-3.6,1.9v15.8c-0.1,0.6-5.5,2.6-8.9,2.6h-1.9v-4.3h-12.3V60.3z M456.5,86.2
		c2.4,1,2.8,2.2,2.8,3.8c0,3.8-3.4,5.8-15.9,5.8h-7.6c-8,0-9.3-1.9-9.3-7.9V65.5l12.2,1.1c-0.2,1.4-1.1,2.3-3.1,2.6v16.3
		c0,1.2,0.3,1.6,2.7,1.6h5.9c2.5,0,4.5-0.1,5.3-0.2c1,0,1.4-0.2,1.9-1c0.9-1.5,2.1-6,3.5-11.2h1.2L456.5,86.2z M434.5,40.8v12.7
		h12.3V40.8H434.5z M439,61.9c19.9,9.2,9.9,24,2.9,16.7c0.4-5.4-1.8-12.1-4.2-16.1L439,61.9z M457.3,68c21,11.6,11.9,27.9,4.3,20.4
		c0.1-6.6-2.8-14.5-5.4-20L457.3,68z"/>
</g>
</svg>
