<?xml version="1.0" encoding="utf-8"?>
<!-- Generator: Adobe Illustrator 25.2.3, SVG Export Plug-In . SVG Version: 6.00 Build 0)  -->
<svg version="1.1" id="layer" xmlns="http://www.w3.org/2000/svg" xmlns:xlink="http://www.w3.org/1999/xlink" x="0px" y="0px"
	 viewBox="0 0 600 100" style="enable-background:new 0 0 600 100;" xml:space="preserve">
<style type="text/css">
	.st0{fill:#19100A;}
</style>
<path class="st0" d="M102.3,41.1c-0.8,0.9-2.1,1.6-4.3,1.9c-0.2,35.9-0.8,48.5-5.3,53.3c-2.9,3.1-7.2,3.6-12.6,3.6
	c0-2.7-0.4-4.5-1.8-5.8c-1.6-1.7-4.6-2.7-8.4-3.4V89c3.5,0.3,8.9,0.7,11,0.7c1.7,0,2.5-0.4,3.2-1.1c2.5-2.7,2.9-17.2,3.1-47.4H50.9
	c-2,2.9-4.4,5.7-7,8.3l5.2,2.3h6.8v-9.5l12.1,1.1c-0.2,0.9-0.8,1.7-2.6,2.1v6.2h5.8l4.2-4.4l8.7,6.6c-0.5,0.6-1.7,1.4-3.1,1.6v13.8
	c-0.1,0.7-4.6,2.5-7.4,2.5H72v-2.2h-6.7v7.9l6.9-0.6c-0.8-1.8-1.9-3.4-2.9-4.8l0.9-0.6c21.9,5.4,12.3,21.4,4.2,14.2
	c0-2.1-0.4-4.3-1.1-6.4c-7,2.6-16.2,5.9-28.8,10.1c-0.6,1.2-1.7,2.1-2.8,2.3l-5.3-12.1c4.1-0.2,11.1-0.7,19.6-1.4v-8.6h-7.3v1.5
	c0,0.7-3.8,2.8-7.6,2.8h-1.2V53.2c-2.1,1.8-4.4,3.3-6.7,4.7c0.2,13.7-1,27.6-5.9,34.9c-2.4,3.5-6.9,5-13.1,5c0-4.2-0.6-7-1.8-8.4
	c-1.1-1.1-3.2-2.5-6.2-3.3v-1.5c0,0,6.4,0.6,9.7,0.6c1.5,0,2.3-0.3,3-1.4c2.7-4.2,3.4-15.6,3.4-27.4v-3.1C16.8,59,9.3,64.6,1.1,68.5
	l-0.9-0.9C9.3,59,16.8,47.1,20.7,35.6c-0.4-2.6-1-5.1-1.8-7.6c-4.4,4.3-9.3,8.2-14.7,11.4l-1-1.1c4.7-5.1,9.2-11.6,12.8-18.2
	c-2.4-5.1-5.6-10.1-10.2-14.9l1.1-1c5,3,8.9,6.3,12.3,10c2.4-4.8,4.3-9.5,5.6-13.5l13.3,7V2.4l10.6,4.3h35.6L89,1.7L98.8,9
	c-0.4,0.7-1.7,1.5-3.2,1.8v18c-0.1,0.7-5.3,2.6-8.5,2.6h-1.8v-3H48.1v1.5c0,0.1-0.1,0.3-0.4,0.5l10.5,3.4c-0.4,1.1-1.8,2.1-4,2
	c-0.5,0.8-0.9,1.7-1.6,2.5h33.5l5.8-6L102.3,41.1z M38.2,8.8c-0.6,0.5-1.7,0.8-3.4,0.5c-2.6,4-5.8,8.2-9.8,12.5
	c5.7,9.6,7.6,20.6,8.1,32.7c4-6,7.7-14.4,10-22.2c-1,0.3-2.3,0.5-3.5,0.5h-1.4V8.8z M48.1,9.6v15.8h7V9.6H48.1z M48.6,54.6v12.2h7.3
	V54.6H48.6z M70,25.5V9.6h-6.4v15.8H70z M65.3,54.6v12.2H72V54.6H65.3z M78.5,9.6v15.8h6.8V9.6H78.5z"/>
<path class="st0" d="M187.2,21.9c-0.7,0.9-2.2,1.9-4.5,2.3v69.3c-0.2,0.9-6.2,3.8-10.9,3.8h-2.1v-7.8h-42.2v3.5
	c0,1.6-5.1,4.6-10.6,4.6h-2.1V13.5l13.6,5.5h9.4c1.1-5.7,2.1-13.3,2.5-18.7l18.6,3c-0.3,1.4-1.4,2.3-3.8,2.4c-3.2,4-8,9.2-12.9,13.3
	h26.5l6.2-7L187.2,21.9z M127.5,22V41h42.2V22H127.5z M127.5,44v19.7h42.2V44H127.5z M169.7,86.6V66.5h-42.2v20.1H169.7z"/>
<path class="st0" d="M236.9,29.5c-0.5,0.9-1.6,1.7-4.1,1.4c-2.5,3.2-5.5,6.9-8.9,10.5l5.9,2.2c-0.3,0.9-1.2,1.7-3.2,2.1v48.3
	c0,1-4.6,4.1-9.7,4.1h-2.2V50.2c-4.1,3.6-8.4,7.1-12.9,10l-0.9-1c8.6-10.9,17.3-27.4,21.2-37.6L236.9,29.5z M235.5,8.9
	c-0.6,0.9-1.6,1.6-4.1,1.1c-6.9,6.7-17.8,15.2-29.2,20.5l-0.8-1c7.9-8.2,16.2-20.8,20-29.1L235.5,8.9z M289.5,46.7
	c0,0,7,5.5,11.1,9.4c-0.3,1.1-1.4,1.7-2.8,1.7h-16.1v26.8c0,8.2-2.1,12.6-16.8,13.7c-0.4-3.4-1-6-3.1-7.8c-2-1.7-4.8-2.9-11-3.8
	v-1.4c0,0,13.9,0.8,16.4,0.8c1.9,0,2.4-0.6,2.4-2V57.7h-36.8l-0.8-2.9h37.6V42.4l15.7,1.4c-0.2,1.6-1.2,2.4-3.5,2.7v8.3h1.7
	L289.5,46.7z M257.3,18.8V0.3l15.5,1.4c-0.2,1.4-0.9,2.3-3.4,2.7v14.5h12l6.3-8.3c0,0,7.3,5.7,11.8,9.7c-0.3,1.1-1.5,1.7-2.8,1.7
	h-27.2v15.9h10.1l6-7.9c0,0,7.2,5.4,11.3,9.3c-0.3,1.1-1.4,1.7-2.8,1.7h-56.1l-0.8-3h20.2V21.8h-23.2l-0.8-3H257.3z M241.1,59.8
	c29.2,6.1,20.1,27.1,9.3,19.4c-1.6-6.4-6.2-13.8-10.2-18.8L241.1,59.8z"/>
<path class="st0" d="M334.6,46.6c-0.3,1-1.4,1.7-3.2,2.1v45.7c-0.2,0.9-5.3,3.4-10.1,3.4h-2.4V57.2c-5,4.3-10.5,7.9-16.5,11.1
	l-0.9-1.1c13.3-11.1,23-26.8,29.4-42.5H305l-0.8-3h28c2.8-7.4,5-14.7,6.4-21.4l17.6,4.6c-0.3,1.2-1.2,2.1-4.1,2.2
	c-1.7,4.7-3.7,9.7-6.1,14.7h31.9l7.3-9.3c0,0,8.2,6.3,13.2,10.6c-0.3,1.1-1.4,1.7-2.9,1.7h-51.1c-3.5,7.1-8.1,14.1-13.6,20.6
	L334.6,46.6z M386.9,79.6c0,0,7.8,5.9,12.7,10.1c-0.3,1.1-1.5,1.7-3,1.7h-62.8l-0.8-3h23.4V56.6h-18.8l-0.8-2.9h19.7V29.2l15.8,1.5
	c-0.1,1.4-0.9,2.3-3.3,2.7v20.3h5.8l6.6-8.2c0,0,7.3,5.6,11.8,9.5c-0.3,1.1-1.5,1.7-2.9,1.7h-21.2v31.8h11.2L386.9,79.6z"/>
<path class="st0" d="M403.8,97.6l-1.1-0.8c10.7-17,11.8-38.5,11.8-57.7V7.7l11.3,4c19.4-2.5,42.7-7.3,55.5-11.2l11.3,11.5
	c-1.2,1-3.6,1-6.9-0.3c-15.5,1.8-39,2.7-59.3,2.4v7.3h50.5l5.6-6.1l11.9,8.9c-0.6,0.7-2,1.7-4.1,2.1v13.5c-0.1,0.8-6.2,3-10.3,3
	h-2.1v-3.8L426.5,39C426.5,57.5,425.2,81.8,403.8,97.6z M486.9,45.5c0,0,6.8,5.1,11,8.8c-0.3,1.1-1.5,1.7-2.9,1.7h-37.4
	c-0.4,3.5-0.8,7-1.7,10.3h19.3l6.1-5.7l10.9,8.9c-0.7,0.8-2,1.4-4.1,1.7c-1.2,12.5-3.6,20-8.4,22.9c-3,2-7.1,2.9-12.5,2.9
	c0-3.2-0.3-6.1-2-7.8c-1.6-1.7-5-3-9.2-3.8V84c4,0.3,10.5,0.7,12.5,0.7c1.7,0,2.5-0.2,3.3-0.6c1.8-1.4,3.1-6.6,4-14.8h-21
	c-3.7,11-12.5,21.1-34.8,28.4l-0.9-1.5C441.6,84,443.4,70,443.9,56h-15l-0.8-3H459c-0.5-0.2-1.1-0.5-1.7-0.8
	c-0.8-4-3.6-8.3-5.8-10.8l0.8-0.6c18.2-0.3,17.5,9.9,11.9,12.3H481L486.9,45.5z M426.5,24.2V36h51.6V24.2H426.5z"/>
<path class="st0" d="M588,81.4c0,0,7.5,6.1,11.9,10.3c-0.3,1.1-1.4,1.7-2.9,1.7h-60.7l-0.8-3h26V72h-19l-0.8-2.9h19.9V51.2h-8V56
	c0,1.1-4.7,3.6-9.4,3.6h-1.7V44.4c-0.5,0-1.1-0.1-1.9-0.3c-2.6,2.3-5.7,4.6-8.9,6.2c16.5,8.2,8.2,21.5,0,15
	c-0.7-4.6-3.5-10-6.2-14.2v43.4c0,0.8-3.6,3.4-9.2,3.4h-2.1V57.2c-4.1,3.6-8.3,6.7-12.8,9.4l-0.9-1c10.6-10.5,20.1-26.2,24.2-39H502
	l-0.9-2.9h23l6.2-6l10.4,9.9c-0.9,1-2.1,1.2-4.6,1.5c-2.6,5.5-6.3,11.1-10.8,16.6v2.4c1.1,0.3,2.2,0.7,3.2,1.1c2.2-3.4,4.5-8.1,6-13
	l7.8,5.4v-37l11.5,4.8h25.5l5.3-5.9l11.2,8.6c-0.6,0.8-2.2,1.7-4.3,2.1v40.4c-0.2,0.6-5.7,2.9-9.4,2.9h-1.9v-6h-8.2v17.9h5.7
	l6.3-8.6c0,0,7.2,5.8,11.4,9.9c-0.3,1.1-1.5,1.7-2.9,1.7h-20.6v18.3h9.3L588,81.4z M509.1,1.3c28.5,1.5,19.1,23,7.7,15.7
	c-1.1-5.5-5.1-11.5-8.5-15.3L509.1,1.3z M553.4,12.1V29h8V12.1H553.4z M561.4,48.3V31.9h-8v16.4H561.4z M572.2,12.1V29h8.2V12.1
	H572.2z M580.4,48.3V31.9h-8.2v16.4H580.4z"/>
</svg>
