<?xml version="1.0" encoding="utf-8"?>
<!-- Generator: Adobe Illustrator 25.2.3, SVG Export Plug-In . SVG Version: 6.00 Build 0)  -->
<svg version="1.1" id="layer" xmlns="http://www.w3.org/2000/svg" xmlns:xlink="http://www.w3.org/1999/xlink" x="0px" y="0px"
	 viewBox="0 0 300 100" style="enable-background:new 0 0 300 100;" xml:space="preserve">
<style type="text/css">
	.st0{fill:#19100A;}
</style>
<path class="st0" d="M84.1,2c0,0,8.3,6.4,13.2,10.7c-0.3,1.2-1.5,1.7-2.9,1.7h-39v14.9H76l5.7-6.5l12.2,9.3
	c-0.7,0.8-2.1,1.8-4.3,2.2v50.6c0,8.1-1.9,12.6-15.7,13.7c-0.3-3.7-0.7-6.4-2.3-8.1c-1.6-1.7-3.6-3.1-8.5-3.9v-1.4
	c0,0,9.5,0.6,12,0.6c1.7,0,2.1-0.7,2.1-2.1v-6.9c-1.4,2.6-4.8,3.9-8.6,1.6c-2.1-6-7.9-12.8-12.4-17.1l0.9-0.7
	c12.3,1.6,18.1,6.2,20,10.5V44.3c-6.1,3.6-12.9,7.4-18.5,10.1l-1.3-1.3C60.9,48.9,66,42,70.1,35.2l6.9,4.9v-8H55.4v60.6
	c-0.1,0.8-3.9,3.5-10.2,3.5H43V32.2H20v38.1c5-1.9,13.2-5.7,20.7-9.9l0.5,1c-2.8,4.1-6.9,10.3-12.4,17.2c-0.1,1.4-0.9,2.6-1.9,3.3
	L20,71.6v23.2C20,96.1,15.1,99,10,99H8.1V23.9L21,29.2h22V14.3h-42L0,11.4h76.9L84.1,2z M21.2,38C49,40.7,40.6,60.7,30,54
	c-1.5-5.5-6-11.5-9.6-15.3L21.2,38z"/>
<path class="st0" d="M161.5,14.1c-2.5,6.1-5.7,12.2-9.4,18l6.5,2.4c-0.3,0.9-1.3,1.7-3.3,2v60.1c-0.1,0.7-5.7,2.7-10.3,2.7h-2.3
	V45.1c-11.3,13.8-25.8,26.2-42.4,34.8L99.5,79c21.1-17,39-42.9,45.5-64.9h-43.2l-0.8-2.9h75.6l7.5-9.6c0,0,8.6,6.5,13.7,10.9
	c-0.3,1.2-1.5,1.7-3,1.7H161.5z M159.6,40.7c47.5,10.3,42.3,38.6,28.2,31.7c-5.7-10.6-18.8-23.2-29.1-30.7L159.6,40.7z"/>
<path class="st0" d="M226.1,32.5c-0.3,0.9-1.4,1.7-3.3,2.1v61.7c-0.2,0.8-5.1,3.5-9.9,3.5h-2.3V44.7c-3.8,4.4-7.8,8.3-12.1,11.6
	l-1.3-0.8c8.5-13.2,17.1-33.9,21.3-54l17,5c-0.4,1.4-1.8,2.3-4.2,2.2c-3,8-6.5,15.3-10.5,21.9L226.1,32.5z M300,55.2
	c-0.8,0.8-1.9,1-4,1.2c-2.6,1.5-6.7,3.6-10,5.1c1.6,1.2,3.3,2.5,4.6,3.7c-0.3,1.2-1.5,1.7-2.9,1.7h-18.6v18.2
	c0,8.3-2.2,13.9-16.4,15c-0.2-4-0.8-6.8-2.4-8.7c-1.8-1.8-4.2-3.3-10-4.1V86c0,0,11.7,0.7,14.2,0.7c1.7,0,2.2-0.6,2.2-1.8v-18h-20
	l-0.8-2.9H274l5.9-7.2c0,0,1.6,1.2,3.6,2.8l0.9-5.3h-46.8c0.5,5.3-0.8,9.2-3.4,11.2c-2.5,1.9-7.7,1.3-9-2.5
	c-1.2-3.4,0.8-6.2,3.9-7.8c2.4-1.7,5.5-5.6,4.9-8.8h1.6c0.6,1.8,1.2,3.4,1.5,4.9h46.4l6-6.1L300,55.2z M230.1,15.3h49.1l6.6-8.6
	c0,0,7.4,5.9,12,9.9c-0.2,1.2-1.5,1.7-2.9,1.7h-64L230.1,15.3z M275.3,46.3v-3.6H250v1.7c0,0.9-5.5,3.6-10.5,3.6h-1.7V20.3l12.8,4.9
	h23.7l5.6-5.9l11.5,8.6c-0.5,0.7-1.9,1.6-3.8,2v13.2c-0.1,0.8-6.2,3.1-10.2,3.1H275.3z M275.3,39.7V28.3H250v11.4H275.3z M253.7,0.8
	c25.1,1.4,13.8,20,3.9,12.3c0-4.2-2.3-8.9-4.8-11.6L253.7,0.8z"/>
</svg>
