<?xml version="1.0" encoding="utf-8"?>
<!-- Generator: Adobe Illustrator 25.2.3, SVG Export Plug-In . SVG Version: 6.00 Build 0)  -->
<svg version="1.1" id="layer" xmlns="http://www.w3.org/2000/svg" xmlns:xlink="http://www.w3.org/1999/xlink" x="0px" y="0px"
	 viewBox="0 0 400 100" style="enable-background:new 0 0 400 100;" xml:space="preserve">
<style type="text/css">
	.st0{fill:#19100A;}
</style>
<path class="st0" d="M46.1,51l10.2,7.5c-0.5,0.6-1.9,1.4-3.6,1.7v26.2c0,7.2-1.5,11.3-12.6,12.3c-0.2-3.1-0.5-5.6-1.8-7.2
	c-1.2-1.5-3.1-2.5-6.9-3.2v-1.6c0,0,7.5,0.5,9.4,0.5c1.5,0,1.8-0.6,1.8-1.9V59h-13c-1.8,4.2-3.7,8.5-5.6,12.4c3-0.1,6.1-0.3,9.4-0.5
	c-0.7-3.2-1.9-6.2-3.1-8.5l1.2-0.6C49,71.7,40.3,85.1,34,78.5c0.1-1.4,0-2.8-0.1-4.2c-3.3,1.9-7.4,4.1-12.6,6.9
	c-0.6,1.4-1.6,2.1-2.8,2.3l-4-9.2v21.9c0,0.6-3,2.9-7.9,2.9H4.9V59H2.7L1,56h3.9v-4.2l11,4.2h6.2c0.3-3.4,0.5-6.6,0.7-9.3h-6l-3.2,5
	L4,45.4c0.6-0.8,1.9-1.9,3.2-2.6V19L20,20.4c-0.3,1.5-1.3,2.4-3.9,2.9v3.9H16v16.4h25.6V22.9c-0.6,1-1.9,1.6-3.9,1.2
	c-1.1,1.6-2.1,3.1-3.3,4.4c7.6,5.8,4,13.4-2.1,10.6c-0.7-1.5-1.8-3.2-3.2-5c-3.6,3.3-7.5,5.7-11.4,7.5l-1.3-1.2
	c2.9-2.8,5.8-6.5,8.4-10.8c-2.3-2.2-4.9-4.2-7.2-5.7l1-1c3.5,0.4,6.5,1.1,8.9,1.9c1.1-2.4,2.1-5,3.1-7.5l11.1,5v-3.8l11.8,1.2
	c-0.2,1.1-0.8,1.8-2.8,2.2v25.5c0,0.8-4.1,2.5-7.4,2.5h-1.7v-3.3h-7.3c-1,2.8-2.2,6-3.6,9.3h10.8L46.1,51z M2,13h23.5
	c-0.7-0.3-1.4-0.6-2-1.2C23.4,7.7,21.3,3,19.3,0.6L20,0c17,1.2,16.3,10.5,10.9,13H39l6-7.6c0,0,7,5.3,11.1,9
	c-0.3,1.2-1.4,1.7-2.9,1.7H2.8L2,13z M14.5,71.8c1.6-0.1,3.7-0.1,6-0.2c0.4-4,1-8.4,1.4-12.6h-7.4V71.8z M93.5,82.5
	c0,0,5.6,5.2,8.9,8.6c-0.2,1.2-1.3,1.7-2.6,1.7H69.1v3.4c0,0.7-3.4,3.3-8.9,3.3h-1.9V37.1c-1.6,2.4-3.3,4.8-5.1,6.8l-1.6-0.8
	c4.2-10.9,7.8-27.2,9.2-42.1l13.3,3l-0.6-1.8l1.1-0.4c23.3,8.4,10.6,25.1,2,16.2c0.2-4.1-0.6-8.6-1.9-12.4c-0.6,0.7-1.7,1.2-3.3,1.3
	c-1.4,5.1-3.1,10-5.1,14.8l4.1,1.6h16.5l5.1-6.7c0,0,5.6,4.7,9.1,8c-0.3,1.2-1.4,1.7-2.9,1.7H86.4V44h1l4.4-6.6c0,0,5.1,4.7,8,7.8
	c-0.3,1.2-1.3,1.7-2.8,1.7H86.4v18.4h1.5l4.5-6.5c0,0,5.2,4.7,8,7.8c-0.2,1.2-1.3,1.7-2.6,1.7H86.4v21.4h2L93.5,82.5z M69.1,26.3V44
	h7.2V26.3H69.1z M76.3,47h-7.2v18.4h7.2V47z M69.1,89.8h7.2V68.4h-7.2V89.8z"/>
<path class="st0" d="M121.3,37.3v57.9c0,1.6-4.4,4.6-9.7,4.6h-2V3.3l12.3,5.3h13.9l5.2-5.7l11,8.4c-0.6,0.7-1.9,1.6-3.9,2V39
	c-0.1,0.8-5.5,3.3-9.2,3.3h-2v-5H121.3z M121.3,11.6v9.7h15.4v-9.7C136.7,11.6,121.3,11.6,121.3,11.6z M136.8,34.4V24.3h-15.4v10.1
	H136.8z M168,69.4V92c-0.1,0.5-3.2,2.4-8.5,2.4h-1.9v-25H148c-1.2,9.3-5.3,19.5-20.8,26.1l-1.1-1.2c8.8-7.3,11.2-16.3,11.8-25h-12.4
	l-0.8-3.1h13.4c0-1.1,0-2.2,0-3.3v-12H128l-0.8-3h38.3l5.5-7.2c0,0,6.3,5,10.1,8.6c-0.2,1.1-1.3,1.6-2.8,1.6H168v15.2h0.3l5.3-7.2
	c0,0,5.9,5,9.4,8.6c-0.3,1.2-1.4,1.7-2.9,1.7H168V69.4z M157.6,66.3V51.1h-9.3v12c0,1.1,0,2.1-0.1,3.3L157.6,66.3L157.6,66.3z
	 M201.9,11.4c-0.7,0.8-2.2,1.8-4.3,2.1v72c0,8.4-1.7,13-14.5,14.2c-0.3-3.9-0.7-6.9-1.9-8.6c-1.4-1.9-3.2-3.2-7.4-4v-1.4
	c0,0,7.9,0.4,9.8,0.4c1.6,0,2-0.6,2-2V37.3h-16.1V38c0,1.1-5,3.5-9.7,3.5h-1.7V3.8L170,8.6h14.6l5.5-6.5L201.9,11.4z M169.6,11.6
	v9.7h16.1v-9.7C185.7,11.6,169.6,11.6,169.6,11.6z M185.7,34.4V24.3h-16.1v10.1H185.7z"/>
<path class="st0" d="M252.8,23.6c-0.7,1-2.3,1.8-4.4,2.2v63.1c-0.1,0.8-5.7,3.5-9.8,3.5h-1.8V84h-16.1v7.8c0,1.4-4.4,4-9.5,4h-1.9
	v-80l11.8,5h0.6c0.7-5.8,1.7-14.1,2.2-20L241,5c-0.4,1.8-1.9,2.5-4.3,2.5c-2.8,3.7-6.9,9.2-10.3,13.3h9.2l5.6-6.3L252.8,23.6z
	 M220.6,23.9v26.2h16.1V23.9H220.6z M236.7,81V53.2h-16.1V81H236.7z M304.4,23.6c-0.8,1-2.2,1.7-4.7,2c-0.7,42.6-2.2,62-8,68.2
	c-3.8,4-8.5,5.7-15.4,5.7c0-4-0.5-7-2.3-8.7c-1.9-2-6-3.7-11.2-4.7l0.1-1.5c5.1,0.4,12.4,1,15.1,1c1.9,0,2.9-0.4,3.9-1.4
	c3.9-3.6,5-24.7,5.7-60.7h-19.7c-5.1,9-11.1,16.5-17.9,22.2l-1.4-0.8c5.8-10.8,11.5-28,14.3-44.2l16.7,4.9c-0.4,1.4-1.7,2.1-4.1,2.1
	c-1.8,4.5-3.7,8.8-5.9,12.8h16.8l6.7-6.9L304.4,23.6z M257.6,42.1c30.9,9.1,19.4,31.9,8.1,22.5c-0.5-7.5-4.8-16.1-9-21.9L257.6,42.1
	z"/>
<path class="st0" d="M355.6,3.8c-0.2,1.6-1.2,2.6-3.9,3c2.2,40.7,12.2,65.4,48.3,78.7l-0.2,1.3c-6.3,1.2-10.4,5.5-11.7,12.4
	c-26.7-14.2-34.6-39-37.2-72.8c-1.9,27.2-9.5,54.3-49.3,73.3l-1.2-1.5c38.7-28.2,37.7-62.4,37.8-96.1L355.6,3.8z"/>
</svg>
