<?xml version="1.0" encoding="utf-8"?>
<!-- Generator: Adobe Illustrator 25.2.3, SVG Export Plug-In . SVG Version: 6.00 Build 0)  -->
<svg version="1.1" id="layer" xmlns="http://www.w3.org/2000/svg" xmlns:xlink="http://www.w3.org/1999/xlink" x="0px" y="0px"
	 viewBox="0 0 200 100" style="enable-background:new 0 0 200 100;" xml:space="preserve">
<style type="text/css">
	.st0{fill:#19100A;}
</style>
<g>
	<path class="st0" d="M36.2,6.1c-0.4,1.4-1.8,2.2-4.2,2.2c-2.9,8-6.3,15.4-10.1,22.2l5.1,1.9c-0.3,1-1.2,1.7-3.1,2v60.9
		c-0.2,0.9-5.1,3.4-9.8,3.4H12V45.5c-3.3,4.2-6.9,8-10.6,11.3L0.1,56c7.5-13.5,15.1-34.8,19-54.9L36.2,6.1z M92.3,46
		c-0.1,0.5-5.2,2.3-8.8,2.6c16.8,2.5,15.7,14.6,8.8,15.1c2.4,1.9,5.9,4.7,8.4,6.9c-0.3,1.1-1.5,1.7-2.9,1.7H80.1v13.3
		c0,8.1-1.8,12.3-14.7,13.4c-0.2-3.4-0.6-6-2-7.7c-1.1-1.6-3.1-2.8-7.5-3.5v-1.5c0,0,8.6,0.6,10.4,0.6c1.5,0,1.9-0.4,1.9-1.6V72.2
		H29.4l-0.8-2.9h39.7v-9.7L83.7,61c-0.2,1.6-1.2,2.3-3.5,2.6v5.7h3.3l5.2-6.8c-1.2-2.4-3.4-5-5.8-7.4c-10.7,2.5-25.3,5.5-45.4,9.2
		c-0.6,1.2-1.9,2.1-2.9,2.3l-4.6-12.2c5.6,0.1,15.5-0.2,27.5-0.6v-8H47v2c0,1.1-5.3,3.6-10.2,3.6h-1.7V17l12.6,5h9.7v-6.7H31.9
		l-0.8-3h26.3V1.2l15.8,1.5c-0.2,1.5-1,2.6-3.8,2.9v6.8h11.4l6.7-8.5c0,0,7.4,5.8,12,9.9c-0.3,1.1-1.6,1.7-3,1.7h-27V22h9.8l5.5-5.9
		L96,24.6c-0.5,0.7-1.9,1.6-3.7,2V46z M39.5,73c26.3,3.8,15.2,22.8,5.2,14.8c-0.5-5-3.3-10.6-6-14.1L39.5,73z M47,24.8v7.6h10.4
		v-7.6H47z M57.4,42.8v-7.5H47v7.5H57.4z M69.3,24.8v7.6h10.8v-7.6H69.3z M80.1,35.3H69.3v7.5h10.8V35.3z M80.6,53
		c-1.8-1.6-3.5-2.9-5.2-4.1l0.8-0.8c1.4,0,2.7,0,4,0.1v-2.4H69.3v7.6L80.6,53z"/>
	<path class="st0" d="M187.9,53c0,0,7.7,6.1,12.1,10.3c-0.2,1.1-1.5,1.7-2.8,1.7h-38.9v30.6c0,1-5.6,3.2-10.6,3.2h-2.3V76.4
		c-0.8,1.1-2.4,1.7-5.3,1.6c-8,6-21.8,13.3-35.5,17l-0.7-1c10-6.2,21.9-18.7,26.4-26l15.1,8.1v-11h-38.3l-0.7-2.9h39V49.5l16.7,1.5
		c-0.2,1.5-1,2.5-3.8,3v8h23L187.9,53z M105.7,14.7c25.9-1.5,16.7,18.4,6.1,11.8c-0.5-4.2-3.6-8.7-6.9-11L105.7,14.7z M111.6,37.6
		c1.9,0,2.3,0,3.8-1.7c2.8-2.9,2.8-2.9,24.5-28.1l1.4,0.6c-4.3,7.1-14.2,22.4-15.9,25.5c-1.1,2.4-2.2,4.9-2.2,6.8
		c0,3,3.7,5,3.5,10.3c-0.2,3.3-3,5.8-8.9,5.8c-2.3,0-4.4-1.5-5.2-3.7c1-6.7,0.6-11.1-1.6-12.3c-1.6-0.7-2.9-1.1-4.9-1.4v-1.9H111.6z
		 M114,2.4c25.8-4.6,21,16.7,9.8,12.1c-1.8-4.3-6.4-8.9-10.5-11.2L114,2.4z M151.9,16.7c0.4-5.2,0.2-10.3-0.2-15.5L169,2.5
		c-0.3,1.8-1.5,2.8-3.8,3.1c-0.1,3.8-0.4,7.4-0.9,11h5.3l5.8-6.2l10.5,8.5c-0.6,0.7-1.6,1.4-3.4,1.7v18.9c0,1.1,0.3,1.5,1.7,1.5h2.7
		h2.4c0.6,0,1.2-0.2,1.7-1c0.9-1.4,2.4-5.8,4-10.7h1.1l0.3,11.1c2.7,1.4,3.1,2.6,3.1,4.8c0,4.5-4.3,6.8-14,6.8h-5.4
		c-8.3,0-9.3-2.5-9.3-9.7V19.7h-6.9c-3,15.3-11.4,28.1-34.8,35.3l-0.8-1.2c15.5-8.5,21.6-20.9,23.5-34h-13.9l-0.9-3H151.9z
		 M161.2,71.3c42.4,0.2,41.4,25.5,27.7,22.2c-6.4-7.3-19.1-16.3-28.4-21.1L161.2,71.3z"/>
</g>
</svg>
