<?xml version="1.0" encoding="utf-8"?>
<!-- Generator: Adobe Illustrator 25.2.3, SVG Export Plug-In . SVG Version: 6.00 Build 0)  -->
<svg version="1.1" id="layer" xmlns="http://www.w3.org/2000/svg" xmlns:xlink="http://www.w3.org/1999/xlink" x="0px" y="0px"
	 viewBox="0 0 100 100" style="enable-background:new 0 0 100 100;" xml:space="preserve">
<style type="text/css">
	.st0{fill:#19100A;}
</style>
<g>
	<path class="st0" d="M34,51.5H18.8v16.1h-3.7V51.5H0v-3.5h15.2V32.4h3.7v15.7H34V51.5z"/>
	<path class="st0" d="M100,50.2c0,33.8-15.4,47.9-31.9,47.9c-16.8,0-31.9-14.1-31.9-47.9C36.3,16,51.4,1.9,68.1,1.9
		C84.6,1.9,100,16,100,50.2z M68.1,93.3c8,0,15.4-9.3,15.4-43.1c0-34.2-7.4-43.6-15.4-43.6c-8.3,0-15.5,9.3-15.5,43.6
		C52.6,84,59.9,93.3,68.1,93.3z"/>
</g>
</svg>
