<?xml version="1.0" encoding="utf-8"?>
<!-- Generator: Adobe Illustrator 25.2.3, SVG Export Plug-In . SVG Version: 6.00 Build 0)  -->
<svg version="1.1" id="layer" xmlns="http://www.w3.org/2000/svg" xmlns:xlink="http://www.w3.org/1999/xlink" x="0px" y="0px"
	 viewBox="0 0 400 100" style="enable-background:new 0 0 400 100;" xml:space="preserve">
<style type="text/css">
	.st0{fill:#19100A;}
</style>
<g>
	<path class="st0" d="M30,59.9V94c0,1.1-3.3,5-9,5h-2V69.2c-0.5,0.1-1.2,0.1-2.2,0C13.9,76.1,7.7,85,1,91l-1-1.2
		C4.2,82,6.7,70.6,7.6,63.1l11.3,4.6v-7.7H0.8l-0.8-3h18.9V44.3H4.5l-0.8-3H26c1.6-6.2,3-15.1,4-21.3l14.4,4.1
		c-0.4,1.2-1.6,2.2-3.8,2.1c-3.1,4.3-7.7,10.2-12.3,15.2h3.4l5.3-6.8c0,0,6.1,4.7,9.8,8.1c-0.3,1.1-1.4,1.7-2.8,1.7H30v12.6h4.9
		l5.5-7.4c0,0,6.3,5.2,10.1,8.7c-0.3,1.1-1.4,1.7-2.8,1.7H30z M2.4,19.5l-0.8-2.9h30.4l5.7-7.3c0,0,6.4,5,10.4,8.5
		c-0.3,1.1-1.4,1.7-2.8,1.7H2.4z M7.7,20.7c22.4,8.6,11.8,25.5,3.3,17.6c0.1-5.8-2.2-12.5-4.5-17.1L7.7,20.7z M14.8,1
		c24.3,3,13.3,20.5,4,13c-0.3-4.4-2.6-9.5-4.8-12.4L14.8,1z M31.9,64.3c24.1,9.5,13.2,27.2,4.4,18.8c-0.1-6.1-2.8-13.3-5.5-18.3
		L31.9,64.3z M95,86.1c2.5,1.1,2.8,2.4,2.8,4.3c0,3.8-3.2,6.1-12.9,6.1h-5c-7.5,0-8.4-2.2-8.4-8.5V62.8h-2.8
		c-1.8,18.7-10,29.7-31.2,35.8L37,97.2c13.7-7.3,18.6-16.4,20-29.3c-1.2,0.2-2.7,0.4-4.4,0.4h-2.1V4.6l12.6,4.9h15.4l5.7-6.8
		l10.9,8.6c-0.8,0.8-1.9,1.7-4.3,2v50.2c0,0.6-3.6,2.8-9.3,2.9v18.9c0,1.1,0.2,1.5,1.6,1.5h2.6h2.5c0.7-0.1,1-0.3,1.6-1.1
		c0.8-1.6,2.1-7,3.6-12.5h1.1L95,86.1z M61.9,12.4V26H79V12.4H61.9z M79,42.8V29H61.9v13.7H79z M61.9,45.8v14H79v-14H61.9z"/>
	<path class="st0" d="M197.4,19.6c-0.7,0.8-1.8,1.1-3.8,1.2c-3.1,3.2-8.3,7.6-12.5,10.1l-0.9-0.7c0.5-3.2,0.9-8,1.2-11.8h-64.5
		c0.7,7.5-2,12.7-5.5,14.9c-3.3,2.2-8.3,1.5-9.8-2.4c-1.1-3.6,1-6.6,4.2-8.1c3.7-2,7.8-7.3,7.5-13.1h1.5c0.8,2.1,1.4,4,1.8,5.8h31
		c-0.6-0.2-1.2-0.5-1.9-0.9c-0.5-4.8-3.8-9.8-7.3-12.5l0.7-0.6c21-1.2,20.4,11.3,13.7,14h27.7l6.1-6.3L197.4,19.6z M140.2,59.5
		c-4.6,0-7.7-0.3-9.8-1.1c-8.5,3.2-17.8,5.8-27.8,7.5l-0.6-1.6c8.8-2.7,17.1-6.1,24.9-10.2c-0.3-1-0.4-2.4-0.4-4V25.9l13.9,1.1
		c-0.2,1.5-1.1,2.3-3.1,2.7v18v0.3c12.7-8.2,23-17.9,29.2-27.9l12.3,8.1c-0.8,0.9-1.8,1.4-4.3,0.6c-6.2,7.6-15,14.7-25.8,20.8h6.1
		c4.9,0,9.3-0.1,10.9-0.2c1.6-0.2,2.4-0.4,3.1-1.1c1-1.4,2.5-4.6,4.3-8.9h1l0.4,9c3.3,1.1,4.3,2.3,4.3,4.4c0,4.8-4.6,6.7-25.1,6.7
		H140.2z M119.1,30.8c4.8,12.1,1.1,20.4-4.1,23.1c-3.5,2-8.3,0.9-9.6-2.9c-0.9-3.6,1.2-6.3,4.5-7.8c3.7-1.9,7.9-6.8,7.7-12.4H119.1z
		 M173.2,66.1l16,1.4c-0.1,1.4-0.9,2.5-3.7,2.9v26.2c0,0.8-5.3,2.7-10.2,2.7h-2.1v-7.1h-47.1l-3.8,5.5l-12.7-6.6
		c0.9-1,2.4-2.3,3.8-3.2V66.3l15.9,1.6c-0.2,1.6-1.1,2.6-3.8,3v18.4h17.7V61.7l15.6,1.2c-0.2,1.4-0.8,2.3-3.3,2.7v23.6h17.8V66.1z
		 M138.8,19.4c24.5,1.5,16,20.6,6.2,14c-0.4-4.9-3.7-10.4-7.1-13.4L138.8,19.4z M174.8,32.3c30.1,6.1,19.6,28.9,8.7,20.3
		c-0.5-7-4.8-14.8-9.6-19.6L174.8,32.3z"/>
	<path class="st0" d="M238.7,47.1c-3.1,2.2-7.4,4.8-12.7,7.9v29.1c0,8.5-1.7,13.4-14.6,14.7c-0.3-4.1-0.8-7.1-2.2-8.9
		c-1.5-2.1-3.5-3.3-7.9-4.2v-1.6c0,0,8.9,0.6,11,0.6c1.7,0,2.1-0.5,2.1-1.8V61.6l-5,2.6c-0.5,1.5-1.7,2.5-2.8,2.7L201,52.8
		c2.8-0.4,7.6-1.1,13.4-2.2V28.9h-11.9l-0.8-3h12.7V1.5l15.4,1.5c-0.3,1.6-1.4,2.6-3.8,2.9v20.1h0.5l5.1-8c0,0,5.9,5.6,9,9.4
		c-0.2,1.1-1.2,1.7-2.7,1.7h-12v19.4c4.1-0.7,8.3-1.7,12.5-2.5L238.7,47.1z M289.9,52.2c0,0,5.5,4.4,8.7,7.5
		c-0.2,1.1-1.2,1.7-2.7,1.7h-14.9c-1.9,6.8-4.8,12.9-9.7,18.3c31.3,10.5,16.8,23.7,7.4,17.7c-3.5-3.4-8.7-7.2-15.2-10.9
		C255.9,91.8,245,96.1,230,99l-0.7-1.4c12.6-4,21.4-8.9,27.7-14.9c-5.8-3-12.4-5.9-19.7-8.4c1.9-3,4.2-7.9,6.3-13H230l-0.8-2.9h15.6
		c2.6-6.1,4.8-12.2,5.8-15.7l15.1,3.3c-0.3,1.1-1.1,2.3-4.3,2.4c-1.1,2.7-2.5,6.2-4.2,10h12.5c0.6-3.5,0.9-7.2,1-10.8l15.9,2.3
		c-0.2,1.7-1.6,2.5-4,2.6c-0.3,2-0.6,4-1,5.9h3.3L289.9,52.2z M286,32.1c0,0,7,5.3,11,9c-0.2,1.1-1.2,1.7-2.7,1.7h-61.6l-0.8-3h36.2
		c2.3-6.1,4.5-14.1,5.7-20.1l15,3.7c-0.5,1.2-1.7,2.2-4,2.1c-3.2,4.3-8.4,9.8-13.6,14.2h8.7L286,32.1z M237.1,19.3l-0.8-3h41.4
		l5.8-7.7c0,0,6.8,5.3,10.7,9c-0.3,1.1-1.4,1.7-2.9,1.7H237.1z M243.8,20c24.5,7,14.8,25,5.5,17.6c-0.6-5.7-3.7-12.5-6.6-17
		L243.8,20z M256,61.4c-2.2,4.8-4.4,9.6-6.3,13c4.6,0.8,8.7,1.7,12.4,2.6c3.5-4.8,5.7-10.1,7.1-15.6H256z M254.7,0.8
		c25.4,2.5,14.6,21.3,4.7,13.5c-0.2-4.6-2.8-9.9-5.5-12.9L254.7,0.8z"/>
	<path class="st0" d="M400,40.8c-0.7,0.9-2,1.6-4.3,1.9c-0.5,34.2-1.6,47.4-6.3,52.2c-2.9,3.1-7.1,4.1-12.6,4.2c0-3-0.4-5.2-1.9-6.7
		c-1.6-1.7-4.8-2.8-8.7-3.6l0.1-1.5c3.7,0.3,9.5,0.7,11.5,0.7c1.8,0,2.5-0.3,3.4-1.1c2.7-2.7,3.5-17.1,4-45.9h-24.3
		c-2.5,3.6-5.3,6.8-8.3,9.6l4.4,1.8h3.2v-8.5l10.3,1c-0.1,1.1-0.9,2-3,2.3v5.2h4.6l3.7-4.2l7.8,5.9c-0.6,0.7-1.6,1.2-3.5,1.6V70
		c0,0.4-2.8,2-6.4,2h-1.2v-2.8h-4.9v9.4l5.3-0.6c-0.8-2-2-3.8-2.9-5.2l1.1-0.6c17.7,5.5,9.8,17.7,3.4,12.1c-0.1-1.1-0.3-2.5-0.7-3.7
		c-5.5,2.3-12.9,5.2-22.6,8.5c-0.5,1.4-1.5,2.1-2.6,2.4l-4.6-10.7c3.4-0.2,9.3-0.7,16.2-1.4V69.2h-4.5V71c0,0.5-2.4,2.1-6.1,2.1
		h-1.2V54.1c-2.1,1.6-4.2,2.9-6.3,4.2v29.1c0,6.8-1.4,10.6-12,11.5c-0.2-2.8-0.6-5.1-1.8-6.4c-1.2-1.5-3.1-2.4-7.1-3.1v-1.5
		c0,0,7.8,0.5,9.7,0.5c1.6,0,1.9-0.6,1.9-2V66.2h-17.3c-1,11.4-4.2,23.5-13,32.8l-1.2-1c5.9-14,5.9-31.5,5.9-47v-17
		c-1.6,1.8-3.3,3.3-5,4.8l-1.5-0.9c5.3-8.9,10.4-22.9,13-36.5l13.7,4.3c-0.4,1.2-1.7,2.2-4,2.1c-0.7,1.9-1.6,3.6-2.4,5.4h5.2
		l5.1-5.3l9.2,8.3c-0.7,0.8-2,1-4,1.1c-3,3.2-7.4,7.7-11.5,10.8h6.8l4.3-4.9l9.6,7.3c-0.6,0.7-1.9,1.5-3.6,1.8v22.4
		c4.7-5.9,8.8-13.8,11.8-22.6c-1.5,0.6-3.5,1.1-6.2,1.1h-1.6V4.7l10.5,4.2h28.4l4.4-5.2l9.5,7c-0.7,0.8-1.8,1.5-3.8,1.9v17.4
		c0,0.4-3.2,2.1-8,2.1h-1.7v-3.2h-24.8l8.8,3.3c-0.5,1.4-1.9,2.2-4.2,2c-0.7,1.4-1.5,2.7-2.2,4h21.3l5.6-5.8L400,40.8z M319.6,15.9
		c-2,3.7-4.1,7.2-6.3,10.4l4.4,1.7h4.7c1.7-3.4,3.2-8.3,4.3-12.1H319.6z M316.1,50.8c0,3.8,0,8.1-0.3,12.5h4.7V48.4h-4.4V50.8z
		 M316.1,45.4h4.4V31h-4.4V45.4z M328.1,31v14.4h4.6V31H328.1z M332.7,63.3V48.4h-4.6v14.9H332.7z M355.4,11.9v13.8h5.3V11.9H355.4z
		 M355.7,55.3v10.9h4.5V55.3H355.7z M367.3,11.9v13.8h5.6V11.9H367.3z M367.4,55.3v10.9h4.9V55.3H367.4z M379.7,11.9v13.8h5.4V11.9
		H379.7z"/>
</g>
</svg>
