<?xml version="1.0" encoding="utf-8"?>
<!-- Generator: Adobe Illustrator 25.2.3, SVG Export Plug-In . SVG Version: 6.00 Build 0)  -->
<svg version="1.1" id="layer" xmlns="http://www.w3.org/2000/svg" xmlns:xlink="http://www.w3.org/1999/xlink" x="0px" y="0px"
	 viewBox="0 0 700 100" style="enable-background:new 0 0 700 100;" xml:space="preserve">
<style type="text/css">
	.st0{fill:#19100A;}
</style>
<path class="st0" d="M81,25.3c0.7-2.4,1.6-5.7,2.1-8.6H67.6v0.9v8.1c0,1.2,0.2,1.6,2.8,1.6H78c2.6,0,5.2,0,6.6-0.1
	c0.8,0,2.2-0.1,2.9-0.2s1.9-0.3,2.8-0.6h0.9l0.5,0.2c3.1,1,4.1,2.2,4,4c0,3.5-2.5,5-13.2,5.3c2.1,1.9,5,4.2,7.1,6.1
	c-0.3,1.1-1.5,1.7-2.9,1.7H69.5v14.8h9.4l6.4-8.8c0,0,7.5,6,11.8,10.2c-0.2,1.1-1.4,1.7-2.8,1.7H69.5v24.3c0,7.5-2,12-16,13
	c-0.2-3.2-0.8-5.7-2.7-7.2c-1.7-1.5-4.2-2.6-9.8-3.4v-1.5c0,0,11.9,0.7,14.2,0.7c1.8,0,2.3-0.7,2.3-2V69
	c-13,12.6-32.4,22.2-55.2,27.8l-0.7-1.4c19.7-8.1,36.7-21.2,46.5-34H27.6l-4.3,4.9l-10.6-6.9c1-0.8,2.6-1.8,4.2-2.4
	c1.5-4.1,3.2-9.5,4.4-13.4h-8.7l-0.8-2.9H73l3.6-4.8h-0.1h-9.3c-9.7,0-11.2-2.1-11.2-8.7V16.7H37.7l9.5,6.3c-0.6,1.4-2.3,2-5.4,1.7
	c-8.3,5.9-22.3,12.6-36.5,15.6l-0.8-1.1C14.8,34,26.6,23.9,32.6,16.7H15.1c0.6,6.4-1.8,11.1-5.2,13c-3.4,1.8-7.9,0.7-9.2-3
	c-0.9-3.7,1.2-6.3,4.5-7.8c3.2-1.9,6.1-6.8,5.4-12l1.5-0.1c1.1,2.4,1.9,4.7,2.4,6.9h33.6c-0.7-0.3-1.4-0.7-2.1-1.2
	c-0.2-4-2.3-8.3-4.5-10.7l0.8-0.5c18.3,0.2,17.2,10.1,11.2,12.5h28.8l6.2-6.4l11.2,10.6c-0.7,0.9-1.9,1.1-4,1.2
	c-3.5,2.5-9.7,5.4-14,7L81,25.3z M57.6,43.6H33.1c-1.5,4.4-3.6,10.3-5.2,14.8h29.6V43.6z"/>
<path class="st0" d="M140,53.5c-0.6,1-1.7,1.2-3.8,1.5c-2.7,7.7-8.1,15.9-15.5,22.3c0.3,0.2,0.6,0.4,0.9,0.6c8.1,6.6,20.8,8,43.7,8
	c12.2-0.1,22-0.1,34.3-0.7v1.4c-5,0.9-7.8,5.4-8.3,10H161c-22.7,0-31.9-4-40.7-14.8c-1.5-2-2.6-1.8-3.4,0.1
	c-1.8,3.1-4.4,8.6-6.7,13.8c0.3,0.9,0,1.6-0.7,2.1l-8.4-11.8c5.5-2.9,13.6-8.8,16.2-9.4c3.3-6.4,6-15.1,7.2-22.5h-7l-3.7,3.3
	l-9.3-6.7c1-0.6,2.6-1.5,4.2-2c3.3-4.8,7.7-11.9,10.4-17H104l-0.9-2.9h16.2l5.1-5.2l10.2,9.3c-0.9,1-3,1.6-5.5,1.7
	c-2.6,4.6-7.1,11.5-10.4,16.5h5.1l5.9-5.9L140,53.5z M107.1,2.9c28.7,2.4,19.4,24.2,8.3,16.7c-1.1-5.7-5.3-12.2-9.3-16.1L107.1,2.9z
	 M158,13.8c-6.7,0.4-13.3,0.5-19.6,0.4l-0.4-1.6c14.6-2.4,32.8-7.5,42-11.6l10.6,10.1c-1,0.9-3.2,1.1-6.2-0.1
	c-4.3,0.8-9.5,1.5-15.2,2v10.3h10.3l5.8-7.5c0,0,7,5.1,11.1,8.8c-0.3,1.1-1.5,1.7-2.9,1.7h-24.3v1.1c36.5,3.6,30.3,23.1,20.3,18.7
	c-3.1-4-10.7-10.6-20.3-16.1v13.2c0,0.5-3.5,2.4-9.3,2.4h-2V34.9c-6.2,5.4-14.1,9.7-23.1,13l-0.9-1.5c8-5.2,14.4-12.5,18.5-20.2
	h-18.6l-0.8-3h25V13.8z M162.1,72.6c4.2,0.3,11.2,0.8,13.2,0.8c1.7,0,2.5-0.2,3.2-0.7c1.5-0.9,2.8-4.9,3.6-10.6h-5.9l-4.4,4.5
	l-9.7-7c1.1-0.8,2.8-1.7,4.5-2.2c0.8-2.3,1.9-4.9,2.6-7.2h-7.5c-2.7,14.9-10.5,25.6-25.2,32.3l-0.6-1.4c9.7-8.2,13.2-18.8,14-31
	h-10.2l-0.9-2.9h30l4.3-5l10.1,7.8c-0.6,0.8-2,1.5-3.7,1.9c-0.8,2.1-1.9,4.8-2.8,7.2h4.9l5.1-5l9.7,7.9c-0.7,0.7-1.9,1.2-4,1.6
	c-1.2,9.3-3.6,15.2-7.9,17.8C182,83,178.2,84,173.3,84c0-2.6-0.4-5.1-2.1-6.6c-1.6-1.5-5.2-2.6-9.3-3.3L162.1,72.6z"/>
<path class="st0" d="M222.6,14.8h-20.5l-0.8-3h20.9l-1.2-10.4l15.3,1c-0.1,1.1-0.8,2.3-2.9,2.9l0.8,6.4h1.8l5.4-7.7
	c0,0,6.2,5.3,9.9,9c-0.2,1.1-1.2,1.7-2.7,1.7h-13.9l0.6,4.5c-1.8,2.3-6.2,3.3-11.6,3.2L222.6,14.8z M286.5,26.7
	c0,0,6.6,5.2,10.5,8.8c-0.2,1.1-1.2,1.7-2.7,1.7h-17v11.1c0,1.2-5.4,4-9.8,4H266v-4h-14.6v2.2c0,1-5.3,3.1-9.7,3.1h-1.9V37.2h-10.6
	v18.4h48.6l5.9-7.3c0,0,6.8,4.9,10.8,8.6c-0.3,1.1-1.2,1.7-2.8,1.7h-7.4c2,1.6,7.8,6.3,11.4,9.7c-0.3,1.1-1.2,1.7-2.8,1.7h-36.5v26
	c0,0.9-5.6,3-10.7,3h-2.2v-29h-38l-0.8-3h38.8V59l16.7,1.6c-0.2,1.4-1,2.4-3.8,2.8v3.5H277l6.3-8.3H230l-3.8,5.2l-12.4-6.3
	c0.9-1,2.5-2.3,4-3.2V37.2h-12.5l-0.7-3h13.2V22.9l15,1.6c-0.3,1.4-1.1,2.3-3.4,2.6v7.1h10.6V22.6l15,1.4c-0.1,1.2-0.8,2.2-3.4,2.6
	v7.6H266V23.3l14.5,1.1c-0.2,1.2-0.8,2.1-3.1,2.5v7.2h3.3L286.5,26.7z M205.9,95.8c7.2-5.3,18.5-17.6,22.9-23.6l14.6,7.8
	c-0.6,1.2-2.4,1.9-5.4,1.7c-7.3,4.6-20.3,11.3-31.2,15.2L205.9,95.8z M266,37.2h-14.6v8.1H266V37.2z M289.5,4.1c0,0,6.3,5.3,10,9
	c-0.3,1.1-1.4,1.7-2.8,1.7h-20.3l-0.9,5.8c-2.3,1.7-7.1,2.4-12.1,1.4l1.1-7.2h-10.7l-0.8-3H265l1.7-10.5l15.1,2.6
	c-0.2,1.2-1.1,2.4-4,2.6l-0.9,5.3h7.1L289.5,4.1z M261.1,74.9c36.7,2.8,34.2,24.8,22.4,20.9c-4.9-6.8-15.5-15.2-23.2-20L261.1,74.9z
	"/>
<path class="st0" d="M309.8,68.5c4,10.3,3.4,18.2,0.7,22.2c-2,2.7-7.1,2.9-8.9-0.3c-1.6-2.9-0.1-5.9,2.5-8c2.3-2.4,4.9-8.7,4.1-13.8
	H309.8z M358.5,52.7c-0.6,1-1.6,1.2-3.7,1.4c-1.8,7.8-5.8,16.1-12.4,22.5c0.4,0.2,0.7,0.5,1.2,0.9c6.3,6.2,15.5,8.1,31.8,8.1
	c8.3,0,16,0,24.4-0.6v1.4c-4,0.8-6.1,5.2-6.6,10.3h-20.9c-16.6,0-23.6-5-30.4-15.4c-1.4-2.1-2.3-1.8-2.9,0.2
	c-1.1,3.5-1.9,9.2-2.6,14c0.2,0.9,0,1.5-0.6,2l-8.6-11.4c3.8-2.9,9.5-9,11.8-9.9c3.6-6.4,5.7-15.1,6.6-22.7h-2.3l-4,4.3l-6.9-5
	c6,8.1,0.1,15.3-5.2,10.5c-0.1-1.9-0.4-3.8-0.9-5.9c-4.6,2-10.9,4.6-17.5,7.1c-0.9,1.4-2.1,2.2-3.2,2.5l-3.4-11.6
	c0,0,2.3-0.5,3.1-1.1c4.1-3.7,8.8-10.9,12.7-18.1c-2.7,1.1-5.5,2.5-8.6,3.8c-0.7,1.1-1.6,1.9-2.5,2.3l-4.8-11.6c0,0,2-0.5,2.8-1.1
	c4-5.2,8.8-19.7,10.1-27.5l13.4,6c-0.4,0.9-1.6,1.8-3.5,1.7c-4,6.8-10.4,15.7-16.1,21.5c3.3,0.1,7.4,0.1,11.6,0c1.7-3.3,3-6.4,3.8-9
	l9.8,6.9h6.2l4.1-4.6l9.4,7.5c-0.8,0.9-2.8,1.7-5.1,2c-1.4,4.5-3.5,11.5-5.2,16.6h1.4l5-4.9l4.9,4v-0.1h13.1v-8.9l13.8,1.4
	c-0.2,1.4-1,2.3-3.5,2.7v4.9h2.9l4.9-6.2c0,0,5.5,4.4,8.8,7.6c-0.2,1.1-1.2,1.7-2.7,1.7h-13.9V60h1l5-6.4c0,0,5.7,4.5,8.9,7.7
	c-0.3,1.1-1.4,1.7-2.6,1.7h-12.4v8h6.2l4.9-6.2c0,0,5.3,4.4,8.6,7.6c-0.2,1.1-1.2,1.7-2.6,1.7h-17.2v7.4c0,0.8-4.6,2.7-8.5,2.7h-1.8
	V74h-13.4l-0.8-3h14.2v-8h-10.8l-0.8-2.9h11.6v-7.7h-9.7L358.5,52.7z M322.8,45.2c3.5,1.8,6.2,3.7,8.1,5.7c1-0.7,2.5-1.4,3.8-1.9
	c1.7-5,3.8-12.1,5.1-17.2h-7.2l-0.2-0.7l-0.6-0.1c-4.8,7.3-13.8,17.4-21.9,24.3c4.4-0.2,9.9-0.6,15.5-0.9c-1-3.2-2.5-6.3-3.8-8.7
	L322.8,45.2z M316.6,67.4c15.8,11.2,5.9,24.2-0.1,17.2c0.7-5.6-0.1-12.2-1.2-16.7L316.6,67.4z M324.7,65c17.1,4.8,9.3,17.2,2.8,11.8
	c0-3.7-2-8.4-4-11.1L324.7,65z M334.9,4.5c24.2,5.8,16,23.3,7,16.7c-1.1-5.4-5-11.9-8-16.1L334.9,4.5z M351.8,41.9
	c7.8-3.2,14.6-7.8,19.9-13.2c-3.3-2.4-6.7-4.7-9.7-6.6c-2.7,2.8-5.4,5.4-8.5,7.5l-1.1-0.7c4.6-6.9,8.4-18.5,10.2-27.7l14.7,3
	c-0.3,1.1-1.1,1.6-3.7,1.5c-1.2,2.4-2.6,4.8-4.2,7.2h11.2l5.7-5.4l9.5,8.1c-0.7,1-1.8,1.4-4.2,1.5c-1.7,3.3-4,6.4-6.7,9.3
	c14.4,7.7,11.5,17.9,3.1,15.8c-2.7-2.7-6.6-6-10.7-9.3c-6.8,4.7-15.1,8.3-24.6,10.5L351.8,41.9z M367.1,15.9c-0.9,1.4-2,2.6-3,4
	c4.8,0.7,8.8,1.8,12.4,2.9c1.6-2.2,2.8-4.5,3.8-6.9H367.1z"/>
<path class="st0" d="M446.5,24.1c-0.7,0.9-2.3,1.8-4.4,2.2v62c-0.1,0.8-5.6,3.4-9.7,3.4h-1.8v-8.2h-15.8v7.7c0,1.4-4.4,4-9.4,4h-1.9
	V16.5l11.6,4.9h0.6c0.7-5.7,1.7-13.8,2.2-19.7L435,5.7c-0.4,1.8-1.9,2.5-4.3,2.5c-2.7,3.6-6.8,9-10.1,13.1h9l5.5-6.2L446.5,24.1z
	 M414.9,24.4v25.8h15.8V24.4H414.9z M430.7,80.5V53.2h-15.8v27.4H430.7z M497.3,24.1c-0.8,0.9-2.2,1.7-4.6,2
	c-0.7,41.9-2.2,60.9-7.9,67.1c-3.7,4-8.3,5.6-15.2,5.6c0-4-0.5-6.9-2.3-8.5c-1.9-2-5.9-3.6-11-4.6l0.1-1.5c5,0.4,12.2,0.9,14.9,0.9
	c1.9,0,2.8-0.4,3.8-1.4c3.8-3.5,4.9-24.2,5.6-59.7h-19.3c-5,8.8-10.9,16.2-17.6,21.8l-1.4-0.8c5.7-10.6,11.3-27.6,14-43.5L473,6.4
	c-0.4,1.4-1.7,2.1-4.1,2.1c-1.8,4.5-3.6,8.6-5.8,12.6h16.5l6.6-6.8L497.3,24.1z M451.3,42.3c30.4,8.9,19,31.4,8,22.2
	c-0.5-7.4-4.7-15.8-8.8-21.5L451.3,42.3z"/>
<path class="st0" d="M587.2,52.9l10.3,8.5c-0.8,0.9-2.1,1.5-4.3,1.8c-1.8,18.9-5.1,28.7-10.5,32.6c-3.2,2.3-7.2,3.3-12,3.2
	c0-3.1-0.3-5.7-1.6-7.3c-1.2-1.6-3.5-2.7-7.1-3.4l0.1-1.5c2.9,0.2,7.9,0.5,10,0.5c1.6,0,2.5-0.2,3.4-0.8c2.7-2.1,5.3-10.5,6.7-25.1
	h-2.7C573,78.5,559.9,91,539,99l-1-1.6c15.2-8.5,25-21.1,30.1-36.1h-3.1C557.6,74.1,545,84,529.5,90.8l-1-1.6
	c11-7.2,20.1-17.3,25.6-27.9h-3.4c-5.6,5.8-12.8,10.5-21.3,14.2l-0.2-0.4c-2.2,1.7-5.3,2.5-9.4,2.6c0-3-0.4-7.4-1.2-8.7
	c-0.6-1.1-2.2-2-4.2-2.5v28.8c0,0.8-3.5,3.6-9,3.6h-2v-95l12.4,4.8h6.9l6-5.8l11.1,10.6c-0.8,0.9-2.3,1.2-4.6,1.2
	c-3.5,6.2-9.9,16.5-15,22.8C529.7,44.4,534,54,534,62.1c0,3.3-0.4,6.1-1.4,8.5c6.1-5.7,10.8-12.9,13.8-20.4h-13.1l-0.8-3h48.6l5.8-8
	c0,0,6.9,5.5,10.9,9.4c-0.3,1.1-1.4,1.7-2.8,1.7h-36.3c-1.6,2.9-3.3,5.6-5.5,8.2h28.3L587.2,52.9z M519,65.2c1,0,1.7-0.1,2.4-0.5
	c1.1-0.7,1.9-2.6,1.9-5.7c0-6.8-1.4-14.4-5.7-21c1.9-6.6,4.4-18.2,5.8-26.2h-9v53.5H519z M551.3,41.1c0,0.8-3.4,2.7-8.9,2.7h-1.9
	V3.6l11.9,4.6h22.2l5.3-5.9l10.3,7.7c-0.7,0.9-1.7,1.6-3.8,2v27.6c0,0.4-3.7,2.5-9.4,2.5h-2v-4h-23.6V41.1z M551.3,11.2v10.5h23.6
	V11.2H551.3z M574.9,35V24.7h-23.6V35H574.9z"/>
<path class="st0" d="M695.9,83.2c3.3,1.4,4.1,2.8,4.1,5.3c0,5.1-4.5,7.5-21.6,7.5H668c-10.6,0-13.1-2.3-13.1-10.9V45.5h-11
	c-2,26.1-11.1,44.4-42,53.4l-0.5-1.1c22.5-12.3,28-29.7,28.6-52.2h-27.5l-0.8-3h42.2V1.3l16.5,1.5c-0.2,1.5-1,2.5-3.8,2.9v36.8h23.3
	l7.1-8.8c0,0,7.8,5.9,12.6,10.2c-0.3,1.1-1.5,1.7-2.9,1.7h-29.3v1.7V82c0,1.7,0.6,2.3,3.7,2.3h8.5c3.1,0,5.7-0.1,7.2-0.2
	c1.4-0.1,1.9-0.4,2.6-1.6c1.1-2.2,2.9-8.4,5-15.8h1.1L695.9,83.2z M611.9,8c33.4,11.8,21.9,37.3,9.7,26.9c-0.7-9-5.5-19.1-10.6-26.3
	L611.9,8z M693.5,14.6c-0.5,1.1-2,2-4.3,1.7c-7.4,8.4-16,16.2-24.1,21.6l-1.1-0.8c3.8-7.2,9-19.2,12.9-30L693.5,14.6z"/>
</svg>
