<?xml version="1.0" encoding="utf-8"?>
<!-- Generator: Adobe Illustrator 25.2.3, SVG Export Plug-In . SVG Version: 6.00 Build 0)  -->
<svg version="1.1" id="layer" xmlns="http://www.w3.org/2000/svg" xmlns:xlink="http://www.w3.org/1999/xlink" x="0px" y="0px"
	 viewBox="0 0 200 100" style="enable-background:new 0 0 200 100;" xml:space="preserve">
<style type="text/css">
	.st0{fill:#19100A;}
</style>
<g>
	<path class="st0" d="M29,30.3v9.3c25,8,15,25.6,6.2,17.9c-0.6-5.1-3.4-11-6.2-15.5v53.9c0,1-5,3.4-9.5,3.4h-2.4V55.9
		C12.8,63,7.5,69.4,1.2,75l-1.4-1.1c7.8-11.9,13-28.2,15.8-43.6H3.1l-0.8-2.9h14.9V1.9l15.7,1.6c-0.3,1.6-1,2.5-3.8,2.9v21h1.7
		l5.3-8.1c0,0,5.9,5.7,9.3,9.4c-0.3,1.1-1.4,1.7-2.8,1.7H29z M97.8,13.5c-0.7,0.8-2.1,1.7-4.3,2.2v78.5c-0.1,0.9-5.7,3.8-10.3,3.8
		h-1.9V87.9H58.3v6c0,1.7-4.6,4.7-10,4.7h-2V5.4l12.5,5.3h21.5l5.9-6.6L97.8,13.5z M58.3,13.6v21.3h23.1V13.6H58.3z M58.3,37.9v21.5
		h23.1V37.9H58.3z M81.4,85V62.5H58.3V85H81.4z"/>
	<path class="st0" d="M104.3,41.7c2.4-0.2,5.8-0.6,10-1V11.2h-8.6l-0.8-3h39.3l6.1-7.4c0,0,7,5.1,11.2,8.7c-0.2,1.1-1.4,1.7-2.8,1.7
		h-8.5v37.6c0,0.5-3.5,2.5-9.4,2.5h-2V40.5c-6.2,2.6-14.2,5.8-25.2,9.8c-0.6,1.4-1.6,2.2-2.6,2.5L104.3,41.7z M137.2,64.7
		c-0.4,1.2-1.9,2.2-4.2,2c-0.7,1.5-1.6,2.9-2.4,4.3c20.4,8,11.8,23.9,2.9,17c-0.6-4.3-2.9-9.2-5.5-13.2c-6,8-13.7,13.3-22.4,16.7
		l-1.1-1.1c7.9-6.7,14.9-17.9,18-31.1L137.2,64.7z M186.1,62.5c-0.4,1.4-1.8,2.3-4.1,2.2c-0.5,1.2-1.1,2.5-1.8,3.7
		c4.1,5.9,11,10.4,18.1,12.3l-0.1,1.1c-3.8,1.1-6.4,4.5-7.6,10c-5.9-4.6-9.7-11.2-12.1-20.4c-5.1,8.8-11.8,15.2-19.7,19.2l-1.1-0.9
		v6.1c0,0.7-3.8,3.3-10,3.3h-2.3V58c-10.3,0.6-20.8,0.8-30.6,0.7l-0.2-1.8c21.3-2.4,48.9-7.8,63.1-12.3l10.4,10.7
		c-1.1,0.8-3.4,0.8-6.6-0.5c-6.9,0.9-15,1.8-23.9,2.4v32.2c6.3-7.4,11.4-18.7,13.7-31.5L186.1,62.5z M125.4,11.2v7.4h13.4v-7.4
		H125.4z M125.4,28.6h13.4v-7h-13.4V28.6z M125.4,39.3c4.3-0.5,8.7-1.1,13.4-1.8v-5.9h-13.4V39.3z M200,14.7c-0.7,1-1.8,1.4-4,1.5
		c-2.2,4.7-5.1,8.9-8.7,12.9c16.4,10.4,9.6,21.7,1.6,17.5c-1.9-2.8-5.1-6.4-9.5-10.4c-6.6,4.9-14.5,8.8-24,11.4l-0.7-1.4
		c7.8-3.7,14.2-8.8,19.2-14.9c-4.8-4-10.5-7.9-16.8-11.4l0.6-1.2c8.7,1.7,15.6,3.7,21.1,6c2-3.1,3.6-6.4,4.9-9.9h-27.1l-0.9-3h27.9
		l6.2-5.9L200,14.7z"/>
</g>
</svg>
