<?xml version="1.0" encoding="utf-8"?>
<!-- Generator: Adobe Illustrator 25.2.3, SVG Export Plug-In . SVG Version: 6.00 Build 0)  -->
<svg version="1.1" id="layer" xmlns="http://www.w3.org/2000/svg" xmlns:xlink="http://www.w3.org/1999/xlink" x="0px" y="0px"
	 viewBox="0 0 500 100" style="enable-background:new 0 0 500 100;" xml:space="preserve">
<style type="text/css">
	.st0{fill:#19100A;}
</style>
<g>
	<path class="st0" d="M16.6,38.5v-9.7H4.8L4,25.9h12.6v-9.2H2.3l-0.8-2.9h15.1V1.5l15,1.4c-0.2,1.4-1,2.3-3.5,2.7v8.3h4.3l5.2-6.8
		c0,0,5.9,4.7,9.6,8c-0.3,1.1-1.2,1.7-2.7,1.7H28v9.2h2.9l4.8-6.1c0,0,5.4,4.3,8.7,7.4c-0.2,1.1-1.2,1.7-2.7,1.7H28v9.7h5.5l5.3-6.8
		c0,0,6,4.8,9.7,8c-0.3,1.1-1.4,1.7-2.8,1.7H0.5l-0.8-2.9H16.6z M92.6,46c0,0,4.2,4.2,6.3,7.1c-0.3,1.1-1.1,1.7-2.5,1.7h-7v18.6
		c-0.1,0.7-5.2,2.7-8.6,2.7h-1.8v-5.4h-7.3v13.9c0,7.6-1.8,13.2-13.8,14.2c-0.1-3.5-0.7-6.3-2-7.9c-1.5-1.8-3.6-3-8.5-3.7v-1.7
		c0,0,9.7,0.7,11.8,0.7c1.7,0,2.1-0.6,2.1-1.9V70.6H48.7l-0.9-3h13.5V54.7H46l-0.5-2.1c-0.7,0.7-2,1.5-3.8,1.9v32.8
		c0,6.9-1.5,10.6-12.9,11.5c-0.1-2.8-0.4-5.2-1.6-6.7c-1.1-1.4-2.8-2.4-6.6-3v-1.5c0,0,6.9,0.4,8.6,0.4c1.5,0,1.9-0.6,1.9-1.8V75.1
		H15.3C14.1,83.4,10.5,92.6,1.1,99l-0.9-1c5.3-10,5.2-22.6,5.2-33.4V45.3l12.4,4.6h12.4l4.7-5.4l10.6,7.9l-0.2-0.6h16.1V39.3H49.5
		l-0.9-2.9h29.6l4.8-5l9.7,7.4c-0.5,0.6-1.7,1.2-3.2,1.6V51L92.6,46z M31.1,72.2v-8H15.9v0.4c0,2.3-0.1,4.9-0.3,7.6H31.1z
		 M15.9,52.9v8.3h15.2v-8.3H15.9z M95.1,11.1c-1.1,1-3.4,1.1-6.3,0.1c-10.7,1.6-28.1,2.3-42,2l-0.4-1.7C59.2,9.2,75.5,4.4,84.1,0.8
		L95.1,11.1z M48.7,16.6c19.7,7.8,10.4,22,3.2,15.4c0-5-2.3-10.9-4.4-14.8L48.7,16.6z M61.5,15.2c19.8,7.9,10.4,23.2,3.2,16.4
		c0.5-5.4-1.8-11.8-4.4-15.8L61.5,15.2z M71.8,51.7h7.3V39.3h-7.3V51.7z M79.1,54.7h-7.3v12.9h7.3V54.7z M74.8,34
		c2.3-5.2,5.1-13.4,7.2-20.9l13.7,5.3c-0.5,1.2-1.8,2.1-4.1,1.9c-4.7,5.5-10.3,11-15.4,14.5L74.8,34z"/>
	<path class="st0" d="M187.4,81.3c0,0,8.4,6.6,13.6,11c-0.3,1.1-1.5,1.7-3,1.7h-93.9l-0.8-3h15.9V26.7l17,1.6c-0.2,1.6-1,2.6-3.8,3
		v59.7h16v-88l17,1.7c-0.2,1.6-0.8,2.6-3.6,3v34.8h12.7l7.4-9.5c0,0,8.4,6.4,13.4,10.8c-0.3,1.1-1.6,1.7-3,1.7h-30.5v45.5h18.2
		L187.4,81.3z"/>
	<path class="st0" d="M251.2,24.2c-0.7,0.9-2.3,1.8-4.4,2.2v62c-0.1,0.8-5.6,3.4-9.7,3.4h-1.8v-8.2h-15.8v7.7c0,1.4-4.4,4-9.4,4
		h-1.9V16.6l11.6,4.9h0.6c0.7-5.7,1.7-13.8,2.2-19.7l16.8,4.1c-0.4,1.8-1.9,2.5-4.3,2.5c-2.7,3.6-6.8,9-10.1,13.1h9l5.5-6.2
		L251.2,24.2z M219.6,24.5v25.8h15.8V24.5H219.6z M235.4,80.6V53.3h-15.8v27.4H235.4z M302,24.2c-0.8,0.9-2.2,1.7-4.6,2
		c-0.7,41.9-2.2,60.9-7.9,67.1c-3.7,4-8.3,5.6-15.2,5.6c0-4-0.5-6.9-2.3-8.5c-1.9-2-5.9-3.6-11-4.6l0.1-1.5c5,0.4,12.2,0.9,14.9,0.9
		c1.9,0,2.8-0.4,3.8-1.4c3.8-3.5,4.9-24.2,5.6-59.7h-19.3c-5,8.8-10.9,16.2-17.6,21.8l-1.4-0.8c5.7-10.6,11.3-27.6,14-43.5l16.4,4.8
		c-0.4,1.4-1.7,2.1-4.1,2.1c-1.8,4.5-3.6,8.6-5.8,12.6h16.5l6.6-6.8L302,24.2z M256,42.4c30.4,8.9,19,31.4,8,22.2
		c-0.5-7.4-4.7-15.8-8.8-21.5L256,42.4z"/>
	<path class="st0" d="M388.5,56.6c-0.7,0.8-2.2,1.8-4.4,2.3v37c-0.1,0.7-6.4,3-10.6,3h-2.1V56.7h-38.7c-2.2,17.3-9.4,33-27.5,42.2
		l-0.9-0.8c13.8-14.4,16.8-33.9,16.8-54.5V4.3l16.2,1.6c-0.3,1.5-1,2.6-3.8,3v22.7h33.9v-30l16.6,1.4c-0.2,1.5-0.9,2.6-4,3.1v23.6
		c1.2,1,2.4,2.2,3.4,3.2c-0.2,1.1-1.2,1.7-2.6,1.7h-47.4v9c0,3.3-0.2,6.8-0.5,10.1h37.3l5.8-6.4L388.5,56.6z"/>
	<path class="st0" d="M402,97.4c19.8-10.9,35.7-26,46.9-49.9l14.7,7.6c-0.8,1.2-1.9,1.6-4.5,1.2c-4.6,6.8-9.4,12.6-14.7,17.8
		c26.5,9.7,17.1,29.7,6.2,21.6c-1.5-6.2-5.4-13.2-9.3-18.8c-11.1,9.9-23.8,17-38.8,22L402,97.4z M475.3,71.5c0,0.9-4.8,3.1-9,3.1h-2
		V20.1c-0.5,0.7-1.4,1-2.5,1h-38l13.3,5.6c-0.4,0.9-1.6,1.7-3.6,1.5C429,32.5,422,38,416,41.5c5.2,0,11.8,0,18.9-0.1
		c2.4-4.2,4.6-8.5,6.7-13.1l14.2,7c-0.7,1.2-1.9,1.6-4.3,1.2c-12.1,19.1-27.6,31.9-47.6,40.4l-0.8-1.5c11.4-7.5,21-17,28.8-29.1
		c-5.2,1.6-11.2,3.2-17.8,4.9c-1,1.2-2.2,2-3.3,2.3L406.7,41c0,0,4.7-0.7,5.8-1.5c3.5-3,7.4-12.7,9-18.4h-18.2l-0.8-2.9h28.3
		c-0.8-0.3-1.8-0.8-2.6-1.5c-0.4-5.3-3.3-11.1-6.4-14.9l0.9-0.6c20.6,2.3,19.4,14.5,13,17h11.6l6.1-8.2c0,0,6.7,5.3,10.7,9.2v-6.3
		l14.9,1.5c-0.2,1.5-1.1,2.5-3.8,2.9V71.5z M499.7,4.2c-0.1,1.6-1.1,2.5-3.7,2.9v77.7c0,8.4-1.8,13.1-15.8,14.5
		c-0.4-4-0.9-6.8-2.7-8.6c-1.7-1.9-4.1-3.1-9.5-4.1v-1.5c0,0,11.3,0.7,13.6,0.7c1.8,0,2.3-0.5,2.3-2V2.6L499.7,4.2z"/>
</g>
</svg>
