<?xml version="1.0" encoding="utf-8"?>
<!-- Generator: Adobe Illustrator 25.2.3, SVG Export Plug-In . SVG Version: 6.00 Build 0)  -->
<svg version="1.1" id="layer" xmlns="http://www.w3.org/2000/svg" xmlns:xlink="http://www.w3.org/1999/xlink" x="0px" y="0px"
	 viewBox="0 0 400 100" style="enable-background:new 0 0 400 100;" xml:space="preserve">
<style type="text/css">
	.st0{fill:#19100A;}
</style>
<path class="st0" d="M28.3,47.5c25.1,4.3,15.5,21.8,5.9,14.9c-0.7-4.1-3.3-8.5-5.9-12.1v44.5c0,0.7-3.8,3.6-9.7,3.6h-2.2V58.9
	c-4.9,4.3-10.2,7.9-15.5,10.9l-0.9-1c12.3-11.2,23.3-28.2,28.1-42.1H3.3l-0.9-3h25.3l6.6-6.3l10.9,10.6c-0.9,0.8-2.2,1.1-4.7,1.4
	c-3,5.8-7.2,12.1-12.2,17.9V47.5z M13,1.1c28.2,4.6,17.4,25,6.7,17c-0.8-5.8-4.5-12.2-7.6-16.3L13,1.1z M88.9,30.6
	c0,0,7.3,5.9,11.4,10c-0.3,1.1-1.5,1.7-2.8,1.7H84.8V96c0,0.6-3.6,2.9-9.8,2.9h-2.1V42.3H58.8v0.5c0,18.7-1.8,41.6-25.1,56.1
	l-1.1-1.2c13-15.8,14.6-35.8,14.6-55.1V8.9l13.8,4.7c8.5-3.8,17.5-8.7,22.5-12.4L96.7,13c-1.4,1-3.6,1.2-7,0c-7.8,2-19.7,3.7-31,4.7
	v21.5h23.6L88.9,30.6z"/>
<path class="st0" d="M192.2,40c-0.5,1-1.6,1.5-4,1.2c-5.6,4.3-13.7,9.9-21.8,14.2c8.6,11.3,20.4,17.4,31.5,21.4l-0.3,1.1
	c-5.1,1.1-8.9,5.7-10.4,11.6c-15.5-10.3-25.7-23.3-31.3-49.3V84c0,8.6-2,13.5-16.6,14.8c-0.4-4-1-6.9-2.9-8.7s-4.5-3.3-10.3-4.4
	v-1.4c0,0,12.4,0.8,14.9,0.8c1.9,0,2.4-0.6,2.4-2.1V60.6c-6.3,6.2-15.4,14.2-27.7,24c-0.2,1.4-0.9,2.6-2.1,3.2L104,74.7
	c6.9-2.7,22.8-9.8,39.3-17.8V26.8h-39.5l-0.8-3h40.4V1.6l16.2,1.7c-0.2,1.5-1,2.4-3.6,2.8v17.7h22.8l6.8-8.6c0,0,7.7,5.8,12.3,10
	c-0.3,1.1-1.4,1.7-2.9,1.7h-38.9V34c2.1,7.5,5.2,13.8,8.8,19.1c5-7.3,10.3-16.6,12.9-22.6L192.2,40z M114.3,32.1
	c31.7,7.3,21.5,31,9.8,22c-1-7.5-5.9-15.9-10.7-21.4L114.3,32.1z M161.1,5.3c27.4-0.6,20.4,20.4,9.3,14.6c-1.5-5-6-10.7-10.1-13.8
	L161.1,5.3z"/>
<path class="st0" d="M285.2,81.1c0,0,8.3,6.3,13.5,10.8c-0.3,1.1-1.5,1.7-3,1.7h-92.3l-0.9-3h40.8V51.5h-31.8l-0.7-2.9h32.6V14.3
	h-35.6l-0.9-2.9h66.5l7.4-9.4c0,0,8.4,6.3,13.3,10.6c-0.3,1.1-1.4,1.7-2.9,1.7h-34.3v34.3h13.6l7.2-8.9c0,0,8,6,12.8,10.3
	c-0.3,1-1.4,1.6-2.9,1.6h-30.7v39.1h20.9L285.2,81.1z"/>
<path class="st0" d="M400,33.2c-4.8,1.2-7.5,5.2-8.4,10.8l-2.1-0.3l8.2,8.3c-0.8,0.9-2.3,1.2-4.8,1.2c-3.7,3.5-9.3,8.9-14.6,12.3
	c13.8,3.7,18.7,10.1,18.7,16c0,7-4.1,11.6-16.7,11.9c0-2.8-0.4-6.8-1.4-8.1c-0.9-1-2.7-2-5.5-2.5v-1.2h8.3c1.4,0,2.1-0.1,2.8-0.5
	c1-0.6,1.6-1.5,1.6-2.9c0-4.7-3.4-8.3-10.5-12.4c1.8-4.3,4.2-10.6,5.7-15.5h-11.8V95c0,1.1-4.9,4-9.9,4h-1.9V49.4
	c-0.5,0.5-1.5,0.8-2.5,0.8h-6.4V96c-0.1,0.5-3.6,2.7-9.8,2.7h-2.1V82c-6.2,2.5-14.7,5.7-25.8,9.7c-0.6,1.5-1.7,2.1-2.8,2.4
	l-6.2-12.8c2.6-0.1,6.4-0.3,11.1-0.6V50.3h-7.9l-0.8-3h35.9l6.2-7.7c0,0,6.8,5,11.1,8.7v-6l12.2,5H381l4.7-4.3
	c-12.4-2.4-23.8-5.9-33.4-11.2c-13.8,6-31.5,10.4-50.1,11.6l-0.4-1.7c15.2-3.4,30.1-9,41.8-15.9c-3.6-2.9-6.8-6.1-9.4-9.9l0.3-0.2
	c-7.3,4.1-16.5,7.5-25.8,9.4l-0.8-1.1c10.3-5.6,20.6-15.2,25.5-22.7l13,8.1c-0.6,1-1.7,1.6-4,0.9c-2,1.7-4.3,3.2-6.9,4.8
	c3.3,3,7.8,5.5,12.9,7.7c5.2-3.4,9.6-7,12.9-10.7l12,9.5c-0.8,0.8-1.9,1.1-4.2,0.4c-2.2,1.8-4.8,3.4-7.5,5.1
	c12,2.9,25.7,4.4,38.4,4.8V33.2z M337.1,50.3h-12.4V58h12.4V50.3z M324.7,68.9h12.4V61h-12.4V68.9z M324.7,79.8
	c4-0.2,8.1-0.6,12.4-0.9v-7.1h-12.4V79.8z M357.9,2.9c42.8,0.7,36.3,25.8,24.5,20.8C379,18.5,369.8,10,357.4,4.3L357.9,2.9z"/>
</svg>
