<?xml version="1.0" encoding="utf-8"?>
<!-- Generator: Adobe Illustrator 25.2.3, SVG Export Plug-In . SVG Version: 6.00 Build 0)  -->
<svg version="1.1" id="layer" xmlns="http://www.w3.org/2000/svg" xmlns:xlink="http://www.w3.org/1999/xlink" x="0px" y="0px"
	 viewBox="0 0 500 100" style="enable-background:new 0 0 500 100;" xml:space="preserve">
<style type="text/css">
	.st0{fill:#19100A;}
</style>
<path class="st0" d="M86.3,60.6c0,0,6.5,6.1,10.1,10c-0.3,1.1-1.4,1.7-2.8,1.7H0.9L0,69.4h16.1v-22H4.6l-0.8-2.9h12.3V27
	c-4.8,4.2-9.9,7.6-14.9,10.2L0,36.3c6.9-8.1,14.6-21.8,19.3-35.4l16.5,6.3c-0.4,1.1-1.9,2-4.3,1.9c-1.6,2.5-3.3,4.9-5.1,7.2h48.5
	l6.4-8.7c0,0,7.2,5.8,11.4,9.9c-0.3,1.1-1.3,1.7-2.7,1.7H24c-1.6,1.8-3.2,3.4-4.9,5.1L31,25.4c-0.2,1.4-0.9,2.5-3.8,2.9v16.1H34
	V24.2l14.3,1.4c-0.2,1.5-1,2.4-3.9,2.8v16.1h6.8v-20l14.3,1.4c-0.2,1.5-1,2.5-3.8,2.9v15.6H68V24.3l14.9,1.4c-0.2,1.5-1,2.6-3.9,3
	v15.1l5.5-7.6c0,0,6.8,5.6,10.6,9.5c-0.3,1.1-1.5,1.7-2.9,1.7H79v22h1.5L86.3,60.6z M19,74.6c3.8,12.7-1,21.2-6.8,24
	c-3.9,2-9.1,0.8-10.3-3.3c-1-3.9,1.5-6.8,4.7-8.3c4.7-1.8,10.4-6.4,11-12.4L19,74.6z M27.1,69.4h6.8v-22h-6.8
	C27.1,47.4,27.1,69.4,27.1,69.4z M32,75.5C52.9,88,39,105,31.1,94.9c1.5-6.5,0.9-13.6-0.3-19L32,75.5z M44.3,47.3v22h6.8v-22
	C51.1,47.3,44.3,47.3,44.3,47.3z M50.2,75.1c27.3,8.5,16.7,29.4,6.6,20.8c-0.3-7-3.9-14.8-7.5-20.2L50.2,75.1z M61.7,47.3v22H68v-22
	C68,47.3,61.7,47.3,61.7,47.3z M72,74.4c31.9,7.4,22.2,31.3,10.6,22.7c-1.3-7.7-6.4-16.4-11.6-22L72,74.4z"/>
<path class="st0" d="M100,26c27.9,1.6,19.3,22.2,8.5,15.3c-1.4-5.2-5.6-11.2-9.3-14.7L100,26z M133.9,15.6
	C129.4,29.5,121.5,55.1,120,61c-1,3.8-1.8,7.6-1.7,10.4c0.1,5.6,4.4,9.4,4,18.7c-0.1,5.2-3.7,8.8-8.6,8.8c-2.5,0-5-1.5-5.7-5.5
	c1.9-10.9,1.5-20.7-1.1-22.3c-1.5-1-3.2-1.5-5.5-1.7v-2.1h4.9c1.5,0,2,0,3.1-2.2c2.3-4.2,2.3-4.2,22.7-49.9L133.9,15.6z M108.6,2.3
	c29.2,2.5,20,23.8,8.9,16.5C116.1,13,111.6,7,107.8,3L108.6,2.3z M186.4,39c0,0,7.9,6.2,12.6,10.4c-0.3,1.1-1.4,1.7-2.9,1.7h-39.6
	l13.9,6.4c-0.4,0.9-1.8,1.8-3.9,1.6c-6.3,7.5-17.6,17.3-27.6,23.7c10-0.4,24.8-1.3,40.4-2.3c-2.8-5.8-6.4-11.5-9.7-16.1l1-0.6
	c37,14.6,26.9,41.9,13.9,31.7c-0.7-4-2.2-8-4.1-12.2c-10,3.1-24.9,7.2-43.1,11.4c-0.8,1.1-1.6,1.9-2.6,2.3l-5.8-14.4
	c0,0,2.6-0.6,3.8-1.5c6.9-5,16.6-20.4,20.2-29.9h-25.2l-0.8-2.9h27.8V25.9H135l-0.8-3h20.6V1.1L171,2.5c-0.3,1.5-1.1,2.5-3.9,2.9
	v17.4h8.3l6.6-8.7c0,0,7.4,5.9,12,10c-0.3,1.1-1.5,1.7-3,1.7h-23.9v22.3h12.7L186.4,39z"/>
<path class="st0" d="M219.8,42.4c0,17.9-1.1,41.3-21.3,56.5l-1.1-0.7c9.6-16.4,10.1-37,10.1-55.8v-32l14.3,5H249
	c-0.4-0.2-0.8-0.4-1.3-0.6c-1.3-5-5.2-10.6-8.8-13.8l0.8-0.6c21.6-0.5,21.7,11.9,15.3,15h22.4l6.6-8.8c0,0,7.2,6.1,11.5,10.1
	c-0.2,1.1-1.4,1.7-2.8,1.7h-73L219.8,42.4L219.8,42.4z M283.9,64.1c-0.8,1-1.9,1.4-4.6,1.6c-4.1,6.2-9.2,11.4-15.2,15.8
	c9.8,2.7,21,3.9,32.4,4.4v1.3c-5.2,1.6-8.3,5.6-9.5,11.7c-13.1-2.2-24.3-5.4-33.5-11.1c-11.9,6.1-26.7,9.6-43.9,11.2l-0.5-1.5
	c14.7-3.1,27.5-8,37.8-14.6c-5.7-4.9-10.3-11.3-13.8-19.4h-7.2l-0.9-2.9h41l7.2-6.4L283.9,64.1z M261.3,55.1v-3.3h-16.5v2.6
	c0,0.8-5.2,2.7-9.6,2.7h-2.1V35.4h-11.4l-0.8-2.9h12.2V21l15.1,1.4c-0.2,1.4-0.9,2.3-3.4,2.7v7.4h16.5V21l15.2,1.4
	c-0.2,1.4-0.9,2.3-3.5,2.7v7.4h4.7l5.5-8.3c0,0,6.2,5.7,9.7,9.6c-0.3,1.1-1.4,1.7-2.8,1.7H273v17c0,0.8-5.1,2.7-9.6,2.7h-2.1V55.1z
	 M235.4,63.4c4.4,6.4,10.6,11.1,18.2,14.4c5.1-4.2,9.3-9,12.3-14.4H235.4z M261.3,48.7V35.4h-16.5v13.4h16.5V48.7z"/>
<path class="st0" d="M393.4,44.9c-0.1,0.6-3.5,2.4-6.8,3c14,3.2,12,13.8,5.8,14.1c1.7,1.6,5.6,5.3,8,8c-0.3,1.1-1.4,1.7-2.8,1.7h-13
	v14.6c0,7.9-1.7,12.2-14.3,13.2c-0.2-3.4-0.6-6.1-1.9-7.7c-1.3-1.5-3.1-2.7-7.3-3.4v-0.6c-2,0.6-4.5,0.2-6.8-2
	c0.2-4.6-1.8-9.9-4.1-13.4l0.9-0.5c15.8,3.3,15.8,12.2,11.4,15.1c2.4,0.1,7.3,0.4,8.7,0.4s1.8-0.3,1.8-1.6v-14h-28.2
	c1.5,1.1,2.8,2.4,4.1,3.5c-0.2,1-1.4,1.6-2.8,1.6h-17.2v18.9c-0.1,0.7-3.4,3.1-9.2,3.1h-2v-22H302l-0.8-2.9h16.6V61.1h-3.5v3.8
	c0,0.8-4.1,3.1-7.9,3.1h-1.5V23.6l9.8,4.1h3.1v-8.9h-15l-0.8-2.9h15.9V0.7L332.4,2c-0.1,1.5-0.9,2.4-3.4,2.7v11.2h2.9l5.7-7.6
	c0,0,5.6,4.6,9.7,8.1l10.9,4.5h6.3V14h-19.8l-0.8-3h20.7V0.8l14.5,1.4c-0.3,1.5-1.1,2.5-3.9,2.9v5.8h8l5.8-7.5c0,0,6.5,5.1,10.5,8.9
	c-0.3,1.1-1.4,1.7-2.8,1.7H375v6.9h6.6l4.9-5.2l10.3,7.7c-0.5,0.7-1.8,1.4-3.4,1.7V44.9z M314.2,30.6v12.2h4.6V30.6H314.2z
	 M314.2,58.1h4.6V45.7h-4.6V58.1z M332.5,30.6H328v12.2h4.5V30.6z M332.5,45.7H328v12.4h4.5V45.7z M386.9,68.8l4.4-6.9
	c-0.7-0.1-1.5-0.3-2.3-0.7c-0.7-2.1-2.2-4.3-3.9-6.5c-7.7,2.5-18.3,5.5-32.9,9.3c-0.6,1.4-1.8,2.1-2.8,2.3l-5.1-11.8
	c4.3-0.1,11.4-0.4,20-0.8v-9.3h-6.8V47c0,0.9-4.6,3.2-9,3.2H347V18.3c-0.5,0.3-1.1,0.4-2,0.4h-16.3v8.9h2.6l4.7-5l9.7,7.4
	c-0.6,0.7-2,1.6-3.9,2v31.4c-0.1,0.9-4.7,3.2-7.9,3.2h-1.7v-5.5h-3.5V74h3.7l5.7-7.5c0,0,2.8,2.2,5.8,4.7l-0.6-2.3H373v-10l15.1,1.4
	c-0.3,1.6-1.3,2.3-3.5,2.6V69h2.3V68.8z M357.6,23.8v7.3h6.8v-7.3H357.6z M364.4,34h-6.8v7.4h6.8V34z M375,23.8v7.3h7.5v-7.3H375z
	 M375,41.4h7.5V34H375V41.4z M379.1,47c1.3,0,2.4,0.1,3.4,0.2v-2.8H375v8.7l8.3-0.5c-1.7-1.9-3.4-3.4-5.1-4.7L379.1,47z"/>
<path class="st0" d="M486.2,36.8c0,0,8.8,6.6,13.8,11.1c-0.3,1.1-1.5,1.7-3,1.7h-51.3l13.8,5.4c-0.5,1.1-1.8,2-4,1.9
	c-7.2,8-21.1,18.6-32.8,25.4c12.8-0.4,32.1-1.4,52.8-2.6c-3.9-6.2-8.5-12-13-16.5l0.9-0.7c44,13.2,34.3,44.2,19.7,33.8
	c-1.1-4.4-3.2-9.1-5.8-13.7c-13.1,3.8-32.7,8.3-57.3,13.3c-0.7,0.9-1.6,1.6-2.5,2L411,82.3c0,0,3-0.5,4.3-1.3
	c9.2-5.3,22-21.5,26.9-31.5h-37.9l-0.9-3h40.7V25.3h-32.4l-0.9-2.9h33.4V0.8l17.1,1.5c-0.2,1.5-1,2.5-3.9,2.9v17.2h15.3l7.4-9.4
	c0,0,8.5,6.3,13.5,10.6c-0.3,1.1-1.5,1.7-3,1.7h-33.2v21.2h21.4L486.2,36.8z"/>
</svg>
