<?xml version="1.0" encoding="utf-8"?>
<!-- Generator: Adobe Illustrator 25.2.3, SVG Export Plug-In . SVG Version: 6.00 Build 0)  -->
<svg version="1.1" id="layer" xmlns="http://www.w3.org/2000/svg" xmlns:xlink="http://www.w3.org/1999/xlink" x="0px" y="0px"
	 viewBox="0 0 300 100" style="enable-background:new 0 0 300 100;" xml:space="preserve">
<style type="text/css">
	.st0{fill:#19100A;}
</style>
<path class="st0" d="M89.4,84.1c0,0,5.2,5.3,8,8.8c-0.2,1.1-1.2,1.7-2.6,1.7h-94l-0.8-3h10.2V65.9l-8.6-5.3c0.8-0.9,2-2,3.1-2.6V3.6
	L16,9.2h15.2l5.6-7c0,0,6.2,4.8,10.1,8.3c-0.3,1.1-1.4,1.7-2.8,1.7h-14v12.9h2.8l4.3-4.3l8.7,6.6c-0.4,0.4-1.4,0.9-2.6,1.2v16.1
	c0,0.8-4.9,2.7-8,2.7h-1.7v-3.2H30v14.6h2.4l5.3-7.2c0,0,6.1,5,9.9,8.4c-0.3,1.1-1.4,1.7-2.7,1.7H15.4l-2.2,3.4l10,3.8h49.3l5.4-5.5
	l10.7,7.9c-0.5,0.6-1.6,1.4-3.2,1.7v17.7L89.4,84.1z M21,25.1V12.2h-6.4v12.9H21z M14.6,28.2v13.2h19V28.2H14.6z M21,44.3h-6.4v14.6
	H21V44.3z M21.9,91.6h9.6V71.9h-9.6V91.6z M42.6,71.9v19.7h9.8V71.9H42.6z M43.9,25.6c4.1-5.8,7.3-15.8,8.7-24.4l14.8,4.1
	c-0.3,1.2-1.6,2.2-3.8,2.2c-0.8,1.7-1.8,3.3-2.9,4.9h19l5.8-7c0,0,6.2,4.6,10.3,8.3c-0.3,1.1-1.5,1.7-2.8,1.7H58.5
	c-3.6,4.5-8.2,8.5-13.3,11.2L43.9,25.6z M82.6,65.5v-4H56.3v2.4c0,0.6-2.8,2.6-7.3,2.6h-1.6V26.2l10.2,4.1h6.6V15.4l13.1,1.1
	c-0.2,1.2-0.8,2.1-2.9,2.4v2.8h6.1l4.4-5.3c0,0,5,3.7,8.1,6.7c-0.2,1.1-1.2,1.7-2.6,1.7h-16v5.5h7.4l4.3-4.4l8.8,6.7
	c-0.4,0.6-1.6,1.2-3,1.6v28.8c-0.1,0.7-4.7,2.7-7.7,2.7L82.6,65.5z M82.6,58.6V48c-0.9,0.9-2.5,1.2-4,0c-0.2-1.9-1.6-4.2-3.1-5.4
	l1.1-0.8c3.1,0.5,5,1.6,5.9,2.7V33.3H56.3v9l0.8-0.5c10.2,2,5.3,9.4,1.1,6c0-1.8-0.8-3.7-2-4.9v15.7H82.6z M81.5,37.4
	c-0.6,1-1.5,1.6-3.8,1c-1.2,2-3,4.1-5.1,6.1c8.9,6.3,7,12.3,2.7,10.1c-1.2-2.1-3.4-4.6-6-6.9c-3.4,2.8-7.2,5.5-11.3,7.6l-1.1-1.6
	c3.4-2.3,6.9-5.3,9.8-8.6c-3-2.4-6.2-4.7-8.9-6.3l1-1c4.2,1.2,7.6,2.8,10.4,4.4c2.2-2.8,4-5.5,5.2-8.1L81.5,37.4z M63.7,33.7
	c11,0.8,7,8.8,2.5,5.9c-0.5-1.9-2-4-3.6-5L63.7,33.7z M63.5,71.9v19.7h9.8V71.9H63.5z M65.9,50.9c11.2,1.1,7.1,9.4,2.6,6.3
	c-0.4-2.1-2-4.4-3.7-5.5L65.9,50.9z"/>
<path class="st0" d="M141.3,27.1c0,0,7,5.8,10.9,9.8c-0.2,1.1-1.4,1.7-2.8,1.7h-16.8v7.2c26.2,7.8,16.3,26,7,18.4
	c-0.7-5.3-3.7-11.2-7-15.8v47.1c0,0.7-3.8,3.4-9.7,3.4h-2.2V60.4c-5.2,8.3-11.8,15.6-19.6,21.8L99.9,81
	c8.5-11.3,14.5-27.4,17.7-42.4h-15.3l-0.8-2.9h19.2V17.2c-6.3,0.7-12.9,1.4-18.9,1.7l-0.3-1.5c12.8-3.8,28.9-11,36.9-16.2l12.9,11.9
	c-1.2,0.9-3.5,1.1-6.9-0.1c-3.4,0.8-7.5,1.7-11.9,2.5v20.2h2.9L141.3,27.1z M196.2,21.2c-0.6,0.9-2.2,1.8-4.3,2.3v63.7
	c-0.2,0.8-6,3.3-10.3,3.3h-2v-11h-15v8.4c0,1.4-4.8,4.3-10.1,4.3h-2v-79l12.6,5.3h13.3l5.8-6.6L196.2,21.2z M179.6,76.4V21.3h-15
	v55.1H179.6z"/>
<path class="st0" d="M295.9,83.2c3.3,1.4,4.1,2.8,4.1,5.3c0,5.1-4.5,7.5-21.6,7.5h-10.3C257.5,96,255,93.7,255,85V45.4h-11
	c-2,26.1-11.1,44.4-42,53.4l-0.5-1.1c22.5-12.3,28-29.7,28.6-52.2h-27.5l-0.8-3h42.2V1.2l16.5,1.5c-0.2,1.5-1,2.5-3.8,2.9v36.8h23.3
	l7.1-8.8c0,0,7.8,5.9,12.6,10.2c-0.3,1.1-1.5,1.7-2.9,1.7h-29.3v1.7v34.8c0,1.7,0.6,2.3,3.7,2.3h8.5c3.1,0,5.7-0.1,7.2-0.2
	c1.4-0.1,1.9-0.4,2.6-1.6c1.1-2.2,2.9-8.4,5-15.8h1.1L295.9,83.2z M212,8c33.4,11.8,21.9,37.3,9.7,26.9c-0.7-9-5.5-19.1-10.6-26.3
	L212,8z M293.6,14.5c-0.5,1.1-2,2-4.3,1.7c-7.4,8.4-16,16.2-24.1,21.6L264,37c3.8-7.2,9-19.2,12.9-30L293.6,14.5z"/>
</svg>
