<?xml version="1.0" encoding="utf-8"?>
<!-- Generator: Adobe Illustrator 25.2.3, SVG Export Plug-In . SVG Version: 6.00 Build 0)  -->
<svg version="1.1" id="layer" xmlns="http://www.w3.org/2000/svg" xmlns:xlink="http://www.w3.org/1999/xlink" x="0px" y="0px"
	 viewBox="0 0 200 100" style="enable-background:new 0 0 200 100;" xml:space="preserve">
<style type="text/css">
	.st0{fill:#19100A;}
</style>
<path class="st0" d="M92.4,12.2c-0.7,0.9-2.2,1.7-4.4,2.2v79.6c-0.2,1.1-6,4-10.6,4h-2v-9.8H14.3v6c0,1.6-4.9,4.6-10.2,4.6H2V3.9
	l13.3,5.4h58.9l6-6.7L92.4,12.2z M75.4,85.2V12.5H14.3v72.7H75.4z M69.7,32.5c-0.7,0.7-2.1,1.6-4.2,2v34.1c-0.1,0.7-5.6,3.3-9.5,3.3
	h-1.9V64H37.1v6.2c0,1.1-4.8,3.6-9.4,3.6H26V25.1l11.5,4.8h15.6l5.4-5.8L69.7,32.5z M54.1,60.9V33H37.1v28H54.1z"/>
<path class="st0" d="M192.7,45c-0.7,0.9-1.7,1.4-4.1,0.6c-6.4,2.8-15.3,5.9-24.6,8.3c6.9,14.4,21,22.5,35.9,27.1l-0.2,1.2
	c-4.8,1-8.3,4.8-10.1,10.7c-13.7-8.3-23-19.5-27.9-38.3c-2.2,0.6-4.5,1.2-6.7,1.6c8.2,15.1,7.4,32.2,1.7,39.2
	c-2.8,3.4-8.1,4.7-15.7,4.6c-0.1-3.5-1-6-2.6-7.8c-1.4-1.4-4.8-2.9-9-3.9l-0.1-1.3c4.4,0.4,11.5,0.9,14.1,0.9c1.5,0,2.6-0.2,3.1-1.2
	c1.5-2.2,2.5-6.7,2.6-12.2c-12.7,8.2-30,15.3-47.1,18.8l-0.7-1.6c17.8-6.4,35.9-19,46-32.2c-0.2-0.9-0.4-1.7-0.7-2.7
	c-10.9,7.2-26.8,14.3-41.7,18.3l-0.6-1.4c13.8-6.4,28.8-18.3,37.1-28.9l-0.9-1.3c-9.9,5.8-22.1,10.5-34.7,13.6l-0.7-1.3
	c12.7-5.8,24.7-14.7,32.6-22.8h-20.6l-0.9-3h51.1l6.6-8.3c0,0,4.1,3.2,8,6.4c0.4-3,0.9-7,1.2-10.5h-66.3c0.6,7.5-2.1,12.7-5.8,15.1
	c-3.2,2.1-8.3,1.3-9.8-2.7c-1.2-3.7,1.1-6.6,4.2-8.2c3.7-2,7.9-7.4,7.7-13.2h1.5c0.7,2.1,1.4,4.1,1.7,6h31.9c-0.6-0.2-1.3-0.5-1.9-1
	c-0.5-4.8-4-10-7.5-12.7l0.7-0.6c21.6-1.2,20.9,11.5,14.2,14.3h28.4l6.3-6.4l11.1,10.6c-0.7,1-1.9,1.2-4.1,1.3
	c-3.1,2.9-8.3,6.8-12.5,9.1c1,0.7,1.8,1.5,2.7,2.2c-0.2,1.2-1.4,1.7-2.9,1.7H155c-3.3,3.3-7.5,6.3-12.1,9.2c4.5,3.5,8,7.6,10.8,11.8
	c9.7-5.8,20.5-14,26.2-19.3L192.7,45z"/>
</svg>
