<?xml version="1.0" encoding="utf-8"?>
<!-- Generator: Adobe Illustrator 25.2.3, SVG Export Plug-In . SVG Version: 6.00 Build 0)  -->
<svg version="1.1" id="layer" xmlns="http://www.w3.org/2000/svg" xmlns:xlink="http://www.w3.org/1999/xlink" x="0px" y="0px"
	 viewBox="0 0 400 100" style="enable-background:new 0 0 400 100;" xml:space="preserve">
<style type="text/css">
	.st0{fill:#19100A;}
</style>
<path class="st0" d="M96.8,19.6c-0.7,0.8-1.8,1.1-3.8,1.2c-3.1,3.2-8.3,7.6-12.5,10.1l-0.9-0.7c0.5-3.2,0.9-8,1.2-11.8H16.3
	c0.7,7.5-2,12.7-5.5,14.9C7.5,35.5,2.5,34.8,1,31c-1.1-3.6,1-6.6,4.2-8.1c3.7-2,7.8-7.3,7.5-13.1h1.5c0.8,2.1,1.4,4,1.8,5.8h31
	c-0.6-0.2-1.2-0.5-1.9-0.9c-0.5-4.8-3.8-9.8-7.3-12.5l0.7-0.6c21-1.2,20.4,11.3,13.7,14h27.7L86,9.2L96.8,19.6z M39.6,59.6
	c-4.6,0-7.7-0.3-9.8-1.1c-8.5,3.2-17.8,5.8-27.8,7.5l-0.6-1.6c8.8-2.7,17.1-6.1,24.9-10.2c-0.3-1-0.4-2.4-0.4-4V26l13.9,1.1
	c-0.2,1.5-1.1,2.3-3.1,2.7v18v0.3c12.7-8.2,23-17.9,29.2-27.9l12.3,8.1c-0.8,0.9-1.8,1.4-4.3,0.6c-6.2,7.6-15,14.7-25.8,20.8h6.1
	c4.9,0,9.3-0.1,10.9-0.2c1.6-0.2,2.4-0.4,3.1-1.1c1-1.4,2.5-4.6,4.3-8.9h1l0.4,9c3.3,1.1,4.3,2.3,4.3,4.4c0,4.8-4.6,6.7-25.1,6.7
	H39.6z M18.5,30.9c4.8,12.1,1.1,20.4-4.1,23.1c-3.5,2-8.3,0.9-9.6-2.9c-0.9-3.6,1.2-6.3,4.5-7.8c3.7-1.9,7.9-6.8,7.7-12.4H18.5z
	 M72.6,66.1l16,1.4c-0.1,1.4-0.9,2.5-3.7,2.9v26.2c0,0.8-5.3,2.7-10.2,2.7h-2.1v-7.1H25.5l-3.8,5.5L8.9,91.2c0.9-1,2.4-2.3,3.8-3.2
	V66.3l15.9,1.6c-0.2,1.6-1.1,2.6-3.8,3v18.4h17.7V61.8L58.1,63c-0.2,1.4-0.8,2.3-3.3,2.7v23.6h17.8V66.1z M38.2,19.4
	c24.5,1.5,16,20.6,6.2,14C44,28.6,40.7,23.1,37.3,20L38.2,19.4z M74.3,32.3c30.1,6.1,19.6,28.9,8.7,20.3c-0.5-7-4.8-14.8-9.6-19.6
	L74.3,32.3z"/>
<path class="st0" d="M115.8,38.2v56.3c0,1.6-4.5,4.6-9.9,4.6h-2v-95l12.3,5.3h14.2l5.1-5.6l10.8,8.2c-0.6,0.7-1.9,1.7-3.7,2v27.1
	c-0.1,0.7-5.7,2.8-9.3,2.8h-1.9v-5.7H115.8z M115.8,12.5v9.9h15.7v-9.9H115.8z M131.5,35.3V25.1h-15.7v10.2H131.5z M158.6,81
	c0.2,7.4-1.7,13.2-13.4,14.2c0-3.5-0.5-6.2-1.7-8.1c-1.1-1.8-3.1-3.2-7.8-3.8v-1.4c0,0,8.3,0.5,10.4,0.5c1.5,0,1.9-0.5,1.9-1.7
	l-0.3-14c-7,8-16.6,14.2-28.1,19l-0.8-1.5c9.9-6.7,17.6-16.1,22.4-26.1h-19.9l-0.8-3h27l-0.2-11.3l14.6,1.2
	c-0.3,1.5-1.1,2.5-3.7,2.9l0.1,7.2h2.8l5-7.2c0,0,5.7,5,9,8.5c-0.3,1.1-1.2,1.7-2.7,1.7h-14L158.6,81z M194.4,12.2
	c-0.7,0.8-2.1,1.8-4.3,2.1v70.4c0,8.3-1.7,13.1-14.9,14.2c-0.2-4-0.7-6.9-2-8.6c-1.5-1.8-3.4-3.1-8-4v-1.6c0,0,8.8,0.7,10.8,0.7
	c1.7,0,2.1-0.8,2.1-2.2V38.2h-16.2v1.1c0,1-5,3.6-9.8,3.6h-1.6V4.8l11.8,4.7h14.8l5.5-6.4L194.4,12.2z M161.9,12.5v9.9h16.2v-9.9
	H161.9z M178.2,35.3V25.1h-16.2v10.2H178.2z"/>
<path class="st0" d="M237,55.1c-5.8,5.2-15.2,13.2-28.3,22.7c-0.2,1.5-1.1,2.7-2.4,3.2l-6.6-13.5c2.6-0.8,6.9-2.3,12.2-4.2V33.2
	h-9.9l-0.8-3H212V2.9l15.6,1.5c-0.2,1.5-0.9,2.5-3.8,2.8v22.2l4.7-7.9c0,0,6,6,9,10.1c-0.3,1.1-1.2,1.7-2.7,1.7h-11V59
	c4.2-1.6,8.5-3.3,12.9-5L237,55.1z M288.2,51.9l10.6,8.8c-0.8,0.9-2.1,1.5-4.3,1.8c-1.6,19.7-4.5,29.3-9.9,33.2
	c-3.3,2.4-7.3,3.3-12.4,3.3c0-3.2-0.4-6-1.8-7.6c-1.4-1.7-4.1-2.9-7.7-3.7v-1.4c-5.6,5-12.5,9.3-20.6,12.8l-0.8-1.4
	c13.6-9.2,22.3-22.2,26.5-37.1h-3.2c-7.2,13.5-20.1,24-36.3,31.3l-1.1-1.5c11.6-7.6,20.8-18.4,26.3-29.8h-3.4
	c-7,7.9-16.5,14.2-27.9,18.9l-0.9-1.4c10.3-7.2,18-17.8,22.6-28.6h-13.2l-0.8-3H281l6.4-8.2c0,0,7.3,5.6,11.8,9.6
	c-0.3,1.1-1.4,1.7-2.9,1.7h-38.6c-1.5,2.8-3.2,5.5-5.2,8.1h29.6L288.2,51.9z M252.4,39.7c0,1-5.1,3.6-10,3.6h-1.7V2.8l12.2,4.8h21.6
	l5.6-6l11.3,8.7c-0.6,0.8-2,1.7-4,2.1v25.4c-0.1,0.9-5.7,3.7-9.9,3.7h-2.1v-4.2h-23.2V39.7z M252.4,10.5v10.3h23.2V10.5H252.4z
	 M275.6,34.3V23.8h-23.2v10.5H275.6z M280.1,60.6c-3.5,10-9.2,18.5-17.2,25.6c3.3,0.3,8.5,0.6,10.6,0.6c1.7,0,2.5-0.2,3.5-0.8
	c2.5-2.1,4.6-10.5,5.9-25.4H280.1z"/>
<path class="st0" d="M333.6,65.3v-6.4h-14.7c-1.1,14.1-4.9,29.4-17.5,40.5l-1.2-1c7.5-16.3,7.7-37,7.7-55.4V9.8L318,13
	c7.3-3.7,15-8.6,19.3-12l12.3,10.5c-1.2,1-3.3,1.1-6.4,0.1c-6,1.7-15.1,3.4-23.7,4.7v12.5h13.1l5.4-5.9l11.3,8.6
	c-0.7,0.8-2.2,1.8-4.3,2.2v28.9c-0.1,0.6-5.9,2.7-9.6,2.7H333.6z M333.6,55.9V31.7h-14.1v11.5c0,4,0,8.3-0.3,12.7H333.6z
	 M388.6,28.6c0,0,7,5.6,11,9.5c-0.3,1.1-1.4,1.7-2.8,1.7h-9.5v55.1c0,0.7-3.7,3.3-10.1,3.3H375V39.7h-11
	c-0.1,19.7-2.7,44.3-28.8,59.4l-1.1-1.2c15.9-17.2,18.1-38.6,18.1-59.1V8.5l12.1,3.8c8-3.6,16.4-8.3,21.3-11.6l12.9,11.6
	c-1.2,1.1-3.6,1.1-6.9,0c-7,1.5-17.5,3.1-27.6,4.1v20.3h18.4L388.6,28.6z"/>
</svg>
