<?xml version="1.0" encoding="utf-8"?>
<!-- Generator: Adobe Illustrator 25.2.3, SVG Export Plug-In . SVG Version: 6.00 Build 0)  -->
<svg version="1.1" id="layer" xmlns="http://www.w3.org/2000/svg" xmlns:xlink="http://www.w3.org/1999/xlink" x="0px" y="0px"
	 viewBox="0 0 400 100" style="enable-background:new 0 0 400 100;" xml:space="preserve">
<style type="text/css">
	.st0{fill:#19100A;}
</style>
<path class="st0" d="M84.5,47.3c0,0,8.2,6,13.2,10.3c-0.3,1.1-1.5,1.7-3,1.7H54.7v36c0,0.8-4,3.5-10.4,3.5H42V59.3H0.8L0,56.4h42
	V12.9H5.5l-0.9-3h68.2l7.4-8.8c0,0,8.1,6,13.2,10.2c-0.3,1.1-1.5,1.7-3,1.7H54.7v43.5h22.5L84.5,47.3z M14.2,18.7
	c30.2,14.7,18,39,6.6,28.1c-0.3-9.4-4-19.8-7.7-27.7L14.2,18.7z M61.3,50.3c3.5-7.9,7.9-20.7,10.9-31.9l16.1,5.9
	c-0.4,1.1-1.7,2.1-4.1,1.9c-6.3,9.8-14,18.7-21.8,24.8L61.3,50.3z"/>
<path class="st0" d="M115.3,21.5c1.2,7.4-0.6,12.7-3.8,15.2c-3,2.5-8.4,1.8-10.1-2.2c-1.4-3.8,0.7-7,3.8-8.7
	c3.1-2.2,6.6-7.9,5.8-13.4h1.5c0.9,2.2,1.7,4.2,2.2,6.1h32.4c-0.8-0.4-1.8-0.9-2.6-1.7c0.2-5.3-2.5-11.2-6.1-14.7l0.7-0.7
	c22,1.5,21.4,13.7,15,17.1h26l6.4-6.4l11.3,10.7c-0.8,0.8-1.9,1.1-4.1,1.2c-3.7,3.7-10.3,8.6-15.3,11.4l-0.8-0.7
	c1-3.5,2.4-8.9,3-13.2H115.3z M184.5,39.5c0,0,7.6,5.6,12.3,9.7c-0.3,1.1-1.5,1.7-2.9,1.7h-21.1c-2.4,9.9-6.3,18.4-13.3,25.7
	c40.2,10.9,24.5,26.7,13.5,20.8c-5.4-4.2-13.1-8.7-22.8-13.2c-10.5,6.8-25.4,11.6-46.6,14.6l-0.6-1.2c17.3-4.5,29.4-10.3,38.1-17.3
	c-8.1-3.2-17.1-6.3-27-9c2.8-4.9,6.6-12.5,10.1-20.3h-20.8l-0.9-3h23.1c4-9.2,7.6-18,9-23l17,5.1c-0.4,1.1-1.4,2.2-4.7,2.1
	c-2,4-4.7,9.7-7.7,15.8h20.3c0.6-4.2,1-8.4,1.2-12.9l18,3.4c-0.3,1.7-1.7,2.5-4.1,2.4c-0.3,2.4-0.7,4.8-1.1,7.1h4.6L184.5,39.5z
	 M137.5,50.9c-3.5,6.9-7.3,13.9-10.7,19.8c7.9,0.9,14.8,2,20.9,3.2c5.9-7,9.2-14.6,11-23H137.5z"/>
<path class="st0" d="M286.6,55.7c0,0,7.6,5.6,12.2,9.7c-0.3,1.1-1.6,1.7-2.9,1.7h-93.6l-0.9-3h33.5c-0.7-0.3-1.5-0.8-2.1-1.5
	c0.2-3.8-1.5-7.9-2.9-10.5l0.8-0.5c15.9,2.2,15.2,10,10.5,12.5h13.9c1.2-3.7,2.7-8.7,3.6-12.5l9.4,2.2v-3.1h-38.3v1.8
	c0,1-5.6,3.5-10.6,3.5h-1.7V28.7l13,5H267l5.5-5.8l11.8,8.6c-0.6,0.7-2,1.6-3.7,1.9v12.7c-0.1,0.7-6.4,2.8-10.3,2.8h-1.1l4.2,0.9
	c-0.4,1.2-1.6,2.2-4,2.2c-2.6,2.1-6.8,4.7-10.5,7h21L286.6,55.7z M202.3,11.3h40.6V1.1l16.5,1.4c-0.2,1.5-1.1,2.5-3.8,2.9v5.9h22.6
	l6.9-8.3c0,0,7.7,5.5,12.3,9.6c-0.2,1.1-1.2,1.7-2.8,1.7h-38.9v9.4h14.6l6.6-7.5c0,0,7.4,5.1,12.1,8.8c-0.2,1.1-1.4,1.7-2.9,1.7
	h-74.4l-0.8-3h32.2v-9.4H203L202.3,11.3z M275.3,68.1l11.6,8.6c-0.6,0.7-1.9,1.6-3.7,2v16.5c-0.1,0.7-6.4,2.8-10.3,2.8h-2.1v-4.9
	h-42.8v2.1c0,0.9-5.5,3.6-10.5,3.6h-1.8V69.1l13,5h41.1L275.3,68.1z M270.8,90.2V77h-42.8v13.2H270.8z M268.1,47.7V36.7h-38.3v10.9
	H268.1z"/>
<path class="st0" d="M301.3,93.6c10.2-4.7,21.5-13.8,28.8-24.9l13.9,8.8c-0.7,1.1-2,1.6-4.4,1.1c-9.9,9.8-25.6,14.8-38,16.1
	L301.3,93.6z M386.8,55.3c0,0,7.8,5.8,12.4,9.9c-0.2,1.1-1.4,1.7-2.8,1.7h-38.9v29.7c0,0.9-5.6,3.1-10.7,3.1h-2.3V66.8H303l-0.9-3
	h42.4v-9.4l16.8,1.6c-0.2,1.4-1,2.4-3.8,2.8v5h22.5L386.8,55.3z M302.2,47c0,0,2.1-0.5,3-1c3.8-3.3,8.5-9.6,12.5-16.1
	c-2.6,1.2-5.5,2.7-8.4,4.1c-0.5,0.7-1.2,1.2-1.9,1.6l-4.7-10.3c0,0,1.8-0.5,2.5-1c4.1-4.1,9.2-15.8,10.6-21.9L329.1,8
	c-0.4,0.9-1.7,1.7-3.5,1.5c-3.7,5-9.7,11.2-15.2,15.6c3-0.2,6.7-0.4,10.4-0.6c1.8-3.2,3.1-6.3,4.1-8.7l10.4,6.2V10.4l10,4.2
	c0.3-3.5,0.5-8.8,0.6-12.5l13.7,1.8c-0.3,1.7-1.6,2.6-3.7,2.8c-1.9,2.2-4.7,5.4-7,7.9h6l4.8-5l9.8,7.5c-0.5,0.6-1.8,1.4-3.4,1.8
	v32.4c-0.1,0.7-5.1,2.8-8.5,2.8h-1.7v-4.1h-10.9v2.6c0,0.9-4.2,3.1-8.2,3.1h-1.5V24.1c-0.6,0.2-1.5,0.3-2.4,0.1
	c-5,6.8-13.8,16-22.2,22.6c4.2-0.3,9.5-0.8,15.1-1.2c-0.5-3.5-1.4-6.9-2.4-9.6l1.2-0.3c17.6,11.2,7.8,25.6,1.2,18
	c0.2-1.7,0.2-3.4,0.1-5.2c-4.4,2-10.5,4.7-16.8,7.2c-0.7,1-1.5,1.7-2.2,2.1L302.2,47z M344.9,17.6v13h10.9v-13H344.9z M355.8,47
	V33.6h-10.9V47H355.8z M362.1,74.8c39.3-5.4,40.3,23.5,25.7,19c-5.8-6-15.5-13.7-26-17.9L362.1,74.8z M400,22.9
	c-0.5,0.9-1.8,1.7-3.8,1.4c-4.9,6.8-13.5,15.8-21.4,22.3c4.1-0.2,9.2-0.6,14.6-1.1c-0.5-3.4-1.4-6.9-2.2-9.5l1.2-0.4
	c18,11.5,7.9,25.7,1.4,18.1c0.1-1.8,0.1-3.7-0.1-5.6c-4.3,2-10.2,4.8-16.4,7.4c-0.7,1.1-1.6,1.9-2.4,2.3l-4.7-10.5
	c0,0,2.1-0.5,2.9-1.1c3.8-3.3,8.3-9.6,12.2-16c-2.6,1.2-5.5,2.7-8.3,4c-0.6,0.9-1.4,1.5-2.1,1.8l-4.6-10.6c0,0,1.7-0.4,2.5-0.9
	c4-4.1,9.2-15.8,10.6-21.9L392.7,8c-0.4,0.9-1.6,1.8-3.6,1.7c-3.7,4.9-9.8,11.1-15.3,15.5c2.9-0.2,6.6-0.4,10.4-0.6
	c1.7-3.2,3-6.3,4-8.7L400,22.9z"/>
</svg>
