<?xml version="1.0" encoding="utf-8"?>
<!-- Generator: Adobe Illustrator 25.2.3, SVG Export Plug-In . SVG Version: 6.00 Build 0)  -->
<svg version="1.1" id="layer" xmlns="http://www.w3.org/2000/svg" xmlns:xlink="http://www.w3.org/1999/xlink" x="0px" y="0px"
	 viewBox="0 0 500 100" style="enable-background:new 0 0 500 100;" xml:space="preserve">
<style type="text/css">
	.st0{fill:#19100A;}
</style>
<path class="st0" d="M91.4,27.6c3.2,1,4.1,2.4,4.1,4.3c0,3.7-2.7,5.3-14,5.6l10.7,8.4c-0.7,0.8-1.9,1.7-4.2,2.1v46.5
	c0,0.6-4.1,2.9-10,2.9h-2.1v-6H21.8v4.5c0,0.7-3.5,2.9-9.5,2.9h-2v-59c-2.3,0.5-4.7,0.9-7.2,1.2l-0.6-1.2
	C16.8,34.4,28.4,24.6,34,16.3H14.8c0.9,7.2-2,12.2-5.7,13.9c-3.5,1.7-8,0.5-9-3.3c-1-3.7,1.5-6.3,4.6-7.7c3.5-1.7,6.9-6.1,6.3-11.3
	l1.5-0.1c0.8,2,1.5,3.7,1.9,5.5h31.4l-0.1-0.1c0.1-4.4-2.2-9.2-5.2-11.6l0.7-0.6C58.5,1,59.7,9.4,55.4,13.3h26.2l6.4-6.4l11.3,10.6
	c-0.8,0.8-2,1.1-4.1,1.4c-3.8,2.7-10.2,6-15.1,7.9L79.4,26c0.9-2.7,2.1-6.6,2.8-9.8H67.9v0.8v9.7c0,1.1,0.2,1.6,2.8,1.6h7.1
	c2.5,0,5.1,0,6.3-0.1c0.9,0,2.3-0.1,2.9-0.2c0.7-0.1,2-0.3,2.9-0.5h0.9L91.4,27.6z M81.1,37.5c-1.5,0.1-3,0.1-4.8,0.1h-9
	c-9.7,0-11.2-2.2-11.2-9.2V16.3H37.8L48,23.3c-0.6,1.2-2.2,2-5.4,1.8c-7.2,6.2-17.8,11.5-31.3,14.5L23.1,44h13.6
	c0.9-3.7,2.1-9.2,2.7-13l16.2,3.8c-0.5,1.7-2,2.4-4.3,2.4c-2.5,1.9-6,4.6-8.9,6.8h33L81.1,37.5z M75.9,88.3V47.1H21.8v41.3H75.9z
	 M74.1,58.7c-0.6,1-1.6,1.6-4,1.2c-2,2.8-4.4,5.6-7.2,8.3c13.2,10.6,7.3,20.1,0.2,15.8c-1.8-2.7-4.5-5.9-8.1-9.6
	c-7.8,5.3-17.3,9.6-28.2,12l-0.7-1.4c9-3.8,17-9.3,23.4-15.6c-2.2-1.9-4.6-3.7-7.1-5.5c-4.9,3.5-10.7,6.6-17,8.6l-0.9-1.4
	c4.6-2.9,8.8-6.9,12.4-11.1c-3.1-2.1-6.6-4-10.2-5.8l0.6-1.4c4.6,1.1,8.7,2.4,12.4,3.6c2.3-3,4.2-6.1,5.4-8.9l11.5,5.8
	c-0.5,1-1.5,1.5-3.8,1.1c-1.4,1.7-3,3.3-4.9,5c2.7,1.1,5.1,2.3,7.2,3.4c2.7-3.4,4.9-6.8,6.6-10.3L74.1,58.7z"/>
<path class="st0" d="M147.6,13.4L159,23.8c-0.7,1.1-1.8,1.6-4.4,1.9C150.1,56.7,139.8,85,101.5,99l-0.9-1.2
	c16.5-9.7,26.8-23.4,33.3-39.6c-2.3,1.2-5.3,1.1-8.4-1.4c-0.5-5.3-3.1-11-6.3-15.6c-4.8,7.3-10.4,13.3-16.8,18.2l-1.2-0.8
	c9.3-14,16.7-35.2,19.2-57.2l17.1,3.8c-0.4,1.4-1.6,2.3-4.1,2.4c-1.1,4.6-2.5,8.7-4,12.8H141L147.6,13.4z M128.3,23.2
	c-2.2,5.4-4.6,10.4-7.2,14.9c9.8,2.6,14.5,7.2,15.7,11.3c2.6-8.3,4.2-17.1,5.2-26.2H128.3z M174.5,34.4
	c35.4,8.8,26.7,33.6,13.8,25.3c-2.3-7.5-8.2-15.7-13.8-22v57.7c0,1.1-5.3,3.6-10,3.6h-2.5v-97l16.2,1.6c-0.2,1.5-0.9,2.5-3.7,2.9
	V34.4z"/>
<path class="st0" d="M246.6,24c-0.7,0.9-2.3,1.8-4.4,2.2v62c-0.1,0.8-5.6,3.4-9.7,3.4h-1.8v-8.2H215v7.7c0,1.4-4.4,4-9.4,4h-1.9
	V16.4l11.6,4.9h0.6c0.7-5.7,1.7-13.8,2.2-19.7l16.8,4.1c-0.4,1.8-1.9,2.5-4.3,2.5c-2.7,3.6-6.8,9-10.1,13.1h9l5.5-6.2L246.6,24z
	 M215,24.3v25.8h15.8V24.3H215z M230.8,80.4V53.1H215v27.4H230.8z M297.4,24c-0.8,0.9-2.2,1.7-4.6,2c-0.7,41.9-2.2,60.9-7.9,67.1
	c-3.7,4-8.3,5.6-15.2,5.6c0-4-0.5-6.9-2.3-8.5c-1.9-2-5.9-3.6-11-4.6l0.1-1.5c5,0.4,12.2,0.9,14.9,0.9c1.9,0,2.8-0.4,3.8-1.4
	c3.8-3.5,4.9-24.2,5.6-59.7h-19.3c-5,8.8-10.9,16.2-17.6,21.8l-1.4-0.8c5.7-10.6,11.3-27.6,14-43.5l16.4,4.8
	c-0.4,1.4-1.7,2.1-4.1,2.1c-1.8,4.5-3.6,8.6-5.8,12.6h16.5l6.6-6.8L297.4,24z M251.4,42.2c30.4,8.9,19,31.4,8,22.2
	c-0.5-7.4-4.7-15.8-8.8-21.5L251.4,42.2z"/>
<path class="st0" d="M398.6,85.9c2.2,6.2,2.3,10.8,0.2,12.2c-4.8,3-9.8-0.6-12.9-5.4c-10-13.1-10.2-48.9-9.7-79.8h-51.7v24
	c0,19.2-1.1,44.8-21.3,61.8l-1.2-0.8c10-18,10.7-40.7,10.7-60.8v-32l13.7,4.9h48.7l6.2-7.1l11.9,10.1c-0.6,0.8-2.1,1.6-4.7,2.1
	c-1.6,20.2-1,56.1,5,64.1c0.8,1,1.5,0.9,2-0.5c1.2-3.6,2.4-7.7,3.2-11.8l1,0.1L398.6,85.9z M362.3,69c26.7,12.7,15.3,33.4,5.6,23.9
	c0-3.1-0.5-6.4-1.4-9.8c-9,2.7-21.3,5.9-38,9.8c-0.6,1.4-1.9,2.1-3,2.3l-6-13.3c5.3-0.1,14.5-0.3,25.3-0.8V64.3H338V68
	c0,0.8-4.2,2.8-8,2.8h-1.4V35.2l9.9,4.1h6.2V25.7h-17.7l-0.8-2.9h34l5.1-7.7c0,0,5.9,5.4,9.3,8.9c-0.3,1.1-1.4,1.7-2.7,1.7h-16.4
	v13.5h5.9l4.4-4.6l9.3,7c-0.4,0.6-1.7,1.2-3.2,1.6v22.5c0,0.6-4.9,2.5-7.9,2.5h-1.7v-3.8h-6.8v16.3l10.2-0.5
	c-1.2-3.8-2.9-7.5-4.6-10.6L362.3,69z M344.8,61.3v-19H338v19H344.8z M355.5,42.3v19h6.8v-19H355.5z"/>
<path class="st0" d="M488.5,34.8c0,0,7,5.4,11.1,9.2c-0.3,1.1-1.4,1.7-2.9,1.7h-92.4l-0.8-2.9h44.3c-0.7-3.2-3.5-6.8-5.9-8.4
	l0.7-0.7c16-2.7,16.4,6.2,11.8,9.2h28L488.5,34.8z M457.5,70.1v15.1c0,7.9-2,12.7-15.2,13.7c-0.1-3.5-0.5-6.2-2-7.8
	c-1.1-1.6-3.1-3-8-3.6v-1.5c0,0,8.9,0.6,11,0.6c1.5,0,1.9-0.6,1.9-1.7V70.1h-10.8v1.2c0,0.7-2.6,2.1-5.7,2.9l11.4,5.3
	c-0.3,1-1.2,1.7-3.7,1.4c-6.6,6.6-18.8,12.9-31.1,15.6l-0.7-1.2c8.1-5.1,15.9-13.4,20.2-20.3h-0.9h-1.7V47.6l12.9,5h32.3l5.6-6.1
	l12.1,9c-0.6,0.7-2.1,1.7-4.2,2.1v13.6c-0.1,0.7-6.4,2.7-10.3,2.7h-2.2v-3.7H457.5z M431.7,35.6c0,1.1-5.4,3.5-10.3,3.5h-1.8V2.5
	l12.8,5.1h37.9l5.6-6.1l12,8.8c-0.7,0.8-2.1,1.9-4.3,2.3v21.8c-0.1,0.6-6.2,2.7-10.2,2.7h-2.1v-4.3h-39.6V35.6z M431.7,10.6v8.1
	h39.6v-8.1H431.7z M471.4,29.9v-8.2h-39.6v8.2H471.4z M434.4,67.2h34V55.6h-34V67.2z M463.6,75.8c40.9,1.2,31.5,26.6,19.6,20.2
	c-2.5-4.9-9.8-13-20-18.8L463.6,75.8z"/>
</svg>
