<?xml version="1.0" encoding="utf-8"?>
<!-- Generator: Adobe Illustrator 25.2.3, SVG Export Plug-In . SVG Version: 6.00 Build 0)  -->
<svg version="1.1" id="layer" xmlns="http://www.w3.org/2000/svg" xmlns:xlink="http://www.w3.org/1999/xlink" x="0px" y="0px"
	 viewBox="0 0 200 100" style="enable-background:new 0 0 200 100;" xml:space="preserve">
<style type="text/css">
	.st0{fill:#19100A;}
</style>
<path class="st0" d="M88.7,7.2c0,0,7.4,5.8,11.8,9.8c-0.3,1.2-1.5,1.7-3,1.7H30.4v23.5c0,19.1-2.3,42.8-28,57.8l-1.1-1
	c12.2-13.4,15.9-29.4,16.8-45.7c-2.4,4.2-5.6,9.5-9.5,15.3c0,1.3-0.6,3-1.8,3.7L0,59.5c3.1-1.7,10.6-6.4,18.4-11.7
	c0.1-1.8,0.1-3.6,0.1-5.4V9.9l13.8,5.9h25c-0.3-0.1-0.6-0.3-0.9-0.5c-1.3-5.1-5.2-10.8-8.5-14l0.8-0.6c20.8,0.3,21.2,11.9,15.5,15.2
	h18.3L88.7,7.2z M4.3,19.5C26.6,31.3,16.1,49,8,40.7C8.4,33.8,5.9,25.6,3.2,20L4.3,19.5z M88.5,49.7c0,0,7.2,5.9,11.3,9.9
	c-0.2,1.2-1.4,1.7-2.8,1.7H67.7C64.1,77.5,54.3,90.5,26,99.8l-1.1-1.5c21-10.7,28.2-22.9,30.7-36.9H30.9l-0.8-3.1h26.1
	c0.7-5.7,0.8-11.8,0.9-18.1h-6.9c-4.5,6.8-9.8,11.9-16.1,15.7l-1.3-1c5.4-8.4,9.7-21.1,11.2-34.4l16.9,4.5c-0.4,1.4-1.8,2.3-4.2,2.3
	c-1.4,3.5-2.8,6.8-4.6,9.7h25.2l6-8c0,0,6.8,5.5,10.8,9.4c-0.3,1.2-1.4,1.7-2.8,1.7H70.1c-0.3,6.4-0.6,12.5-1.7,18.1h13.9L88.5,49.7
	z M69.1,65.8C109,80.7,101,106.1,88.2,97.4c-3.7-10-12.9-22.4-20-30.9L69.1,65.8z"/>
<path class="st0" d="M188.6,7.1c0,0,7.3,5.8,11.8,9.8c-0.3,1.2-1.5,1.7-3.1,1.7h-68V41c0,19.2-2.2,43.9-28.1,59.2l-1.1-0.8
	c11.9-13.4,15.7-29.4,16.8-45.5c-2.4,4.2-5.5,9.5-9.1,15.2c0,1.4-0.6,3-1.9,3.8l-7-13.5c3.1-1.6,10.4-6.1,18.2-11.2
	c0.1-2.4,0.1-4.7,0.1-7.1V9.6l13.8,6h26.2l-0.7-0.4c-1.2-5.2-4.9-10.8-8.1-14l0.7-0.6c20.8,0,21.5,11.5,15.7,15.1h17.1L188.6,7.1z
	 M102.4,19.5c22.6,11.8,11.9,29.8,3.6,21.2c0.5-6.8-1.9-15.1-4.9-20.7L102.4,19.5z M187.3,22c0,0,7.2,5.5,11.5,9.4
	c-0.3,1.2-1.5,1.7-3,1.7h-26.7c-0.1,4.5-0.2,8.8-0.6,12.9h12.3l5.2-6l11.7,8.8c-0.6,0.8-2.1,1.8-4.3,2.3v35.1
	c0,7.1-1.9,11.2-14.9,12.1c-0.4-3.1-0.8-5.5-2.5-7c-1.6-1.5-3.7-2.7-8.8-3.4v-1.5c0,0,10.2,0.6,12.6,0.6c1.7,0,2.1-0.7,2.1-2.1V49
	h-13.7c-0.3,2.6-0.8,5.1-1.5,7.5c21.2,10.3,13,25.6,5.1,18.9c-0.7-5-3.4-10.7-6.1-15.4c-3,8.5-8.5,15.5-19.1,21l-1.2-1.6
	c8.8-8.3,11.4-18.4,12.1-30.4h-13.4v46.4c0,1.3-4.9,3.9-9.7,3.9h-1.7V41l12.1,5h12.9c0.2-4.1,0.2-8.3,0.2-12.9h-26.1l-0.8-3.1H181
	L187.3,22z"/>
</svg>
