<?xml version="1.0" encoding="utf-8"?>
<!-- Generator: Adobe Illustrator 25.2.3, SVG Export Plug-In . SVG Version: 6.00 Build 0)  -->
<svg version="1.1" id="layer" xmlns="http://www.w3.org/2000/svg" xmlns:xlink="http://www.w3.org/1999/xlink" x="0px" y="0px"
	 viewBox="0 0 300 100" style="enable-background:new 0 0 300 100;" xml:space="preserve">
<style type="text/css">
	.st0{fill:#19100A;}
</style>
<path class="st0" d="M100.2,40.7c-0.9,1-2,1.2-4.1,1.3c-4.1,3.3-11.2,7.8-16.4,10.1l-0.9-0.7c1.3-3.2,2.8-8.1,3.8-11.9H15.9
	c1.2,8-1.8,13.5-5.8,15.5c-3.6,2.1-8.4,1-9.8-3.1c-1.1-3.8,1.4-6.7,4.8-8.3c3.7-2.1,7-7.7,6.2-13.8l1.5-0.1c1.2,2.4,2,4.7,2.6,6.8
	h48.7c3.3-6.7,6.7-15.6,8.6-22.2l17,5.6c-0.5,1.3-1.7,2.1-4,1.9c-4.5,4.3-11.4,10-18.2,14.7h14.9l6.6-6.6L100.2,40.7z M82.5,56.9
	c-0.9,1.2-1.9,1.5-4.8,1.7C73,66.4,66.9,73.3,59.6,79c11.8,4.5,25.5,6.8,39.5,8L99,88.3c-5.7,1.4-9.2,5.7-10.7,12.1
	c-14.9-3.1-27.9-7.5-38.4-15c-13.1,7.7-29.4,12.7-49.2,15L0.1,99C17,94.7,31.5,88.3,43,79.8c-6.7-6.3-11.9-14-15.6-23.9H15.9l-1-3.1
	h48.7l7.5-6.6L82.5,56.9z M40.4,15.5c-11.7,0.7-23.9,1.2-35.1,1.2l-0.2-1.8c24.5-2.8,56-9.1,72.4-14.5l11.3,11.4
	c-1.3,1.1-3.6,1.1-6.9-0.3c-11,1.6-25.1,3-40,3.9c25.4,7.7,12.9,26.5,3.1,17.4c0.1-6.1-2.2-12.7-4.8-17.2L40.4,15.5z M17.9,16.9
	c26.8,6.1,14.8,25.6,4.8,16.7c-0.1-5.6-2.9-11.9-5.7-16.1L17.9,16.9z M29.6,55.9c4.6,8,11.5,13.9,19.9,18.5
	c5.8-5.4,10.6-11.6,14-18.5H29.6z"/>
<path class="st0" d="M136.5,14c0,0,6,4.9,9.7,8.4c-0.2,1.2-1.4,1.7-2.8,1.7h-42.6l-0.9-3.1h31.2L136.5,14z M127.5,34.7l5.2-6.7
	c0,0,5.7,4.7,9.2,8.1c-0.3,1.2-1.4,1.7-2.8,1.7h-33.9l-0.9-3.1H127.5z M132.7,41.9c0,0,5.7,4.5,9.2,7.9c-0.3,1.2-1.4,1.7-2.8,1.7
	h-33.9l-0.9-3.1h23.1L132.7,41.9z M193.2,84.4c0,0,5,5.4,7.7,9c-0.3,1.2-1.3,1.7-2.8,1.7h-59l-0.7-2.7c-1.7,1.1-5.3,2.3-8.1,2.3
	h-1.9v-5.7h-11.7v6.4c0,1.1-4.7,3.5-9.2,3.5h-1.6V57.7l11.3,4.6h10.3l5.1-5.5l10.8,8.2c-0.6,0.7-2,1.6-4,2v24.7
	c0,0.1-0.1,0.2-0.3,0.4h8.5V4.3L160,9.1h15.4l5.2-6.8l12.7,9c-0.7,1.2-2.1,1.8-4.8,2.1v78.6h0.2L193.2,84.4z M111.3,1.9
	c28.1,1.4,18,22.6,6.7,15.2c-0.7-5.3-4.3-11.1-7.4-14.6L111.3,1.9z M128.3,86.1V65.3h-11.7v20.8H128.3z M159,12.1v23.5h17.5V12.1
	H159z M159,63.2h17.5V38.7H159V63.2z M159,92.1h17.5V66.2H159V92.1z"/>
<path class="st0" d="M296,83.9c3.2,1.4,4,2.8,4,5.2c0,5.1-4.8,7.7-19.8,7.7h-8.8c-10.2,0-12.2-2.4-12.2-10.8v-35H238v10.4
	c0,12.4-3.4,29.1-35.9,37.8l-0.6-1.1c20.1-10.5,23.4-24.1,23.4-36.8V42.7l15.2,5.3h18l6.1-7l11.7,9.2c-0.6,0.9-1.8,1.5-3.8,1.8v30.7
	c0,1.5,0.4,1.9,3,1.9h6.8c2.3,0,4.6,0,5.7-0.1c1.1,0,1.9-0.2,2.4-1.1c1.1-1.5,2.8-5.8,4.5-10.7h1.2L296,83.9z M219.8,38.7
	c0,1.1-5,3.6-9.6,3.6h-1.7V3l11.7,4.8h11.6l5.3-5.7l11.3,8.4c-0.5,0.9-2,1.7-3.9,2.1v23.8c-0.1,0.7-6,2.9-9.6,2.9h-2v-5.4h-13.1
	V38.7z M219.8,10.8v20h13.1v-20H219.8z M265.3,37.2c0,1-5,3.5-9.9,3.5h-1.7V3l12,4.8h12.1l5.4-6.1l11.7,8.9
	c-0.7,0.7-2.2,1.7-4.4,2.1v24.5c-0.1,0.6-6,2.8-9.8,2.8h-1.9v-6.2h-13.6V37.2z M265.3,10.8v20h13.6v-20H265.3z"/>
</svg>
