<?xml version="1.0" encoding="utf-8"?>
<!-- Generator: Adobe Illustrator 25.2.3, SVG Export Plug-In . SVG Version: 6.00 Build 0)  -->
<svg version="1.1" id="layer" xmlns="http://www.w3.org/2000/svg" xmlns:xlink="http://www.w3.org/1999/xlink" x="0px" y="0px"
	 viewBox="0 0 500 100" style="enable-background:new 0 0 500 100;" xml:space="preserve">
<style type="text/css">
	.st0{fill:#19100A;}
</style>
<path class="st0" d="M88.5,57.9c0,0,6.9,5.1,11,8.8c-0.2,1.1-1.4,1.7-2.9,1.7H71.2V89h9.7V72.4l15.4,1.2c-0.2,1.6-1,2.5-3.8,2.9
	v19.3c0,0.7-5.1,2.4-9.6,2.4h-2V92H50.1l-3.4,4.1l-11.8-5.3c0.8-0.8,2-2,3.2-2.8V71.8l15.2,1.5c-0.3,1.6-1.1,2.6-3.8,3V89h10.4V68.4
	H33.2l-0.8-2.9H60V52.9h-6.1c-5,4.2-10.9,8-16.6,10.5l-0.9-0.8c3.7-4.2,7.9-10.9,10.6-17.1c-4.3,1-8.7,1.9-13.4,2.5L33,46.5
	c12.9-3.7,24.3-9,33.4-15.9c-0.4,0-0.7,0-1.1-0.1C61.8,27,55,23,50,20.9c-3.4,1.8-7.3,3.2-11.2,4.4c0.5,0.6,1,1.1,1.5,1.7
	c-0.3,1.1-1.2,1.7-2.7,1.7H25.5v15.6c3.6-1.4,7.2-2.7,10.8-4.2l0.5,1.1c-3,2.5-6.7,5.5-11.3,9v34.1c0,8.3-1.6,13.1-14.2,14.4
	c-0.2-4-0.6-7-2-8.9s-3.4-3.1-7.6-4v-1.5c0,0,8.5,0.5,10.5,0.5c1.6,0,2-0.5,2-1.8V58.6c-2.1,1.5-4.4,3-6.7,4.6
	c-0.4,1.4-1.2,2.6-2.4,3L0,53c2.8-0.8,7.9-2.5,14.1-4.7V28.6H1.8l-0.8-3h13.2V1.2l15.2,1.5c-0.2,1.6-1.2,2.6-3.8,2.9v20h1.1l5-7.9
	c0,0,2.8,2.8,5.5,5.8C45.7,18.2,53,9.8,56.3,1.1l14.5,7c-0.6,0.9-1.5,1.2-4.1,0.4c-1.2,1.6-2.8,2.9-4.5,4.4h18l6.8-6l10.6,9.4
	c-0.8,1-1.9,1.4-4.5,1.6c-8.4,11.9-21.6,20.5-38.4,25.6l9.2,2.5c-0.4,1.1-1.2,1.6-4,1.4c-0.8,0.8-1.8,1.8-2.8,2.7h20.4l5.9-7.2
	c0,0,6.4,4.8,10.7,8.5c-0.3,1.1-1.4,1.7-2.8,1.7H71.2v12.6h11.2L88.5,57.9z M59.8,29.7c-4.3,2.4-10,5.5-17.7,8.9
	c-0.6,1.2-1.7,2.1-2.8,2.2l-3.7-10.6c5.4,0.2,15.3-0.6,24-2L59.8,29.7z M58.6,15.8C57,16.9,55.3,18,53.7,19
	c12.7-1.5,17.4,3.8,17.1,7.8c3.6-3.4,6.7-7.1,9-11C79.8,15.8,58.6,15.8,58.6,15.8z"/>
<path class="st0" d="M194.4,85c3.2,1.2,3.8,2.6,3.8,4.8c0,4.7-4.1,6.9-20.8,6.9h-10.2c-10.3,0-12.3-2.1-12.3-9.8V66h-9.7
	c-2.9,18.9-16.3,28.7-43.1,32.8l-0.4-1.2c19.6-6.8,27.1-16.4,28.8-31.5h-26.4l-0.8-3h40.4V40.5l15.7,1.2c-0.2,1.4-0.9,2.3-3.4,2.7
	V63h5.3c4-6,8.1-14.4,10.5-20.4l15,5.9c-0.5,1.1-1.9,1.9-4.3,1.6C178.2,54,171.3,59,164.8,63h14.9l6.4-8.3c0,0,7.1,5.7,11.5,9.7
	c-0.3,1.1-1.4,1.7-2.9,1.7h-28.1v1.7v16.6c0,1.4,0.4,1.8,3.4,1.8h8.6c3.2,0,6,0,7.4-0.1c1.2-0.1,1.8-0.4,2.4-1.4
	c1-1.7,2.5-6,4.5-11.8h1.1L194.4,85z M115.8,43.9c28.8,2.4,20,24.2,8.7,17c-1-5.9-5.4-12.4-9.6-16.2L115.8,43.9z M130.1,39.7
	c0,1.1-5.3,3.7-10.4,3.7H118V2.8l12.9,5h38.4l5.6-6.2l12,9.2c-0.7,0.7-2.1,1.7-4.3,2.1V39c-0.1,0.8-6.2,2.9-10.3,2.9h-2V38h-40.2
	L130.1,39.7L130.1,39.7z M130.1,10.8v10.5h40.2V10.8H130.1z M170.4,35.1V24.3h-40.2v10.8H170.4z"/>
<path class="st0" d="M284.1,38.8c0,0,7.4,5.4,11.9,9.3c-0.3,1.1-1.2,1.7-2.8,1.7h-30.1c-5.2,3.5-11,6.9-17.2,10h23.2l5.5-6.1
	l11.9,8.9c-0.7,0.8-2.2,1.8-4.4,2.2V95c-0.1,0.7-6.1,2.9-10,2.9h-2V91h-32.4v3.6c0,1.1-5.2,3.8-10.2,3.8h-1.7v-30
	c-7.5,2.8-15.1,5.3-23.1,7.1l-0.7-1.4c8.2-3.1,16.1-6.9,23.8-11v-8.5l8.8,3.4c4.6-2.7,8.9-5.6,13-8.5h-41.9l-0.9-2.9h31.4v-11h-20.5
	l-0.8-3h21.3V21.3l15.3,1.4c-0.1,1.2-0.9,2.2-3.3,2.6v7.4h3.5l5.9-7.2c0,0,5.7,4.3,9.9,7.8c4.4-4.1,8-8.1,11.1-12.1l12.9,8.2
	c-0.7,1-1.9,1.6-4.3,0.8c-5.3,5.5-12.1,11.2-19.9,16.5h10.2L284.1,38.8z M203,12h16.7l-1.4-10.9l15.3,1.1c0,1.2-0.8,2.2-2.9,2.8
	l0.8,7h4.8l5.5-7.7c0,0,6.2,5.3,9.9,8.9c-0.2,1.1-1.4,1.7-2.8,1.7h-17l0.8,6.8c-1.7,2.2-6,3.2-11.5,3l-1.2-9.8h-16.2L203,12z
	 M239.9,62.7c-0.7,0.3-1.5,0.6-2.2,1v9.9h32.4V62.7H239.9z M270.2,88.2V76.6h-32.4v11.5L270.2,88.2L270.2,88.2z M251.7,46.8
	c4.9-3.6,9.4-7.4,13.4-11.1h-16.8v11.1C248.3,46.8,251.7,46.8,251.7,46.8z M288.7,4.3c0,0,6.3,5.3,9.9,8.9c-0.3,1.1-1.4,1.7-2.8,1.7
	h-18.4l-1.1,6.9c-2.3,1.7-7.1,2.4-12.1,1.4l1.2-8.2h-11.1l-0.8-2.9h12.4l1.8-11.2l15.1,2.6c-0.2,1.2-1.1,2.4-4,2.7l-0.9,5.9h5.4
	L288.7,4.3z"/>
<path class="st0" d="M386.8,12.6c0,0,8.1,6.2,12.8,10.4c-0.3,1.1-1.5,1.7-2.8,1.7h-94.2l-0.8-2.9h55.6c2.8-6.1,5.9-14.5,7.6-20.4
	l17.2,4.3c-0.4,1.4-1.7,2.2-4.1,2.2c-4.2,4-11,9.6-17.4,13.9h19L386.8,12.6z M340.3,29.4l11.5,8.9c-0.6,0.8-2.1,1.8-4.3,2.1v45
	c0,7.7-1.6,12.1-13.5,13c-0.1-3.4-0.5-6-1.6-7.8c-1-1.6-2.5-2.8-6.1-3.5v-1.4c0,0,6,0.4,7.9,0.4c1.5,0,1.8-0.7,1.8-1.9V70.8h-14.2
	c-1,10.3-4.8,20.8-17.3,28.4l-0.9-0.9c6.9-10.4,7.1-23.9,7.1-37.3V30.8l13.4,4.8H335L340.3,29.4z M336,67.8V54.1h-13.8V61
	c0,2.3,0,4.6-0.2,6.9L336,67.8L336,67.8z M322.2,38.6V51H336V38.6H322.2z M323.9,1.7c29.5,2.6,19.7,25.2,8,17.3
	c-1-6-5-12.5-8.8-16.5L323.9,1.7z M367.6,76.5c0,0.9-4.8,2.7-9,2.7h-2.1v-46l15,1.4c-0.2,1.5-0.9,2.5-3.8,2.9v39H367.6z M377.2,30
	l15.3,1.5c-0.2,1.5-1.2,2.4-3.6,2.7V85c0,8.1-1.9,12.6-15.5,13.7c-0.2-3.5-0.8-6.1-2.5-8c-1.7-1.7-4.1-2.9-9.5-3.8v-1.4
	c0,0,11.4,0.6,13.6,0.6c1.7,0,2.2-0.4,2.2-1.8V30z"/>
<path class="st0" d="M439.3,54.5c-0.6,0.2-1.5,0.4-2.7,0.5c-3,7.4-8.6,15.1-16,21.2c0.7,0.1,1.4,0.5,2.2,1
	c8.2,6.7,20.6,8.2,43.1,8.1c12.2,0,22.2-0.1,34.2-0.7v1.2c-4.9,1-7.8,5.4-8.4,10.2h-29.8c-22.3,0-31.4-4.3-40.2-15.1
	c-1.6-1.9-2.7-1.7-3.6,0.2c-1.8,3.1-4.7,8.7-6.9,14c0.3,0.9-0.1,1.6-0.8,2.1l-8.3-11.8c3.8-2.1,9-5.5,12.6-7.7
	c4.5-6.7,8.1-15.9,9.8-23.9h-5.6l-3.8,3.5l-9.6-6.7c1-0.7,2.6-1.6,4.1-2.1c3.2-4.9,7.4-12,10-17.1h-14.9l-0.9-3h16.4l5.3-5.3
	l10.1,9.2c4-9.3,7.6-20.6,9.9-31.3l16.3,5.1c-0.3,1.4-1.7,2.3-4.1,2.2c-1.9,4-3.7,7.8-5.9,11.4l1,0.4h15.1c-1-0.3-2-0.9-2.9-1.8
	c0-5.9-2.7-12.7-5.5-17.3l1-0.5c18.3,5.7,16.8,17.4,11.2,19.6h7.5l6.2-7.6c0,0,6.9,5.2,11.2,8.9c-0.3,1.1-1.5,1.7-2.9,1.7h-20.1
	v14.1h4.6l6-7.5c0,0,6.8,5.1,10.8,8.8c-0.2,1.1-1.2,1.7-2.8,1.7h-18.6v14h4.6l6-7.5c0,0,6.8,5.1,10.8,8.8c-0.2,1.1-1.2,1.7-2.8,1.7
	h-18.6v15.5h7l6.3-8.1c0,0,7.4,5.5,11.9,9.5c-0.2,1.1-1.5,1.7-2.9,1.7h-44.5V78c0,0.8-3.6,3.5-9.8,3.5h-2.1v-27H439.3z M407.3,2.9
	c29.5,1.4,20.8,23.9,9,16.6c-1.2-5.7-5.7-12.2-9.9-16L407.3,2.9z M423.7,51l6.2-6l9.4,7.6V36.1c-2.4,2.6-4.9,4.8-7.4,6.9l-1.2-0.8
	c1.4-2.5,2.7-5.4,4.1-8.5c-1.1,0.6-2.9,1-5,1c-2.6,4.4-6.9,11.4-10,16.4L423.7,51L423.7,51z M451.1,23.4v14.1h10.6V23.4H451.1z
	 M461.7,40.5h-10.6v14h10.6V40.5z M461.7,57.6h-10.6v15.5h10.6V57.6z"/>
</svg>
