<?xml version="1.0" encoding="utf-8"?>
<!-- Generator: Adobe Illustrator 25.2.3, SVG Export Plug-In . SVG Version: 6.00 Build 0)  -->
<svg version="1.1" id="layer" xmlns="http://www.w3.org/2000/svg" xmlns:xlink="http://www.w3.org/1999/xlink" x="0px" y="0px"
	 viewBox="0 0 200 100" style="enable-background:new 0 0 200 100;" xml:space="preserve">
<style type="text/css">
	.st0{fill:#19100A;}
</style>
<g>
	<path class="st0" d="M1.5,25.9c28.1,1.5,20,22.4,8.9,15.7c-1.4-5.5-5.8-11.3-9.8-15.1L1.5,25.9z M35.4,16.5
		C31,30,23.4,55.1,21.9,61c-0.9,3.7-1.7,7.5-1.7,10.2c0.2,5.7,4.4,9.4,4.1,18.5c-0.1,5.4-3.6,8.8-8.7,8.8c-2.5,0-4.9-1.5-5.7-5.4
		c2-10.9,1.5-20.6-1-22.4c-1.5-1-3.2-1.5-5.5-1.7v-2h4.8c1.6,0,2,0,3.1-2.2c2.4-4.2,2.4-4.2,22.6-49L35.4,16.5z M10.7,2.5
		c29.4,2.6,20.4,24.1,9.2,16.8c-1.6-5.8-6.1-12.1-10-16.1L10.7,2.5z M82.5,27.8l11.8,8.9c-0.6,0.8-2.2,1.8-4.3,2.2v45.4
		c0,7.9-1.7,12.5-14.8,13.7c-0.3-3.8-0.7-6.6-2.1-8.3c-1.5-1.7-3.4-3.1-8.1-4v-1.4c0,0,8.7,0.6,11,0.6c1.7,0,2.1-0.7,2.1-2.1V64.8
		c-6.9,4.1-15.4,8.7-26.3,13.8c-0.5,1.4-1.6,2.4-2.8,2.7l-4.5-10.1c-2.1,9.9-7,20-18,27.4l-1-0.9c8.4-13.3,8.9-30,8.9-44.6V29.2
		L48,34h9.5V1l15.2,1.4c-0.2,1.4-0.8,2.3-3.4,2.7V34h7.9L82.5,27.8z M34.7,7.9c29.6,7.3,20,28.9,9.2,20.9c-1-7.1-5.8-15-10.1-20.3
		L34.7,7.9z M46.2,53c0,4.5-0.1,9.6-0.9,14.8c7.7-1,20.5-3.5,32.9-6.7V37H46.2v10.1C81.4,40.6,80,61.8,68.9,60
		c-4.1-2.9-12.6-7.1-22.7-9.7V53z M97.2,14.4c-0.5,1-1.6,1.6-4.1,1.2C87.9,20,80.1,26.3,72.8,31l-1.1-1c4.3-7.3,9.5-18.2,11.8-24.3
		L97.2,14.4z"/>
	<path class="st0" d="M182.2,64.9c-0.4,5.2-0.9,9.5-1.6,13.2h2.1l5.5-7.3c0,0,6.2,5.1,9.9,8.6c-0.3,1.1-1.4,1.7-2.7,1.7h-15.3
		c-1.5,7.1-3.4,11.2-6.1,13.5c-3.4,3-7.8,3.8-13.5,3.7c0-3.1-0.3-5.4-1.7-7c-1.6-1.7-4.4-2.9-8.3-3.7v-1.5c3.5,0.3,9.2,0.7,11.2,0.7
		c1.8,0,2.7-0.3,3.7-1.1c0.8-0.7,1.7-2.3,2.3-4.7h-21.6c-5.1,6.9-12.6,13-23.9,17.9l-1-1.4c6.8-5.1,11.5-10.7,15-16.5h-11.6
		l-4.4,5.2l-11.3-6.8c0.9-0.8,2.3-1.8,3.8-2.4c0.8-3.4,1.9-7.7,2.8-12.3h-13l-0.8-3h14.5c1.6-7.8,3-15.9,3.6-21.3l13.9,5h36.8
		l6.2-6.1l10.8,9.3c-0.8,0.8-2.2,1.5-4.4,1.8c-0.2,4.2-0.4,7.9-0.7,11.4h2.3l5.6-7.4c0,0,6.2,5.1,10,8.7c-0.3,1.1-1.4,1.7-2.8,1.7
		H182.2z M144.1,35v-9.6h-30.9l-0.8-3h31.7v-9h-33.1l-0.9-3h34V1.1l16,1.4c-0.2,1.5-0.9,2.5-3.7,2.9v5h18.3l6.3-7.4
		c0,0,7,5.1,11.3,8.7c-0.3,1.1-1.4,1.7-2.9,1.7h-33.1v9h18.2l5.8-7.1c0,0,6.7,4.8,10.8,8.4c-0.3,1.1-1.4,1.7-2.8,1.7h-32V35h24.8
		l6-7.2c0,0,6.9,4.8,10.9,8.4c-0.2,1.1-1.2,1.7-2.7,1.7H104l-0.8-2.9H144.1z M137.8,78.1c2.2-4.4,3.6-8.7,4.7-13.2h-15
		c-1,4.8-2.2,9.4-3.1,13.2H137.8z M130.8,48.5c-0.7,3.8-1.7,8.4-2.7,13.3h15.1c0.8-4.5,1.2-8.8,1.6-13.3H130.8z M168.6,78.1
		c0.6-3.4,1.2-7.7,1.8-13.2h-16.6c-1.2,4.7-3,9-5.6,13.2H168.6z M156.5,48.5c-0.4,4.6-1,8.9-2.1,13.3h16.2c0.3-4,0.5-8.3,0.8-13.3
		H156.5z"/>
</g>
</svg>
