<?xml version="1.0" encoding="utf-8"?>
<!-- Generator: Adobe Illustrator 25.2.3, SVG Export Plug-In . SVG Version: 6.00 Build 0)  -->
<svg version="1.1" id="layer" xmlns="http://www.w3.org/2000/svg" xmlns:xlink="http://www.w3.org/1999/xlink" x="0px" y="0px"
	 viewBox="0 0 200 100" style="enable-background:new 0 0 200 100;" xml:space="preserve">
<style type="text/css">
	.st0{fill:#19100A;}
</style>
<path class="st0" d="M83.4,43.7c0,0,5.7,4.3,9.4,7.4c-0.1,0.4-0.3,0.7-0.6,1c1.4,1,5.9,4.6,9,7.3c-0.2,1.1-1.4,1.7-2.8,1.7h-66
	l-0.2-0.8c-1.4-0.1-2.8-0.6-4.1-1.8c-0.3-3.1-1.6-6.7-3-9.6v46.4c0,0.8-3.6,3.5-9.2,3.5h-2V58.1c-3.8,3.6-8,7-12.3,9.7l-1-0.9
	c10-11.3,18.6-27,22.3-40.1H3.6l-0.9-3h19.6l6.4-6.1l10.6,10.2c-0.9,0.9-2.2,1.1-4.6,1.5c-2.4,5.3-5.5,10.9-9.6,16.3
	c11.8,3.1,13.4,9.3,11.2,12.5h50.1l4.5-5.4c-0.3,0.1-0.6,0.1-1,0.1H38.1l-0.8-2.9H58v-7.6H41.7l-0.8-3h31.7l4.2-5.1H35.5l-0.9-3
	h52.8l5.2-5.3l9.5,9c-0.8,0.7-1.9,0.9-4,1c-2.5,2.7-6.8,6.6-10.1,8.6l-1.1-0.6c0.5-2.6,1-6.6,1.5-9.8h-10c1.9,1.4,5.3,4.2,7.8,6.4
	c-0.2,1.1-1.2,1.7-2.7,1.7H69v7.6h9.5L83.4,43.7z M12.9,1.6c25.8,5.2,12.8,22.7,3.4,14c0-4.8-2.2-10.1-4.3-13.5L12.9,1.6z
	 M93.3,64.1c0,0,4.4,3.5,7.3,6.1c-0.3,1.1-1.2,1.7-2.6,1.7h-9.8v16c0,6.8-1.5,10-12.4,10.9c-0.3-2.5-0.6-4.5-1.7-5.7
	c-1.2-1-3-2.1-6.9-2.7V89c0,0,7.6,0.6,9.3,0.6c1.4,0,1.7-0.5,1.7-1.7v-16H64.2l-0.4-1.6c-0.7,0.4-1.7,0.8-2.8,1v19.9
	c-0.1,0.6-4.5,2.4-7.4,2.4h-1.5v-4.6h-7.5v4.3c0,0.8-4,2.8-7.8,2.8h-1.2V63.4l9.5,4h6.2l4.2-4.5l8.2,6.1h14.5v-7.6l13.5,1.2
	c-0.2,1.6-1.2,2.3-3.5,2.6V69h1.2L93.3,64.1z M36.2,12.6H58V1.3l14.8,1.2c-0.1,1.4-0.9,2.3-3.3,2.7v7.3H83l5.6-7
	c0,0,6.3,4.8,10.2,8.2c-0.3,1.1-1.2,1.7-2.7,1.7H69.4v7.4h9.3l5.2-6.6c0,0,5.9,4.6,9.7,7.9c-0.2,1.1-1.2,1.7-2.7,1.7h-50l-0.8-3h18
	v-7.4H37L36.2,12.6z M52.2,86.2V70.4h-7.5v15.8H52.2z M64.3,73.2c20.2,4.3,10.1,17.4,2.9,10.9c-0.2-3.6-2.2-7.7-4-10.4L64.3,73.2z"
	/>
<path class="st0" d="M187.8,33.8c0,0,7.9,6.2,12.6,10.6c-0.3,1.1-1.4,1.7-2.9,1.7h-93l-0.8-3h41.9V23.4h-18.2
	c-4.2,6.6-9.5,12.5-15.6,16.8l-1.2-0.9c5.6-9.3,10-24.2,11.8-37.2l16.5,4.5c-0.4,1.2-1.7,2.2-4,2.2c-1.5,3.8-3.3,7.8-5.6,11.6h16.3
	V1.1l16.5,1.5c-0.2,1.5-1,2.5-3.8,2.9v14.9h14.2l7.2-9.2c0,0,8.1,6.1,12.8,10.5c-0.3,1.1-1.5,1.7-2.8,1.7h-31.4V43h22.6L187.8,33.8z
	 M176.8,52.8L189,62c-0.7,0.8-2.3,1.8-4.6,2.3V95c-0.1,0.7-6.1,2.9-10.2,2.9h-2.1V90h-40.9v5c0,1.1-5.3,3.7-10.3,3.7h-1.7V54
	l12.8,5.1h39L176.8,52.8z M172.1,87.1V62.1h-40.9v25.1H172.1z"/>
</svg>
