<?xml version="1.0" encoding="utf-8"?>
<!-- Generator: Adobe Illustrator 25.2.3, SVG Export Plug-In . SVG Version: 6.00 Build 0)  -->
<svg version="1.1" id="圖層_1" xmlns="http://www.w3.org/2000/svg" xmlns:xlink="http://www.w3.org/1999/xlink" x="0px" y="0px"
	 viewBox="0 0 51 51" style="enable-background:new 0 0 51 51;" xml:space="preserve">
<style type="text/css">
	.st0{fill:#C3A0BC;}
</style>
<path class="st0" d="M48.2,0H2.8C1.2,0,0,1.2,0,2.8v45.4C0,49.8,1.2,51,2.8,51h24.4c0-6.6,0-13.1,0-19.6c-0.2,0-0.3,0-0.5,0
	c-1.9,0-3.8,0-5.7,0c-0.3,0-0.5-0.1-0.5-0.4c0-2.3,0-4.6,0-6.9c0-0.3,0.1-0.5,0.4-0.5c1.9,0,3.9,0,5.8,0c0.1,0,0.3,0,0.5,0
	c0-0.2,0-0.3,0-0.4c0-1.7,0-3.4,0-5.1c0-0.9,0.1-1.7,0.2-2.6c0.3-1.7,0.9-3.3,2.1-4.6c1.9-2.2,4.3-3.1,7.1-3.1c2,0,4.1,0.2,6.1,0.2
	c0.4,0,0.4,0.2,0.4,0.5c0,2,0,4,0,6.1c0,0.5,0,0.5-0.5,0.5c-1.6,0-3.2,0-4.7,0.1c-1.3,0.1-2.2,0.8-2.5,2c-0.1,0.4-0.2,0.8-0.2,1.2
	c0,1.6,0,3.3,0,4.9c0,0.1,0,0.2,0,0.4c2.5,0,5.1,0,7.6,0c-0.1,1-0.2,1.9-0.4,2.8c-0.2,1.5-0.4,3-0.6,4.6c0,0.3-0.1,0.4-0.5,0.4
	c-1.9,0-3.8,0-5.8,0c-0.1,0-0.3,0-0.5,0c0,6.5,0,13.1,0,19.6h13c1.5,0,2.8-1.2,2.8-2.8V2.8C51,1.2,49.8,0,48.2,0z"/>
</svg>
