<?xml version="1.0" encoding="utf-8"?>
<!-- Generator: Adobe Illustrator 25.2.3, SVG Export Plug-In . SVG Version: 6.00 Build 0)  -->
<svg version="1.1" id="圖層_1" xmlns="http://www.w3.org/2000/svg" xmlns:xlink="http://www.w3.org/1999/xlink" x="0px" y="0px"
	 viewBox="0 0 1574.3 1060.8" style="enable-background:new 0 0 1574.3 1060.8;" xml:space="preserve">
<g>
	<g>
		<path d="M1271.3,578.5c5.7-7.8,12.9-12.9,30.8-16.2v-4.4c0,0-36.5,2-44,2c-5.1,0-6.8-1.7-6.8-5.4V446.3c2.4,1,5.1,1.7,8.8,1.7
			c20.6,46,48.7,81.5,81.8,105.2l4.1-2.7c-16.6-31.5-32.8-80.8-40.6-127.5l-54.1,16.6v-66.3l-60.2,5.1c0.7,5.1,4.1,8.1,11.8,9.5
			v170.1c0,32.8,7.1,50.7,59.5,55.5C1263.8,597.5,1265.5,586,1271.3,578.5z M1440,471.7l3.7-2.4c-26.7-43.3-53.4-111.3-65.3-177.2
			l-64.9,19.3c1.7,4.4,6.1,7.4,13.9,7.1c10.1,26.7,22,50.1,35.2,71l-21.6,8.1c1,3,3.7,5.4,10.5,6.8v194.8
			c0.7,3.4,20.6,13.5,39.9,13.5h9.1V437.8C1412.6,450.4,1425.8,461.9,1440,471.7z M1343.3,434.5c-21-34.2-42.3-88.9-52.8-141.4
			l-62.2,23c1.7,4.4,6.4,7.1,14.2,6.4c6.4,13.9,13.5,26.4,21.3,38.2h-84.9l-24.3-24.3l-41.9,39.6c2.7,3,6.1,4.1,13.5,4.4
			c12.9,13.5,34.8,31.8,52.8,42.3l2.4-2c-2.4-14.5-4.7-34.8-5.7-50.4h94.7c19.6,27.7,43,50.1,69.3,67L1343.3,434.5z M1163.4,536.9
			c3-36.5,17.6-75.8,31.8-108.2l-3.4-1.7C1076.8,482.8,1117.7,578.5,1163.4,536.9z M1023.4,424.7h79.5l2.7-9.5H1019
			c-4.4-10.1-8.5-21-12.2-31.5h72.7l2.7-9.5h-78.5c-3-9.5-5.4-19.3-7.8-29.1c31.8,1,63.9,1.4,93.7,0.7l0.7-5.1
			c-78.1-9.5-179.2-30.4-231-48.4l-41.3,42.3c4.1,3.4,12.2,3.4,24-1.4c28.1,3.7,62.9,7.1,100.4,9.5c3,10.8,6.1,21.3,10.1,31.5H879
			l-23.7-29.1c0,0-27.1,19.3-43.6,33.1c1,3.7,4.7,5.4,9.5,5.4h135.3c4.4,10.8,9.5,21.3,15.2,31.5H859.7L835,384.7
			c0,0-28.1,20.3-45,34.5c0.7,3.7,4.7,5.4,9.8,5.4h177.2c4.1,6.4,8.5,12.9,12.9,18.9L975,449h-88.3l-21.3-23l-43,32.8
			c2,2.4,5.7,5.1,11.8,6.4v135.6c0.3,2.7,24.3,11.8,40.6,11.8h8.5V588h96.4v12.2c0,3.4,14.5,13.9,39.2,13.9h9.1V485.2
			c22.3,20,48.7,37.2,79.5,51.4l3-3.4C1073.1,505.1,1044,466.9,1023.4,424.7z M979.8,489.9h-96.4v-31.5h96.4V489.9z M979.8,533.6
			h-96.4v-34.2h96.4V533.6z M979.8,578.5h-96.4V543h96.4V578.5z M688.9,498c7.8,4.4,20.6,8.8,33.5,8.8h7.4V296.5l-51.1,20H566.8
			l-22-24.3l-44,34.2c2.4,3,6.4,5.7,13.5,7.4V492c0.3,2.7,24,12.2,40.9,12.2h8.1v-16.9h5.1v2.4v66.6c0,4.4-1.4,6.1-10.5,6.1h-28.4
			c-8.5,0-16.9,0-21.6-0.3c-4.7-0.3-6.4-1.4-9.1-5.1c-4.4-6.4-10.1-22.3-18.6-44.6h-3.4l-1,46.7c-12.2,4.7-14.9,10.1-14.9,19.3
			c0,18.6,15.9,28.1,74.4,28.1h33.8c38.2,0,46.7-7.8,46.7-38.6v-80.5h18.9c6.4,70,47.7,109.9,144.7,125.5l1-3.7
			C716.7,584.3,693.7,548.8,688.9,498z M681.5,369.5h-118v-43.6h118V369.5z M681.5,423.3h-118V379h118V423.3z M681.5,477.8h-118v-45
			h118V477.8z M264.9,498.7c0.7-24.3,10.5-50.7,22.3-69.7l-2.7-1.7C177.6,452,223.3,534.9,264.9,498.7z M130.6,369.5
			c2.7,3.4,7.1,5.7,15.2,7.1c2.4,142,6.4,196.8,26.4,217.5c13.2,13.2,28.7,18.9,54.1,18.9c0-15.9,2-27.1,8.1-33.8
			c6.4-7.4,18.9-13.5,36.5-17.2l-0.3-4.1c-16.2,1.4-39.2,2.7-48,2.7c-5.8,0-9.1-1.4-12.5-4.4c-12.2-10.8-15.2-73-17.2-188h52.1
			c17.6,29.1,38.2,52.8,61.9,71.4l2-1.4v137c0.3,3,22.3,12.5,38.2,12.5h7.4v-26.7h41.6v23.3c0,5.1,17.2,15.6,36.9,15.6h7.1V341.5
			L397.4,359c-1.7-18.9-3-45.7-4.1-64.9l-65.3,15.6c1.7,6.1,6.4,8.5,14.5,8.5c10.1,11.8,25.4,28.7,37.5,41.9h-22.3l-21-23.3
			l-41.6,32.8c2.4,3,6.8,5.7,13.5,7.4v56.5c-15.9-35.8-32.1-90.3-39.6-140l-62.9,18.3c1.4,4.4,5.7,7.1,13.5,7.1
			c5.8,14.2,12.2,27.4,19.3,39.9h-42.3L171.5,333L130.6,369.5z M354.5,462.9h41.6v88.6h-41.6V462.9z M354.5,369.5h41.6v83.9h-41.6
			V369.5z M1322.6,692.8v-7.9h46.5v4c0,2,9.8,6.8,18.9,6.8h3.2v-62l-23.2,8.8H1324l-9.5-10.5l-19.8,14.9c0.9,1.2,2.6,2.6,5.6,3.2
			v38.2c0.1,1,11.3,4.6,18.3,4.6H1322.6z M1369.1,661.5h-46.5v-15h46.5V661.5z M1322.6,680.8v-15.3h46.5v15.3H1322.6z M1333.3,703.2
			v19.8h-12l-11.1-15.1c0,0-12.7,10.1-20.2,16.9c0.4,1.6,2.2,2.3,4.3,2.3h39v21.2c-1.9,0-3.9,0-5.9,0c-11,0-38.1,0-49.8-0.3v1.6
			c6.3,1.6,9.2,8.7,9.2,16.4h40.8c25.2,0,39.2-5.9,46.7-28.4c7.5,12.3,20.2,23.2,41.1,30.6l0.9-1.3c-20.9-16-26.8-39.1-27.7-57.4
			l-28,4.8c0.4,2.2,1.9,3.6,5.6,3.6c1.3,5.3,3.2,10.7,5.9,15.9c-4.3,6.2-9.7,9.8-16.7,12v-42.4h57.7l1.2-4h-108.2l-10.2-14.1
			c0,0-11.5,9.5-18.3,15.9c0.4,1.6,2,2.3,4.2,2.3H1333.3z M1142,745.3c-5.6,9.5-6.3,14.7-3.6,17.6c7.5,7.6,20.8,1.3,27.7-4.6
			c6.2-5.3,11.3-11.3,15.6-17.7c11.3,9.2,25,17,41.5,22.4l1-1.6c-14.6-8.7-26.5-20.1-36.1-32.5c6.5-13.8,10-29.6,11.8-46.6h22.7
			v19.3c-7.6-1-15.6-2.2-23.5-3.3l-0.1,1.6c6.1,3.3,13.8,7.2,23.7,11.7v32.3c0,13.4,3.5,22.8,25.7,24.4c0.3-6.6,1.3-11.7,3.8-14.7
			c2.5-3,5.6-5.3,14.1-6.8V745c0,0-16.4,1-20.1,1c-2.3,0-3-1.2-3-2.9v-22.8c5.6,2.3,11.7,4.8,18.3,7.4c0.9,1.9,2.6,3.2,4.3,3.6
			l8.8-23.5c-6.3-0.6-17.7-1.9-31.5-3.6v-21.9h30.2l1.2-4h-31.3v-20.6c10.2,1.3,21.1,2.3,31.2,2.9l0.3-1.4
			c-18.9-6.6-42.1-18.5-53.7-26.8l-18.9,16.4c0.1-4.8,0.1-9.7,0.1-14.6l-25.7,2.5c0.1,1.9,1.3,3.6,5,4.2c0.3,13,0.1,25.7-0.9,37.5
			h-14.4l-9.8-11.7c3,0.4,6.5-0.3,9.8-3c0.1-8.5,4.2-17.7,8.9-23.7l-1.2-0.7c-32.3,4-29.4,23.9-18.8,27.1
			c-2.6,1.9-12.1,8.7-18.3,13.7c0.4,1.6,2,2.3,4,2.3h39.2c-1,9.2-2.7,17.9-5.2,25.7c-4-7.6-7.2-15.4-9.5-22.8l-24.1,11
			c0.9,1.6,2.3,2.6,5.8,2.2c4.9,9.4,11.3,18.9,19.2,27.8c-3.2,4.8-7.1,9.1-11.7,12.7c-2.2,1.9-3.3,1.9-4.8-0.4
			c-2.6-3.9-7.1-12-10.1-18.5l-1.3,0.4L1142,745.3z M1200.4,678.2c0.9-8.4,1.3-17.2,1.4-26.1c2,0.4,4.6,0.1,7.9-1
			c3.8,1,8.1,2,12.8,3v24.1H1200.4z M1014.9,630.9c0,0-11.8,9.2-18.9,15.4c0.3,1.6,2,2.3,4,2.3h24.8c5.5,6.1,12,12.3,17.7,16.6
			h-14.7l-8.8-9.5l-17.6,13.6c0.7,1,2.3,2,4.9,2.6v62.9c0.1,1.2,9.5,4.9,16.4,5c-33,6.8-24.1,34.6-6.8,27
			c4.8-9.8,14.7-20.8,22.7-27.4l-1-1c-4,0-7.8,0.3-11.1,0.7v-4.9h23.7v1.6c0,0.7,1,1.7,2.7,2.7l-19,11.8c0.7,1.2,2.2,1.4,4.6,0.9
			c10.7,7.2,32.2,14.6,49.8,16.9l0.9-1.7c-11.4-5.9-23.8-16.6-31.2-25.5c2.7,1,5.9,1.6,9.1,1.6h3v-48h0.6c5,7.1,13.8,17.5,20.8,23.7
			l1.2-0.9c-1.2-7.4-2.2-18.8-2.7-26.8h6.5v55c0,12.7,2.9,21.6,23.1,23.1c0.1-6.2,0.7-10.8,2.7-13.7c1.7-2.9,4.5-5,11.3-6.3v-1.7
			c0,0-12.3,0.7-15.1,0.7c-2,0-2.6-1-2.6-2.5v-54.5h17.5l1.3-4h-43.1l-9.7-9.7l-11.5,11V657l-20.6,8.2h-2.3
			c-0.1-4.5-0.1-11.1-0.1-16.6h23.8l-1.3,1.3c1.2,1.3,2.7,1.6,5.8,1.9c5.6,4.3,14.3,9.2,22.5,13c-11.1,10.5-1,26,11.8,18.3
			c2.2-9.5,9.5-19.9,17-26l-1-0.9c-9.7,0.3-16.7,2-21.8,4.5c-2.6-4.3-5-9.1-6.9-13.1h34.3l1.3-4h-35.5l-10.2-10.1l-11.7,11.1h-49.8
			L1014.9,630.9z M1026.6,712.6h23.7v17.6h-23.7V712.6z M1026.6,690.8h23.7v17.7h-23.7V690.8z M1050.2,669.3v17.5h-23.7v-17.5
			H1050.2z M940.5,708.1l-17.3,13.1c0.9,1,2.6,2.3,5.5,2.9V756c0.1,1.2,9.2,4.9,15.6,4.9h3.2v-8.5h18.5v8.2c0,1.7,8.1,5.8,15.7,5.8
			h2.6v-56.6l-18.9,7.4h-16.4L940.5,708.1z M947.4,721.2h18.5v27.1h-18.5V721.2z M859.4,689.3h24.2v71.4c0,2,8.8,7.1,16.6,7.1h3.9
			v-78.5h21.2l1.2-4h-22.4v-53.1l-25.8,2.5c0.3,2,1.3,3.6,5.3,4.2v46.5h-2l-9.4-12.7c0,0-10.7,8.7-16.9,14.4
			C855.8,688.6,857.4,689.3,859.4,689.3z M920.8,663.7h72.4l1.2-4h-52.2l-9.1-11.7c0,0-10.1,7.9-16.2,13.4
			C917.2,662.9,918.8,663.7,920.8,663.7z M964.7,654.3c1.2-7.8,5.6-15.9,10.1-20.8l-0.9-0.7C929.4,631.5,946.1,666.5,964.7,654.3z
			 M928.5,701.3h57.3l1.2-4h-37.4l-8.9-11.5c0,0-10.1,7.8-16,13.3C925,700.6,926.5,701.3,928.5,701.3z M949.6,678.4l-8.9-11.5
			c0,0-10.1,7.8-16,13.3c0.4,1.6,1.9,2.3,3.9,2.3h57.3l1.2-4H949.6z M744.7,734.9c-8.7,6.2-18.9,10.5-29.7,14.1l0.3,1.6
			c8.5,1.6,14.9,7.8,18.2,17.5c9.5-5.9,17.3-12.4,23.4-20.9c11.7,9.5,26.8,16.9,46.9,21.5l0.9-1.6c-17.9-7.9-31.2-18.9-40.5-32.5
			c4.9-10.7,8.2-24.1,10.2-41.7h4.6c0.1,24.8,3.3,55.8,36.9,75l1.3-1c-17-21.4-19.2-48.2-19.3-73.3l0.6-0.1c3.9,3,8.4,5.8,13.1,8.1
			c-21.8,11.3-9.5,30.6,2.5,21.2c0.9-6.1,3.5-12.7,6.5-18.3v58.1c0,1.2,6.1,5.8,15.3,5.8h3.5v-55.7c5,4,10.7,7.6,16.6,10.8l1.2-1.6
			c-13.6-14.4-25.2-36.1-30.4-55.1h26.3l1.3-4h-27l-10-10L800.2,667c0.9,1.6,2.2,2,5.5,2.3c3.5,8.4,8.5,16.7,14.7,24.7v4
			c-1.6,0.6-3.2,1-4.6,1.6c-2.3-4.8-4.6-11.3-6.6-17.7l-11.4,6.9v-41l-21.8,7.5h-6.6v-22.8l-24.8,2c0.3,2,1.3,3.5,5.3,4.2v16.6h-8.4
			l-9.2-9.5l-16.4,15.4c1.2,1.3,2.6,1.7,5.6,1.9c4.8,5.5,13,12.3,20.1,16.2l1.3-0.9c-1.2-5.5-2.2-13.1-2.6-19h9.7v29.6h-1.6
			l-10.5-10.5L720,693.9c1,1.7,2.5,2.2,5.9,2.6C730,711,735.8,724,744.7,734.9z M769.4,688.9v-29.6h9.5v29.6H769.4z M747.2,692.9
			H772c-3,12.8-8.1,22.8-14.6,30.6C752.6,714.1,749.3,703.9,747.2,692.9z M843.8,631c-43.3,2.6-25.5,35.6-8.1,22.7
			c0.9-7.9,4.9-16.4,9.1-21.9L843.8,631z M596.7,735.6c1.3-15.6,7.5-32.3,13.6-46.2l-1.4-0.7C559.8,712.6,577.2,753.4,596.7,735.6z
			 M592.9,650.1L575.1,667c1.2,1.3,2.6,1.7,5.8,1.9c5.5,5.8,14.9,13.6,22.5,18l1-0.9c-1-6.2-2-14.9-2.5-21.5h40.4
			c8.4,11.8,18.3,21.4,29.6,28.6l1.6-1.2c-8.9-14.6-18-37.9-22.5-60.3l-26.5,9.8c0.7,1.9,2.7,3,6.1,2.7c2.7,5.9,5.8,11.3,9.1,16.3
			h-36.2L592.9,650.1z M676.9,679.1v83.1c0.3,1.4,8.8,5.8,17,5.8h3.9v-74.6c5.2,5.3,10.8,10.2,16.9,14.4l1.6-1
			c-11.4-18.5-22.8-47.5-27.8-75.6l-27.7,8.2c0.7,1.9,2.6,3.2,5.9,3c4.3,11.4,9.4,21.4,15,30.3l-9.2,3.5
			C672.9,677.5,674,678.5,676.9,679.1z M613.6,672v72.6c0,14,3,21.6,25.4,23.7c0.6-6.8,1.3-11.7,3.8-14.9c2.5-3.3,5.5-5.5,13.1-6.9
			v-1.9c0,0-15.6,0.9-18.8,0.9c-2.2,0-2.9-0.7-2.9-2.3V697c1,0.4,2.2,0.7,3.8,0.7c8.8,19.6,20.8,34.8,34.9,44.9l1.7-1.2
			c-7.1-13.4-14-34.5-17.3-54.4l-23.1,7.1v-28.3l-25.7,2.2C608.8,670.1,610.3,671.4,613.6,672z M456.6,670.7c0,0-12,8.7-19.2,14.7
			c0.3,1.6,2,2.3,4.2,2.3h75.6c1.7,2.7,3.6,5.5,5.5,8.1l-6.3,2.3h-37.7l-9.1-9.8l-18.3,14c0.9,1,2.5,2.2,5,2.7v57.9
			c0.1,1.2,10.4,5,17.3,5h3.6v-10.5h41.1v5.2c0,1.4,6.2,5.9,16.7,5.9h3.9v-55c9.5,8.5,20.8,15.9,33.9,21.9l1.3-1.4
			c-16-12-28.4-28.3-37.2-46.3h33.9l1.2-4h-36.9c-1.9-4.3-3.6-8.9-5.2-13.4h31l1.2-4h-33.5c-1.3-4-2.3-8.2-3.3-12.4
			c13.6,0.4,27.3,0.6,40,0.3l0.3-2.2c-33.3-4-76.5-13-98.5-20.6l-17.6,18c1.7,1.4,5.2,1.4,10.2-0.6c12,1.6,26.8,3,42.8,4
			c1.3,4.6,2.6,9.1,4.3,13.4h-31.5l-10.1-12.4c0,0-11.5,8.2-18.6,14.1c0.4,1.6,2,2.3,4,2.3h57.7c1.9,4.6,4,9.1,6.5,13.4h-47.8
			L456.6,670.7z M518.4,715.6h-41.1v-13.4h41.1V715.6z M518.4,734.2h-41.1v-14.6h41.1V734.2z M518.4,753.4h-41.1v-15.1h41.1V753.4z
			 M297.1,753.2c0,7.9,6.8,12,31.7,12h14.4c16.3,0,19.9-3.3,19.9-16.4v-34.3h8.1c2.7,29.9,20.3,46.9,61.7,53.5l0.4-1.6
			c-27.3-10.5-37.1-25.7-39.1-47.3c3.3,1.9,8.8,3.8,14.3,3.8h3.2v-89.7l-21.8,8.5h-47.8l-9.4-10.4l-18.8,14.6c1,1.3,2.7,2.5,5.8,3.2
			v67.5c0.1,1.2,10.2,5.2,17.5,5.2h3.5v-7.2h2.2v1v28.4c0,1.9-0.6,2.6-4.5,2.6h-12.1c-3.6,0-7.2,0-9.2-0.1c-2-0.1-2.7-0.6-3.9-2.2
			c-1.9-2.7-4.3-9.5-7.9-19h-1.4l-0.4,19.9C298.2,747,297.1,749.3,297.1,753.2z M391.1,664.2h-50.4v-18.6h50.4V664.2z M391.1,687.2
			h-50.4v-18.9h50.4V687.2z M340.8,710.4v-19.2h50.4v19.2H340.8z M213.4,719.3c0.3-10.4,4.5-21.6,9.5-29.7l-1.2-0.7
			C176.2,699.4,195.7,734.8,213.4,719.3z M173.6,648.6l-17.5,15.6c1.2,1.4,3,2.5,6.5,3c1,60.6,2.7,84,11.3,92.8
			c5.6,5.6,12.3,8.1,23.1,8.1c0-6.8,0.9-11.5,3.5-14.4c2.7-3.2,8.1-5.8,15.6-7.4l-0.1-1.7c-6.9,0.6-16.7,1.2-20.5,1.2
			c-2.5,0-3.9-0.6-5.3-1.9c-5.2-4.6-6.5-31.2-7.4-80.2h22.2c7.5,12.4,16.3,22.5,26.4,30.4l0.9-0.6v58.4c0.1,1.3,9.5,5.3,16.3,5.3
			h3.2v-11.4h17.7v10c0,2.2,7.4,6.6,15.7,6.6h3V652.3l-18.2,7.5c-0.7-8.1-1.3-19.5-1.7-27.7l-27.8,6.6c0.7,2.6,2.7,3.6,6.2,3.6
			c4.3,5,10.8,12.3,16,17.9h-9.5l-8.9-10l-17.7,14c1,1.3,2.9,2.5,5.8,3.2v24.1c-6.8-15.3-13.7-38.5-16.9-59.7l-26.8,7.8
			c0.6,1.9,2.5,3,5.8,3c2.5,6.1,5.2,11.7,8.2,17h-18L173.6,648.6z M251.6,704h17.7v37.8h-17.7V704z M251.6,664.2h17.7V700h-17.7
			V664.2z"/>
	</g>
</g>
</svg>
