<?xml version="1.0" encoding="utf-8"?>
<!-- Generator: Adobe Illustrator 25.2.3, SVG Export Plug-In . SVG Version: 6.00 Build 0)  -->
<svg version="1.1" id="圖層_1" xmlns="http://www.w3.org/2000/svg" xmlns:xlink="http://www.w3.org/1999/xlink" x="0px" y="0px"
	 viewBox="0 0 65 65" style="enable-background:new 0 0 65 65;" xml:space="preserve">
<style type="text/css">
	.st0{fill:#C3A0BC;}
	.st1{fill:#FFEEEE;}
</style>
<g>
	<path class="st0" d="M54.8,17.4c0-3-2.5-5.5-5.5-5.5c-0.8,0-1.6,0.2-2.3,0.5l0-1.1c0-3-2.6-5.5-5.7-5.5c-0.9,0-1.8,0.2-2.6,0.6
		c-0.3-2.8-2.8-5-6-5c-3.1,0-5.7,2.2-6,5c-0.8-0.4-1.7-0.6-2.6-0.6c-3.2,0-5.7,2.5-5.7,5.5V23c-3.5-1.8-6.6,0.5-7.8,2l-0.4,0.5
		l0,0.6c0,0.1,0.7,9.7,2.4,20.9c1.6,10.5,9.8,16.7,22,16.7c0.6,0,1.2,0,1.8,0c6.9-0.3,11.3-3.7,13.7-6.5c2.9-3.4,4.7-7.8,4.7-12
		v-7.2c0.1-0.2,0.1-0.3,0.1-0.5V17.4z"/>
	<path class="st1" d="M51.5,45.1c0,3.4-1.4,7-3.9,9.8c-2,2.3-5.6,5.1-11.4,5.4c-5.5,0.3-18.4-0.6-20.4-13.9
		c-1.4-9.3-2.1-17.5-2.3-19.9c0.7-0.6,2-1.5,3.6-0.6c2.2,1.3,3.7,7.9,4.3,10.7c0.2,0.8,0.3,1.4,0.5,1.9l0.3,1l1,0.2
		c7.6,1.1,7.6,9,7.6,9.4c0,0.9,0.7,1.6,1.6,1.6c0,0,0,0,0,0c0.9,0,1.6-0.7,1.6-1.6c0-0.1,0-2.8-1.2-5.7c-1.1-2.5-3.4-5.7-8.1-6.8
		c-0.1-0.2-0.1-0.5-0.2-0.8c-0.8-3.3-1.6-6.8-3-9.4c0,0,0,0,0-0.1V11.3c0-1.3,1.1-2.3,2.5-2.3s2.5,1,2.5,2.3v20
		c0,0.9,0.7,1.6,1.6,1.6c0.9,0,1.6-0.7,1.6-1.6v-20c0-0.1,0-0.3,0-0.4l0.1-4c0-1.2,1.3-2.3,2.8-2.3c1.5,0,2.8,1.1,2.8,2.3L35.5,27
		v4.6c0,0.9,0.7,1.6,1.6,1.6c0.9,0,1.6-0.7,1.6-1.6V11.3c0-1.3,1.1-2.3,2.5-2.3c1.4,0,2.5,1,2.5,2.3l0,5.6c0,0.2,0,0.3,0,0.5l0,0.6
		l0.1,13.3c0,0.9,0.7,1.6,1.6,1.6c0,0,0,0,0,0c0.9,0,1.6-0.7,1.6-1.6L47,17.1c0.2-1.1,1.1-2,2.3-2c1.1,0,2,0.8,2.2,1.8
		c0,0.1,0,0.2,0,0.3V45.1z"/>
</g>
</svg>
