<?xml version="1.0" encoding="utf-8"?>
<!-- Generator: Adobe Illustrator 25.2.3, SVG Export Plug-In . SVG Version: 6.00 Build 0)  -->
<svg version="1.1" id="圖層_1" xmlns="http://www.w3.org/2000/svg" xmlns:xlink="http://www.w3.org/1999/xlink" x="0px" y="0px"
	 viewBox="0 0 65 65" style="enable-background:new 0 0 65 65;" xml:space="preserve">
<style type="text/css">
	.st0{fill:#C3A0BC;}
	.st1{fill:#FFEEEE;}
	.st2{fill:#FF6EEE;}
</style>
<g>
	<path class="st0" d="M53.9,20.5c0-3-2.5-5.5-5.5-5.5c-1.2,0-2.4,0.4-3.3,1.1c-1-1.4-2.6-2.3-4.5-2.3c-1.4,0-2.7,0.5-3.7,1.4
		c-1-1.1-2.5-1.9-4.1-1.9c-2,0-3.8,1.1-4.7,2.7c-0.8-0.5-1.9-0.8-3-0.8H25c-3,0-5.4,2.2-5.4,5v10h-3.4c-1.3,0-4.6,1-4.6,5.5v8.6
		c0,0.1,0,0.1,0,0.2c0,0.2,0.6,4.8,3.6,9.4c2.8,4.3,8.2,9.5,18.3,9.5c10.1,0,15.1-4.5,17.6-8.2c2.7-4.1,2.9-8.1,2.9-8.3
		c0,0,0-0.1,0-0.1V31.6c0-0.2,0-0.4-0.1-0.5c0.1-0.3,0.1-0.6,0.1-1V20.5z"/>
	<path class="st1" d="M48.4,18.2c1.3,0,2.3,1,2.3,2.3V30c0,1.3-1,2.3-2.3,2.3c-1.3,0-2.3-1-2.3-2.3v-9.6
		C46.1,19.2,47.2,18.2,48.4,18.2z"/>
	<path class="st1" d="M40.7,17c1.3,0,2.3,1,2.3,2.3v1.2V30v1.1c0,1.3-1,2.3-2.3,2.3h0c-1.3,0-2.3-1-2.3-2.3V19.2
		C38.4,18,39.4,17,40.7,17z"/>
	<path class="st1" d="M30.6,18.8c0-1.3,1-2.3,2.3-2.3c1.3,0,2.3,1,2.3,2.3v0.4v11.9v1.3c0,1.3-1,2.3-2.3,2.3h0c-1.3,0-2.3-1-2.3-2.3
		v-2.5v-9.7V18.8z"/>
	<path class="st1" d="M22.8,20.2c0-1,1-1.8,2.2-1.8h0.2c1.2,0,2.2,0.8,2.2,1.8v9.7v0.3h-4.6V20.2z"/>
	<path class="st2" d="M16.2,33.4C16.2,33.4,16.2,33.4,16.2,33.4L16.2,33.4z"/>
	<path class="st1" d="M48.4,53.4c-2.9,4.5-8,6.8-14.9,6.8c-6.9,0-12.1-2.7-15.5-7.9c-2.4-3.7-3-7.5-3.1-8.1v-8.5c0-2,1-2.3,1.4-2.4
		h10.9c0,0.4,0,1-0.5,1.9c-0.9,1.8-4,2.6-5.1,2.8c-0.8,0.1-1.4,0.8-1.4,1.7c0.1,0.8,0.7,1.5,1.6,1.5c8.6,0,12.7,6.5,12.9,6.8
		c0.5,0.8,1.4,1,2.2,0.5c0.8-0.5,1-1.4,0.5-2.2c-0.2-0.3-3.3-5.3-9.7-7.4c0.8-0.6,1.4-1.3,1.9-2.3c0,0,0-0.1,0-0.1
		c0.9,0.8,2.1,1.2,3.4,1.2c1.9,0,3.5-0.9,4.5-2.4c0.9,0.7,2,1.1,3.3,1.1c1.8,0,3.4-0.9,4.4-2.2c0.9,0.7,2.1,1.2,3.4,1.2
		c0.8,0,1.6-0.2,2.3-0.5v11.7C50.7,47.1,50.4,50.2,48.4,53.4z"/>
</g>
</svg>
