<?xml version="1.0" encoding="utf-8"?>
<!-- Generator: Adobe Illustrator 25.2.3, SVG Export Plug-In . SVG Version: 6.00 Build 0)  -->
<svg version="1.1" id="圖層_1" xmlns="http://www.w3.org/2000/svg" xmlns:xlink="http://www.w3.org/1999/xlink" x="0px" y="0px"
	 viewBox="0 0 163 198" style="enable-background:new 0 0 163 198;" xml:space="preserve">
<style type="text/css">
	.st0{fill:#C3A0BC;}
	.st1{fill:#DCD961;}
	.st2{fill:#4C3659;}
</style>
<path class="st0" d="M159.9,47h-13.1l0.1-27.6c0-0.8-0.3-1.6-0.9-2.1c-0.6-0.6-1.3-0.9-2.1-0.9H93.2L77.7,0.9
	C77.1,0.3,76.3,0,75.5,0H3.4c-1.7,0-3,1.3-3,3v128.7c0,8.8,6.8,16,15.5,16.6c0.2,0,0.3,0,0.5,0H149c7.7,0,13.9-6.2,13.9-13.9V50
	C162.9,48.3,161.5,47,159.9,47z"/>
<path class="st1" d="M17,142.4c-5.9,0-10.6-4.8-10.6-10.6V6h67.9l15.5,15.5c0.6,0.6,1.3,0.9,2.1,0.9h48.9L140.7,47h-9.9V36
	c0-1.1-0.9-2-2-2h-111c-1.1,0-2,0.9-2,2v93.5c0,1.1,0.9,2,2,2h9.8v0.2C27.6,137.6,22.8,142.4,17,142.4z"/>
<g>
	<path class="st0" d="M32.8,183.5c0,0,2.7,1.9,4.3,3.3c-0.1,0.4-0.5,0.6-1.1,0.6H23.8v9.1c0,0.3-1.9,1-3.6,1h-0.8v-10.1H6.5
		l-0.3-1.1h13.2v-2.9c-0.5,0.3-1.5,0.7-2.6,0.7h-0.5v-9.6c-0.2,0.2-0.6,0.2-1.1,0.2c-1.5,1.9-3.9,4.5-6.3,6.4
		c1.3-0.1,2.8-0.3,4.4-0.4c-0.2-1-0.4-1.9-0.7-2.7l0.5-0.2c5.5,3.8,2.2,8.2,0.2,5.8c0.1-0.6,0.1-1.3,0-2c-1.3,0.8-3.3,1.8-5.3,2.7
		c-0.2,0.3-0.5,0.5-0.7,0.6l-1.6-3.6c0,0,0.6-0.2,1-0.3c1.1-1,2.4-2.8,3.5-4.7c-0.8,0.4-1.8,0.8-2.7,1.3c-0.2,0.2-0.4,0.4-0.6,0.5
		l-1.6-3.5c0,0,0.6-0.2,0.8-0.3c1.3-1.2,2.9-4.8,3.3-6.6l1.6,0.7l-0.3-2.1H4.5l-0.3-1.1h6.6l-0.5-3.5l5.6,0.4c0,0.5-0.3,0.9-1.1,1.1
		l0.3,2.1h1.5l2-2.7c0,0,2.3,1.9,3.5,3.2c-0.1,0.4-0.5,0.6-1,0.6h-5.9l0.2,1.2c-0.6,0.7-1.9,1.1-3.5,1.2l2.1,0.9
		c-0.2,0.3-0.6,0.6-1.3,0.5c-1.1,1.4-2.9,3.2-4.6,4.5c1,0,2.1-0.1,3.2-0.2c0.5-1,0.9-1.9,1.2-2.6l3.9,2.3v-3.9l2.7,1.1
		c0.1-1.1,0.2-2.6,0.3-3.5l4.7,0.7c-0.1,0.6-0.6,0.9-1.4,1c-0.5,0.6-1.3,1.5-2,2.2H23l1.6-1.7l3.3,2.5c-0.2,0.2-0.6,0.5-1.1,0.6v9.6
		c0,0.3-1.1,0.8-2.1,1.1l0.5,0c-0.1,0.5-0.4,0.9-1.4,1v1.5h6.7L32.8,183.5z M4.3,195.7c3.2-1.6,7.2-4.5,10.1-7.7l4.3,3.5
		c-0.3,0.4-0.8,0.5-1.6,0.3c-3.7,2.5-9,4-12.7,4.5L4.3,195.7z M19.7,183.1c0,0.1-0.1,0.2-0.2,0.2l3.8,0.4V183h-3.6V183.1z
		 M19.7,172.9v3.8h3.6v-3.8H19.7z M23.3,177.7h-3.6v4.1h3.6V177.7z M35.5,162.5c0,0,2.3,1.9,3.6,3.2c-0.1,0.4-0.5,0.6-1,0.6h-6.5
		l-0.2,1.2l4,1.7c-0.2,0.3-0.6,0.6-1.3,0.6c-1.1,1.4-2.7,3.1-4.2,4.3c0.9,0,1.8-0.1,2.9-0.2c0.5-1,0.9-1.9,1.1-2.6l4.2,2.5
		c-0.2,0.3-0.6,0.6-1.4,0.5c-1.6,1.9-4.1,4.5-6.4,6.3c1.2-0.1,2.7-0.2,4.2-0.3c-0.1-1-0.3-1.9-0.5-2.6l0.5-0.2
		c5.8,3.7,2.1,8.2,0,5.6c0.1-0.6,0.1-1.2,0.1-1.8c-1.3,0.6-3.1,1.4-4.8,2.2c-0.3,0.4-0.5,0.6-0.8,0.8l-1.6-3.7c0,0,0.7-0.2,1-0.4
		c1-0.9,2.3-2.6,3.3-4.3c-0.7,0.3-1.4,0.7-2.2,1.1c-0.2,0.3-0.5,0.5-0.7,0.6l-1.6-3.5c0,0,0.5-0.2,0.8-0.3c1-1,2.1-3.4,2.7-5.3
		c-0.9,0.3-2.3,0.4-3.6,0.1l0.4-2.4h-4.3l-0.3-1.1h4.8l0.6-3.5l5.5,0.9c-0.1,0.5-0.4,0.9-1.4,1l-0.3,1.7h1.8L35.5,162.5z
		 M24.8,188.9c14.1-0.2,13.5,8.5,8.7,7.3c-1.9-2.4-5.9-5.4-9-6.9L24.8,188.9z"/>
	<path class="st0" d="M73,186.1c0,0,2.9,2.2,4.8,3.7c-0.1,0.4-0.5,0.6-1.1,0.6H62v6.1c0,0.2-1.4,1.1-3.8,1.1h-0.8v-7.1H42.1
		l-0.3-1.1h15.6v-3.7h-5.8v0.8c0,0.4-2,1.4-3.8,1.4h-0.6V173c-0.4,0.1-0.8,0.1-1.1,0.1h-0.6v-10.6l4.3,1.7H54l1.9-2l4,3
		c-0.2,0.3-0.7,0.6-1.4,0.8v5.4c0,0.3-2.1,1.1-3.5,1.1h-0.6v-1.5h-4.8v0.9c0,0.2-0.6,0.6-1.6,1l3.9,1.5h15.4l2.1-2.2l4.3,3.2
		c-0.2,0.3-0.7,0.6-1.4,0.8v9.8c0,0.3-2.2,1.3-3.8,1.3h-0.8v-1.4H62v3.7h8.4L73,186.1z M49.6,165.3v4.6h4.8v-4.6H49.6z M51.6,175.3
		v4h5.8v-4H51.6z M57.4,184.6v-4.2h-5.8v4.2H57.4z M65.6,171.5c0,0.4-1.9,1.3-3.7,1.3h-0.6v-10.4l4.4,1.7h4.1l1.9-2.1l4.1,3.1
		c-0.2,0.3-0.8,0.6-1.5,0.8v5.5c0,0.3-2.1,1.1-3.5,1.1h-0.7v-1.6h-4.6V171.5z M62,175.3v4h5.8v-4H62z M67.8,184.6v-4.2H62v4.2H67.8z
		 M65.6,165.3v4.6h4.6v-4.6H65.6z"/>
	<path class="st0" d="M82.1,191.7c0-1.8,1.4-3.2,3.2-3.2c1.8,0,3.1,1.4,3.1,3.2c0,1.7-1.4,3.1-3.1,3.1
		C83.4,194.8,82.1,193.3,82.1,191.7z"/>
	<path class="st0" d="M114.5,193v1.2l-7.5,0.4l-0.3-2.6c-1.5,1.8-3.5,2.7-5.9,2.7c-5,0-8.7-4-8.7-10.6c0-6.9,4-11,9.2-11
		c2.1,0,3.9,0.8,5.5,2.7v-9.9l-3.3-0.3v-1.1l7.7-1.6l0.5,0.3l-0.1,6v23.5L114.5,193z M106.6,177c-1.3-1.1-2.4-1.4-3.6-1.4
		c-3,0-5.6,2.1-5.6,8.4c0,6.1,2.3,8.4,5.5,8.4c1.4,0,2.5-0.4,3.7-1.5V177z"/>
	<path class="st0" d="M117,183.9c0-6.8,4.7-10.8,10.3-10.8c5.5,0,10.3,3.9,10.3,10.8s-4.5,10.9-10.3,10.9
		C121.3,194.8,117,190.7,117,183.9z M132.2,184c0-6.3-1.8-9.4-4.9-9.4c-3.2,0-4.9,3.1-4.9,9.4c0,6.3,1.8,9.4,4.9,9.4
		C130.3,193.4,132.2,190.3,132.2,184z"/>
	<path class="st0" d="M153.7,174.8c-0.5-0.2-1-0.2-1.5-0.2c-3.6,0-6.2,3.3-6.2,9c0,5.5,2.8,8.7,6.9,8.7c2.3,0,4.1-1,5.5-2.9l0.8,0.4
		c-1.6,3.2-4.3,5-8.3,5c-5.8,0-10.1-4-10.1-10.8c0-6.9,5-10.9,10.8-10.9c4,0,7.1,2.4,7.6,5.7c-0.3,1.2-1.1,1.8-2.2,1.8
		c-1.4,0-2.5-0.8-2.7-2.9L153.7,174.8z"/>
</g>
<path class="st0" d="M18.4,22h35c1.1,0,2-0.9,2-2s-0.9-2-2-2h-35c-1.1,0-2,0.9-2,2S17.2,22,18.4,22z"/>
<path class="st2" d="M30.6,47c-1.7,0-3,1.3-3,3v77.5h-7.8V38h107v9H30.6z"/>
<path class="st1" d="M156.9,134.5c0,4.3-3.5,7.9-7.9,7.9H29.8c2.4-2.9,3.8-6.6,3.8-10.6V53h110.1c0,0,0,0,0,0h13.1V134.5z"/>
</svg>
