<?xml version="1.0" encoding="utf-8"?>
<!-- Generator: Adobe Illustrator 25.2.3, SVG Export Plug-In . SVG Version: 6.00 Build 0)  -->
<svg version="1.1" id="圖層_1" xmlns="http://www.w3.org/2000/svg" xmlns:xlink="http://www.w3.org/1999/xlink" x="0px" y="0px"
	 viewBox="0 0 354 315" style="enable-background:new 0 0 354 315;" xml:space="preserve">
<style type="text/css">
	.st0{fill:#EBFF28;}
	.st1{fill:#4C3659;}
</style>
<g>
	<path class="st0" d="M44.1,303.2c-11.7,0-22.1-6-27.9-16.1c-5.8-10.1-5.8-22.2,0-32.3L147.1,28c5.8-10.1,16.3-16.1,27.9-16.1
		c11.7,0,22.1,6,27.9,16.1l131,226.8c5.8,10.1,5.8,22.2,0,32.3c-5.8,10.1-16.3,16.1-27.9,16.1H44.1z"/>
	<path class="st1" d="M175,23.3c7,0,14,3.5,18,10.4l131,226.8c8,13.8-2,31.1-18,31.1H44.1c-16,0-26-17.3-18-31.1L157,33.7
		C161,26.8,168,23.3,175,23.3 M175,0.3c-15.8,0-30,8.2-37.9,21.9L6.2,249c-7.9,13.7-7.9,30.1,0,43.8c7.9,13.7,22.1,21.9,37.9,21.9
		H306c15.8,0,30-8.2,37.9-21.9c7.9-13.7,7.9-30.1,0-43.8l-131-226.8C205,8.5,190.8,0.3,175,0.3L175,0.3z"/>
</g>
<path class="st1" d="M195.8,116.9c0,12-3.2,29.9-11.8,66.7c0,0.1,0,0.1,0,0.2l-5.1,31.2c-0.2,1.5-1.5,2.6-3,2.6h-1.6
	c-1.5,0-2.8-1.1-3-2.6l-4.9-31.2c0-0.1,0-0.1,0-0.2c-8.4-36.8-11.8-54.7-11.8-66.7c0-15.5,8-23.9,20.6-23.9
	C187.6,93,195.8,101.5,195.8,116.9z M154.5,257.2c0-11.4,9-20.4,20.4-20.4c11.8,0,20.4,9,20.4,20.4c0,11.2-8.6,20-20.4,20
	C163.5,277.2,154.5,268.4,154.5,257.2z"/>
</svg>
