<?xml version="1.0" encoding="utf-8"?>
<!-- Generator: Adobe Illustrator 25.2.3, SVG Export Plug-In . SVG Version: 6.00 Build 0)  -->
<svg version="1.1" id="img" xmlns="http://www.w3.org/2000/svg" xmlns:xlink="http://www.w3.org/1999/xlink" x="0px" y="0px"
	 viewBox="0 0 361 268" style="enable-background:new 0 0 361 268;" xml:space="preserve">
<style type="text/css">
	.st0{fill:#C3A0BC;}
	.st1{fill:none;stroke:#C3A0BC;stroke-width:2;stroke-linecap:round;stroke-miterlimit:10;}
	.st2{fill:none;stroke:#C3A0BC;stroke-width:4;stroke-linecap:round;stroke-miterlimit:10;}
</style>
<g>
	<path class="st0" d="M47.4,52.5c0,6.1,0,12.8,0.2,19.6l8.3,0.8v2.8H29.1v-2.8l7.5-0.7c0.1-7.7,0.1-15.6,0.1-23.5V45
		c0-7.8,0-15.7-0.1-23.5l-7.5-0.7V18h23.1c16.5,0,23.4,6.6,23.4,17.1c0,9.7-6.6,17.6-24.6,17.6h-3.6V52.5z M47.7,21
		c-0.2,7.9-0.2,15.9-0.2,24v4.6h3.8c9.8,0,14-5.9,14-14.5C65.3,25.9,61,21,51.8,21C51.8,21,47.7,21,47.7,21z"/>
	<path class="st0" d="M96.5,44.4c2.6-7.6,7.8-11.7,12.5-11.7c3.2,0,6.1,1.3,7,5c-0.2,3.6-1.7,5.9-5.3,5.9c-2.6,0-4.2-1.4-6.1-3.8
		l-0.9-0.9c-3.2,2.6-5.3,6-7,11.5v6.9c0,4.2,0.1,10.6,0.1,14.9l7.1,0.9v2.4H80.5v-2.4l5.7-0.7c0.1-4.4,0.1-10.9,0.1-15.2v-5.6
		c0-5.1-0.1-7.9-0.3-11.6l-6.1-0.7v-2l14.9-4.8l1.1,0.7L96.5,44.4z"/>
	<path class="st0" d="M128.8,54.6c0.3,11.9,6.2,17.1,13.8,17.1c5.6,0,9-2.3,11.7-6l1.6,1.1c-3.1,6.3-9,10-16.8,10
		c-12.2,0-21.1-7.9-21.1-22.1c0-14,10.2-22,21.1-22c10.7,0,17.1,7.2,17.1,17c0,2-0.1,3.4-0.6,4.8h-26.8V54.6z M142.2,51.8
		c3.6,0,4.4-1.8,4.4-5.8c0-6.3-3.3-10.3-8.1-10.3c-4.9,0-9.2,4.8-9.7,16.1C128.8,51.8,142.2,51.8,142.2,51.8z"/>
	<path class="st0" d="M183.7,50.6c8.2,2.8,11.6,6.9,11.6,12.9c0,7.9-6.3,13.3-17.8,13.3c-5.6,0-10-1.2-14.5-3.6l0.3-10.1h4.6
		l2.2,9.5c2,0.9,4.2,1.2,6.8,1.2c6.2,0,9.5-2.4,9.5-6.7c0-3.4-1.8-5.6-7.9-7.7l-4.3-1.4c-6.7-2.1-10.8-5.9-10.8-12.1
		c0-7.5,5.9-13.2,16.5-13.2c5,0,8.8,1.2,13.1,3.6l-0.6,9.3h-4l-2.4-8.5c-1.9-0.9-3.7-1.4-5.9-1.4c-5.1,0-8.1,2.4-8.1,6.3
		c0,3.2,1.7,5.3,7.7,7.3L183.7,50.6z"/>
	<path class="st0" d="M222.4,50.6c8.2,2.8,11.6,6.9,11.6,12.9c0,7.9-6.3,13.3-17.8,13.3c-5.6,0-10-1.2-14.5-3.6l0.3-10.1h4.6
		l2.2,9.5c2,0.9,4.2,1.2,6.8,1.2c6.2,0,9.5-2.4,9.5-6.7c0-3.4-1.8-5.6-7.9-7.7l-4.3-1.4c-6.8-2-10.9-5.8-10.9-12
		c0-7.5,5.9-13.2,16.5-13.2c5,0,8.8,1.2,13.1,3.6l-0.6,9.3h-4l-2.4-8.5c-1.9-0.9-3.7-1.4-5.9-1.4c-5.1,0-8.1,2.4-8.1,6.3
		c0,3.2,1.7,5.3,7.7,7.3L222.4,50.6z"/>
	<path class="st0" d="M250.8,54.6c0.3,11.9,6.2,17.1,13.8,17.1c5.6,0,9-2.3,11.7-6l1.6,1.1c-3.1,6.3-9,10-16.8,10
		c-12.2,0-21.1-7.9-21.1-22.1c0-14,10.2-22,21.1-22c10.7,0,17.1,7.2,17.1,17c0,2-0.1,3.4-0.6,4.8h-26.8L250.8,54.6L250.8,54.6z
		 M264.2,51.8c3.6,0,4.4-1.8,4.4-5.8c0-6.3-3.3-10.3-8.1-10.3c-4.9,0-9.2,4.8-9.7,16.1C250.8,51.8,264.2,51.8,264.2,51.8z"/>
	<path class="st0" d="M330.3,73.2v2.4l-15.3,1l-0.6-5.2c-3.1,3.6-7.1,5.6-12.1,5.6c-10.2,0-17.8-8.2-17.8-21.7
		c0-14.1,8.2-22.5,18.8-22.5c4.3,0,8,1.7,11.2,5.4V18l-6.7-0.6v-2.2l15.7-3.3l1.1,0.7L324.5,25v47.8L330.3,73.2z M314.2,40.6
		c-2.6-2.2-5-3-7.5-3c-6.1,0-11.3,4.3-11.3,17.1c0,12.3,4.8,17.1,11.2,17.1c2.8,0,5.1-0.9,7.6-3.1L314.2,40.6L314.2,40.6z"/>
</g>
<line class="st1" x1="26.2" y1="92" x2="332" y2="92"/>
<g>
	<path class="st0" d="M89,197.5v2.1H69.9v-2.1l5.7-0.7l-3.7-11.5H57.8l-3.5,11.4l5.8,0.7v2.1H46.3v-2.1l5.1-0.7l13.5-41.3H70
		l14.1,41.5L89,197.5z M71.2,183.1l-6.5-20.3l-6.3,20.3H71.2z"/>
	<path class="st0" d="M117.3,130.5H36.7c-11.7,0-21.2,9.5-21.2,21.2v80.6c0,11.7,9.5,21.2,21.2,21.2h80.6c11.7,0,21.2-9.5,21.2-21.2
		v-80.6C138.5,140,129,130.5,117.3,130.5z M45.2,235c-5.6,0-10.2-4.6-10.2-10.2v-71.6c0-5.6,4.6-10.2,10.2-10.2h71.6
		c5.6,0,10.2,4.6,10.2,10.2v71.6c0,5.6-4.6,10.2-10.2,10.2L45.2,235L45.2,235z M35.8,135.5L35.8,135.5c0.5,0.4,3.1,3.3,3.1,3.3
		l2.4,2.8l0,0c-5,2.1-8.6,6.9-8.9,12.6c0,0.1-0.1,0.2-0.2,0.1l-3.6-1.6l-4.3-2l-3.5-1.7c-0.1,0-0.1-0.1-0.1-0.2
		C22,141.5,28.2,135.9,35.8,135.5z M20.7,148.9c-0.1,0.4-0.1,0.8-0.2,1.2C20.6,149.8,20.7,149.4,20.7,148.9z M34.2,249
		c-8.9,0-16.2-7.2-16.2-16.2V230c0,0,0-0.1,0.1-0.1c0.9-0.7,1.9-1.4,2.9-2.1c1.4-0.9,4-2.6,8.9-5.9c0.1-0.1,0.2,0,0.2,0.1v1.3
		c0,8.1,6.6,14.6,14.6,14.6l0,0c0.1,0,0.2,0.1,0.1,0.2c-2.1,2.7-4.1,5.5-6.2,8.2c-0.7,0.8-1.3,1.7-2,2.5l-0.1,0.1L34.2,249L34.2,249
		z M121.5,249.2c0.9-0.2,1.8-0.4,2.7-0.8c0.1,0,0.1-0.1,0.1-0.2l-4.9-7.2l-1.7-2.6l0,0c5.3-0.6,9.7-4.1,11.7-8.8l0,0l1.7,1.7
		l3.3,3.3c0-0.4,0.1-0.7,0.1-1.1C134.5,241.3,128.9,247.8,121.5,249.2z"/>
</g>
<g>
	<path class="st0" d="M286.5,187.3l-0.4,12.7h-33.8v-2.5l24.3-39.3h-17.3l-2.7,9.9h-3.5l0.7-12.4h32v2.6l-24.3,39.3h19l2.9-10.2
		L286.5,187.3L286.5,187.3z"/>
	<path class="st0" d="M322.3,130.5h-80.6c-11.7,0-21.2,9.5-21.2,21.2v80.6c0,11.7,9.5,21.2,21.2,21.2h80.6
		c11.7,0,21.2-9.5,21.2-21.2v-80.6C343.5,140,334,130.5,322.3,130.5z M250.2,235c-5.6,0-10.2-4.6-10.2-10.2v-71.6
		c0-5.6,4.6-10.2,10.2-10.2h71.6c5.6,0,10.2,4.6,10.2,10.2v71.6c0,5.6-4.6,10.2-10.2,10.2L250.2,235L250.2,235z M240.8,135.5
		L240.8,135.5c0.5,0.4,3.1,3.3,3.1,3.3l2.4,2.8l0,0c-5,2.1-8.6,6.9-8.9,12.6c0,0.1-0.1,0.2-0.2,0.1l-3.6-1.6l-4.3-2l-3.5-1.7
		c-0.1,0-0.1-0.1-0.1-0.2C227,141.5,233.2,135.9,240.8,135.5z M225.7,148.9c-0.1,0.4-0.1,0.8-0.2,1.2
		C225.6,149.8,225.7,149.4,225.7,148.9z M239.2,249c-8.9,0-16.2-7.2-16.2-16.2V230c0,0,0-0.1,0.1-0.1c0.9-0.7,1.9-1.4,2.9-2.1
		c1.4-0.9,4-2.6,8.9-5.9c0.1-0.1,0.2,0,0.2,0.1v1.3c0,8.1,6.6,14.6,14.6,14.6l0,0c0.1,0,0.2,0.1,0.1,0.2c-2.1,2.7-4.1,5.5-6.2,8.2
		c-0.7,0.8-1.3,1.7-2,2.5l-0.1,0.1L239.2,249L239.2,249z M326.5,249.2c0.9-0.2,1.8-0.4,2.7-0.8c0.1,0,0.1-0.1,0.1-0.2l-4.9-7.2
		l-1.7-2.6l0,0c5.3-0.6,9.7-4.1,11.7-8.8l0,0l1.7,1.7l3.3,3.3c0-0.4,0.1-0.7,0.1-1.1C339.5,241.3,333.9,247.8,326.5,249.2z"/>
</g>
<line class="st2" x1="165" y1="189" x2="194" y2="189"/>
</svg>
