<?xml version="1.0" encoding="utf-8"?>
<!-- Generator: Adobe Illustrator 25.2.3, SVG Export Plug-In . SVG Version: 6.00 Build 0)  -->
<svg version="1.1" xmlns="http://www.w3.org/2000/svg" xmlns:xlink="http://www.w3.org/1999/xlink" x="0px" y="0px"
	 viewBox="0 0 400 400" style="enable-background:new 0 0 400 400;" xml:space="preserve">
<style type="text/css">
	.st0{display:none;}
	.st1{fill:none;stroke:#FFEEEE;stroke-width:18;stroke-linecap:round;stroke-miterlimit:10;}
	.st2{fill:none;stroke:#FFEEEE;stroke-width:18;stroke-linecap:round;stroke-linejoin:round;stroke-miterlimit:10;}
	.st3{fill:#FFEEEE;}
</style>
<g id="圖層_1" class="st0">
	
		<image style="display:inline;overflow:visible;" width="512" height="512" xlink:href="D0A162C2.jpg"  transform="matrix(1 0 0 1 -55.6493 -55.8626)">
	</image>
</g>
<g id="圖層_2">
	<g>
		<path class="st1" d="M310.2,354.8C279.2,376.9,241.1,390,200,390C95.1,390,10,304.9,10,200S95.1,10,200,10
			c39.4,0,76,12,106.4,32.5"/>
		<path class="st1" d="M339.3,70.8C370.8,104.7,390,150.1,390,200c0,52.1-21,99.3-55,133.6"/>
		<path class="st2" d="M275.4,136.8c14.8,17.2,23.7,39.5,23.7,64c0,24.1-8.7,46.2-23.1,63.3"/>
		<path class="st2" d="M310.2,102c23.6,26.1,38,60.8,38,98.8c0,36.7-13.4,70.2-35.6,96"/>
		<g>
			<path class="st3" d="M209,119v167.1l-63.2-35.2H91.5v-99.2h54.2L209,119 M209,101c-2.8,0-5.7,0.7-8.3,2l-59.3,30.6H91.5
				c-9.9,0-18,8.1-18,18v99.2c0,9.9,8.1,18,18,18h49.5l59.1,33c2.7,1.5,5.7,2.3,8.8,2.3c3.2,0,6.3-0.8,9.1-2.5
				c5.5-3.2,8.9-9.1,8.9-15.5V119c0-6.3-3.3-12.1-8.6-15.4C215.5,101.9,212.2,101,209,101L209,101z"/>
		</g>
	</g>
</g>
</svg>
